<?xml version="1.0" encoding="UTF-8" standalone="no"?>
<svg
   xmlns:dc="http://purl.org/dc/elements/1.1/"
   xmlns:cc="http://creativecommons.org/ns#"
   xmlns:rdf="http://www.w3.org/1999/02/22-rdf-syntax-ns#"
   xmlns:svg="http://www.w3.org/2000/svg"
   xmlns="http://www.w3.org/2000/svg"
   width="800"
   height="360"
   viewBox="0 0 800 360"
   version="1.1"
   id="SVGRoot">
  <defs
     id="defs1413">
    <style
       id="style2"
       type="text/css">
		@import url(https://fonts.googleapis.com/css?family=Alegreya:400,700);
	</style>
    <rect
       id="rect2059"
       height="700"
       width="1050"
       y="-80"
       x="-110" />
    <rect
       id="rect1997"
       height="121.30452"
       width="541.00507"
       y="150"
       x="310" />
    <rect
       id="rect1991"
       height="110"
       width="420"
       y="20"
       x="100" />
    <filter
       height="1.0326765"
       y="-0.016338238"
       width="1.0040457"
       x="-0.0020228606"
       id="filter3413"
       style="color-interpolation-filters:sRGB">
      <feGaussianBlur
         id="feGaussianBlur3415"
         stdDeviation="0" />
    </filter>
    <filter
       height="1.0068949"
       y="-0.0034475131"
       width="1.0036814"
       x="-0.0018407082"
       id="filter3429"
       style="color-interpolation-filters:sRGB">
      <feGaussianBlur
         id="feGaussianBlur3431"
         stdDeviation="0" />
    </filter>
  </defs>
  <metadata
     id="metadata1416">
    <rdf:RDF>
      <cc:Work
         rdf:about="">
        <dc:format>image/svg+xml</dc:format>
        <dc:type
           rdf:resource="http://purl.org/dc/dcmitype/StillImage" />
        <dc:title></dc:title>
      </cc:Work>
    </rdf:RDF>
  </metadata>
  <g
     style="display:inline;filter:url(#filter3429)"
     id="layer1">
    <g
       style="font-weight:500;font-size:64px;line-height:1.25;font-family:Alegreya;-inkscape-font-specification:'Alegreya Bold';letter-spacing:0px;word-spacing:0px;shape-inside:url(#rect1991);display:inline;opacity:0.996;filter:url(#filter3413);stop-opacity:1"
       id="text1989"
       transform="translate(-6.715206,-33.297302)"
       aria-label="Pour mieux les">
      <path
         id="path864"
         style="font-style:normal;font-variant:normal;font-weight:bold;font-stretch:normal;font-size:53.3333px;font-family:Alegreya;-inkscape-font-specification:'Alegreya Bold';font-variant-ligatures:normal;font-variant-caps:normal;font-variant-numeric:normal;font-variant-east-asian:normal;fill:#663300;fill-opacity:1"
         d="m 102.4,44.68332 0.26667,0.426666 c 0,0 1.11999,-0.106666 1.86666,-0.106666 1.33333,0 1.70667,0.639999 1.70667,2.879998 l -0.0533,20.266655 c 0,2.986665 -0.8,3.946664 -3.67999,4.426664 L 102.08,76.203301 c 0.10667,-0.05333 6.24,-0.426666 8.90666,-0.426666 2.02667,0 6.72,0.16 6.72,0.16 l 0.53333,-3.466665 -0.21333,-0.32 c 0,0 -1.38667,0.16 -2.34667,0.16 -2.13333,0 -2.45333,-0.746666 -2.45333,-4.69333 l 0.0533,-3.946665 h 4.53333 c 6.72,0 12.74666,-5.706663 12.74666,-12.106659 0,-5.226664 -2.93333,-10.293327 -12.90666,-10.293327 0,0 -6.18666,0.266666 -8.10666,0.266666 -2.29333,0 -5.49333,-0.05333 -6.72,-0.05333 z m 10.98666,14.239992 c 0.10667,-3.999998 0.26667,-8.373329 0.53333,-12.10666 0.0533,-0.906666 0.16,-0.959999 1.17333,-0.959999 5.44,0 7.84,1.973332 7.84,6.453329 0,4.159998 -1.6,6.559996 -4.85333,7.253329 z" />
      <path
         id="path866"
         style="font-style:normal;font-variant:normal;font-weight:bold;font-stretch:normal;font-size:53.3333px;font-family:Alegreya;-inkscape-font-specification:'Alegreya Bold';font-variant-ligatures:normal;font-variant-caps:normal;font-variant-numeric:normal;font-variant-east-asian:normal;fill:#663300;fill-opacity:1"
         d="m 143.36914,76.416634 c 7.68,0 12.85333,-5.546663 12.85333,-13.706658 0,-7.519996 -4.32,-12.213326 -11.25333,-12.213326 -7.68,0 -12.90666,5.546663 -12.90666,13.706658 0,7.359996 4.48,12.213326 11.30666,12.213326 z m 1.06667,-4.106664 c -3.36,0 -5.28,-3.306664 -5.28,-10.079994 0,-4.746664 1.6,-7.146662 4.58666,-7.146662 3.36,0 5.28,3.306665 5.28,10.079994 0,4.799997 -1.6,7.146662 -4.58666,7.146662 z" />
      <path
         id="path868"
         style="font-style:normal;font-variant:normal;font-weight:bold;font-stretch:normal;font-size:53.3333px;font-family:Alegreya;-inkscape-font-specification:'Alegreya Bold';font-variant-ligatures:normal;font-variant-caps:normal;font-variant-numeric:normal;font-variant-east-asian:normal;fill:#663300;fill-opacity:1"
         d="m 161.17746,69.643305 c 0,4.373331 2.93334,6.719996 8.37333,6.719996 0.8,0 3.2,-1.706666 5.92,-4.266664 l 0.42667,0.213333 c 0.37333,2.719999 2.18666,4.106664 5.43999,4.106664 2.61333,-0.639999 5.6,-5.33333 5.6,-5.33333 l -0.85333,-1.119999 c 0,0 -1.22667,0.906666 -2.50667,0.906666 -1.17333,0 -1.86666,-0.853333 -1.86666,-2.186665 0,-7.999996 0.64,-15.519991 1.44,-17.173323 l -0.53334,-0.906667 c 0,0 -5.33333,1.013333 -9.97333,1.653333 l -0.42666,3.093331 c 0.0533,0 0.64,-0.05333 0.90666,-0.05333 1.81334,0.05333 2.29334,0.533333 2.29334,2.613332 v 10.879993 c -1.38667,0.906666 -2.98667,1.973332 -4.53333,1.973332 -2.24,0 -3.30667,-1.386665 -3.30667,-4.319997 0,-6.29333 0.64,-13.279992 1.44,-15.039991 l -0.53333,-0.906666 c 0,0 -5.22667,1.119999 -9.76,1.759999 l -0.32,3.146665 c 0,0 0.74667,-0.16 1.38667,-0.16 1.22666,0 1.76,0.799999 1.76,2.613332 z" />
      <path
         id="path870"
         style="font-style:normal;font-variant:normal;font-weight:bold;font-stretch:normal;font-size:53.3333px;font-family:Alegreya;-inkscape-font-specification:'Alegreya Bold';font-variant-ligatures:normal;font-variant-caps:normal;font-variant-numeric:normal;font-variant-east-asian:normal;fill:#663300;fill-opacity:1"
         d="m 189.06411,72.683303 -0.42666,3.306665 c 0,0 3.46666,-0.213333 6.71999,-0.213333 2.56,0 6.98667,0.213333 6.98667,0.213333 l 0.58666,-3.626664 -0.16,-0.32 c 0,0 -1.70666,0.213333 -2.72,0.213333 -1.54666,0 -2.02666,-0.64 -2.02666,-2.453332 0,-0.959999 0.48,-10.239994 0.48,-10.239994 1.06666,-1.439999 2.4,-2.293332 3.52,-2.293332 1.22666,0 1.54666,0.8 1.54666,4.213331 l 3.46667,-0.213333 c 0.21333,-4.373331 1.06666,-9.759994 1.06666,-9.759994 l -0.21333,-0.426667 c 0,0 -0.8,-0.213333 -1.81333,-0.213333 -2.45333,0 -5.28,1.973332 -7.52,5.279997 l -0.32,-0.213333 c 0.0533,-2.293332 0.58667,-4.959997 0.58667,-4.959997 l -0.53333,-0.48 c 0,0 -5.12,1.066666 -9.76,1.759999 l -0.32,2.773332 0.26667,0.373333 c 0,0 0.58666,-0.05333 1.01333,-0.05333 1.76,0 2.29333,0.693333 2.29333,3.146665 v 10.559994 c 0,2.719998 -0.58666,3.466664 -2.72,3.626664 z" />
      <path
         id="path872"
         style="font-style:normal;font-variant:normal;font-weight:bold;font-stretch:normal;font-size:53.3333px;font-family:Alegreya;-inkscape-font-specification:'Alegreya Bold';font-variant-ligatures:normal;font-variant-caps:normal;font-variant-numeric:normal;font-variant-east-asian:normal;fill:#663300;fill-opacity:1"
         d="m 234.66076,76.203301 c 0,0 3.89333,-0.426666 5.97333,-0.426666 2.02666,0 5.65333,0.16 5.65333,0.16 l 0.53333,-3.306665 -0.10667,-0.213333 c 0,0 -0.90666,0.05333 -1.49333,0.05333 -1.17333,0 -1.6,-0.693333 -1.6,-2.506665 l 0.69333,-11.94666 c 0.90667,-0.693333 2.77334,-1.919998 4.48,-1.919998 2.34667,0 3.41333,1.493332 3.41333,4.639997 l -0.16,9.119994 c -0.0533,1.866666 -0.64,2.559999 -2.29333,2.773332 l -0.32,3.413331 c 0,0 3.68,-0.266666 5.76,-0.266666 2.08,0 5.86666,0.16 5.86666,0.16 l 0.53333,-3.306665 -0.10666,-0.213333 c 0,0 -1.01333,0.05333 -1.6,0.05333 -1.22667,0 -1.70667,-0.639999 -1.70667,-2.506665 0,-2.613332 0.96,-10.453327 0.96,-12.533326 0,-4.373331 -2.93333,-6.933329 -8.05333,-6.933329 -1.38666,0 -5.49333,3.093331 -7.03999,4.479997 -0.90667,-2.933331 -3.52,-4.479997 -7.57333,-4.479997 -1.33333,0 -5.12,2.879998 -6.93333,4.373331 l -0.16,-0.16 c 0.10667,-1.813333 0.58667,-3.679998 0.58667,-3.679998 l -0.42667,-0.533333 c 0,0 -5.06666,1.013333 -9.91999,1.759999 l -0.32,2.826665 0.21333,0.266666 h 0.69333 c 2.02667,0 2.61333,0.746667 2.61333,3.199998 v 11.199994 c 0,1.973332 -0.69333,2.666665 -2.77333,2.826665 l -0.42666,3.359998 c 0,0 3.57333,-0.16 6.34666,-0.16 2.13333,0 5.65333,0.16 5.65333,0.16 l 0.58667,-3.359998 -0.16,-0.266667 c 0,0 -0.96,0.106667 -1.38667,0.106667 -1.17333,0 -1.6,-0.586666 -1.6,-2.399999 0,-1.493332 0.32,-8.053328 0.53333,-11.893326 0.90667,-0.693333 2.82667,-2.026665 4.58667,-2.026665 2.29333,0 3.41333,1.493332 3.41333,4.639997 l -0.16,9.119994 c -0.0533,1.759999 -0.74667,2.559999 -2.45333,2.986665 z" />
      <path
         id="path874"
         style="font-style:normal;font-variant:normal;font-weight:bold;font-stretch:normal;font-size:53.3333px;font-family:Alegreya;-inkscape-font-specification:'Alegreya Bold';font-variant-ligatures:normal;font-variant-caps:normal;font-variant-numeric:normal;font-variant-east-asian:normal;fill:#663300;fill-opacity:1"
         d="m 270.70574,45.16332 c 2.50666,0 4.26666,-1.706666 4.26666,-4.266664 0,-2.399999 -1.49333,-3.839998 -3.78666,-3.839998 -2.50667,0 -4.21333,1.706666 -4.21333,4.266664 0,2.399999 1.38666,3.839998 3.73333,3.839998 z m -6.50667,31.199981 c 0,0 3.89334,-0.586666 6.56,-0.586666 2.24,0 5.92,0.16 5.92,0.16 l 0.53333,-3.359998 -0.10667,-0.213333 c 0,0 -1.01333,0.106666 -1.54666,0.106666 -1.17334,0 -1.65333,-0.639999 -1.65333,-2.346665 0,-9.493328 0.53333,-17.173323 1.27999,-18.719989 l -0.48,-0.906666 c 0,0 -5.33333,1.119999 -10.23999,1.759999 l -0.32,3.146665 c 0,0 0.8,-0.16 1.22667,-0.16 1.70666,0 2.29333,0.746666 2.29333,2.986665 v 11.413326 c 0,1.919999 -0.90667,2.933332 -3.04,3.306665 z" />
      <path
         id="path876"
         style="font-style:normal;font-variant:normal;font-weight:bold;font-stretch:normal;font-size:53.3333px;font-family:Alegreya;-inkscape-font-specification:'Alegreya Bold';font-variant-ligatures:normal;font-variant-caps:normal;font-variant-numeric:normal;font-variant-east-asian:normal;fill:#663300;fill-opacity:1"
         d="m 286.70405,60.309977 c 0.32,-3.626664 2.08,-5.546663 4.8,-5.546663 2.18667,0 3.36,1.333333 3.36,3.946664 0,0.906666 -0.21333,1.12 -1.01333,1.226666 z m 13.70666,2.986665 0.64,-0.586666 c 0,0 0.37334,-1.493332 0.37334,-3.039998 0,-6.079997 -2.98667,-9.173328 -8.96,-9.173328 -7.30666,0 -12.69332,5.866663 -12.69332,13.599992 0,7.626662 4.58666,12.319992 12.10666,12.319992 3.89333,0 9.17332,-3.946664 9.17332,-3.946664 l -0.85333,-2.719998 -0.42667,-0.16 c 0,0 -3.03999,1.599999 -6.39999,1.599999 -3.94667,0 -6.45333,-2.666665 -6.66667,-7.413329 v -0.48 z" />
      <path
         id="path878"
         style="font-style:normal;font-variant:normal;font-weight:bold;font-stretch:normal;font-size:53.3333px;font-family:Alegreya;-inkscape-font-specification:'Alegreya Bold';font-variant-ligatures:normal;font-variant-caps:normal;font-variant-numeric:normal;font-variant-east-asian:normal;fill:#663300;fill-opacity:1"
         d="m 306.69821,69.643305 c 0,4.373331 2.93333,6.719996 8.37333,6.719996 0.8,0 3.2,-1.706666 5.91999,-4.266664 l 0.42667,0.213333 c 0.37333,2.719999 2.18667,4.106664 5.44,4.106664 2.61333,-0.639999 5.59999,-5.33333 5.59999,-5.33333 l -0.85333,-1.119999 c 0,0 -1.22666,0.906666 -2.50666,0.906666 -1.17334,0 -1.86667,-0.853333 -1.86667,-2.186665 0,-7.999996 0.64,-15.519991 1.44,-17.173323 l -0.53333,-0.906667 c 0,0 -5.33333,1.013333 -9.97333,1.653333 l -0.42667,3.093331 c 0.0533,0 0.64,-0.05333 0.90667,-0.05333 1.81333,0.05333 2.29333,0.533333 2.29333,2.613332 v 10.879993 c -1.38667,0.906666 -2.98666,1.973332 -4.53333,1.973332 -2.24,0 -3.30666,-1.386665 -3.30666,-4.319997 0,-6.29333 0.63999,-13.279992 1.43999,-15.039991 l -0.53333,-0.906666 c 0,0 -5.22666,1.119999 -9.75999,1.759999 l -0.32,3.146665 c 0,0 0.74666,-0.16 1.38666,-0.16 1.22667,0 1.76,0.799999 1.76,2.613332 z" />
      <path
         id="path880"
         style="font-style:normal;font-variant:normal;font-weight:bold;font-stretch:normal;font-size:53.3333px;font-family:Alegreya;-inkscape-font-specification:'Alegreya Bold';font-variant-ligatures:normal;font-variant-caps:normal;font-variant-numeric:normal;font-variant-east-asian:normal;fill:#663300;fill-opacity:1"
         d="m 353.14486,75.776635 c 1.59999,0 5.11999,0.106666 5.11999,0.106666 l 0.48,-2.826665 -0.16,-0.213333 c -2.02666,-0.16 -3.41333,-1.279999 -5.17333,-3.679998 l -4.10666,-5.546663 4.21333,-5.49333 c 1.44,-1.759999 3.04,-3.146665 4.58666,-3.946664 l 0.32,-2.879999 -0.16,-0.319999 c 0,0 -2.61333,0.16 -4.53333,0.16 h -4.8 l -0.26666,2.773331 0.10666,0.213333 c 1.49334,0 1.92,0.213334 1.92,0.746667 0,0.693333 -0.58666,1.333332 -1.33333,2.346665 l -2.45333,3.306665 -2.18667,-3.093332 c -0.69333,-0.906666 -1.17333,-1.599999 -1.17333,-2.399998 0,-0.746667 0.58667,-1.013333 2.02667,-1.013333 l 0.32,-2.773332 -0.16,-0.32 c 0,0 -3.30667,0.213334 -6.61333,0.213334 -3.09333,0 -6.24,-0.05333 -6.24,-0.05333 l -0.32,2.986665 0.10667,0.213333 c 2.29333,0.426667 3.46666,1.173333 5.49333,3.999998 l 3.57333,4.959997 -4.26667,5.066664 c -2.39999,2.879998 -3.30666,3.999997 -4.74666,4.69333 l -0.37333,2.559999 0.16,0.373333 c 0,0 2.4,-0.16 4.16,-0.16 1.27999,0 5.22666,0.213333 5.22666,0.213333 l 0.37333,-2.613332 -0.16,-0.32 c -1.44,-0.05333 -1.92,-0.319999 -1.92,-1.066666 0,-0.906666 2.34667,-3.786664 3.84,-5.65333 l 3.14667,4.319998 c 0.53333,0.746666 0.69333,1.173333 0.69333,1.546666 0,0.639999 -0.58667,0.906666 -2.08,0.959999 l -0.37333,2.666665 0.16,0.266667 c 0,0 5.49333,-0.32 7.57333,-0.32 z" />
      <path
         id="path882"
         style="font-style:normal;font-variant:normal;font-weight:bold;font-stretch:normal;font-size:53.3333px;font-family:Alegreya;-inkscape-font-specification:'Alegreya Bold';font-variant-ligatures:normal;font-variant-caps:normal;font-variant-numeric:normal;font-variant-east-asian:normal;fill:#663300;fill-opacity:1"
         d="m 368.82066,76.256635 c 0,0 3.46666,-0.48 6.13333,-0.48 2.13333,0 6.13333,0.16 6.13333,0.16 l 0.53333,-3.199998 -0.10666,-0.32 c 0,0 -1.33334,0.106666 -1.81334,0.106666 -1.12,0 -1.54666,-0.639999 -1.54666,-2.399998 0,-17.75999 0.69333,-31.733315 1.65333,-32.906647 l -0.37333,-1.013333 c 0,0 -6.02667,1.066666 -10.98666,1.706666 l -0.26667,2.453332 0.10667,0.693333 c 0.53333,0 1.49333,-0.106667 2.08,0 1.06666,0.213333 1.49333,1.066666 1.49333,2.879998 v 24.693318 c 0,2.666665 -0.16,3.733332 -2.61333,4.266665 z" />
      <path
         id="path884"
         style="font-style:normal;font-variant:normal;font-weight:bold;font-stretch:normal;font-size:53.3333px;font-family:Alegreya;-inkscape-font-specification:'Alegreya Bold';font-variant-ligatures:normal;font-variant-caps:normal;font-variant-numeric:normal;font-variant-east-asian:normal;fill:#663300;fill-opacity:1"
         d="m 390.45398,60.309977 c 0.32,-3.626664 2.08,-5.546663 4.8,-5.546663 2.18666,0 3.35999,1.333333 3.35999,3.946664 0,0.906666 -0.21333,1.12 -1.01333,1.226666 z m 13.70666,2.986665 0.64,-0.586666 c 0,0 0.37333,-1.493332 0.37333,-3.039998 0,-6.079997 -2.98667,-9.173328 -8.95999,-9.173328 -7.30667,0 -12.69333,5.866663 -12.69333,13.599992 0,7.626662 4.58666,12.319992 12.10666,12.319992 3.89333,0 9.17333,-3.946664 9.17333,-3.946664 l -0.85334,-2.719998 -0.42666,-0.16 c 0,0 -3.04,1.599999 -6.4,1.599999 -3.94666,0 -6.45333,-2.666665 -6.66666,-7.413329 v -0.48 z" />
      <path
         id="path886"
         style="font-style:normal;font-variant:normal;font-weight:bold;font-stretch:normal;font-size:53.3333px;font-family:Alegreya;-inkscape-font-specification:'Alegreya Bold';font-variant-ligatures:normal;font-variant-caps:normal;font-variant-numeric:normal;font-variant-east-asian:normal;fill:#663300;fill-opacity:1"
         d="m 415.88814,76.416634 c 6.18667,0 10.98666,-3.519997 10.98666,-7.999995 0,-3.199998 -1.65333,-4.959997 -7.89332,-7.893328 -2.56,-1.226666 -3.57333,-2.293332 -3.57333,-3.626665 0,-1.333332 1.38666,-2.293332 3.19999,-2.293332 2.50667,0 3.68,1.119999 3.73333,3.626665 0,0.266666 -0.10666,0.906666 -0.10666,0.906666 l 3.09333,-0.16 c 0.32,-3.573331 1.01333,-6.933329 1.01333,-6.933329 l -0.32,-0.586667 c 0,0 -2.50666,-0.959999 -5.97333,-0.959999 -6.50666,0 -11.09332,3.359998 -11.09332,8.213328 0,3.039999 1.86666,5.173331 6.13333,7.146663 4.26666,2.026665 5.27999,2.879998 5.27999,4.266664 0,1.333332 -1.54666,2.346665 -3.52,2.346665 -3.09333,0 -4.69333,-1.813332 -4.69333,-5.386663 l -3.03999,0.319999 c -0.10667,2.026666 -0.48,5.546664 -0.69334,6.986663 l 0.32,0.586666 c 0,0 2.82667,1.439999 7.14666,1.439999 z" />
    </g>
    <g
       style="font-weight:500;font-size:64px;line-height:1.25;font-family:Alegreya;-inkscape-font-specification:'Alegreya Bold';letter-spacing:0px;word-spacing:0px;shape-inside:url(#rect1997);display:inline;opacity:1;stop-opacity:1"
       id="text1995"
       transform="translate(-59.522308,90.57552)"
       aria-label="leurs racines">
      <path
         id="path889"
         style="font-style:normal;font-variant:normal;font-weight:bold;font-stretch:normal;font-size:85.3333px;font-family:Alegreya;-inkscape-font-specification:'Alegreya Bold';font-variant-ligatures:normal;font-variant-caps:normal;font-variant-numeric:normal;font-variant-east-asian:normal;fill:#663300;fill-opacity:1"
         d="m 311.28,225.13682 c 0,0 5.54666,-0.768 9.81333,-0.768 3.41333,0 9.81333,0.256 9.81333,0.256 l 0.85333,-5.12 -0.17067,-0.512 c 0,0 -2.13333,0.17066 -2.90133,0.17066 -1.792,0 -2.47466,-1.024 -2.47466,-3.83999 0,-28.41599 1.10933,-50.77332 2.64533,-52.65065 l -0.59733,-1.62133 c 0,0 -9.64267,1.70666 -17.57866,2.73066 l -0.42667,3.92534 0.17067,1.10933 c 0.85333,0 2.38933,-0.17067 3.328,0 1.70666,0.34133 2.38933,1.70666 2.38933,4.608 v 39.50931 c 0,4.26667 -0.256,5.97333 -4.18133,6.82667 z" />
      <path
         id="path891"
         style="font-style:normal;font-variant:normal;font-weight:bold;font-stretch:normal;font-size:85.3333px;font-family:Alegreya;-inkscape-font-specification:'Alegreya Bold';font-variant-ligatures:normal;font-variant-caps:normal;font-variant-numeric:normal;font-variant-east-asian:normal;fill:#663300;fill-opacity:1"
         d="m 345.89332,199.62216 c 0.512,-5.80267 3.328,-8.87466 7.67999,-8.87466 3.49867,0 5.376,2.13333 5.376,6.31466 0,1.45067 -0.34133,1.792 -1.62133,1.96267 z m 21.93066,4.77866 1.02399,-0.93866 c 0,0 0.59734,-2.38933 0.59734,-4.864 0,-9.728 -4.77867,-14.67733 -14.336,-14.67733 -11.69066,0 -20.30932,9.38667 -20.30932,21.75999 0,12.20266 7.33866,19.71199 19.37066,19.71199 6.22933,0 14.67732,-6.31466 14.67732,-6.31466 l -1.36533,-4.352 -0.68266,-0.256 c 0,0 -4.864,2.56 -10.24,2.56 -6.31466,0 -10.32533,-4.26666 -10.66666,-11.86133 v -0.768 z" />
      <path
         id="path893"
         style="font-style:normal;font-variant:normal;font-weight:bold;font-stretch:normal;font-size:85.3333px;font-family:Alegreya;-inkscape-font-specification:'Alegreya Bold';font-variant-ligatures:normal;font-variant-caps:normal;font-variant-numeric:normal;font-variant-east-asian:normal;fill:#663300;fill-opacity:1"
         d="m 377.88397,214.55549 c 0,6.99733 4.69333,10.75199 13.39733,10.75199 1.28,0 5.12,-2.73066 9.472,-6.82666 l 0.68266,0.34133 c 0.59734,4.352 3.49867,6.57066 8.704,6.57066 4.18133,-1.02399 8.95999,-8.53332 8.95999,-8.53332 l -1.36533,-1.792 c 0,0 -1.96266,1.45066 -4.01066,1.45066 -1.87734,0 -2.98667,-1.36533 -2.98667,-3.49866 0,-12.8 1.024,-24.83199 2.304,-27.47733 l -0.85333,-1.45066 c 0,0 -8.53333,1.62133 -15.95733,2.64533 l -0.68267,4.94933 c 0.0853,0 1.024,-0.0853 1.45067,-0.0853 2.90133,0.0853 3.66933,0.85333 3.66933,4.18133 v 17.40799 c -2.21866,1.45067 -4.77866,3.15734 -7.25333,3.15734 -3.584,0 -5.29066,-2.21867 -5.29066,-6.912 0,-10.06933 1.024,-21.24799 2.304,-24.06399 l -0.85334,-1.45067 c 0,0 -8.36266,1.792 -15.61599,2.816 l -0.512,5.03467 c 0,0 1.19467,-0.256 2.21867,-0.256 1.96266,0 2.816,1.28 2.816,4.18133 z" />
      <path
         id="path895"
         style="font-style:normal;font-variant:normal;font-weight:bold;font-stretch:normal;font-size:85.3333px;font-family:Alegreya;-inkscape-font-specification:'Alegreya Bold';font-variant-ligatures:normal;font-variant-caps:normal;font-variant-numeric:normal;font-variant-east-asian:normal;fill:#663300;fill-opacity:1"
         d="m 422.50262,219.41948 -0.68266,5.29067 c 0,0 5.54666,-0.34133 10.75199,-0.34133 4.096,0 11.17866,0.34133 11.17866,0.34133 l 0.93867,-5.80267 -0.256,-0.512 c 0,0 -2.73067,0.34134 -4.352,0.34134 -2.47466,0 -3.24266,-1.024 -3.24266,-3.92533 0,-1.536 0.768,-16.384 0.768,-16.384 1.70666,-2.304 3.83999,-3.66933 5.63199,-3.66933 1.96267,0 2.47467,1.28 2.47467,6.74133 l 5.54666,-0.34133 c 0.34134,-6.99733 1.70667,-15.616 1.70667,-15.616 l -0.34133,-0.68266 c 0,0 -1.28,-0.34133 -2.90134,-0.34133 -3.92533,0 -8.44799,3.15733 -12.03199,8.44799 l -0.512,-0.34133 c 0.0853,-3.66933 0.93867,-7.936 0.93867,-7.936 l -0.85334,-0.768 c 0,0 -8.19199,1.70667 -15.61599,2.816 l -0.512,4.43733 0.42667,0.59734 c 0,0 0.93866,-0.0853 1.62133,-0.0853 2.816,0 3.66933,1.10934 3.66933,5.03467 v 16.89599 c 0,4.352 -0.93867,5.54666 -4.352,5.80266 z" />
      <path
         id="path897"
         style="font-style:normal;font-variant:normal;font-weight:bold;font-stretch:normal;font-size:85.3333px;font-family:Alegreya;-inkscape-font-specification:'Alegreya Bold';font-variant-ligatures:normal;font-variant-caps:normal;font-variant-numeric:normal;font-variant-east-asian:normal;fill:#663300;fill-opacity:1"
         d="m 468.42127,225.39281 c 9.89866,0 17.57866,-5.63199 17.57866,-12.79999 0,-5.12 -2.64534,-7.936 -12.62933,-12.62933 -4.096,-1.96266 -5.71733,-3.66933 -5.71733,-5.80266 0,-2.13333 2.21866,-3.66933 5.11999,-3.66933 4.01067,0 5.888,1.792 5.97334,5.80266 0,0.42667 -0.17067,1.45067 -0.17067,1.45067 l 4.94933,-0.256 c 0.512,-5.71733 1.62133,-11.09333 1.62133,-11.09333 l -0.512,-0.93867 c 0,0 -4.01066,-1.536 -9.55733,-1.536 -10.41066,0 -17.74932,5.376 -17.74932,13.14133 0,4.864 2.98666,8.27733 9.81333,11.43466 6.82666,3.24267 8.44799,4.608 8.44799,6.82667 0,2.13333 -2.47466,3.75466 -5.63199,3.75466 -4.94934,0 -7.50933,-2.90133 -7.50933,-8.61866 l -4.864,0.512 c -0.17067,3.24266 -0.768,8.87466 -1.10934,11.17866 l 0.512,0.93867 c 0,0 4.52267,2.30399 11.43467,2.30399 z" />
      <path
         id="path899"
         style="font-style:normal;font-variant:normal;font-weight:bold;font-stretch:normal;font-size:85.3333px;font-family:Alegreya;-inkscape-font-specification:'Alegreya Bold';font-variant-ligatures:normal;font-variant-caps:normal;font-variant-numeric:normal;font-variant-east-asian:normal;fill:#6076bf;fill-opacity:1"
         d="m 507.33593,219.41948 -0.68267,5.29067 c 0,0 5.54667,-0.34133 10.752,-0.34133 4.09599,0 11.17866,0.34133 11.17866,0.34133 l 0.93866,-5.80267 -0.256,-0.512 c 0,0 -2.73066,0.34134 -4.35199,0.34134 -2.47467,0 -3.24267,-1.024 -3.24267,-3.92533 0,-1.536 0.768,-16.384 0.768,-16.384 1.70667,-2.304 3.84,-3.66933 5.632,-3.66933 1.96266,0 2.47466,1.28 2.47466,6.74133 l 5.54667,-0.34133 c 0.34133,-6.99733 1.70666,-15.616 1.70666,-15.616 l -0.34133,-0.68266 c 0,0 -1.28,-0.34133 -2.90133,-0.34133 -3.92533,0 -8.448,3.15733 -12.032,8.44799 l -0.512,-0.34133 c 0.0853,-3.66933 0.93867,-7.936 0.93867,-7.936 l -0.85333,-0.768 c 0,0 -8.192,1.70667 -15.616,2.816 l -0.512,4.43733 0.42667,0.59734 c 0,0 0.93867,-0.0853 1.62133,-0.0853 2.816,0 3.66934,1.10934 3.66934,5.03467 v 16.89599 c 0,4.352 -0.93867,5.54666 -4.352,5.80266 z" />
      <path
         id="path901"
         style="font-style:normal;font-variant:normal;font-weight:bold;font-stretch:normal;font-size:85.3333px;font-family:Alegreya;-inkscape-font-specification:'Alegreya Bold';font-variant-ligatures:normal;font-variant-caps:normal;font-variant-numeric:normal;font-variant-east-asian:normal;fill:#6076bf;fill-opacity:1"
         d="m 562.47056,201.67016 -16.38399,3.84 c -2.98667,0.68266 -4.94933,3.584 -4.94933,7.08266 0,7.08266 5.03466,12.45866 11.69066,12.45866 2.13333,0 5.97333,-3.072 9.38666,-6.48533 l 0.68267,0.256 c 0.512,4.26667 3.49866,6.57066 8.61866,6.57066 4.096,-1.19466 8.27733,-8.53332 8.27733,-8.53332 l -1.36533,-1.792 c 0,0 -1.96267,1.45066 -4.01067,1.45066 -1.87733,0 -3.072,-1.36533 -3.072,-3.41333 0,-3.75466 1.70667,-14.59199 1.70667,-17.49333 0,-6.57066 -4.18133,-11.69066 -14.25066,-11.69066 -4.096,0 -15.78666,6.57067 -15.78666,6.57067 l 1.536,5.11999 0.768,0.42667 c 0,0 4.94933,-4.01066 9.98399,-4.01066 4.608,0 7.25333,2.81599 7.25333,7.67999 z m -0.34133,12.71466 c -1.87734,1.36533 -4.352,2.38933 -6.05867,2.38933 -2.816,0 -4.69333,-2.21866 -4.69333,-5.20533 0,-1.45067 0.59733,-2.304 1.96267,-2.73066 l 8.95999,-2.47467 z" />
      <path
         id="path903"
         style="font-style:normal;font-variant:normal;font-weight:bold;font-stretch:normal;font-size:85.3333px;font-family:Alegreya;-inkscape-font-specification:'Alegreya Bold';font-variant-ligatures:normal;font-variant-caps:normal;font-variant-numeric:normal;font-variant-east-asian:normal;fill:#6076bf;fill-opacity:1"
         d="m 611.49588,214.29949 c 0,0 -4.35199,2.47466 -9.04532,2.47466 -5.97334,0 -9.30133,-5.03466 -9.30133,-14.33599 0,-7.33867 2.73066,-11.264 7.93599,-11.264 3.41333,0 5.29067,2.13334 5.29067,6.05867 v 2.816 l 5.54666,-0.34134 c 0.42667,-7.16799 1.87733,-13.22666 1.87733,-13.22666 l -0.34133,-0.768 c 0,0 -4.43733,-1.792 -10.83733,-1.792 -12.20266,0 -20.82132,9.04533 -20.82132,21.75999 0,12.20266 7.16799,19.71199 18.85866,19.71199 5.11999,0 12.88532,-6.39999 12.88532,-6.39999 l -1.36533,-4.43733 z" />
      <path
         id="path905"
         style="font-style:normal;font-variant:normal;font-weight:bold;font-stretch:normal;font-size:85.3333px;font-family:Alegreya;-inkscape-font-specification:'Alegreya Bold';font-variant-ligatures:normal;font-variant-caps:normal;font-variant-numeric:normal;font-variant-east-asian:normal;fill:#6076bf;fill-opacity:1"
         d="m 629.12921,175.3875 c 4.01066,0 6.82666,-2.73066 6.82666,-6.82666 0,-3.84 -2.38933,-6.144 -6.05866,-6.144 -4.01067,0 -6.74133,2.73067 -6.74133,6.82667 0,3.83999 2.21866,6.14399 5.97333,6.14399 z m -10.41067,49.91998 c 0,0 6.22933,-0.93866 10.496,-0.93866 3.584,0 9.472,0.256 9.472,0.256 l 0.85333,-5.376 -0.17067,-0.34134 c 0,0 -1.62133,0.17067 -2.47466,0.17067 -1.87734,0 -2.64534,-1.024 -2.64534,-3.75466 0,-15.18933 0.85334,-27.47733 2.048,-29.95199 l -0.768,-1.45067 c 0,0 -8.53333,1.792 -16.38399,2.816 l -0.512,5.03467 c 0,0 1.28,-0.256 1.96267,-0.256 2.73066,0 3.66933,1.19466 3.66933,4.77866 v 18.26133 c 0,3.07199 -1.45067,4.69333 -4.864,5.29066 z" />
      <path
         id="path907"
         style="font-style:normal;font-variant:normal;font-weight:bold;font-stretch:normal;font-size:85.3333px;font-family:Alegreya;-inkscape-font-specification:'Alegreya Bold';font-variant-ligatures:normal;font-variant-caps:normal;font-variant-numeric:normal;font-variant-east-asian:normal;fill:#6076bf;fill-opacity:1"
         d="m 668.12387,225.05148 c 0,0 6.22933,-0.68266 9.55733,-0.68266 3.24266,0 9.30133,0.256 9.30133,0.256 l 0.768,-5.29067 -0.17067,-0.34133 c 0,0 -1.62133,0.0853 -2.56,0.0853 -1.96267,0 -2.64533,-1.10933 -2.64533,-4.01066 0,-4.18134 1.536,-16.72533 1.536,-20.05333 0,-6.99733 -4.77867,-11.09333 -12.88533,-11.09333 -2.304,0 -8.27733,4.69333 -11.008,7.08267 l -0.34133,-0.34134 c 0.17067,-2.90133 0.93867,-5.88799 0.93867,-5.88799 l -0.68267,-0.85334 c 0,0 -8.10666,1.62133 -15.87199,2.816 l -0.512,4.52267 0.34133,0.42666 h 1.10933 c 3.24267,0 4.18133,1.19467 4.18133,5.12 v 17.91999 c 0,3.15733 -1.19466,4.352 -4.43733,4.69333 l -0.68266,5.46134 c 0,0 5.71733,-0.512 10.15466,-0.512 3.41333,0 9.04533,0.256 9.04533,0.256 l 0.93867,-5.376 -0.256,-0.42667 c 0,0 -1.536,0.17067 -2.21867,0.17067 -1.87733,0 -2.56,-0.93867 -2.56,-3.84 0,-2.38933 0.512,-12.88533 0.85333,-19.11466 1.45067,-1.024 4.52267,-3.15733 7.33867,-3.15733 3.66933,0 5.46133,2.38933 5.46133,7.424 l -0.256,14.59199 c -0.0853,2.816 -1.19467,4.096 -3.92533,4.77866 z" />
      <path
         id="path909"
         style="font-style:normal;font-variant:normal;font-weight:bold;font-stretch:normal;font-size:85.3333px;font-family:Alegreya;-inkscape-font-specification:'Alegreya Bold';font-variant-ligatures:normal;font-variant-caps:normal;font-variant-numeric:normal;font-variant-east-asian:normal;fill:#6076bf;fill-opacity:1"
         d="m 703.39317,199.62216 c 0.51199,-5.80267 3.32799,-8.87466 7.67999,-8.87466 3.49867,0 5.376,2.13333 5.376,6.31466 0,1.45067 -0.34133,1.792 -1.62133,1.96267 z m 21.93065,4.77866 1.024,-0.93866 c 0,0 0.59734,-2.38933 0.59734,-4.864 0,-9.728 -4.77867,-14.67733 -14.336,-14.67733 -11.69066,0 -20.30932,9.38667 -20.30932,21.75999 0,12.20266 7.33866,19.71199 19.37065,19.71199 6.22934,0 14.67733,-6.31466 14.67733,-6.31466 l -1.36533,-4.352 -0.68267,-0.256 c 0,0 -4.86399,2.56 -10.23999,2.56 -6.31467,0 -10.32533,-4.26666 -10.66666,-11.86133 v -0.768 z" />
      <path
         id="path911"
         style="font-style:normal;font-variant:normal;font-weight:bold;font-stretch:normal;font-size:85.3333px;font-family:Alegreya;-inkscape-font-specification:'Alegreya Bold';font-variant-ligatures:normal;font-variant-caps:normal;font-variant-numeric:normal;font-variant-east-asian:normal;fill:#6076bf;fill-opacity:1"
         d="m 744.08783,225.39281 c 9.89866,0 17.57866,-5.63199 17.57866,-12.79999 0,-5.12 -2.64533,-7.936 -12.62933,-12.62933 -4.096,-1.96266 -5.71733,-3.66933 -5.71733,-5.80266 0,-2.13333 2.21867,-3.66933 5.12,-3.66933 4.01066,0 5.888,1.792 5.97333,5.80266 0,0.42667 -0.17067,1.45067 -0.17067,1.45067 l 4.94933,-0.256 c 0.512,-5.71733 1.62134,-11.09333 1.62134,-11.09333 l -0.512,-0.93867 c 0,0 -4.01067,-1.536 -9.55733,-1.536 -10.41066,0 -17.74933,5.376 -17.74933,13.14133 0,4.864 2.98667,8.27733 9.81333,11.43466 6.82667,3.24267 8.448,4.608 8.448,6.82667 0,2.13333 -2.47467,3.75466 -5.632,3.75466 -4.94933,0 -7.50933,-2.90133 -7.50933,-8.61866 l -4.864,0.512 c -0.17066,3.24266 -0.768,8.87466 -1.10933,11.17866 l 0.512,0.93867 c 0,0 4.52266,2.30399 11.43466,2.30399 z" />
    </g>
    <g
       style="font-style:normal;font-variant:normal;font-weight:bold;font-stretch:normal;font-size:53.3333px;line-height:1.25;font-family:Alegreya;-inkscape-font-specification:'Alegreya Bold';font-variant-ligatures:normal;font-variant-caps:normal;font-variant-numeric:normal;font-variant-east-asian:normal;letter-spacing:0px;word-spacing:0px;shape-inside:url(#rect1991);display:inline;opacity:0.996;stop-opacity:1"
       id="text1989-7"
       transform="translate(-6.816729,166.54024)"
       aria-label="Nous conservons">
      <path
         id="path914"
         style="fill:#663300;fill-opacity:1"
         d="m 127.73332,53.947175 c 0,0 -7.30667,-10.613327 -14.23999,-21.919986 0,0 -2.82667,0.213333 -5.12,0.213333 -2.61333,0 -6.18666,-0.266667 -6.18666,-0.266667 l -0.37334,3.093332 0.42667,0.533333 c 3.46666,0.373333 4.32,1.013332 4.32,3.306664 l -0.69334,21.066655 c -0.0533,2.133332 -1.01333,3.093331 -3.14666,3.359998 l -0.42667,3.573331 c 0,0 3.68,-0.426667 6.56,-0.426667 2.29333,0 6.87999,0.213334 6.87999,0.213334 l 0.53334,-3.413332 -0.32,-0.373333 c 0,0 -1.70667,0.16 -2.29333,0.16 -1.33334,0 -1.81334,-0.64 -1.81334,-2.399999 l 0.0533,-16.426656 h 0.53333 c 0,0 7.25333,10.453327 15.51999,23.679985 l 5.65333,-0.693332 0.69333,-28.319984 c 0.0533,-2.133332 1.01334,-3.039998 3.36,-3.359998 l 0.26667,-3.573331 c 0,0 -3.68,0.266667 -6.29333,0.266667 -2.34667,0 -6.88,-0.213333 -6.88,-0.213333 l -0.37333,3.306664 0.21333,0.426667 c 0.21334,0 1.06667,-0.05333 1.81333,-0.05333 1.22667,0 1.70667,0.64 1.76,2.293332 l 0.10667,15.946657 z" />
      <path
         id="path916"
         style="fill:#663300;fill-opacity:1"
         d="m 151.49414,67.120501 c 7.67999,0 12.85332,-5.546663 12.85332,-13.706659 0,-7.519995 -4.31999,-12.213326 -11.25332,-12.213326 -7.68,0 -12.90666,5.546664 -12.90666,13.706659 0,7.359995 4.47999,12.213326 11.30666,12.213326 z m 1.06666,-4.106664 c -3.35999,0 -5.27999,-3.306665 -5.27999,-10.079994 0,-4.746664 1.6,-7.146663 4.58666,-7.146663 3.36,0 5.28,3.306665 5.28,10.079994 0,4.799997 -1.6,7.146663 -4.58667,7.146663 z" />
      <path
         id="path918"
         style="fill:#663300;fill-opacity:1"
         d="m 169.30246,60.347172 c 0,4.37333 2.93333,6.719996 8.37333,6.719996 0.8,0 3.19999,-1.706666 5.91999,-4.266664 l 0.42667,0.213333 c 0.37333,2.719998 2.18666,4.106664 5.44,4.106664 2.61333,-0.64 5.59999,-5.33333 5.59999,-5.33333 l -0.85333,-1.12 c 0,0 -1.22667,0.906667 -2.50667,0.906667 -1.17333,0 -1.86666,-0.853333 -1.86666,-2.186666 0,-7.999995 0.64,-15.519991 1.44,-17.173323 l -0.53334,-0.906666 c 0,0 -5.33333,1.013333 -9.97332,1.653332 l -0.42667,3.093332 c 0.0533,0 0.64,-0.05333 0.90667,-0.05333 1.81333,0.05333 2.29333,0.533333 2.29333,2.613331 v 10.879994 c -1.38667,0.906666 -2.98667,1.973332 -4.53333,1.973332 -2.24,0 -3.30667,-1.386666 -3.30667,-4.319997 0,-6.29333 0.64,-13.279993 1.44,-15.039991 l -0.53333,-0.906667 c 0,0 -5.22666,1.12 -9.75999,1.759999 l -0.32,3.146665 c 0,0 0.74666,-0.16 1.38666,-0.16 1.22667,0 1.76,0.8 1.76,2.613332 z" />
      <path
         id="path920"
         style="fill:#663300;fill-opacity:1"
         d="m 203.90911,67.120501 c 6.18666,0 10.98666,-3.519998 10.98666,-7.999995 0,-3.199998 -1.65333,-4.959997 -7.89333,-7.893329 -2.56,-1.226666 -3.57333,-2.293332 -3.57333,-3.626664 0,-1.333333 1.38667,-2.293332 3.2,-2.293332 2.50666,0 3.68,1.119999 3.73333,3.626664 0,0.266667 -0.10667,0.906666 -0.10667,0.906666 l 3.09333,-0.16 c 0.32,-3.573331 1.01334,-6.933329 1.01334,-6.933329 l -0.32,-0.586666 c 0,0 -2.50667,-0.96 -5.97333,-0.96 -6.50666,0 -11.09333,3.359998 -11.09333,8.213329 0,3.039998 1.86667,5.17333 6.13333,7.146662 4.26667,2.026666 5.28,2.879999 5.28,4.266664 0,1.333333 -1.54667,2.346666 -3.52,2.346666 -3.09333,0 -4.69333,-1.813333 -4.69333,-5.386664 l -3.04,0.32 c -0.10667,2.026665 -0.48,5.546663 -0.69333,6.986662 l 0.32,0.586667 c 0,0 2.82666,1.439999 7.14666,1.439999 z" />
      <path
         id="path922"
         style="fill:#663300;fill-opacity:1"
         d="m 245.83075,60.187172 c 0,0 -2.72,1.546665 -5.65333,1.546665 -3.73334,0 -5.81333,-3.146664 -5.81333,-8.959994 0,-4.586664 1.70666,-7.039996 4.95999,-7.039996 2.13333,0 3.30667,1.333333 3.30667,3.786664 v 1.759999 l 3.46666,-0.213333 c 0.26667,-4.479997 1.17333,-8.266662 1.17333,-8.266662 l -0.21333,-0.479999 c 0,0 -2.77333,-1.12 -6.77333,-1.12 -7.62666,0 -13.01332,5.65333 -13.01332,13.599992 0,7.626662 4.47999,12.319993 11.78666,12.319993 3.19999,0 8.05332,-3.999998 8.05332,-3.999998 l -0.85333,-2.773331 z" />
      <path
         id="path924"
         style="fill:#663300;fill-opacity:1"
         d="m 261.59824,67.120501 c 7.68,0 12.85333,-5.546663 12.85333,-13.706659 0,-7.519995 -4.32,-12.213326 -11.25333,-12.213326 -7.67999,0 -12.90666,5.546664 -12.90666,13.706659 0,7.359995 4.48,12.213326 11.30666,12.213326 z m 1.06667,-4.106664 c -3.36,0 -5.28,-3.306665 -5.28,-10.079994 0,-4.746664 1.6,-7.146663 4.58667,-7.146663 3.36,0 5.27999,3.306665 5.27999,10.079994 0,4.799997 -1.59999,7.146663 -4.58666,7.146663 z" />
      <path
         id="path926"
         style="fill:#663300;fill-opacity:1"
         d="m 292.47323,66.907168 c 0,0 3.89333,-0.426667 5.97333,-0.426667 2.02666,0 5.81333,0.16 5.81333,0.16 l 0.48,-3.306664 -0.10667,-0.213334 c 0,0 -1.01333,0.05333 -1.6,0.05333 -1.22667,0 -1.65333,-0.693333 -1.65333,-2.506666 0,-2.613331 0.96,-10.453327 0.96,-12.533325 0,-4.373331 -2.98667,-6.93333 -8.05333,-6.93333 -1.44,0 -5.17333,2.933332 -6.88,4.426664 l -0.21333,-0.213333 c 0.10667,-1.813332 0.58667,-3.679998 0.58667,-3.679998 l -0.42667,-0.533333 c 0,0 -5.06666,1.013333 -9.91999,1.759999 l -0.32,2.826665 0.21333,0.266667 h 0.69333 c 2.02667,0 2.61333,0.746666 2.61333,3.199998 v 11.199993 c 0,1.973332 -0.74666,2.719999 -2.77333,2.933332 l -0.42666,3.413331 c 0,0 3.57333,-0.32 6.34666,-0.32 2.13333,0 5.65333,0.16 5.65333,0.16 l 0.58666,-3.359998 -0.15999,-0.266666 c 0,0 -0.96,0.106666 -1.38667,0.106666 -1.17333,0 -1.6,-0.586666 -1.6,-2.399998 0,-1.493333 0.32,-8.053329 0.53333,-11.94666 0.90667,-0.639999 2.82667,-1.973332 4.58667,-1.973332 2.29333,0 3.41333,1.493332 3.41333,4.639997 l -0.16,9.119995 c -0.0533,1.759999 -0.74667,2.559998 -2.45333,2.986665 z" />
      <path
         id="path928"
         style="fill:#663300;fill-opacity:1"
         d="m 315.26321,67.120501 c 6.18666,0 10.98666,-3.519998 10.98666,-7.999995 0,-3.199998 -1.65334,-4.959997 -7.89333,-7.893329 -2.56,-1.226666 -3.57333,-2.293332 -3.57333,-3.626664 0,-1.333333 1.38666,-2.293332 3.19999,-2.293332 2.50667,0 3.68,1.119999 3.73334,3.626664 0,0.266667 -0.10667,0.906666 -0.10667,0.906666 l 3.09333,-0.16 c 0.32,-3.573331 1.01333,-6.933329 1.01333,-6.933329 l -0.32,-0.586666 c 0,0 -2.50666,-0.96 -5.97333,-0.96 -6.50666,0 -11.09332,3.359998 -11.09332,8.213329 0,3.039998 1.86666,5.17333 6.13333,7.146662 4.26666,2.026666 5.27999,2.879999 5.27999,4.266664 0,1.333333 -1.54666,2.346666 -3.51999,2.346666 -3.09334,0 -4.69334,-1.813333 -4.69334,-5.386664 l -3.03999,0.32 c -0.10667,2.026665 -0.48,5.546663 -0.69334,6.986662 l 0.32,0.586667 c 0,0 2.82667,1.439999 7.14667,1.439999 z" />
      <path
         id="path930"
         style="fill:#663300;fill-opacity:1"
         d="m 336.28737,51.013844 c 0.32,-3.626665 2.08,-5.546663 4.8,-5.546663 2.18666,0 3.35999,1.333332 3.35999,3.946664 0,0.906666 -0.21333,1.119999 -1.01333,1.226666 z m 13.70666,2.986665 0.64,-0.586667 c 0,0 0.37333,-1.493332 0.37333,-3.039998 0,-6.079996 -2.98667,-9.173328 -8.96,-9.173328 -7.30666,0 -12.69332,5.866664 -12.69332,13.599992 0,7.626662 4.58666,12.319993 12.10666,12.319993 3.89333,0 9.17333,-3.946664 9.17333,-3.946664 l -0.85334,-2.719999 -0.42666,-0.16 c 0,0 -3.04,1.599999 -6.4,1.599999 -3.94666,0 -6.45333,-2.666665 -6.66666,-7.413329 v -0.479999 z" />
      <path
         id="path932"
         style="fill:#663300;fill-opacity:1"
         d="m 355.00152,63.38717 -0.42666,3.306665 c 0,0 3.46666,-0.213334 6.71999,-0.213334 2.56,0 6.98666,0.213334 6.98666,0.213334 l 0.58667,-3.626665 -0.16,-0.32 c 0,0 -1.70666,0.213333 -2.72,0.213333 -1.54666,0 -2.02666,-0.639999 -2.02666,-2.453331 0,-0.96 0.48,-10.239994 0.48,-10.239994 1.06666,-1.439999 2.4,-2.293332 3.52,-2.293332 1.22666,0 1.54666,0.799999 1.54666,4.213331 l 3.46667,-0.213334 c 0.21333,-4.37333 1.06666,-9.759994 1.06666,-9.759994 l -0.21333,-0.426666 c 0,0 -0.8,-0.213334 -1.81333,-0.213334 -2.45334,0 -5.28,1.973333 -7.52,5.279997 l -0.32,-0.213333 c 0.0533,-2.293332 0.58667,-4.959997 0.58667,-4.959997 l -0.53334,-0.48 c 0,0 -5.11999,1.066666 -9.75999,1.759999 l -0.32,2.773332 0.26667,0.373333 c 0,0 0.58666,-0.05333 1.01333,-0.05333 1.76,0 2.29333,0.693333 2.29333,3.146665 v 10.559993 c 0,2.719999 -0.58667,3.466665 -2.72,3.626665 z" />
      <path
         id="path934"
         style="fill:#663300;fill-opacity:1"
         d="m 392.44734,46.213847 c 0,1.066666 -1.97334,6.613329 -4.74667,14.293325 h -0.58666 c 0,0 -3.25333,-12.799993 -3.25333,-14.239992 0,-0.959999 0.42666,-1.173333 2.61333,-1.386666 l 0.42666,-3.146665 -0.10666,-0.266666 c 0,0 -3.73333,0.373333 -7.25333,0.373333 -1.76,0 -5.06667,-0.05333 -5.06667,-0.05333 l -0.37333,3.039998 0.10667,0.266666 c 1.65333,0.05333 2.72,0.906667 3.30666,2.666665 1.28,3.999998 5.54667,19.519989 5.54667,19.519989 l 6.98666,-0.8 6.71999,-18.293322 c 0.90667,-2.399999 1.33334,-2.879998 2.93334,-3.093332 l 0.37333,-3.306664 c 0,0 -2.72,0.05333 -4.85333,0.05333 -2.4,0 -5.76,-0.05333 -5.76,-0.05333 l -0.42666,2.986665 0.21333,0.373333 h 1.44 c 1.33333,0 1.76,0.213333 1.76,1.066666 z" />
      <path
         id="path936"
         style="fill:#663300;fill-opacity:1"
         d="m 412.32731,67.120501 c 7.67999,0 12.85333,-5.546663 12.85333,-13.706659 0,-7.519995 -4.32,-12.213326 -11.25333,-12.213326 -7.68,0 -12.90666,5.546664 -12.90666,13.706659 0,7.359995 4.48,12.213326 11.30666,12.213326 z m 1.06667,-4.106664 c -3.36,0 -5.28,-3.306665 -5.28,-10.079994 0,-4.746664 1.6,-7.146663 4.58666,-7.146663 3.36,0 5.28,3.306665 5.28,10.079994 0,4.799997 -1.6,7.146663 -4.58666,7.146663 z" />
      <path
         id="path938"
         style="fill:#663300;fill-opacity:1"
         d="m 443.20231,66.907168 c 0,0 3.89333,-0.426667 5.97333,-0.426667 2.02666,0 5.81333,0.16 5.81333,0.16 l 0.48,-3.306664 -0.10667,-0.213334 c 0,0 -1.01333,0.05333 -1.6,0.05333 -1.22667,0 -1.65333,-0.693333 -1.65333,-2.506666 0,-2.613331 0.96,-10.453327 0.96,-12.533325 0,-4.373331 -2.98667,-6.93333 -8.05333,-6.93333 -1.44,0 -5.17333,2.933332 -6.88,4.426664 l -0.21333,-0.213333 c 0.10667,-1.813332 0.58667,-3.679998 0.58667,-3.679998 l -0.42667,-0.533333 c 0,0 -5.06666,1.013333 -9.91999,1.759999 l -0.32,2.826665 0.21333,0.266667 h 0.69333 c 2.02667,0 2.61333,0.746666 2.61333,3.199998 v 11.199993 c 0,1.973332 -0.74666,2.719999 -2.77333,2.933332 l -0.42666,3.413331 c 0,0 3.57333,-0.32 6.34666,-0.32 2.13333,0 5.65333,0.16 5.65333,0.16 l 0.58667,-3.359998 -0.16,-0.266666 c 0,0 -0.96,0.106666 -1.38667,0.106666 -1.17333,0 -1.6,-0.586666 -1.6,-2.399998 0,-1.493333 0.32,-8.053329 0.53333,-11.94666 0.90667,-0.639999 2.82667,-1.973332 4.58667,-1.973332 2.29333,0 3.41333,1.493332 3.41333,4.639997 l -0.16,9.119995 c -0.0533,1.759999 -0.74667,2.559998 -2.45333,2.986665 z" />
      <path
         id="path940"
         style="fill:#663300;fill-opacity:1"
         d="m 465.99227,67.120501 c 6.18666,0 10.98666,-3.519998 10.98666,-7.999995 0,-3.199998 -1.65333,-4.959997 -7.89333,-7.893329 -2.56,-1.226666 -3.57333,-2.293332 -3.57333,-3.626664 0,-1.333333 1.38667,-2.293332 3.2,-2.293332 2.50666,0 3.68,1.119999 3.73333,3.626664 0,0.266667 -0.10667,0.906666 -0.10667,0.906666 l 3.09334,-0.16 c 0.32,-3.573331 1.01333,-6.933329 1.01333,-6.933329 l -0.32,-0.586666 c 0,0 -2.50667,-0.96 -5.97333,-0.96 -6.50666,0 -11.09333,3.359998 -11.09333,8.213329 0,3.039998 1.86667,5.17333 6.13333,7.146662 4.26667,2.026666 5.28,2.879999 5.28,4.266664 0,1.333333 -1.54667,2.346666 -3.52,2.346666 -3.09333,0 -4.69333,-1.813333 -4.69333,-5.386664 l -3.04,0.32 c -0.10667,2.026665 -0.48,5.546663 -0.69333,6.986662 l 0.32,0.586667 c 0,0 2.82666,1.439999 7.14666,1.439999 z" />
    </g>
    <g
       style="font-weight:500;font-size:64px;line-height:1.25;font-family:Alegreya;-inkscape-font-specification:'Alegreya Bold';letter-spacing:0px;word-spacing:0px;shape-inside:url(#rect1997);display:inline;opacity:1;stop-opacity:1"
       id="text1995-9"
       transform="translate(-54.796426,-98.38259)"
       aria-label="faire grandir">
      <path
         id="path943"
         style="font-style:normal;font-variant:normal;font-weight:bold;font-stretch:normal;font-size:85.3333px;font-family:Alegreya;-inkscape-font-specification:'Alegreya Bold';font-variant-ligatures:normal;font-variant-caps:normal;font-variant-numeric:normal;font-variant-east-asian:normal;fill:#663300;fill-opacity:1"
         d="m 312.38933,191.43016 c 4.352,0.17067 5.376,0.768 5.54667,3.41333 v 19.88266 c 0,2.98667 -1.36534,4.43733 -4.69333,4.864 l -0.59734,5.29067 c 0,0 6.48533,-0.512 11.264,-0.512 3.75466,0 12.37333,0.256 12.37333,0.256 l 0.768,-5.71734 -0.256,-0.42666 c 0,0 -2.64534,0.17066 -5.20534,0.17066 -2.38933,0 -3.49866,-1.19466 -3.49866,-3.92533 l 0.17067,-23.03999 c 6.05866,0.0853 10.41066,0.256 10.41066,0.256 l 0.93866,-5.80266 -0.34133,-0.42667 c 0,0 -4.77866,0.256 -10.92266,0.256 l 0.0853,-3.92533 c 0.0853,-9.55733 2.304,-13.22666 8.192,-13.22666 5.20533,0 8.96,3.24266 8.96,3.24266 l 1.10933,-0.256 c 1.45066,-4.18133 2.98666,-7.59466 2.98666,-7.59466 l -0.42666,-1.36533 c 0,0 -3.92533,-1.792 -9.81333,-1.792 -13.056,0 -21.41866,9.21599 -21.50399,23.89332 v 0.68267 l -5.20533,0.85333 -0.68267,4.43733 z" />
      <path
         id="path945"
         style="font-style:normal;font-variant:normal;font-weight:bold;font-stretch:normal;font-size:85.3333px;font-family:Alegreya;-inkscape-font-specification:'Alegreya Bold';font-variant-ligatures:normal;font-variant-caps:normal;font-variant-numeric:normal;font-variant-east-asian:normal;fill:#663300;fill-opacity:1"
         d="m 362.80398,201.67016 -16.384,3.84 c -2.98666,0.68266 -4.94933,3.584 -4.94933,7.08266 0,7.08266 5.03467,12.45866 11.69067,12.45866 2.13333,0 5.97333,-3.072 9.38666,-6.48533 l 0.68266,0.256 c 0.512,4.26667 3.49867,6.57066 8.61867,6.57066 4.096,-1.19466 8.27733,-8.53332 8.27733,-8.53332 l -1.36534,-1.792 c 0,0 -1.96266,1.45066 -4.01066,1.45066 -1.87733,0 -3.072,-1.36533 -3.072,-3.41333 0,-3.75466 1.70667,-14.59199 1.70667,-17.49333 0,-6.57066 -4.18133,-11.69066 -14.25066,-11.69066 -4.096,0 -15.78666,6.57067 -15.78666,6.57067 l 1.536,5.11999 0.768,0.42667 c 0,0 4.94933,-4.01066 9.98399,-4.01066 4.608,0 7.25333,2.81599 7.25333,7.67999 z m -0.34134,12.71466 c -1.87733,1.36533 -4.35199,2.38933 -6.05866,2.38933 -2.816,0 -4.69333,-2.21866 -4.69333,-5.20533 0,-1.45067 0.59733,-2.304 1.96267,-2.73066 l 8.95999,-2.47467 z" />
      <path
         id="path947"
         style="font-style:normal;font-variant:normal;font-weight:bold;font-stretch:normal;font-size:85.3333px;font-family:Alegreya;-inkscape-font-specification:'Alegreya Bold';font-variant-ligatures:normal;font-variant-caps:normal;font-variant-numeric:normal;font-variant-east-asian:normal;fill:#663300;fill-opacity:1"
         d="m 392.6293,175.3875 c 4.01066,0 6.82666,-2.73066 6.82666,-6.82666 0,-3.84 -2.38933,-6.144 -6.05866,-6.144 -4.01067,0 -6.74133,2.73067 -6.74133,6.82667 0,3.83999 2.21866,6.14399 5.97333,6.14399 z m -10.41066,49.91998 c 0,0 6.22933,-0.93866 10.49599,-0.93866 3.584,0 9.472,0.256 9.472,0.256 l 0.85333,-5.376 -0.17067,-0.34134 c 0,0 -1.62133,0.17067 -2.47466,0.17067 -1.87733,0 -2.64533,-1.024 -2.64533,-3.75466 0,-15.18933 0.85333,-27.47733 2.04799,-29.95199 l -0.768,-1.45067 c 0,0 -8.53332,1.792 -16.38399,2.816 l -0.512,5.03467 c 0,0 1.28,-0.256 1.96267,-0.256 2.73066,0 3.66933,1.19466 3.66933,4.77866 v 18.26133 c 0,3.07199 -1.45067,4.69333 -4.864,5.29066 z" />
      <path
         id="path949"
         style="font-style:normal;font-variant:normal;font-weight:bold;font-stretch:normal;font-size:85.3333px;font-family:Alegreya;-inkscape-font-specification:'Alegreya Bold';font-variant-ligatures:normal;font-variant-caps:normal;font-variant-numeric:normal;font-variant-east-asian:normal;fill:#663300;fill-opacity:1"
         d="m 408.66929,219.41948 -0.68266,5.29067 c 0,0 5.54666,-0.34133 10.75199,-0.34133 4.096,0 11.17866,0.34133 11.17866,0.34133 l 0.93867,-5.80267 -0.256,-0.512 c 0,0 -2.73066,0.34134 -4.352,0.34134 -2.47466,0 -3.24266,-1.024 -3.24266,-3.92533 0,-1.536 0.768,-16.384 0.768,-16.384 1.70666,-2.304 3.84,-3.66933 5.632,-3.66933 1.96266,0 2.47466,1.28 2.47466,6.74133 l 5.54666,-0.34133 c 0.34134,-6.99733 1.70667,-15.616 1.70667,-15.616 l -0.34133,-0.68266 c 0,0 -1.28,-0.34133 -2.90133,-0.34133 -3.92534,0 -8.448,3.15733 -12.032,8.44799 l -0.512,-0.34133 c 0.0853,-3.66933 0.93867,-7.936 0.93867,-7.936 l -0.85334,-0.768 c 0,0 -8.19199,1.70667 -15.61599,2.816 l -0.512,4.43733 0.42667,0.59734 c 0,0 0.93866,-0.0853 1.62133,-0.0853 2.816,0 3.66933,1.10934 3.66933,5.03467 v 16.89599 c 0,4.352 -0.93866,5.54666 -4.352,5.80266 z" />
      <path
         id="path951"
         style="font-style:normal;font-variant:normal;font-weight:bold;font-stretch:normal;font-size:85.3333px;font-family:Alegreya;-inkscape-font-specification:'Alegreya Bold';font-variant-ligatures:normal;font-variant-caps:normal;font-variant-numeric:normal;font-variant-east-asian:normal;fill:#663300;fill-opacity:1"
         d="m 453.39327,199.62216 c 0.512,-5.80267 3.328,-8.87466 7.68,-8.87466 3.49866,0 5.376,2.13333 5.376,6.31466 0,1.45067 -0.34134,1.792 -1.62134,1.96267 z m 21.93066,4.77866 1.024,-0.93866 c 0,0 0.59733,-2.38933 0.59733,-4.864 0,-9.728 -4.77866,-14.67733 -14.33599,-14.67733 -11.69066,0 -20.30933,9.38667 -20.30933,21.75999 0,12.20266 7.33867,19.71199 19.37066,19.71199 6.22933,0 14.67733,-6.31466 14.67733,-6.31466 l -1.36533,-4.352 -0.68267,-0.256 c 0,0 -4.864,2.56 -10.24,2.56 -6.31466,0 -10.32532,-4.26666 -10.66666,-11.86133 v -0.768 z" />
      <path
         id="path953"
         style="font-style:normal;font-variant:normal;font-weight:bold;font-stretch:normal;font-size:85.3333px;font-family:Alegreya;-inkscape-font-specification:'Alegreya Bold';font-variant-ligatures:normal;font-variant-caps:normal;font-variant-numeric:normal;font-variant-east-asian:normal;fill:#6076bf;fill-opacity:1"
         d="m 514.80925,213.53149 c 10.66666,0 18.43199,-6.4 18.43199,-15.27466 0,-3.15734 -1.10933,-5.97333 -3.328,-8.36267 l 0.34134,-0.512 c 3.15733,-0.0853 6.22933,-0.512 6.22933,-0.512 l 1.10933,-6.57066 -0.512,-0.42667 c 0,0 -7.76533,2.47467 -12.032,2.816 -2.55999,0 -5.11999,-0.85333 -8.70399,-0.85333 -10.24,0 -17.74933,6.74133 -17.74933,15.61599 0,5.20533 2.304,9.38667 6.4,11.69066 v 0.59734 c 0,0 -4.608,3.072 -7.168,5.80266 0,4.43733 3.584,7.85066 8.96,8.704 v 0.512 c 0,0 -6.144,3.49866 -8.53333,6.22933 0,7.33866 5.97333,12.03199 15.27466,12.03199 11.60533,0 22.61332,-7.76533 22.61332,-15.95732 0,-6.99733 -5.29066,-9.55733 -20.56532,-9.984 -5.632,-0.17067 -8.27733,-1.19467 -8.27733,-3.24266 0,-0.85334 0.768,-1.96267 2.21866,-2.90134 1.792,0.34134 3.49867,0.59734 5.29067,0.59734 z m 1.536,-5.80267 c -4.43733,0 -7.08267,-3.328 -7.08267,-9.04533 0,-5.37599 2.21867,-8.36266 6.05867,-8.36266 4.608,0 7.33866,3.328 7.33866,9.13066 0,5.46133 -2.304,8.27733 -6.31466,8.27733 z m 0.256,30.89066 c -4.69333,0 -7.68,-2.21867 -7.68,-5.54667 0,-2.98666 3.15733,-5.80266 3.15733,-5.80266 12.544,1.792 14.25066,2.47466 14.25066,5.12 0,3.32799 -4.43733,6.22933 -9.72799,6.22933 z" />
      <path
         id="path955"
         style="font-style:normal;font-variant:normal;font-weight:bold;font-stretch:normal;font-size:85.3333px;font-family:Alegreya;-inkscape-font-specification:'Alegreya Bold';font-variant-ligatures:normal;font-variant-caps:normal;font-variant-numeric:normal;font-variant-east-asian:normal;fill:#6076bf;fill-opacity:1"
         d="m 541.83591,219.41948 -0.68266,5.29067 c 0,0 5.54666,-0.34133 10.75199,-0.34133 4.096,0 11.17866,0.34133 11.17866,0.34133 l 0.93867,-5.80267 -0.256,-0.512 c 0,0 -2.73067,0.34134 -4.352,0.34134 -2.47466,0 -3.24266,-1.024 -3.24266,-3.92533 0,-1.536 0.768,-16.384 0.768,-16.384 1.70666,-2.304 3.83999,-3.66933 5.63199,-3.66933 1.96267,0 2.47467,1.28 2.47467,6.74133 l 5.54666,-0.34133 c 0.34134,-6.99733 1.70667,-15.616 1.70667,-15.616 l -0.34133,-0.68266 c 0,0 -1.28,-0.34133 -2.90134,-0.34133 -3.92533,0 -8.44799,3.15733 -12.03199,8.44799 l -0.512,-0.34133 c 0.0853,-3.66933 0.93867,-7.936 0.93867,-7.936 l -0.85334,-0.768 c 0,0 -8.19199,1.70667 -15.61599,2.816 l -0.512,4.43733 0.42667,0.59734 c 0,0 0.93866,-0.0853 1.62133,-0.0853 2.816,0 3.66933,1.10934 3.66933,5.03467 v 16.89599 c 0,4.352 -0.93867,5.54666 -4.352,5.80266 z" />
      <path
         id="path957"
         style="font-style:normal;font-variant:normal;font-weight:bold;font-stretch:normal;font-size:85.3333px;font-family:Alegreya;-inkscape-font-specification:'Alegreya Bold';font-variant-ligatures:normal;font-variant-caps:normal;font-variant-numeric:normal;font-variant-east-asian:normal;fill:#6076bf;fill-opacity:1"
         d="m 596.97054,201.67016 -16.38399,3.84 c -2.98666,0.68266 -4.94933,3.584 -4.94933,7.08266 0,7.08266 5.03467,12.45866 11.69066,12.45866 2.13333,0 5.97333,-3.072 9.38667,-6.48533 l 0.68266,0.256 c 0.512,4.26667 3.49867,6.57066 8.61866,6.57066 4.096,-1.19466 8.27733,-8.53332 8.27733,-8.53332 l -1.36533,-1.792 c 0,0 -1.96266,1.45066 -4.01066,1.45066 -1.87734,0 -3.072,-1.36533 -3.072,-3.41333 0,-3.75466 1.70666,-14.59199 1.70666,-17.49333 0,-6.57066 -4.18133,-11.69066 -14.25066,-11.69066 -4.096,0 -15.78666,6.57067 -15.78666,6.57067 l 1.536,5.11999 0.768,0.42667 c 0,0 4.94933,-4.01066 9.984,-4.01066 4.608,0 7.25333,2.81599 7.25333,7.67999 z m -0.34133,12.71466 c -1.87733,1.36533 -4.352,2.38933 -6.05866,2.38933 -2.816,0 -4.69333,-2.21866 -4.69333,-5.20533 0,-1.45067 0.59733,-2.304 1.96266,-2.73066 l 8.96,-2.47467 z" />
      <path
         id="path959"
         style="font-style:normal;font-variant:normal;font-weight:bold;font-stretch:normal;font-size:85.3333px;font-family:Alegreya;-inkscape-font-specification:'Alegreya Bold';font-variant-ligatures:normal;font-variant-caps:normal;font-variant-numeric:normal;font-variant-east-asian:normal;fill:#6076bf;fill-opacity:1"
         d="m 640.79052,225.05148 c 0,0 6.22933,-0.68266 9.55733,-0.68266 3.24267,0 9.30133,0.256 9.30133,0.256 l 0.768,-5.29067 -0.17066,-0.34133 c 0,0 -1.62134,0.0853 -2.56,0.0853 -1.96267,0 -2.64534,-1.10933 -2.64534,-4.01066 0,-4.18134 1.536,-16.72533 1.536,-20.05333 0,-6.99733 -4.77866,-11.09333 -12.88532,-11.09333 -2.304,0 -8.27733,4.69333 -11.008,7.08267 l -0.34133,-0.34134 c 0.17066,-2.90133 0.93866,-5.88799 0.93866,-5.88799 l -0.68266,-0.85334 c 0,0 -8.10667,1.62133 -15.872,2.816 l -0.512,4.52267 0.34134,0.42666 h 1.10933 c 3.24266,0 4.18133,1.19467 4.18133,5.12 v 17.91999 c 0,3.15733 -1.19466,4.352 -4.43733,4.69333 l -0.68267,5.46134 c 0,0 5.71733,-0.512 10.15467,-0.512 3.41333,0 9.04533,0.256 9.04533,0.256 l 0.93866,-5.376 -0.256,-0.42667 c 0,0 -1.536,0.17067 -2.21866,0.17067 -1.87734,0 -2.56,-0.93867 -2.56,-3.84 0,-2.38933 0.512,-12.88533 0.85333,-19.11466 1.45067,-1.024 4.52266,-3.15733 7.33866,-3.15733 3.66934,0 5.46133,2.38933 5.46133,7.424 l -0.256,14.59199 c -0.0853,2.816 -1.19466,4.096 -3.92533,4.77866 z" />
      <path
         id="path961"
         style="font-style:normal;font-variant:normal;font-weight:bold;font-stretch:normal;font-size:85.3333px;font-family:Alegreya;-inkscape-font-specification:'Alegreya Bold';font-variant-ligatures:normal;font-variant-caps:normal;font-variant-numeric:normal;font-variant-east-asian:normal;fill:#6076bf;fill-opacity:1"
         d="m 691.07851,219.07815 0.59734,0.17067 c 0.59733,4.096 3.49866,6.14399 8.53333,6.14399 4.77866,-1.62133 8.61866,-8.53332 8.61866,-8.53332 l -1.36533,-1.792 c 0,0 -1.792,1.45066 -3.84,1.45066 -1.70667,0 -2.73067,-1.36533 -2.73067,-3.49866 0,-25.34399 1.19467,-48.29865 2.64533,-50.51732 l -0.768,-1.45066 c 0,0 -8.87466,1.792 -17.06666,2.816 l -0.512,5.20533 c 0,0 1.28,-0.256 2.048,-0.256 2.73067,0 3.584,1.19466 3.584,4.77866 v 10.752 c -1.536,-0.17067 -2.90133,-0.17067 -4.26666,-0.17067 -12.544,0 -21.58933,9.30133 -21.58933,22.18666 0,11.51999 6.31467,18.68799 16.29866,18.68799 1.024,0 4.43733,-2.048 9.81333,-5.97333 z m -0.256,-4.864 c 0,0 -3.24266,2.816 -6.39999,2.816 -4.94934,0 -8.27733,-5.376 -8.27733,-13.82399 0,-7.59467 3.07199,-11.86133 8.53333,-11.86133 3.66933,0 6.14399,1.45067 6.14399,1.45067 z" />
      <path
         id="path963"
         style="font-style:normal;font-variant:normal;font-weight:bold;font-stretch:normal;font-size:85.3333px;font-family:Alegreya;-inkscape-font-specification:'Alegreya Bold';font-variant-ligatures:normal;font-variant-caps:normal;font-variant-numeric:normal;font-variant-east-asian:normal;fill:#6076bf;fill-opacity:1"
         d="m 721.29583,175.3875 c 4.01067,0 6.82667,-2.73066 6.82667,-6.82666 0,-3.84 -2.38934,-6.144 -6.05867,-6.144 -4.01066,0 -6.74133,2.73067 -6.74133,6.82667 0,3.83999 2.21867,6.14399 5.97333,6.14399 z m -10.41066,49.91998 c 0,0 6.22933,-0.93866 10.496,-0.93866 3.58399,0 9.47199,0.256 9.47199,0.256 l 0.85333,-5.376 -0.17066,-0.34134 c 0,0 -1.62133,0.17067 -2.47467,0.17067 -1.87733,0 -2.64533,-1.024 -2.64533,-3.75466 0,-15.18933 0.85333,-27.47733 2.048,-29.95199 l -0.768,-1.45067 c 0,0 -8.53333,1.792 -16.38399,2.816 l -0.512,5.03467 c 0,0 1.28,-0.256 1.96266,-0.256 2.73067,0 3.66933,1.19466 3.66933,4.77866 v 18.26133 c 0,3.07199 -1.45066,4.69333 -4.86399,5.29066 z" />
      <path
         id="path965"
         style="font-style:normal;font-variant:normal;font-weight:bold;font-stretch:normal;font-size:85.3333px;font-family:Alegreya;-inkscape-font-specification:'Alegreya Bold';font-variant-ligatures:normal;font-variant-caps:normal;font-variant-numeric:normal;font-variant-east-asian:normal;fill:#6076bf;fill-opacity:1"
         d="m 737.33584,219.41948 -0.68267,5.29067 c 0,0 5.54666,-0.34133 10.75199,-0.34133 4.096,0 11.17867,0.34133 11.17867,0.34133 l 0.93866,-5.80267 -0.256,-0.512 c 0,0 -2.73066,0.34134 -4.35199,0.34134 -2.47467,0 -3.24267,-1.024 -3.24267,-3.92533 0,-1.536 0.768,-16.384 0.768,-16.384 1.70667,-2.304 3.84,-3.66933 5.632,-3.66933 1.96266,0 2.47466,1.28 2.47466,6.74133 l 5.54667,-0.34133 c 0.34133,-6.99733 1.70666,-15.616 1.70666,-15.616 l -0.34133,-0.68266 c 0,0 -1.28,-0.34133 -2.90133,-0.34133 -3.92533,0 -8.448,3.15733 -12.032,8.44799 l -0.512,-0.34133 c 0.0853,-3.66933 0.93867,-7.936 0.93867,-7.936 l -0.85333,-0.768 c 0,0 -8.192,1.70667 -15.616,2.816 l -0.512,4.43733 0.42667,0.59734 c 0,0 0.93867,-0.0853 1.62133,-0.0853 2.816,0 3.66933,1.10934 3.66933,5.03467 v 16.89599 c 0,4.352 -0.93866,5.54666 -4.35199,5.80266 z" />
    </g>
  </g>
</svg>
