<?xml version="1.0" encoding="UTF-8" standalone="no"?>
<svg
   xmlns:dc="http://purl.org/dc/elements/1.1/"
   xmlns:cc="http://creativecommons.org/ns#"
   xmlns:rdf="http://www.w3.org/1999/02/22-rdf-syntax-ns#"
   xmlns:svg="http://www.w3.org/2000/svg"
   xmlns="http://www.w3.org/2000/svg"
   xmlns:sodipodi="http://sodipodi.sourceforge.net/DTD/sodipodi-0.dtd"
   xmlns:inkscape="http://www.inkscape.org/namespaces/inkscape"
   id="bold"
   enable-background="new 0 0 24 24"
   height="512"
   viewBox="0 0 24 24"
   width="512"
   version="1.1"
   sodipodi:docname="icon-edit-rattery.svg"
   inkscape:version="1.0beta1 (fe3e306, 2019-09-17)">
  <metadata
     id="metadata17">
    <rdf:RDF>
      <cc:Work
         rdf:about="">
        <dc:format>image/svg+xml</dc:format>
        <dc:type
           rdf:resource="http://purl.org/dc/dcmitype/StillImage" />
        <dc:title></dc:title>
      </cc:Work>
    </rdf:RDF>
  </metadata>
  <defs
     id="defs15" />
  <sodipodi:namedview
     pagecolor="#ffffff"
     bordercolor="#666666"
     inkscape:document-rotation="0"
     borderopacity="1"
     objecttolerance="10"
     gridtolerance="10"
     guidetolerance="10"
     inkscape:pageopacity="0"
     inkscape:pageshadow="2"
     inkscape:window-width="1920"
     inkscape:window-height="1001"
     id="namedview13"
     showgrid="false"
     inkscape:zoom="0.57038106"
     inkscape:cx="171.3511"
     inkscape:cy="242.99405"
     inkscape:window-x="-9"
     inkscape:window-y="-9"
     inkscape:window-maximized="1"
     inkscape:current-layer="g10" />
  <g
     id="g10">
    <path
       id="path2"
       d="M 11.449151,1.0153865 A 1.6097577,1.6097577 0 0 0 9.5823524,0.72199527 5.4581172,5.4581172 0 0 0 9.3424465,0.45768377 a 1.5972951,1.5972951 0 0 0 -2.2562577,0 L 4.2457457,3.2981269 a 0.51927669,0.51927669 0 0 0 0,0.7342567 0.525508,0.525508 0 0 0 0.7342578,0 L 7.8204467,1.1919405 a 0.55718388,0.55718388 0 0 1 0.787742,0 l 0.1900556,0.1905749 -1.1553897,1.154871 a 0.27002388,0.27002388 0 0 0 0,0.3811488 l 1.9036679,1.9010727 a 0.26898532,0.26898532 0 0 0 0.3801106,0 L 11.449151,3.2970888 a 1.6144312,1.6144312 0 0 0 0,-2.2817023 z"
       style="overflow:hidden;fill:#663300;fill-opacity:1;stroke-width:0.0121706"
       inkscape:connector-curvature="0" />
    <path
       id="path4-0"
       d="m 7.07165,3.4892209 a 0.2695046,0.2695046 0 0 0 -0.3806298,0 L 2.4189307,7.7623484 a 0.80695596,0.80695596 0 0 0 0,1.1424092 L 3.561339,10.047166 a 0.80695596,0.80695596 0 0 0 1.1424092,0 L 8.9763569,5.7745574 a 0.2695046,0.2695046 0 0 0 0,-0.3806298 z M 1.5730289,9.2132086 a 0.25963833,0.25963833 0 0 0 -0.4278836,0.09503 L 0.13515231,12.105063 a 0.25963833,0.25963833 0 0 0 0.0607601,0.271582 0.26535038,0.26535038 0 0 0 0.27210098,0.06127 L 3.2648379,11.42845 a 0.25963833,0.25963833 0 0 0 0.09503,-0.427884 z"
       style="overflow:hidden;fill:#663300;fill-opacity:1;stroke-width:0.0121706"
       inkscape:connector-curvature="0" />
    <path
       style="display:inline;opacity:1;fill:#663300;fill-opacity:1;stroke-width:0.329513;stop-opacity:1"
       sodipodi:nodetypes="cccccccccccccccccccsssssssssssssssssccsssssssssssssssssscssccc"
       d="M 23.155626,15.356897 21.84087,10.796453 C 21.622268,9.7977305 20.741154,9.0835453 19.718817,9.0763969 h -1.35279 V 7.7385776 C 18.364203,6.5036552 16.722529,5.5030054 15.487606,5.5011902 h -2.065489 c -1.234923,0.00182 -2.876615,1.002465 -2.87843,2.2373874 V 9.0763969 H 9.1744223 C 8.1586801,9.0770882 7.278257,9.7797433 7.0523685,10.77009 l -1.3180503,4.586807 c -1.1269272,0.329502 -1.1236339,2.036385 0,2.362603 l 1.3180503,4.560444 C 7.272094,23.277983 8.1525258,23.991624 9.1744223,24 H 19.718817 c 1.016303,-0.0023 1.89638,-0.706026 2.122053,-1.696986 L 23.158921,17.7195 c 1.123633,-0.332787 1.12034,-2.036386 -0.0033,-2.362603 z m -8.379492,-3.996981 v 2.356007 c 0,0.439365 -0.659003,0.439365 -0.659003,0 v -2.356007 c 0,-0.439364 0.659003,-0.439364 0.659003,0 z m -4.7845172,0 c 0,-0.439364 0.6590032,-0.439364 0.6590032,0 v 2.356007 c 0,0.439365 -0.6590032,0.439365 -0.6590032,0 z m 8.2378032,0 c 0,-0.439364 0.659003,-0.439364 0.659003,0 v 2.356007 c 0,0.439365 -0.659003,0.439365 -0.659003,0 z M 12.257149,7.9770606 c 0,-0.325785 0.520616,-0.7821777 0.846314,-0.7821777 h 2.689796 c 0.324489,0.00182 0.842858,0.2974331 0.842771,0.6219217 0,0 -0.04927,1.1319666 -0.478088,1.1292175 -1.102432,-0.0071 -2.056794,0.00491 -3.498874,0 C 12.309426,8.94493 12.257045,7.9770693 12.257045,7.9770693 Z M 10.650638,21.88124 c 0,0.439364 -0.6590042,0.439364 -0.6590042,0 v -2.356016 c 0,-0.439364 0.6590042,-0.439364 0.6590042,0 z m 4.125496,0 c 0,0.439364 -0.659003,0.439364 -0.659003,0 v -2.356016 c 0,-0.439364 0.659003,-0.439364 0.659003,0 z m 4.125489,0 c 0,0.439364 -0.659004,0.439364 -0.659004,0 v -2.356016 c 0,-0.439364 0.659004,-0.439364 0.659004,0 z m 4.441825,-5.305152 c 0,0.300286 -0.24341,0.543696 -0.543695,0.543696 H 6.0934854 c -0.7215846,0 -0.7282403,-1.156585 0,-1.163171 H 22.799753 c 0.329501,0.0036 0.582938,0.292333 0.543695,0.619501 z"
       id="path2-2"
       inkscape:connector-curvature="0" />
  </g>
</svg>
