<?xml version="1.0" encoding="UTF-8" standalone="no"?>
<svg
   xmlns:dc="http://purl.org/dc/elements/1.1/"
   xmlns:cc="http://creativecommons.org/ns#"
   xmlns:rdf="http://www.w3.org/1999/02/22-rdf-syntax-ns#"
   xmlns:svg="http://www.w3.org/2000/svg"
   xmlns="http://www.w3.org/2000/svg"
   xmlns:sodipodi="http://sodipodi.sourceforge.net/DTD/sodipodi-0.dtd"
   xmlns:inkscape="http://www.inkscape.org/namespaces/inkscape"
   sodipodi:docname="icon-litter.svg"
   inkscape:version="1.0beta1 (fe3e306, 2019-09-17)"
   width="64px"
   height="64px"
   viewBox="0 0 64 64"
   version="1.1"
   id="SVGRoot">
  <defs
     id="defs2059" />
  <sodipodi:namedview
     inkscape:grid-bbox="true"
     inkscape:window-maximized="1"
     inkscape:window-y="-9"
     inkscape:window-x="-9"
     inkscape:window-height="1001"
     inkscape:window-width="1920"
     showgrid="false"
     inkscape:document-rotation="0"
     inkscape:current-layer="layer1"
     inkscape:document-units="px"
     inkscape:cy="35.586239"
     inkscape:cx="50.526882"
     inkscape:zoom="7.9195959"
     inkscape:pageshadow="2"
     inkscape:pageopacity="0.0"
     borderopacity="1.0"
     bordercolor="#666666"
     pagecolor="#ffffff"
     id="base" />
  <metadata
     id="metadata2062">
    <rdf:RDF>
      <cc:Work
         rdf:about="">
        <dc:format>image/svg+xml</dc:format>
        <dc:type
           rdf:resource="http://purl.org/dc/dcmitype/StillImage" />
        <dc:title></dc:title>
      </cc:Work>
    </rdf:RDF>
  </metadata>
  <g
     id="layer1"
     inkscape:groupmode="layer"
     inkscape:label="Calque 1">
    <path
       inkscape:connector-curvature="0"
       style="overflow:hidden;fill:#663300;stroke-width:0.0686483;fill-opacity:1"
       d="m 58.191053,26.945953 c 0.56086,0.59449 1.13064,1.13064 1.62216,1.732 0.93568,1.14436 0.89723,2.49605 -0.0467,3.6411 -0.91233,1.10661 -2.42534,1.42925 -3.65895,0.74826 -0.31304,-0.17299 -0.59312,-0.42287 -0.84849,-0.67755 -7.89112,-7.87396 -15.77949,-15.75134 -23.66305,-23.6335403 -1.15947,-1.15946 -1.32697,-2.72396 -0.45034,-3.88892 0.93568,-1.24322 2.5853,-1.64756 3.8903,-0.84643 0.58488,0.35903 1.0359,0.93636 1.54939,1.41278 0.16888,0.15652 0.34393,0.30754 0.48603,0.43386 5.80352,-4.34269 11.80681,-4.86098 18.24533,-1.10387 0.51761,-0.57184 1.02629,-1.20134 1.60431,-1.75945 1.15878,-1.11828 2.87224,-1.08808 4.00151,0.0275 1.21301,1.19791 1.27136,2.90519 0.10709,4.11958 -0.53958,0.56223 -1.1375,1.06885 -1.71278,1.60431 3.68779,6.3623203 3.32121,12.3779603 -1.12583,18.1904103 z m -4.60423,9.57712 c 0.15445,0.15514 0.15514,0.40639 6.7e-4,0.56154 l -0.007,0.007 c -7.62339,7.62819 -15.25021,15.25364 -22.86948,22.88663 -1.60774,1.61049 -3.51547,2.24961 -5.693,1.57685 -0.85741,-0.26498 -1.70659,-0.82721 -2.3512,-1.46495 -6.27788,-6.20992 -12.51938,-12.4576 -18.7553901,-18.71008 -2.33953,-2.34571 -2.38895,-5.52 -0.0535,-7.8664 7.6995901,-7.73597 15.4362401,-15.43624 23.1598601,-23.14819 l 0.003,-0.003 c 0.15309,-0.15172 0.40366,-0.14279 0.55537,0.0103 8.68057,8.72725 17.33917,17.43184 26.01082,26.15017 z m -27.0632,-14.09761 c -0.53614,-0.53614 -1.40523,-0.53614 -1.94137,0 l -13.49968,13.49899 c -0.53614,0.53615 -0.53614,1.40523 0,1.94206 0.26841,0.26842 0.61921,0.40228 0.97069,0.40228 0.35147,0 0.70295,-0.13386 0.97068,-0.40228 l 13.49968,-13.49967 c 0.53614,-0.53615 0.53614,-1.40523 0,-1.94138 z"
       id="path2" />
  </g>
</svg>
