<?xml version="1.0" encoding="UTF-8" standalone="no"?>
<svg
   xmlns:dc="http://purl.org/dc/elements/1.1/"
   xmlns:cc="http://creativecommons.org/ns#"
   xmlns:rdf="http://www.w3.org/1999/02/22-rdf-syntax-ns#"
   xmlns:svg="http://www.w3.org/2000/svg"
   xmlns="http://www.w3.org/2000/svg"
   xmlns:sodipodi="http://sodipodi.sourceforge.net/DTD/sodipodi-0.dtd"
   xmlns:inkscape="http://www.inkscape.org/namespaces/inkscape"
   sodipodi:docname="icon-fa-eye.svg"
   inkscape:version="1.0beta1 (fe3e306, 2019-09-17)"
   width="576px"
   height="384px"
   viewBox="0 0 576 384"
   version="1.1"
   id="SVGRoot">
  <defs
     id="defs835" />
  <sodipodi:namedview
     inkscape:window-maximized="1"
     inkscape:window-y="-9"
     inkscape:window-x="-9"
     inkscape:window-height="1001"
     inkscape:window-width="1920"
     showgrid="false"
     inkscape:document-rotation="0"
     inkscape:current-layer="layer1"
     inkscape:document-units="px"
     inkscape:cy="231.08292"
     inkscape:cx="255.88822"
     inkscape:zoom="0.98994949"
     inkscape:pageshadow="2"
     inkscape:pageopacity="0.0"
     borderopacity="1.0"
     bordercolor="#666666"
     pagecolor="#ffffff"
     id="base" />
  <metadata
     id="metadata838">
    <rdf:RDF>
      <cc:Work
         rdf:about="">
        <dc:format>image/svg+xml</dc:format>
        <dc:type
           rdf:resource="http://purl.org/dc/dcmitype/StillImage" />
        <dc:title></dc:title>
      </cc:Work>
    </rdf:RDF>
  </metadata>
  <g
     id="layer1"
     inkscape:groupmode="layer"
     inkscape:label="Calque 1">
    <path
       inkscape:connector-curvature="0"
       fill="currentColor"
       d="M 570.02513,177.52802 C 516.27065,72.645837 409.85206,1.6835888 288,1.6835888 166.14794,1.6835888 59.69961,72.695398 5.9748729,177.53793 a 32.066332,32.066332 0 0 0 0,28.93405 C 59.729347,311.35416 166.14794,382.31641 288,382.31641 c 121.85206,0 228.30039,-71.01181 282.02513,-175.85435 a 32.066332,32.066332 0 0 0 0,-28.93404 z M 288,334.73731 A 142.73731,142.73731 0 1 1 430.73731,192 142.66792,142.66792 0 0 1 288,334.73731 Z M 288,96.841793 A 94.474255,94.474255 0 0 0 262.91193,100.59856 47.430418,47.430418 0 0 1 196.59856,166.91194 94.940134,94.940134 0 1 0 288,96.841793 Z"
       id="path2"
       style="fill:#663300;fill-opacity:1;stroke-width:0.991231" />
  </g>
</svg>
