<?xml version="1.0" encoding="UTF-8" standalone="no"?>
<svg
   xmlns:dc="http://purl.org/dc/elements/1.1/"
   xmlns:cc="http://creativecommons.org/ns#"
   xmlns:rdf="http://www.w3.org/1999/02/22-rdf-syntax-ns#"
   xmlns:svg="http://www.w3.org/2000/svg"
   xmlns="http://www.w3.org/2000/svg"
   xmlns:sodipodi="http://sodipodi.sourceforge.net/DTD/sodipodi-0.dtd"
   xmlns:inkscape="http://www.inkscape.org/namespaces/inkscape"
   width="64px"
   height="64px"
   viewBox="0 0 64 64"
   version="1.1"
   id="SVGRoot"
   sodipodi:docname="icon-staff-litter.svg"
   inkscape:version="1.0beta1 (fe3e306, 2019-09-17)">
  <sodipodi:namedview
     pagecolor="#ffffff"
     bordercolor="#666666"
     inkscape:document-rotation="0"
     borderopacity="1"
     objecttolerance="10"
     gridtolerance="10"
     guidetolerance="10"
     inkscape:pageopacity="0"
     inkscape:pageshadow="2"
     inkscape:window-width="1920"
     inkscape:window-height="1001"
     id="namedview856"
     showgrid="false"
     inkscape:zoom="6.453125"
     inkscape:cx="24.621937"
     inkscape:cy="44.737103"
     inkscape:window-x="-9"
     inkscape:window-y="-9"
     inkscape:window-maximized="1"
     inkscape:current-layer="SVGRoot" />
  <defs
     id="defs830" />
  <metadata
     id="metadata833">
    <rdf:RDF>
      <cc:Work
         rdf:about="">
        <dc:format>image/svg+xml</dc:format>
        <dc:type
           rdf:resource="http://purl.org/dc/dcmitype/StillImage" />
        <dc:title></dc:title>
      </cc:Work>
    </rdf:RDF>
  </metadata>
  <path
     style="fill:#b1000c;fill-opacity:1;stroke-width:0.0479757"
     inkscape:connector-curvature="0"
     id="path2"
     d="m 22.488885,14.75736 -2.043763,-1.180203 c 0.206294,-1.113034 0.206294,-2.254855 0,-3.36789 L 22.488885,9.0290648 C 22.723965,8.8947338 22.829511,8.6164754 22.75275,8.3574061 22.220221,6.6494698 21.31348,5.1046579 20.128482,3.8189114 19.946174,3.6222092 19.648725,3.5742308 19.418442,3.7085657 L 17.374678,4.8887668 C 16.515914,4.1499445 15.527616,3.579031 14.457759,3.2048198 V 0.84921789 c 0,-0.2686659 -0.187105,-0.5037461 -0.450971,-0.5613171 -1.760707,-0.3934042 -3.564592,-0.3742113 -5.2389427,0 -0.263866,0.057571 -0.450971,0.2926512 -0.450971,0.5613171 V 3.209616 c -1.06506,0.3790076 -2.053359,0.949921 -2.916921,1.6839471 L 3.3609893,3.713362 C 3.1259083,3.579031 2.8332533,3.6222092 2.6509483,3.8237077 1.4659473,5.1046579 0.55920827,6.6494698 0.02668027,8.3622062 c -0.08156,0.2590694 0.02879,0.5373239 0.263862,0.6716549 L 2.3343083,10.214064 c -0.206295,1.113035 -0.206295,2.254856 0,3.367891 l -2.04376603,1.180201 c -0.235076,0.134332 -0.340622,0.412592 -0.263862,0.67166 0.532528,1.707933 1.43926703,3.252749 2.62426803,4.538497 0.182305,0.1967 0.479757,0.244677 0.710041,0.110345 l 2.043761,-1.180202 c 0.858765,0.738826 1.847064,1.309736 2.916922,1.683946 v 2.360403 c 0,0.268664 0.187104,0.503744 0.450971,0.561316 1.7607067,0.393399 3.5645907,0.374209 5.2389417,0 0.263866,-0.05757 0.45097,-0.292652 0.45097,-0.561316 v -2.360403 c 1.065061,-0.379007 2.053359,-0.949918 2.916921,-1.683946 l 2.043763,1.180202 c 0.235081,0.134332 0.527733,0.09115 0.710041,-0.110345 1.184998,-1.28095 2.091738,-2.825766 2.624269,-4.538497 0.07196,-0.263866 -0.03359,-0.542125 -0.268664,-0.676456 z m -11.101569,0.973904 c -2.1157257,0 -3.8380527,-1.722325 -3.8380527,-3.838051 0,-2.1157255 1.722327,-3.8380546 3.8380527,-3.8380546 2.115727,0 3.838053,1.7223291 3.838053,3.8380546 0,2.115726 -1.722326,3.838051 -3.838053,3.838051 z"
     fill="currentColor" />
  <g
     style="fill:#b1000c;fill-opacity:1"
     transform="matrix(0,-0.62054399,-0.62054399,0,59.269036,59.661326)"
     id="g2723">
    <path
       style="fill:#b1000c;fill-opacity:1"
       id="path2-9"
       d="m 52.625024,1.4314358 c -1.765,-1.76499998 -3.56,-1.76599998 -5.324,0 l -2.632,2.6330004 c -1.766,1.766 -1.766,3.559 0,5.324 l 21.322,21.3219998 c 1.766,1.765 3.561,1.768 5.326,0 l 2.631,-2.63 c 1.768,-1.767 1.765,-3.562 -0.002,-5.327 z"
       inkscape:connector-curvature="0" />
    <path
       style="fill:#b1000c;fill-opacity:1"
       id="path4"
       d="m 81.297024,3.3394362 c 2.69,-2.94300038 1.903,-6.7840004 -0.283,-8.9700004 -2.188,-2.188 -6.026,-2.975 -8.971,-0.284 -1.734,1.734 -1.688,3.71 -3.026,5.04700002 -2.555,2.55599998 -9.297,-2.48300002 -13.33,1.265 l 19.299,19.29900018 c 3.748,-4.033 -1.291,-10.7749998 1.265,-13.3299998 1.337,-1.336 3.313,-1.294 5.046,-3.027 z"
       inkscape:connector-curvature="0" />
    <path
       style="fill:#b1000c;fill-opacity:1"
       id="path6"
       d="m 42.890024,11.775436 c -4.402,-4.4009998 -8.883,-4.4009998 -13.283,0 l -3.481,3.481 10.564,10.565 c 0.912,0.912 0.912,2.395 -10e-4,3.308 -0.913,0.913 -2.396,0.914 -3.308,0 l -10.565,-10.564 -7.286,7.287 10.566,10.566 c 0.913,0.912 0.913,2.394 0,3.306 -0.913,0.913 -2.396,0.916 -3.308,0.004 l -10.567,-10.568 -7.286,7.286 10.569,10.567 c 0.912,0.912 0.911,2.393 -0.003,3.307 -0.913,0.914 -2.394,0.916 -3.307,0 l -10.567,-10.564 -5.318,5.318 c -4.401,4.401 -4.401,8.881 0,13.284 l 20.717,20.715 c 4.401,4.402 8.882,4.402 13.284,0.002 l 33.299,-33.299 c 4.4,-4.401 4.4,-8.882 -0.002,-13.284 z"
       inkscape:connector-curvature="0" />
  </g>
</svg>
