<?xml version="1.0" encoding="UTF-8" standalone="no"?>
<svg
   xmlns:dc="http://purl.org/dc/elements/1.1/"
   xmlns:cc="http://creativecommons.org/ns#"
   xmlns:rdf="http://www.w3.org/1999/02/22-rdf-syntax-ns#"
   xmlns:svg="http://www.w3.org/2000/svg"
   xmlns="http://www.w3.org/2000/svg"
   xmlns:sodipodi="http://sodipodi.sourceforge.net/DTD/sodipodi-0.dtd"
   xmlns:inkscape="http://www.inkscape.org/namespaces/inkscape"
   inkscape:version="1.0beta1 (fe3e306, 2019-09-17)"
   sodipodi:docname="icon-report-larger.svg"
   version="1.1"
   viewBox="0 0 60 60"
   data-name="Layer 1"
   id="Layer_1">
  <metadata
     id="metadata15">
    <rdf:RDF>
      <cc:Work
         rdf:about="">
        <dc:format>image/svg+xml</dc:format>
        <dc:type
           rdf:resource="http://purl.org/dc/dcmitype/StillImage" />
        <dc:title>icon-report</dc:title>
      </cc:Work>
    </rdf:RDF>
  </metadata>
  <sodipodi:namedview
     inkscape:current-layer="Layer_1"
     inkscape:window-maximized="1"
     inkscape:window-y="-9"
     inkscape:window-x="-9"
     inkscape:cy="22.29107"
     inkscape:cx="34.504407"
     inkscape:zoom="3.4416667"
     showgrid="false"
     id="namedview13"
     inkscape:window-height="1001"
     inkscape:window-width="1920"
     inkscape:pageshadow="2"
     inkscape:pageopacity="0"
     guidetolerance="10"
     gridtolerance="10"
     objecttolerance="10"
     borderopacity="1"
     inkscape:document-rotation="0"
     bordercolor="#666666"
     pagecolor="#ffffff" />
  <defs
     id="defs4">
    <style
       id="style2">.cls-1{fill:#630;}.cls-2{fill:none;stroke:#630;stroke-linecap:round;stroke-linejoin:round;stroke-width:2.5px;}</style>
    <filter
       height="1.0048"
       y="-0.0024000001"
       width="1.0048"
       x="-0.0024000001"
       id="filter1477"
       style="color-interpolation-filters:sRGB"
       inkscape:collect="always">
      <feGaussianBlur
         id="feGaussianBlur1479"
         stdDeviation="0.25142857"
         inkscape:collect="always" />
    </filter>
  </defs>
  <title
     id="title6">icon-report</title>
  <rect
     transform="matrix(0.233663,0,0,0.233663,23.18298,24.239138)"
     inkscape:export-ydpi="389.11411"
     inkscape:export-xdpi="389.11411"
     ry="53.598671"
     y="-101.05971"
     x="-96.539703"
     height="251.42857"
     width="251.42857"
     id="rect1409"
     style="fill:#663300;fill-opacity:1;stroke:none;stroke-width:0.377953;stroke-miterlimit:4;stroke-dasharray:none;stroke-opacity:1;filter:url(#filter1477)" />
  <path
     inkscape:connector-curvature="0"
     style="fill:#ffffff;fill-opacity:1;stroke-width:1.05949"
     id="path8"
     d="M 27.528214,20.257041 A 1.3243592,1.3243592 0 0 1 28.810194,18.689 h 2.638123 a 1.345549,1.345549 0 0 1 1.32436,1.568041 l -1.292575,14.906988 a 1.345549,1.345549 0 0 1 -1.356144,1.313764 1.3031695,1.3031695 0 0 1 -1.313764,-1.313764 z m 2.595744,18.890661 a 2.5003902,2.5003902 0 0 1 2.648719,2.52158 v 0.37082 a 2.5003902,2.5003902 0 0 1 -2.595744,2.52158 2.52158,2.52158 0 0 1 -2.595744,-2.52158 v -0.37082 a 2.52158,2.52158 0 0 1 2.542769,-2.52158 z"
     class="cls-1" />
  <polygon
     transform="matrix(1.092686,0,0,1.092686,-3.3487767,-6.2066515)"
     style="stroke:#ffffff;stroke-width:4.2549;stroke-miterlimit:4;stroke-dasharray:none;stroke-opacity:1"
     id="polygon10"
     points="19.16,31.31 30.52,11.63 41.88,31.31 53.24,50.98 30.52,50.98 7.8,50.98 "
     class="cls-2" />
</svg>
