<?xml version="1.0" encoding="UTF-8" standalone="no"?>
<svg
   xmlns:dc="http://purl.org/dc/elements/1.1/"
   xmlns:cc="http://creativecommons.org/ns#"
   xmlns:rdf="http://www.w3.org/1999/02/22-rdf-syntax-ns#"
   xmlns:svg="http://www.w3.org/2000/svg"
   xmlns="http://www.w3.org/2000/svg"
   xmlns:sodipodi="http://sodipodi.sourceforge.net/DTD/sodipodi-0.dtd"
   xmlns:inkscape="http://www.inkscape.org/namespaces/inkscape"
   id="SVGRoot"
   version="1.1"
   viewBox="0 0 64 64"
   height="64px"
   width="64px"
   inkscape:version="1.0beta1 (fe3e306, 2019-09-17)"
   sodipodi:docname="icon-declare-death.svg">
  <defs
     id="defs2785" />
  <sodipodi:namedview
     id="base"
     pagecolor="#ffffff"
     bordercolor="#666666"
     borderopacity="1.0"
     inkscape:pageopacity="0.0"
     inkscape:pageshadow="2"
     inkscape:zoom="5.6"
     inkscape:cx="42.090632"
     inkscape:cy="38.217934"
     inkscape:document-units="px"
     inkscape:current-layer="layer1"
     inkscape:document-rotation="0"
     showgrid="false"
     inkscape:window-width="1920"
     inkscape:window-height="1001"
     inkscape:window-x="-9"
     inkscape:window-y="-9"
     inkscape:window-maximized="1"
     inkscape:grid-bbox="true" />
  <metadata
     id="metadata2788">
    <rdf:RDF>
      <cc:Work
         rdf:about="">
        <dc:format>image/svg+xml</dc:format>
        <dc:type
           rdf:resource="http://purl.org/dc/dcmitype/StillImage" />
        <dc:title></dc:title>
      </cc:Work>
    </rdf:RDF>
  </metadata>
  <g
     inkscape:label="Calque 1"
     inkscape:groupmode="layer"
     id="layer1">
    <g
       transform="matrix(0.06813443,0,0,0.07524119,3.1450689,0.15416633)"
       style="image-rendering:optimizeQuality;shape-rendering:geometricPrecision;text-rendering:geometricPrecision;fill:#663300;fill-opacity:1"
       id="g8">
      <path
         style="fill:#663300;fill-opacity:1"
         sodipodi:nodetypes="sssccsssccsssccccsscsscss"
         class="fil0"
         d="M 771,686 H 75 c -29,0 -53,24 -53,53 v 80 h 803 v -80 c 0,-29 -24,-53 -54,-53 z M 129,320 V 632 H 718 V 320 c 0,-390 -589,-390 -589,0 z m 401,26 h -80 v 286.84264 c -53,0 0,0 -53,0 V 346 h -81 c -35,0 -35,-53 0,-53 h 81 v -81 c 0,-35 53,-35 53,0 v 81 h 80 c 36,0 36,53 0,53 z"
         id="path6"
         inkscape:connector-curvature="0" />
    </g>
  </g>
</svg>
