<?xml version="1.0" encoding="UTF-8" standalone="no"?>
<svg
   xmlns:dc="http://purl.org/dc/elements/1.1/"
   xmlns:cc="http://creativecommons.org/ns#"
   xmlns:rdf="http://www.w3.org/1999/02/22-rdf-syntax-ns#"
   xmlns:svg="http://www.w3.org/2000/svg"
   xmlns="http://www.w3.org/2000/svg"
   xmlns:sodipodi="http://sodipodi.sourceforge.net/DTD/sodipodi-0.dtd"
   xmlns:inkscape="http://www.inkscape.org/namespaces/inkscape"
   inkscape:version="1.0beta1 (fe3e306, 2019-09-17)"
   sodipodi:docname="icon-fa-baby.svg"
   aria-hidden="true"
   focusable="false"
   data-prefix="fas"
   data-icon="baby-carriage"
   class="svg-inline--fa fa-baby-carriage fa-w-16"
   role="img"
   viewBox="0 0 512 512"
   version="1.1"
   id="svg4">
  <sodipodi:namedview
     inkscape:current-layer="svg4"
     inkscape:window-maximized="0"
     inkscape:window-y="166"
     inkscape:window-x="522"
     inkscape:cy="256"
     inkscape:cx="256"
     inkscape:zoom="0.4609375"
     showgrid="false"
     id="namedview845"
     inkscape:window-height="676"
     inkscape:window-width="1047"
     inkscape:pageshadow="2"
     inkscape:pageopacity="0"
     guidetolerance="10"
     gridtolerance="10"
     objecttolerance="10"
     borderopacity="1"
     inkscape:document-rotation="0"
     bordercolor="#666666"
     pagecolor="#ffffff" />
  <metadata
     id="metadata10">
    <rdf:RDF>
      <cc:Work
         rdf:about="">
        <dc:format>image/svg+xml</dc:format>
        <dc:type
           rdf:resource="http://purl.org/dc/dcmitype/StillImage" />
        <dc:title />
      </cc:Work>
    </rdf:RDF>
  </metadata>
  <defs
     id="defs8" />
  <path
     inkscape:connector-curvature="0"
     fill="currentColor"
     d="M 165.02654,30.171835 C 154.34898,13.352316 129.87563,8.6277314 114.00103,21.289617 61.558144,63.149433 28.20258,125.60844 28.20258,195.53228 h 241.89871 z m 331.85479,74.648435 h -45.35601 c -33.35556,0 -60.47467,27.11911 -60.47467,60.47467 v 60.47468 H 28.20258 c 0,47.81279 21.733087,91.08998 56.978485,123.50063 -32.694122,8.40976 -56.978485,37.79667 -56.978485,73.04207 0,41.76533 33.828023,75.59335 75.59335,75.59335 41.76532,0 75.59334,-33.82802 75.59334,-75.59335 0,-8.40976 -1.70085,-16.25257 -4.15763,-23.8119 20.4102,5.57501 42.14329,8.69323 64.63231,8.69323 22.48902,0 44.3166,-3.11822 64.63231,-8.69323 -2.55127,7.55933 -4.15763,15.40214 -4.15763,23.8119 0,41.76533 33.82802,75.59335 75.59335,75.59335 41.76532,0 75.59334,-33.82802 75.59334,-75.59335 0,-35.2454 -24.28436,-64.63231 -56.97848,-73.04207 35.2454,-32.41065 56.97848,-75.68784 56.97848,-123.50063 v -60.47468 h 45.35601 c 8.31527,0 15.11867,-6.8034 15.11867,-15.11867 v -30.23734 c 0,-8.31526 -6.8034,-15.11866 -15.11867,-15.11866 z m -393.0854,347.72939 c -16.630539,0 -30.237342,-13.6068 -30.237342,-30.23734 0,-16.63053 13.606803,-30.23734 30.237342,-30.23734 16.63053,0 30.23734,13.60681 30.23734,30.23734 0,16.63054 -13.60681,30.23734 -30.23734,30.23734 z m 302.37339,-30.23734 c 0,16.63054 -13.60681,30.23734 -30.23734,30.23734 -16.63054,0 -30.23734,-13.6068 -30.23734,-30.23734 0,-16.63053 13.6068,-30.23734 30.23734,-30.23734 16.63053,0 30.23734,13.60681 30.23734,30.23734 z"
     id="path2"
     style="fill:#663300;fill-opacity:1;stroke-width:0.944917" />
</svg>
