<?xml version="1.0" encoding="UTF-8" standalone="no"?>
<svg
   xmlns:dc="http://purl.org/dc/elements/1.1/"
   xmlns:cc="http://creativecommons.org/ns#"
   xmlns:rdf="http://www.w3.org/1999/02/22-rdf-syntax-ns#"
   xmlns:svg="http://www.w3.org/2000/svg"
   xmlns="http://www.w3.org/2000/svg"
   xmlns:sodipodi="http://sodipodi.sourceforge.net/DTD/sodipodi-0.dtd"
   xmlns:inkscape="http://www.inkscape.org/namespaces/inkscape"
   width="64px"
   height="64px"
   viewBox="0 0 64 64"
   version="1.1"
   id="SVGRoot"
   sodipodi:docname="icon-edit-as-user.svg"
   inkscape:version="1.0beta1 (fe3e306, 2019-09-17)">
  <sodipodi:namedview
     pagecolor="#ffffff"
     bordercolor="#666666"
     inkscape:document-rotation="0"
     borderopacity="1"
     objecttolerance="10"
     gridtolerance="10"
     guidetolerance="10"
     inkscape:pageopacity="0"
     inkscape:pageshadow="2"
     inkscape:window-width="1920"
     inkscape:window-height="1001"
     id="namedview856"
     showgrid="false"
     inkscape:zoom="6.453125"
     inkscape:cx="61.303282"
     inkscape:cy="48.756688"
     inkscape:window-x="-9"
     inkscape:window-y="-9"
     inkscape:window-maximized="1"
     inkscape:current-layer="SVGRoot" />
  <defs
     id="defs830" />
  <metadata
     id="metadata833">
    <rdf:RDF>
      <cc:Work
         rdf:about="">
        <dc:format>image/svg+xml</dc:format>
        <dc:type
           rdf:resource="http://purl.org/dc/dcmitype/StillImage" />
        <dc:title></dc:title>
      </cc:Work>
    </rdf:RDF>
  </metadata>
  <path
     sodipodi:nodetypes="ccccccccccccscccsccccccccsccccc"
     style="stroke-width:0.690671;fill:#663300;fill-opacity:1"
     inkscape:connector-curvature="0"
     d="M 44.693079,1.6327574 61.686,18.722806 C 55.429425,24.604818 44.73441,29.821742 41.918257,31.153523 L 32.304179,21.497627 C 33.622083,18.681474 38.838812,7.9170798 44.693079,1.6327574 Z M 29.648065,22.021025 c 0.197685,-0.02081 0.40125,0.02507 0.574659,0.142991 0.05549,0.124857 0.125852,0.235119 0.209088,0.318356 l 10.51519,10.558354 c 0.09711,0.09711 0.207956,0.179633 0.346684,0.221231 0.319065,0.346814 0.304616,0.887489 -0.02833,1.234304 l -0.665041,0.666389 c -0.166471,0.166475 -0.388735,0.263048 -0.62457,0.263048 -0.235837,0 -0.457133,-0.08271 -0.609733,-0.263048 L 28.447485,24.203652 c -0.346817,-0.34682 -0.346817,-0.915817 0,-1.262631 l 0.666389,-0.66639 c 0.145663,-0.145663 0.336505,-0.232795 0.534191,-0.253606 z m -1.741516,4.554109 8.94769,8.976018 c -4.064692,4.772202 -6.658194,14.44084 -6.033923,19.809562 L 4.1695187,61.767 18.999519,46.968 c 1.304031,0.194217 3.107795,0.26388 4.037264,-0.665591 1.623103,-1.609228 1.623103,-4.231412 0,-5.85451 -0.776869,-0.790744 -1.831315,-1.220814 -2.927256,-1.220814 -1.095941,0 -2.149419,0.443941 -2.912418,1.220814 -0.984958,0.998831 -0.901043,2.913578 -0.62359,4.273101 L 1.8135187,59.538 8.1792747,32.637386 C 13.520253,33.247783 23.148223,30.653701 27.906549,26.575134 Z"
     id="path4" />
</svg>
