<?xml version="1.0" encoding="UTF-8" standalone="no"?>
<svg
   xmlns:dc="http://purl.org/dc/elements/1.1/"
   xmlns:cc="http://creativecommons.org/ns#"
   xmlns:rdf="http://www.w3.org/1999/02/22-rdf-syntax-ns#"
   xmlns:svg="http://www.w3.org/2000/svg"
   xmlns="http://www.w3.org/2000/svg"
   xmlns:sodipodi="http://sodipodi.sourceforge.net/DTD/sodipodi-0.dtd"
   xmlns:inkscape="http://www.inkscape.org/namespaces/inkscape"
   sodipodi:docname="icon-edit-rattery.svg"
   inkscape:version="1.0beta1 (fe3e306, 2019-09-17)"
   width="64px"
   height="64px"
   viewBox="0 0 64 64"
   version="1.1"
   id="SVGRoot">
  <defs
     id="defs844" />
  <sodipodi:namedview
     inkscape:grid-bbox="true"
     inkscape:window-maximized="1"
     inkscape:window-y="-9"
     inkscape:window-x="-9"
     inkscape:window-height="1001"
     inkscape:window-width="1920"
     showgrid="false"
     inkscape:document-rotation="0"
     inkscape:current-layer="layer1"
     inkscape:document-units="px"
     inkscape:cy="49.019704"
     inkscape:cx="59.591054"
     inkscape:zoom="5.6"
     inkscape:pageshadow="2"
     inkscape:pageopacity="0.0"
     borderopacity="1.0"
     bordercolor="#666666"
     pagecolor="#ffffff"
     id="base" />
  <metadata
     id="metadata847">
    <rdf:RDF>
      <cc:Work
         rdf:about="">
        <dc:format>image/svg+xml</dc:format>
        <dc:type
           rdf:resource="http://purl.org/dc/dcmitype/StillImage" />
        <dc:title></dc:title>
      </cc:Work>
    </rdf:RDF>
  </metadata>
  <g
     id="layer1"
     inkscape:groupmode="layer"
     inkscape:label="Calque 1">
    <path
       id="path2"
       d="m 30.37193,2.73023 a 4.2911093,4.2911093 0 0 0 -4.97629,-0.78209 14.549629,14.549629 0 0 0 -0.63952,-0.70457 4.2578879,4.2578879 0 0 0 -6.01447,0 L 11.16992,8.8153 a 1.3842289,1.3842289 0 0 0 0,1.95729 1.4008395,1.4008395 0 0 0 1.9573,0 l 7.57173,-7.57173 a 1.4852775,1.4852775 0 0 1 2.09987,0 l 0.50663,0.50802 -3.07991,3.07852 a 0.71979899,0.71979899 0 0 0 0,1.01602 l 5.07458,5.06767 a 0.71703052,0.71703052 0 0 0 1.01326,0 l 4.05855,-4.05856 a 4.3035673,4.3035673 0 0 0 0,-6.0823 z"
       style="overflow:hidden;opacity:1;fill:#663300;fill-opacity:1;stroke-width:0.0324429;stop-opacity:1"
       inkscape:connector-curvature="0" />
    <path
       id="path4-0"
       d="m 18.70289,9.32469 a 0.71841476,0.71841476 0 0 0 -1.01464,0 L 6.3002,20.71551 a 2.1510915,2.1510915 0 0 0 0,3.0453 l 3.0453,3.04531 a 2.1510915,2.1510915 0 0 0 3.04531,0 L 23.78024,15.41668 a 0.71841476,0.71841476 0 0 0 0,-1.01464 z M 4.04529,24.58305 a 0.69211438,0.69211438 0 0 0 -1.1406,0.25332 l -2.69233,7.45546 a 0.69211438,0.69211438 0 0 0 0.16197,0.72395 0.70734091,0.70734091 0 0 0 0.72534,0.16333 l 7.45545,-2.69092 a 0.69211438,0.69211438 0 0 0 0.25332,-1.14061 z"
       style="overflow:hidden;opacity:1;fill:#663300;fill-opacity:1;stroke-width:0.0324429;stop-opacity:1"
       inkscape:connector-curvature="0" />
    <path
       style="display:inline;opacity:1;fill:#663300;fill-opacity:1;stroke-width:0.87791;stop-opacity:1"
       sodipodi:nodetypes="sccccccccccccccccccsssssssssssssssssccsssssssssssssssssscsccccccc"
       d="M 61.750393,40.972496 58.247533,28.822264 C 57.665115,26.161405 55.317598,24.25863 52.593822,24.23958 h -3.604186 v -3.564298 c -0.005,-3.290163 -4.37871,-5.956158 -7.668875,-5.960996 H 35.81775 c -3.290153,0.005 -7.664057,2.670833 -7.668896,5.960996 v 3.564298 h -3.64808 c -2.706206,0.002 -5.051884,1.8739 -5.653713,4.512451 l -3.511634,12.220465 c -3.002428,0.877871 -2.993653,5.425464 0,6.29459 l 3.511634,12.150231 C 19.432469,62.076358 21.778177,63.977682 24.500774,64 h 28.093048 c 2.707704,-0.006 5.052463,-1.881045 5.653711,-4.521215 l 3.511635,-12.211699 c 2.993652,-0.886627 2.984887,-5.425464 -0.009,-6.29459 z M 39.617877,30.323482 v 6.277019 c 0,1.170585 -2.135875,1.170585 -2.135875,0 v -6.277019 c 0,-1.170585 2.135875,-1.170585 2.135875,0 z m -13.319464,0 c 0,-1.170585 2.135339,-1.170585 2.135339,0 v 6.277019 c 0,1.170585 -2.135339,1.170585 -2.135339,0 z m 22.327268,0 c 0,-1.170585 2.135696,-1.170585 2.135696,0 v 6.277019 c 0,1.170585 -2.135696,1.170585 -2.135696,0 z M 32.713967,21.310663 c 0,-0.867986 1.38706,-2.083927 2.254806,-2.083927 h 7.166324 c 0.864529,0.005 2.245601,0.792438 2.245371,1.656956 0,0 -0.13127,3.015861 -1.27375,3.008535 -2.937172,-0.01888 -5.479844,0.01309 -9.321932,0 -0.931534,-0.003 -1.071089,-2.581544 -1.071089,-2.581544 z m -4.280164,37.044402 c 0,1.170584 -2.13539,1.170584 -2.13539,0 v -6.277049 c 0,-1.170584 2.13539,-1.170584 2.13539,0 z m 11.184074,0 c 0,1.170584 -2.135875,1.170584 -2.135875,0 v -6.277049 c 0,-1.170584 2.135875,-1.170584 2.135875,0 z m 11.1435,0.005 c 0,1.170584 -2.135715,1.165577 -2.135715,-0.005 v -6.277049 c 0,-1.170584 2.135715,-1.170584 2.135715,0 z M 62.250796,44.220741 c 0,0.800033 -0.648503,1.448548 -1.448547,1.448548 H 16.292347 c -1.922495,0 -1.940226,-3.081445 0,-3.098996 h 44.509902 c 0.877881,0.01 1.553102,0.778854 1.448547,1.650518 z"
       id="path2-2"
       inkscape:connector-curvature="0" />
  </g>
</svg>
