<?xml version="1.0" encoding="UTF-8" standalone="no"?>
<svg
   xmlns:dc="http://purl.org/dc/elements/1.1/"
   xmlns:cc="http://creativecommons.org/ns#"
   xmlns:rdf="http://www.w3.org/1999/02/22-rdf-syntax-ns#"
   xmlns:svg="http://www.w3.org/2000/svg"
   xmlns="http://www.w3.org/2000/svg"
   xmlns:sodipodi="http://sodipodi.sourceforge.net/DTD/sodipodi-0.dtd"
   xmlns:inkscape="http://www.inkscape.org/namespaces/inkscape"
   aria-hidden="true"
   focusable="false"
   data-prefix="fas"
   data-icon="trash-alt"
   class="svg-inline--fa fa-trash-alt fa-w-14"
   role="img"
   viewBox="0 0 448 512"
   version="1.1"
   id="svg4"
   sodipodi:docname="icon-fa-trash.svg"
   inkscape:version="1.0beta1 (fe3e306, 2019-09-17)">
  <metadata
     id="metadata10">
    <rdf:RDF>
      <cc:Work
         rdf:about="">
        <dc:format>image/svg+xml</dc:format>
        <dc:type
           rdf:resource="http://purl.org/dc/dcmitype/StillImage" />
        <dc:title />
      </cc:Work>
    </rdf:RDF>
  </metadata>
  <defs
     id="defs8" />
  <sodipodi:namedview
     pagecolor="#ffffff"
     bordercolor="#666666"
     inkscape:document-rotation="0"
     borderopacity="1"
     objecttolerance="10"
     gridtolerance="10"
     guidetolerance="10"
     inkscape:pageopacity="0"
     inkscape:pageshadow="2"
     inkscape:window-width="1758"
     inkscape:window-height="954"
     id="namedview6"
     showgrid="false"
     inkscape:zoom="0.52678571"
     inkscape:cx="224"
     inkscape:cy="256"
     inkscape:window-x="0"
     inkscape:window-y="0"
     inkscape:window-maximized="0"
     inkscape:current-layer="svg4" />
  <path
     fill="currentColor"
     d="m 68.101692,424.88992 a 38.974576,38.974576 0 0 0 38.974578,38.97456 h 233.84747 a 38.974576,38.974576 0 0 0 38.97459,-38.97456 V 152.06787 H 68.101692 Z M 288.95763,217.0255 a 12.991527,12.991527 0 0 1 25.98305,0 v 181.88136 a 12.991527,12.991527 0 0 1 -25.98305,0 z m -77.94916,0 a 12.991531,12.991531 0 0 1 25.98306,0 v 181.88136 a 12.991531,12.991531 0 0 1 -25.98306,0 z m -77.94914,0 a 12.991526,12.991526 0 0 1 25.98303,0 v 181.88136 a 12.991526,12.991526 0 0 1 -25.98303,0 z M 392.88984,74.118718 H 295.45339 L 287.82087,58.934873 A 19.487289,19.487289 0 0 0 270.36351,48.135667 H 177.5553 a 19.259937,19.259937 0 0 0 -17.37616,10.799206 l -7.63253,15.183845 H 55.110167 A 12.991526,12.991526 0 0 0 42.118641,87.110244 v 25.983046 a 12.991526,12.991526 0 0 0 12.991526,12.99152 H 392.88984 a 12.991526,12.991526 0 0 0 12.99152,-12.99152 V 87.110244 A 12.991526,12.991526 0 0 0 392.88984,74.118718 Z"
     id="path2"
     style="opacity:0.995;fill:#b1000c;fill-opacity:1;stroke-width:0.811971"
     inkscape:connector-curvature="0" />
</svg>
