<?xml version="1.0" encoding="UTF-8" standalone="no"?>
<svg
   xmlns:dc="http://purl.org/dc/elements/1.1/"
   xmlns:cc="http://creativecommons.org/ns#"
   xmlns:rdf="http://www.w3.org/1999/02/22-rdf-syntax-ns#"
   xmlns:svg="http://www.w3.org/2000/svg"
   xmlns="http://www.w3.org/2000/svg"
   xmlns:sodipodi="http://sodipodi.sourceforge.net/DTD/sodipodi-0.dtd"
   xmlns:inkscape="http://www.inkscape.org/namespaces/inkscape"
   inkscape:version="1.0beta1 (fe3e306, 2019-09-17)"
   sodipodi:docname="icon-edit-rat.svg"
   version="1.1"
   width="512"
   viewBox="0 0 24 24"
   height="512"
   enable-background="new 0 0 24 24"
   id="bold">
  <metadata
     id="metadata17">
    <rdf:RDF>
      <cc:Work
         rdf:about="">
        <dc:format>image/svg+xml</dc:format>
        <dc:type
           rdf:resource="http://purl.org/dc/dcmitype/StillImage" />
        <dc:title></dc:title>
      </cc:Work>
    </rdf:RDF>
  </metadata>
  <defs
     id="defs15" />
  <sodipodi:namedview
     inkscape:current-layer="g10"
     inkscape:window-maximized="1"
     inkscape:window-y="-9"
     inkscape:window-x="-9"
     inkscape:cy="242.99405"
     inkscape:cx="171.3511"
     inkscape:zoom="0.57038106"
     showgrid="false"
     id="namedview13"
     inkscape:window-height="1001"
     inkscape:window-width="1920"
     inkscape:pageshadow="2"
     inkscape:pageopacity="0"
     guidetolerance="10"
     gridtolerance="10"
     objecttolerance="10"
     borderopacity="1"
     inkscape:document-rotation="0"
     bordercolor="#666666"
     pagecolor="#ffffff" />
  <g
     id="g10">
    <path
       inkscape:connector-curvature="0"
       style="overflow:hidden;fill:#663300;fill-opacity:1;stroke-width:0.0121706"
       d="M 11.449151,1.0153865 A 1.6097577,1.6097577 0 0 0 9.5823524,0.72199527 5.4581172,5.4581172 0 0 0 9.3424465,0.45768377 a 1.5972951,1.5972951 0 0 0 -2.2562577,0 L 4.2457457,3.2981269 a 0.51927669,0.51927669 0 0 0 0,0.7342567 0.525508,0.525508 0 0 0 0.7342578,0 L 7.8204467,1.1919405 a 0.55718388,0.55718388 0 0 1 0.787742,0 l 0.1900556,0.1905749 -1.1553897,1.154871 a 0.27002388,0.27002388 0 0 0 0,0.3811488 l 1.9036679,1.9010727 a 0.26898532,0.26898532 0 0 0 0.3801106,0 L 11.449151,3.2970888 a 1.6144312,1.6144312 0 0 0 0,-2.2817023 z"
       id="path2" />
    <path
       inkscape:connector-curvature="0"
       style="overflow:hidden;fill:#663300;fill-opacity:1;stroke-width:0.0121706"
       d="m 7.07165,3.4892209 a 0.2695046,0.2695046 0 0 0 -0.3806298,0 L 2.4189307,7.7623484 a 0.80695596,0.80695596 0 0 0 0,1.1424092 L 3.561339,10.047166 a 0.80695596,0.80695596 0 0 0 1.1424092,0 L 8.9763569,5.7745574 a 0.2695046,0.2695046 0 0 0 0,-0.3806298 z M 1.5730289,9.2132086 a 0.25963833,0.25963833 0 0 0 -0.4278836,0.09503 L 0.13515231,12.105063 a 0.25963833,0.25963833 0 0 0 0.0607601,0.271582 0.26535038,0.26535038 0 0 0 0.27210098,0.06127 L 3.2648379,11.42845 a 0.25963833,0.25963833 0 0 0 0.09503,-0.427884 z"
       id="path4-0" />
    <path
       sodipodi:nodetypes="sscssssssssscssssscscsscssssssssssss"
       inkscape:connector-curvature="0"
       id="path837"
       d="m 18.223568,23.425117 c -1.893852,-1.509913 -2.348059,-1.714025 -3.069229,-1.379251 -0.445306,0.206695 -0.59011,0.511671 -0.590533,1.243591 -1.94e-4,0.293324 -0.02111,0.481106 -0.05826,0.518003 -0.07261,0.07261 -4.8309826,0.08021 -5.6933941,0.0093 C 6.285392,23.607401 4.8471553,22.39425 4.1286026,19.866168 3.8470143,18.875467 4.0483905,17.525844 4.6251607,16.544609 5.3217435,15.358712 6.0295054,14.773515 8.4437858,13.387247 11.173968,11.819573 11.679839,11.337453 11.150233,10.807856 10.692599,10.350222 10.303602,10.454076 7.8172917,11.69792 6.2536025,12.480204 6.1179589,12.527486 6.024718,12.322818 5.940284,12.138413 7.3794746,11.181089 9.2787983,10.157738 10.838114,9.317532 12.322469,9.8229553 12.318669,11.192657 c -0.0023,0.851426 -0.50762,1.286525 -3.8026075,3.274598 -2.6752413,1.614138 -3.3489087,2.456556 -3.3489087,4.187763 0,2.05307 1.0755408,3.228159 3.2090095,3.506007 0.7635391,0.09947 0.8042365,0.09051 0.7290903,-0.160003 -0.739814,-2.466992 0.5226475,-4.609766 4.6389204,-7.873429 1.252548,-0.993116 1.289877,-1.016606 1.401592,-0.882001 0.158483,0.190991 0.993133,0.645416 1.185389,0.645416 0.01351,0 -0.125891,-0.161101 -0.309705,-0.357917 -0.758219,-0.81192 -0.999203,-1.769498 -0.710175,-2.822326 0.138979,-0.506268 0.259635,-0.565287 0.844088,-0.413559 0.144722,0.038 0.436526,0.102419 0.64854,0.144045 0.212015,0.04138 0.470806,0.09626 0.575082,0.121332 0.174189,0.04222 0.216574,0.02955 0.521551,-0.148267 1.345967,-0.7860836 3.415494,-1.1686549 4.914143,-0.9084197 1.038432,0.1803515 1.157459,0.3167132 0.927528,1.0629177 -0.365179,1.185078 -0.779329,1.895178 -1.923313,3.298054 -1.626262,1.994228 -2.169867,3.223355 -2.599959,5.878678 -0.213197,1.316331 -0.241736,1.656541 -0.240131,2.867067 0.0019,1.495965 0.04391,1.450311 -0.755434,0.81268 z m 2.39367,-11.89148 c 0.225777,-0.137628 0.30675,-0.28353 0.30675,-0.5522 0,-0.656139 -0.933337,-0.845947 -1.186007,-0.241228 -0.237175,0.567735 0.362223,1.10863 0.879223,0.793428 z"
       style="display:inline;fill:#663300;fill-opacity:1;stroke-width:0.0481858" />
  </g>
</svg>
