<?xml version="1.0" encoding="UTF-8" standalone="no"?>
<svg
   xmlns:dc="http://purl.org/dc/elements/1.1/"
   xmlns:cc="http://creativecommons.org/ns#"
   xmlns:rdf="http://www.w3.org/1999/02/22-rdf-syntax-ns#"
   xmlns:svg="http://www.w3.org/2000/svg"
   xmlns="http://www.w3.org/2000/svg"
   xmlns:sodipodi="http://sodipodi.sourceforge.net/DTD/sodipodi-0.dtd"
   xmlns:inkscape="http://www.inkscape.org/namespaces/inkscape"
   id="SVGRoot"
   version="1.1"
   viewBox="0 0 64 64"
   height="64px"
   width="64px"
   sodipodi:docname="icon-diff.svg"
   inkscape:version="1.0beta1 (fe3e306, 2019-09-17)">
  <sodipodi:namedview
     pagecolor="#ffffff"
     bordercolor="#666666"
     inkscape:document-rotation="0"
     borderopacity="1"
     objecttolerance="10"
     gridtolerance="10"
     guidetolerance="10"
     inkscape:pageopacity="0"
     inkscape:pageshadow="2"
     inkscape:window-width="1920"
     inkscape:window-height="1001"
     id="namedview6"
     showgrid="false"
     inkscape:zoom="9.1260969"
     inkscape:cx="49.002197"
     inkscape:cy="33.228916"
     inkscape:window-x="-9"
     inkscape:window-y="-9"
     inkscape:window-maximized="1"
     inkscape:current-layer="SVGRoot" />
  <defs
     id="defs830" />
  <metadata
     id="metadata833">
    <rdf:RDF>
      <cc:Work
         rdf:about="">
        <dc:format>image/svg+xml</dc:format>
        <dc:type
           rdf:resource="http://purl.org/dc/dcmitype/StillImage" />
        <dc:title></dc:title>
      </cc:Work>
    </rdf:RDF>
  </metadata>
  <path
     sodipodi:nodetypes="csccccscsscsscszscszscszscszscszsszssz"
     style="fill:#b1000c;fill-opacity:1;stroke-width:0.122449"
     inkscape:connector-curvature="0"
     d="M 11.423955,5.13824 C 13.433345,3.12886 16.158325,2 19.000005,2 h 17.42857 c 3.3071,4.6e-4 6.47877,1.31204 8.82012,3.64714 l 6.81845,6.81845 c 2.3351,2.34135 3.64665,5.51351 3.64714,8.82012 v 30 c 0,2.84168 -1.12883,5.56715 -3.13824,7.57605 C 50.567145,60.87114 47.841675,62 45.000005,62 h -26 c -2.84168,0 -5.56666,-1.12883 -7.57605,-3.13824 -2.00938,-2.0089 -3.13824,-4.73437 -3.13824,-7.57605 V 12.71429 c 0,-2.84168 1.12883,-5.56666 3.13824,-7.57605 z M 36.142735,17 c 0,-1.18336 -0.402599,-4.065378 -4.14286,-4.14286 C 28.259614,12.77966 27.505488,15.870061 27.857025,17 v 4.42857 h -4.42858 c -1.18335,0 -4.065368,0.09267 -4.14285,4.14286 -0.07748,4.050188 2.73898,4.14286 4.14285,4.14286 h 4.42858 v 4.42857 c 0,1.18336 0.325107,4.065368 4.14285,4.14285 3.817743,0.07748 4.494397,-3.012911 4.14286,-4.14285 v -4.42857 h 4.42857 c 1.18336,0 4.206662,-1.089512 4.14286,-4.14286 -0.0638,-3.053348 -1.752799,-4.14286 -4.14286,-4.14286 h -4.42857 z m 8.57143,30 c 0.07748,4.282634 -2.9595,4.14286 -4.14286,4.14286 h -17.14286 c -1.18335,0 -4.297814,-0.325117 -4.14285,-4.14286 0.154964,-3.817743 2.9595,-4.14286 4.14285,-4.14286 h 17.14286 c 1.18336,0 4.065378,-0.139774 4.14286,4.14286 z"
     fill-rule="evenodd"
     id="path2" />
</svg>
