<?xml version="1.0" encoding="UTF-8" standalone="no"?>
<svg
   xmlns:dc="http://purl.org/dc/elements/1.1/"
   xmlns:cc="http://creativecommons.org/ns#"
   xmlns:rdf="http://www.w3.org/1999/02/22-rdf-syntax-ns#"
   xmlns:svg="http://www.w3.org/2000/svg"
   xmlns="http://www.w3.org/2000/svg"
   xmlns:sodipodi="http://sodipodi.sourceforge.net/DTD/sodipodi-0.dtd"
   xmlns:inkscape="http://www.inkscape.org/namespaces/inkscape"
   inkscape:version="1.0beta1 (fe3e306, 2019-09-17)"
   sodipodi:docname="icon-roundrat.svg"
   viewBox="0 0 640 640"
   height="640"
   width="640"
   id="svg2"
   version="1.1">
  <metadata
     id="metadata8">
    <rdf:RDF>
      <cc:Work
         rdf:about="">
        <dc:format>image/svg+xml</dc:format>
        <dc:type
           rdf:resource="http://purl.org/dc/dcmitype/StillImage" />
      </cc:Work>
    </rdf:RDF>
  </metadata>
  <defs
     id="defs6" />
  <sodipodi:namedview
     inkscape:current-layer="g10"
     inkscape:window-maximized="0"
     inkscape:window-y="0"
     inkscape:window-x="0"
     inkscape:cy="342.68594"
     inkscape:cx="354.58154"
     inkscape:zoom="1.0429825"
     showgrid="false"
     id="namedview4"
     inkscape:window-height="1040"
     inkscape:window-width="1648"
     inkscape:pageshadow="2"
     inkscape:pageopacity="0"
     guidetolerance="10"
     gridtolerance="10"
     objecttolerance="10"
     borderopacity="1"
     inkscape:document-rotation="0"
     bordercolor="#666666"
     pagecolor="#ffffff" />
  <g
     id="g10"
     inkscape:label="Image"
     inkscape:groupmode="layer">
    <path
       sodipodi:nodetypes="ccssscccssssccccsssssccscsssssscsssscccccsssssssscsccscsssccsssccccscsccccc"
       inkscape:connector-curvature="0"
       id="path837"
       d="M 308.72269,631.8216 C 258.63033,627.26277 229.79443,619.51914 191.03461,600.21749 124.58466,567.12683 76.779215,511.4734 54.846282,441.67188 44.745451,409.52599 39.988522,368.9388 42.577465,336.99147 46.278714,291.3184 55.329338,257.90474 73.973257,221.08257 94.816186,179.91732 126.12019,144.42963 164.39613,118.57496 c 9.40473,-6.3527 51.15996,-20.234801 53.50636,-20.956132 1.29764,-0.398924 1.54887,-1.182482 1.96879,-6.140558 0.72764,-8.591285 2.23158,-13.963211 6.03893,-21.570611 6.74395,-13.47493 17.23191,-22.790536 31.54321,-28.017275 7.54401,-2.755202 14.32225,-3.675023 23.70708,-3.217094 9.6943,0.473028 14.50479,1.664723 22.74734,5.63514 15.9796,7.697336 26.64943,21.952223 28.35445,37.881537 0.23509,2.196293 -0.42855,-0.262753 0,0 0.42855,0.262759 5.79596,6.223586 10.45283,7.781743 23.54689,7.87859 111.25918,34.17203 122.90864,58.37694 3.84806,7.99542 16.40027,9.42934 16.40027,22.222 0,12.36257 -6.89755,15.39518 -10.08074,22.11218 -4.87804,10.29338 -19.34507,16.1724 -35.39883,26.90948 -16.20517,10.83833 -60.16752,24.91635 -68.92671,34.78384 -27.96593,31.50446 3.70809,62.30004 15.78197,140.35412 12.74833,82.41425 -2.58111,146.58117 -44.45659,186.08929 -4.92648,4.64803 -12.26939,10.87651 -16.31758,13.84104 -4.04818,2.96463 -7.36034,5.64565 -7.36034,5.95784 0,0.31219 8.70974,0.29747 19.35497,-0.0327 15.03431,-0.46627 22.3977,-1.24406 32.98524,-3.48412 65.15647,-13.78542 121.85088,-51.68987 157.95589,-105.60531 19.01701,-28.39804 30.24195,-56.01298 37.98203,-93.44124 2.89353,-13.99204 3.04417,-16.17798 3.04343,-44.16205 -6.4e-4,-24.14299 -0.36281,-36.09955 -2.01241,-44.59431 -4.90771,-25.27277 -0.008,-26.64693 -10.70178,-49.68664 -5.89093,-12.69236 -24.7465,-59.16423 -22.22341,-64.01499 2.83225,-5.44508 9.4671,0.31254 20.39162,13.97822 16.37059,20.47829 9.04609,6.65102 21.12374,29.97896 23.18782,44.78718 30.71486,109.60913 20.66679,164.23109 -8.27249,44.96974 -30.15688,92.4268 -58.20088,126.21065 -41.59204,50.10476 -97.22134,83.70009 -159.63224,96.40414 -20.72469,4.21851 -52.42401,6.77315 -67.27551,5.42147 z m -32.71263,-47.74376 c 18.02924,-2.95907 32.47436,-11.0247 46.37116,-25.89171 17.12422,-18.31981 27.09132,-39.80599 32.80427,-70.71657 2.91552,-15.77477 2.68419,-57.01655 -0.44649,-79.60073 -1.28862,-9.29584 -3.0677,-22.29911 -3.9535,-28.89615 -6.0611,-45.14027 -30.56623,-86.6031 -20.95538,-115.93802 10.93964,-33.39067 56.64224,-44.81817 90.73736,-65.72689 21.97667,-13.47713 40.21921,-19.22294 33.21212,-33.05078 -3.00765,-5.93531 -41.50172,-20.2904 -49.98048,-25.70763 -14.36226,-9.17632 -67.69243,-29.64678 -78.27129,-27.04966 -12.04523,2.95712 -10.22908,-10.84913 -10.91808,-20.24594 -1.12356,-15.323587 -9.71769,-29.158549 -24.38826,-32.899414 -5.36139,-1.367105 -16.68681,-0.138858 -22.19674,1.243749 -11.61195,2.913834 -21.75422,12.075416 -25.97223,23.460897 -1.20629,3.256038 -1.52166,5.634924 -1.50747,11.370406 0.0265,10.694142 2.74994,17.651892 11.22378,28.673722 3.21753,4.18499 3.8063,5.40596 3.8063,7.89326 0,6.11332 -6.90722,8.96509 -13.18942,5.44551 -6.66645,-3.73486 -11.73968,-9.19692 -17.5297,-18.87325 -0.69986,-1.16961 -20.51337,13.12087 -24.12532,14.9653 -8.83039,4.50967 -29.37791,18.94757 -39.92828,28.05598 -38.75161,33.45564 -66.028544,78.7664 -78.951244,131.14925 -11.866963,48.10338 -9.364774,104.88768 6.58097,149.34815 7.748058,21.60337 13.632404,33.46505 25.714104,51.83451 39.72978,60.40661 109.57131,99.73902 161.86382,91.1562 z M 355.06558,178.994 c -2.39893,-1.11068 -5.81104,-3.56185 -7.58247,-5.44708 -2.70751,-2.88142 -3.2875,-4.51078 -3.6394,-10.2239 -0.35436,-5.75309 -0.0274,-7.3666 2.13037,-10.51242 4.59219,-6.69507 7.77033,-8.27842 16.61668,-8.27842 6.98496,0 8.37909,0.35743 11.91581,3.05502 2.20295,1.68026 4.78176,4.55643 5.7307,6.39149 1.94783,3.76669 2.24762,10.96328 0.63244,15.18169 -2.46134,6.42833 -11.21709,11.9472 -18.84291,11.87695 -1.42975,-0.0132 -4.5623,-0.93268 -6.96122,-2.04333 z"
       style="fill:#663300;fill-opacity:1;stroke-width:1.09042" />
  </g>
</svg>
