<?xml version="1.0" encoding="UTF-8" standalone="no"?>
<svg
   xmlns:dc="http://purl.org/dc/elements/1.1/"
   xmlns:cc="http://creativecommons.org/ns#"
   xmlns:rdf="http://www.w3.org/1999/02/22-rdf-syntax-ns#"
   xmlns:svg="http://www.w3.org/2000/svg"
   xmlns="http://www.w3.org/2000/svg"
   xmlns:sodipodi="http://sodipodi.sourceforge.net/DTD/sodipodi-0.dtd"
   xmlns:inkscape="http://www.inkscape.org/namespaces/inkscape"
   inkscape:version="1.0beta1 (fe3e306, 2019-09-17)"
   sodipodi:docname="icon-laborats.svg"
   width="64px"
   height="64px"
   viewBox="0 0 64 64"
   version="1.1"
   id="SVGRoot">
  <defs
     id="defs874" />
  <sodipodi:namedview
     inkscape:grid-bbox="true"
     inkscape:window-maximized="1"
     inkscape:window-y="-9"
     inkscape:window-x="-9"
     inkscape:window-height="1001"
     inkscape:window-width="1920"
     showgrid="false"
     inkscape:document-rotation="0"
     inkscape:current-layer="layer1"
     inkscape:document-units="px"
     inkscape:cy="71.186803"
     inkscape:cx="43.810321"
     inkscape:zoom="2.8"
     inkscape:pageshadow="2"
     inkscape:pageopacity="0.0"
     borderopacity="1.0"
     bordercolor="#666666"
     pagecolor="#ffffff"
     id="base" />
  <metadata
     id="metadata877">
    <rdf:RDF>
      <cc:Work
         rdf:about="">
        <dc:format>image/svg+xml</dc:format>
        <dc:type
           rdf:resource="http://purl.org/dc/dcmitype/StillImage" />
      </cc:Work>
    </rdf:RDF>
  </metadata>
  <g
     id="layer1"
     inkscape:groupmode="layer"
     inkscape:label="Calque 1">
    <g
       style="fill:#663300;fill-opacity:1"
       transform="matrix(1.3584277,0,0,1.3584277,1.0005173,1.0000007)"
       id="g4">
      <path
         style="fill:#663300;fill-opacity:1"
         d="M 43.183,37.582 31.209,15.429 V 2.232 C 31.209,0.99 30.17,0 28.929,0 H 16.707 C 15.465,0 14.443,0.99 14.443,2.232 V 15.429 L 2.459,37.582 c -0.914,1.689 -0.868,3.74 0.115,5.391 0.983,1.649 2.766,2.668 4.686,2.668 h 31.115 c 1.92,0 3.707,-1.019 4.69,-2.668 0.982,-1.651 1.032,-3.702 0.118,-5.391 z M 24.797,28.314 c 1.073,0 1.942,0.869 1.942,1.942 0,1.072 -0.871,1.942 -1.942,1.942 -1.072,0 -1.942,-0.87 -1.942,-1.942 0,-1.07 0.869,-1.942 1.942,-1.942 z M 19.336,16.637 c 1.073,0 1.942,0.87 1.942,1.943 0,1.072 -0.869,1.942 -1.942,1.942 -1.073,0 -1.942,-0.87 -1.942,-1.942 0.001,-1.073 0.869,-1.943 1.942,-1.943 z m 0,6.78 c 1.738,0 3.148,1.41 3.148,3.147 0,1.738 -1.41,3.147 -3.148,3.147 -1.739,0 -3.148,-1.409 -3.148,-3.147 0,-1.738 1.409,-3.147 3.148,-3.147 z m 18.078,16.145 c -0.404,0.688 -1.143,1.094 -1.938,1.094 H 10.159 C 9.363,40.656 8.625,40.25 8.221,39.562 7.817,38.874 7.806,38.034 8.193,37.336 l 3.043,-5.47 c 0.434,-0.782 1.29,-1.23 2.18,-1.145 4.041,0.385 8.583,3.842 12.642,3.688 2.174,-0.083 4.192,-0.875 6.114,-1.934 1.085,-0.6 2.45,-0.207 3.052,0.877 l 2.219,3.982 c 0.385,0.699 0.375,1.541 -0.029,2.228 z"
         id="path2"
         inkscape:connector-curvature="0" />
    </g>
  </g>
</svg>
