<?xml version="1.0" encoding="UTF-8" standalone="no"?>
<svg
   xmlns:osb="http://www.openswatchbook.org/uri/2009/osb"
   xmlns:dc="http://purl.org/dc/elements/1.1/"
   xmlns:cc="http://creativecommons.org/ns#"
   xmlns:rdf="http://www.w3.org/1999/02/22-rdf-syntax-ns#"
   xmlns:svg="http://www.w3.org/2000/svg"
   xmlns="http://www.w3.org/2000/svg"
   id="SVGRoot"
   version="1.1"
   viewBox="0 0 64 64"
   height="64px"
   width="64px">
  <defs
     id="defs842">
    <linearGradient
       id="linearGradient1474"
       osb:paint="solid">
      <stop
         style="stop-color:#ffffff;stop-opacity:1;"
         offset="0"
         id="stop1472" />
    </linearGradient>
  </defs>
  <metadata
     id="metadata845">
    <rdf:RDF>
      <cc:Work
         rdf:about="">
        <dc:format>image/svg+xml</dc:format>
        <dc:type
           rdf:resource="http://purl.org/dc/dcmitype/StillImage" />
        <dc:title></dc:title>
      </cc:Work>
    </rdf:RDF>
  </metadata>
  <g
     id="layer1">
    <g
       id="g2723"
       transform="matrix(0,-0.66187023,-0.66187023,0,56.737826,57.155695)"
       style="fill:#b1000c;fill-opacity:1">
      <path
         d="m 52.625024,1.4314358 c -1.765,-1.76499998 -3.56,-1.76599998 -5.324,0 l -2.632,2.6330004 c -1.766,1.766 -1.766,3.559 0,5.324 l 21.322,21.3219998 c 1.766,1.765 3.561,1.768 5.326,0 l 2.631,-2.63 c 1.768,-1.767 1.765,-3.562 -0.002,-5.327 z"
         id="path2-9"
         style="fill:#b1000c;fill-opacity:1" />
      <path
         d="m 81.297024,3.3394362 c 2.69,-2.94300038 1.903,-6.7840004 -0.283,-8.9700004 -2.188,-2.188 -6.026,-2.975 -8.971,-0.284 -1.734,1.734 -1.688,3.71 -3.026,5.04700002 -2.555,2.55599998 -9.297,-2.48300002 -13.33,1.265 l 19.299,19.29900018 c 3.748,-4.033 -1.291,-10.7749998 1.265,-13.3299998 1.337,-1.336 3.313,-1.294 5.046,-3.027 z"
         id="path4"
         style="fill:#b1000c;fill-opacity:1" />
      <path
         d="m 42.890024,11.775436 c -4.402,-4.4009998 -8.883,-4.4009998 -13.283,0 l -3.481,3.481 10.564,10.565 c 0.912,0.912 0.912,2.395 -10e-4,3.308 -0.913,0.913 -2.396,0.914 -3.308,0 l -10.565,-10.564 -7.286,7.287 10.566,10.566 c 0.913,0.912 0.913,2.394 0,3.306 -0.913,0.913 -2.396,0.916 -3.308,0.004 l -10.567,-10.568 -7.286,7.286 10.569,10.567 c 0.912,0.912 0.911,2.393 -0.003,3.307 -0.913,0.914 -2.394,0.916 -3.307,0 l -10.567,-10.564 -5.318,5.318 c -4.401,4.401 -4.401,8.881 0,13.284 l 20.717,20.715 c 4.401,4.402 8.882,4.402 13.284,0.002 l 33.299,-33.299 c 4.4,-4.401 4.4,-8.882 -0.002,-13.284 z"
         id="path6"
         style="fill:#b1000c;fill-opacity:1" />
    </g>
  </g>
</svg>
