<?xml version="1.0" encoding="UTF-8" standalone="no"?>
<svg
   xmlns:dc="http://purl.org/dc/elements/1.1/"
   xmlns:cc="http://creativecommons.org/ns#"
   xmlns:rdf="http://www.w3.org/1999/02/22-rdf-syntax-ns#"
   xmlns:svg="http://www.w3.org/2000/svg"
   xmlns="http://www.w3.org/2000/svg"
   width="64px"
   height="64px"
   viewBox="0 0 64 64"
   version="1.1"
   id="SVGRoot">
  <defs
     id="defs830" />
  <metadata
     id="metadata833">
    <rdf:RDF>
      <cc:Work
         rdf:about="">
        <dc:format>image/svg+xml</dc:format>
        <dc:type
           rdf:resource="http://purl.org/dc/dcmitype/StillImage" />
        <dc:title></dc:title>
      </cc:Work>
    </rdf:RDF>
  </metadata>
  <path
     fill="currentColor"
     d="M 61.690121,30.476467 C 56.031133,19.435024 44.827948,11.964489 32.000003,11.964489 c -12.827944,0 -24.0342612,7.47575 -29.6901239,18.513019 a 3.3757746,3.3757746 0 0 0 0,3.046025 c 5.6589875,11.041443 16.8621799,18.511978 29.6901239,18.511978 12.827945,0 24.034262,-7.47575 29.690118,-18.51302 a 3.3757746,3.3757746 0 0 0 0,-3.046024 z M 32.000003,47.026632 A 15.026632,15.026632 0 1 1 47.026632,32.000003 15.019328,15.019328 0 0 1 32.000003,47.026632 Z m 0,-25.044386 a 9.9457521,9.9457521 0 0 0 -2.64114,0.39549 4.9932247,4.9932247 0 0 1 -6.98112,6.981127 9.9947977,9.9947977 0 1 0 9.62226,-7.376617 z"
     id="path2"
     style="fill:#663300;fill-opacity:1;stroke-width:0.104352" />
</svg>
