<?xml version="1.0" encoding="UTF-8" standalone="no"?>
<svg
   xmlns:dc="http://purl.org/dc/elements/1.1/"
   xmlns:cc="http://creativecommons.org/ns#"
   xmlns:rdf="http://www.w3.org/1999/02/22-rdf-syntax-ns#"
   xmlns:svg="http://www.w3.org/2000/svg"
   xmlns="http://www.w3.org/2000/svg"
   xmlns:sodipodi="http://sodipodi.sourceforge.net/DTD/sodipodi-0.dtd"
   xmlns:inkscape="http://www.inkscape.org/namespaces/inkscape"
   sodipodi:docname="icon-edit-rattery.svg"
   inkscape:version="1.0beta1 (fe3e306, 2019-09-17)"
   width="64px"
   height="64px"
   viewBox="0 0 64 64"
   version="1.1"
   id="SVGRoot">
  <defs
     id="defs844" />
  <sodipodi:namedview
     inkscape:grid-bbox="true"
     inkscape:window-maximized="1"
     inkscape:window-y="-9"
     inkscape:window-x="-9"
     inkscape:window-height="1001"
     inkscape:window-width="1920"
     showgrid="false"
     inkscape:document-rotation="0"
     inkscape:current-layer="layer1"
     inkscape:document-units="px"
     inkscape:cy="47.106274"
     inkscape:cx="52.939289"
     inkscape:zoom="7.9195959"
     inkscape:pageshadow="2"
     inkscape:pageopacity="0.0"
     borderopacity="1.0"
     bordercolor="#666666"
     pagecolor="#ffffff"
     id="base" />
  <metadata
     id="metadata847">
    <rdf:RDF>
      <cc:Work
         rdf:about="">
        <dc:format>image/svg+xml</dc:format>
        <dc:type
           rdf:resource="http://purl.org/dc/dcmitype/StillImage" />
        <dc:title></dc:title>
      </cc:Work>
    </rdf:RDF>
  </metadata>
  <g
     id="layer1"
     inkscape:groupmode="layer"
     inkscape:label="Calque 1">
    <g
       transform="translate(257.75064,487.5227)"
       id="g1431">
      <path
         inkscape:connector-curvature="0"
         style="overflow:hidden;fill:#663300;fill-opacity:1;stroke-width:0.0324429"
         d="m -227.37871,-484.79247 a 4.2911093,4.2911093 0 0 0 -4.97629,-0.78209 14.549629,14.549629 0 0 0 -0.63952,-0.70457 4.2578879,4.2578879 0 0 0 -6.01447,0 l -7.57173,7.57173 a 1.3842289,1.3842289 0 0 0 0,1.95729 1.4008395,1.4008395 0 0 0 1.9573,0 l 7.57173,-7.57173 a 1.4852775,1.4852775 0 0 1 2.09987,0 l 0.50663,0.50802 -3.07991,3.07852 a 0.71979899,0.71979899 0 0 0 0,1.01602 l 5.07458,5.06767 a 0.71703052,0.71703052 0 0 0 1.01326,0 l 4.05855,-4.05856 a 4.3035673,4.3035673 0 0 0 0,-6.0823 z"
         id="path2" />
      <path
         inkscape:connector-curvature="0"
         style="overflow:hidden;fill:#663300;fill-opacity:1;stroke-width:0.0324429"
         d="m -239.04775,-478.19801 a 0.71841476,0.71841476 0 0 0 -1.01464,0 l -11.38805,11.39082 a 2.1510915,2.1510915 0 0 0 0,3.0453 l 3.0453,3.04531 a 2.1510915,2.1510915 0 0 0 3.04531,0 l 11.38943,-11.38944 a 0.71841476,0.71841476 0 0 0 0,-1.01464 z m -14.6576,15.25836 a 0.69211438,0.69211438 0 0 0 -1.1406,0.25332 l -2.69233,7.45546 a 0.69211438,0.69211438 0 0 0 0.16197,0.72395 0.70734091,0.70734091 0 0 0 0.72534,0.16333 l 7.45545,-2.69092 a 0.69211438,0.69211438 0 0 0 0.25332,-1.14061 z"
         id="path4-0" />
      <path
         inkscape:connector-curvature="0"
         id="path2-2"
         d="m -196.17291,-446.5625 -3.50473,-12.15672 c -0.58273,-2.66228 -2.9315,-4.56607 -5.65673,-4.58513 h -3.60611 v -3.5662 c -0.005,-3.29192 -4.38105,-5.95934 -7.67297,-5.96418 h -5.50595 c -3.29191,0.005 -7.66815,2.67226 -7.67299,5.96418 v 3.5662 h -3.65003 c -2.70765,0.002 -5.05458,1.8749 -5.65673,4.51486 l -3.51351,12.22699 c -3.00403,0.87834 -2.99525,5.42836 0,6.29795 l 3.51351,12.15672 c 0.58572,2.66046 2.93268,4.5628 5.65673,4.58513 h 28.10805 c 2.70915,-0.006 5.05516,-1.88205 5.65673,-4.52363 l 3.51351,-12.21822 c 2.99525,-0.8871 2.98648,-5.42836 -0.009,-6.29795 z m -22.1497,-10.6547 v 6.28037 c 0,1.17121 -2.13165,1.17121 -2.13165,0 v -6.28037 c 0,-1.17121 2.13165,-1.17121 2.13165,0 z m -13.31905,0 c 0,-1.17121 2.13432,-1.17121 2.13432,0 v 6.28037 c 0,1.17121 -2.13432,1.17121 -2.13432,0 z m 22.33703,0 c 0,-1.17121 2.13541,-1.17121 2.13541,0 v 6.28037 c 0,1.17121 -2.13541,1.17121 -2.13541,0 z m -15.92021,-9.01763 c 0,-0.86845 1.3878,-2.08504 2.25601,-2.08504 h 7.17015 c 0.86499,0.005 2.2468,0.79286 2.24657,1.65784 0,0 -0.13134,3.01747 -1.27443,3.01014 -2.93874,-0.0189 -5.48277,0.0131 -9.32691,0 -0.93203,-0.003 -1.07166,-2.58292 -1.07166,-2.58292 z m -4.28245,37.06418 c 0,1.17121 -2.13437,1.17121 -2.13437,0 v -6.2804 c 0,-1.17121 2.13437,-1.17121 2.13437,0 z m 11.18468,0 c 0,1.17121 -2.13165,1.17121 -2.13165,0 v -6.2804 c 0,-1.17121 2.13165,-1.17121 2.13165,0 z m 11.1874,0 c 0,1.17121 -2.13424,1.17121 -2.13424,0 v -6.2804 c 0,-1.17121 2.13424,-1.17121 2.13424,0 z m 11.46297,-14.14187 c 0,0.80046 -0.64885,1.44932 -1.44932,1.44932 h -44.53367 c -1.92352,0 -1.94126,-3.08309 0,-3.10065 h 44.53367 c 0.87835,0.01 1.55393,0.77927 1.44932,1.6514 z"
         sodipodi:nodetypes="sccccccccccccccccccsssssssssssssssssccsssssssssssssssssscsccccccc"
         style="display:inline;opacity:1;fill:#663300;fill-opacity:1;stroke-width:0.878378;stop-opacity:1" />
    </g>
  </g>
</svg>
