<?xml version="1.0" encoding="UTF-8" standalone="no"?>
<svg
   xmlns:dc="http://purl.org/dc/elements/1.1/"
   xmlns:cc="http://creativecommons.org/ns#"
   xmlns:rdf="http://www.w3.org/1999/02/22-rdf-syntax-ns#"
   xmlns:svg="http://www.w3.org/2000/svg"
   xmlns="http://www.w3.org/2000/svg"
   xmlns:sodipodi="http://sodipodi.sourceforge.net/DTD/sodipodi-0.dtd"
   xmlns:inkscape="http://www.inkscape.org/namespaces/inkscape"
   version="1.1"
   width="24"
   height="24"
   viewBox="0 0 24 24"
   id="svg4"
   sodipodi:docname="icon-edit-admin.svg"
   inkscape:version="1.0beta1 (fe3e306, 2019-09-17)">
  <metadata
     id="metadata10">
    <rdf:RDF>
      <cc:Work
         rdf:about="">
        <dc:format>image/svg+xml</dc:format>
        <dc:type
           rdf:resource="http://purl.org/dc/dcmitype/StillImage" />
        <dc:title></dc:title>
      </cc:Work>
    </rdf:RDF>
  </metadata>
  <defs
     id="defs8" />
  <sodipodi:namedview
     pagecolor="#ffffff"
     bordercolor="#666666"
     inkscape:document-rotation="0"
     borderopacity="1"
     objecttolerance="10"
     gridtolerance="10"
     guidetolerance="10"
     inkscape:pageopacity="0"
     inkscape:pageshadow="2"
     inkscape:window-width="1810"
     inkscape:window-height="975"
     id="namedview6"
     showgrid="false"
     inkscape:zoom="9.8333333"
     inkscape:cx="39.157601"
     inkscape:cy="24.206031"
     inkscape:window-x="0"
     inkscape:window-y="0"
     inkscape:window-maximized="0"
     inkscape:current-layer="svg4" />
  <path
     sodipodi:nodetypes="csccccccssccccsssccccc"
     d="m 1.2542374,13.156095 v 3.616686 c 0,2.411124 2.5485238,4.597536 7.3104949,4.935093 l 1.1284404,-3.59692 0.1567224,-0.132611 C 5.0155912,17.689009 1.2542374,15.639553 1.2542374,13.156095 m 9.6444976,-1.205562 c -5.3285852,0 -9.6444976,-2.1579572 -9.6444976,-4.822249 v 3.616687 c 0,2.664291 4.3159124,4.822248 9.6444976,4.822248 h 1.398452 l 4.629358,-4.67758 c -1.928899,0.723337 -3.966299,1.060895 -6.02781,1.060895 m 0,-12.05562289 c -5.3285852,0 -9.6444976,2.15795619 -9.6444976,4.82224859 0,2.6642924 4.3159124,4.82225 9.6444976,4.82225 5.328584,0 9.644497,-2.1579576 9.644497,-4.82225 0,-2.6642924 -4.315913,-4.82224859 -9.644497,-4.82224859 M 21.748794,9.696132 c -0.180835,0 -0.349613,0.072337 -0.47017,0.204946 M 12.104297,21.59503 c -9.8162482,-16.1104387 -4.9081242,-8.05522 0,0 z"
     id="path2"
     style="fill:#b1000c;fill-opacity:1;stroke-width:1.20556"
     inkscape:connector-curvature="0" />
  <path
     style="fill:#b1000c;fill-opacity:1;stroke-width:0.0410947"
     inkscape:connector-curvature="0"
     d="m 11.296084,18.644082 c -0.05781,0.05703 -0.09809,0.129872 -0.116544,0.209654 l -0.955616,4.055543 c -0.03495,0.147204 0.01,0.303241 0.116544,0.410309 0.08333,0.08234 0.195518,0.127941 0.310454,0.127941 0.03329,0 0.06747,-0.0033 0.100754,-0.01221 l 4.054755,-0.955616 c 0.07878,-0.01842 0.151532,-0.0587 0.209488,-0.1167 l 5.734329,-5.734341 -3.719723,-3.719878 z m 0,0"
     id="path2-8" />
  <path
     style="fill:#b1000c;fill-opacity:1;stroke-width:0.0410947"
     inkscape:connector-curvature="0"
     d="m 23.384872,11.514933 -1.239748,-1.239749 c -0.662651,-0.6626617 -1.817324,-0.6626617 -2.480141,0 l -1.704308,1.704308 3.71989,3.71989 1.704307,-1.704319 c 0.331326,-0.331325 0.513683,-0.771484 0.513683,-1.239582 0,-0.469064 -0.182357,-0.909223 -0.513683,-1.240548 z m 0,0"
     id="path4" />
</svg>
