<?xml version="1.0" encoding="UTF-8" standalone="no"?>
<svg
   xmlns:dc="http://purl.org/dc/elements/1.1/"
   xmlns:cc="http://creativecommons.org/ns#"
   xmlns:rdf="http://www.w3.org/1999/02/22-rdf-syntax-ns#"
   xmlns:svg="http://www.w3.org/2000/svg"
   xmlns="http://www.w3.org/2000/svg"
   xmlns:sodipodi="http://sodipodi.sourceforge.net/DTD/sodipodi-0.dtd"
   xmlns:inkscape="http://www.inkscape.org/namespaces/inkscape"
   id="Layer_1"
   data-name="Layer 1"
   viewBox="0 0 60 60"
   version="1.1"
   sodipodi:docname="icon-home-user.svg"
   inkscape:version="1.0beta1 (fe3e306, 2019-09-17)">
  <metadata
     id="metadata15">
    <rdf:RDF>
      <cc:Work
         rdf:about="">
        <dc:format>image/svg+xml</dc:format>
        <dc:type
           rdf:resource="http://purl.org/dc/dcmitype/StillImage" />
        <dc:title>icon-report</dc:title>
      </cc:Work>
    </rdf:RDF>
  </metadata>
  <sodipodi:namedview
     pagecolor="#ffffff"
     bordercolor="#666666"
     inkscape:document-rotation="0"
     borderopacity="1"
     objecttolerance="10"
     gridtolerance="10"
     guidetolerance="10"
     inkscape:pageopacity="0"
     inkscape:pageshadow="2"
     inkscape:window-width="1920"
     inkscape:window-height="1001"
     id="namedview13"
     showgrid="false"
     inkscape:zoom="8"
     inkscape:cx="32.854727"
     inkscape:cy="45.980656"
     inkscape:window-x="-9"
     inkscape:window-y="-9"
     inkscape:window-maximized="1"
     inkscape:current-layer="Layer_1">
    <inkscape:grid
       type="xygrid"
       id="grid832" />
  </sodipodi:namedview>
  <defs
     id="defs4">
    <style
       id="style2">.cls-1{fill:#630;}.cls-2{fill:none;stroke:#630;stroke-linecap:round;stroke-linejoin:round;stroke-width:2.5px;}</style>
  </defs>
  <title
     id="title6">icon-report</title>
  <path
     style="fill:#ffffff;fill-opacity:1;stroke-width:0.735705"
     d="m 42.866396,47.62 c 0.06296,0.183744 -0.0021,0.499414 -0.118401,0.665 L 42.286,48.943 c -0.571267,-0.0082 -0.606226,0.01408 -2.151944,0.014 L 19.866773,48.956 C 18.321056,48.955924 17.769,48.929 17.769,48.929 l -0.6,-0.607 c 0,-0.202319 -0.09389,-0.518156 -0.035,-0.704 1.837459,-5.798581 6.595582,-9.625 12.866,-9.625 6.271153,0 10.773591,3.519501 12.866396,9.627 z M 22.421878,30.395 c 0,-4.185428 3.39381,-7.578 7.578503,-7.578 4.184693,0 7.578502,3.392572 7.578502,7.578 0,4.185429 -3.393074,7.595 -7.578502,7.595 -4.185429,0 -7.578503,-3.409571 -7.578503,-7.595 z m 36.429169,-3.999646 2.5e-5,-3e-6 L 31.87128,4.1770456 c -0.0029,-0.0029 -0.0074,-0.0044 -0.01177,-0.0074 -0.111827,-0.0927 -0.235425,-0.167005 -0.359024,-0.240576 -0.04487,-0.02649 -0.0846,-0.06106 -0.130955,-0.08534 -0.103735,-0.05444 -0.214091,-0.09049 -0.322239,-0.131692 -0.73538,-0.2970887 -1.430554,-0.1499147 -2.108532,0.00589 -0.103735,0.03973 -0.209677,0.07431 -0.308997,0.125806 -0.168689,0.1032841 -0.344936,0.229267 -0.491451,0.32665 -0.0029,0.0022 -0.0066,0.0037 -0.0096,0.0066 L 1.1489527,26.395351 c -1.25437695,1.032931 -1.43388995,2.887645 -0.40022295,4.142022 0.58194295,0.706278 1.42432495,1.071923 2.27332995,1.071923 12.6070763,0.06501 6.644156,13.645719 6.644156,24.686599 0,1.625173 1.3176493,2.942822 2.9428223,2.942822 h 16.739508 1.300727 16.740243 c 1.625173,0 2.942822,-1.317649 2.942822,-2.942822 2.150914,-13.72064 -7.624025,-24.687334 6.641214,-24.687334 h 0.0044 0.0044 0.128013 l -0.01324,-0.01324 c 0.807805,-0.03237 1.599424,-0.38551 2.154146,-1.05868 1.033666,-1.254378 0.854154,-3.109092 -0.400224,-4.141287 z"
     id="path2"
     inkscape:connector-curvature="0"
     sodipodi:nodetypes="sscssccscsssscscscccccccccccccsccscccccccc" />
</svg>
