<?xml version="1.0" encoding="UTF-8" standalone="no"?>
<svg
   xmlns:dc="http://purl.org/dc/elements/1.1/"
   xmlns:cc="http://creativecommons.org/ns#"
   xmlns:rdf="http://www.w3.org/1999/02/22-rdf-syntax-ns#"
   xmlns:svg="http://www.w3.org/2000/svg"
   xmlns="http://www.w3.org/2000/svg"
   xmlns:sodipodi="http://sodipodi.sourceforge.net/DTD/sodipodi-0.dtd"
   xmlns:inkscape="http://www.inkscape.org/namespaces/inkscape"
   inkscape:version="1.0beta1 (fe3e306, 2019-09-17)"
   sodipodi:docname="icon-fullscreen.svg"
   id="SVGRoot"
   version="1.1"
   viewBox="0 0 64 64"
   height="64px"
   width="64px">
  <sodipodi:namedview
     inkscape:current-layer="SVGRoot"
     inkscape:window-maximized="0"
     inkscape:window-y="0"
     inkscape:window-x="0"
     inkscape:cy="32.546247"
     inkscape:cx="33.635554"
     inkscape:zoom="6.453125"
     showgrid="false"
     id="namedview6"
     inkscape:window-height="943"
     inkscape:window-width="1360"
     inkscape:pageshadow="2"
     inkscape:pageopacity="0"
     guidetolerance="10"
     gridtolerance="10"
     objecttolerance="10"
     borderopacity="1"
     inkscape:document-rotation="0"
     bordercolor="#666666"
     pagecolor="#ffffff" />
  <defs
     id="defs830" />
  <metadata
     id="metadata833">
    <rdf:RDF>
      <cc:Work
         rdf:about="">
        <dc:format>image/svg+xml</dc:format>
        <dc:type
           rdf:resource="http://purl.org/dc/dcmitype/StillImage" />
        <dc:title />
      </cc:Work>
    </rdf:RDF>
  </metadata>
  <path
     sodipodi:nodetypes="csssccccscscsscccscssscccccsscscccccc"
     inkscape:connector-curvature="0"
     fill="currentColor"
     d="m 39.080325,6.4038781 h 15.242806 c 1.804016,0 3.266303,1.4622892 3.266303,3.2663054 V 24.912994 c 0,2.909944 -3.518342,4.36732 -5.575936,2.309538 l -2.923559,-6.923565 -11.700843,11.701036 11.700843,11.700838 2.923559,-6.923557 c 1.132005,-2.680809 5.575936,-0.600405 5.576031,2.309633 v 15.242807 c 0,1.804015 -1.462382,3.266398 -3.266301,3.266302 H 39.080421 c -2.909944,0 -4.367323,-3.51834 -2.309632,-5.576032 l 6.930006,-2.930009 -11.700848,-11.700839 -11.700838,11.700839 6.93011,2.930107 c 2.680283,1.133245 0.600405,5.575934 -2.309633,5.57603 H 9.676776 c -1.8040162,0 -3.2663054,-1.462286 -3.2663054,-3.266303 V 39.087012 c 0,-2.909944 3.5183452,-4.367313 5.5760414,-2.309633 L 14.910068,43.700944 26.610907,32.000097 14.910068,20.29925 11.986512,27.222816 C 9.9288158,29.280503 6.4105737,27.823221 6.4105737,24.913277 V 9.670467 c 0,-1.8040077 1.4623751,-3.2663913 3.2662968,-3.2662969 H 24.91968 c 2.909944,0 4.367321,3.5183452 2.309539,5.5759299 L 20.299204,14.910115 31.999947,26.61085 43.700795,14.910012 36.770692,11.97992 C 34.713003,9.9222233 36.170285,6.4039812 39.080325,6.4038781 Z"
     id="path2"
     style="fill:#663300;fill-opacity:1;stroke:#663300;stroke-width:0.136096;stroke-opacity:1" />
</svg>
