<?xml version="1.0" encoding="UTF-8" standalone="no"?>
<svg
   xmlns:osb="http://www.openswatchbook.org/uri/2009/osb"
   xmlns:dc="http://purl.org/dc/elements/1.1/"
   xmlns:cc="http://creativecommons.org/ns#"
   xmlns:rdf="http://www.w3.org/1999/02/22-rdf-syntax-ns#"
   xmlns:svg="http://www.w3.org/2000/svg"
   xmlns="http://www.w3.org/2000/svg"
   xmlns:sodipodi="http://sodipodi.sourceforge.net/DTD/sodipodi-0.dtd"
   xmlns:inkscape="http://www.inkscape.org/namespaces/inkscape"
   version="1.1"
   width="24"
   height="24"
   viewBox="0 0 24 24"
   id="svg4"
   sodipodi:docname="icon-declare-death.svg"
   inkscape:version="1.0beta1 (fe3e306, 2019-09-17)">
  <metadata
     id="metadata10">
    <rdf:RDF>
      <cc:Work
         rdf:about="">
        <dc:format>image/svg+xml</dc:format>
        <dc:type
           rdf:resource="http://purl.org/dc/dcmitype/StillImage" />
        <dc:title></dc:title>
      </cc:Work>
    </rdf:RDF>
  </metadata>
  <defs
     id="defs8">
    <linearGradient
       id="linearGradient843"
       osb:paint="solid">
      <stop
         style="stop-color:#000000;stop-opacity:1;"
         offset="0"
         id="stop841" />
    </linearGradient>
  </defs>
  <sodipodi:namedview
     pagecolor="#ffffff"
     bordercolor="#666666"
     inkscape:document-rotation="0"
     borderopacity="1"
     objecttolerance="10"
     gridtolerance="10"
     guidetolerance="10"
     inkscape:pageopacity="0"
     inkscape:pageshadow="2"
     inkscape:window-width="1920"
     inkscape:window-height="1001"
     id="namedview6"
     showgrid="false"
     inkscape:zoom="27.812867"
     inkscape:cx="18.500195"
     inkscape:cy="10.808048"
     inkscape:window-x="-9"
     inkscape:window-y="-9"
     inkscape:window-maximized="1"
     inkscape:current-layer="svg4" />
  <path
     d="M 10 2 C 6.69 2 5 4.69 5 8 L 5 18.660156 C 6.9608112 17.707498 8.6691485 17.103887 11.341797 17.017578 L 11.191406 17.017578 L 11.191406 10.244141 L 8.7636719 10.244141 L 8.7636719 8.625 L 11.191406 8.625 L 11.191406 6.1972656 L 12.808594 6.1972656 L 12.808594 8.625 L 15.236328 8.625 L 15.236328 10.244141 L 12.808594 10.244141 L 12.808594 17.017578 L 12.658203 17.017578 C 15.330851 17.103887 17.039189 17.707498 19 18.660156 L 19 8 C 19 4.69 17.31 2 14 2 L 10 2 z M 12.591797 18.445312 C 8.2432617 18.380469 4.6625 20.254297 3 21.310547 L 3 22 L 21 22 L 21 21.25 C 18.08625 19.22125 15.200918 18.484219 12.591797 18.445312 z "
     style="fill:#663300;fill-opacity:1"
     id="path2" />
</svg>
