<?xml version="1.0" encoding="UTF-8" standalone="no"?>
<svg
   xmlns:dc="http://purl.org/dc/elements/1.1/"
   xmlns:cc="http://creativecommons.org/ns#"
   xmlns:rdf="http://www.w3.org/1999/02/22-rdf-syntax-ns#"
   xmlns:svg="http://www.w3.org/2000/svg"
   xmlns="http://www.w3.org/2000/svg"
   xmlns:sodipodi="http://sodipodi.sourceforge.net/DTD/sodipodi-0.dtd"
   xmlns:inkscape="http://www.inkscape.org/namespaces/inkscape"
   inkscape:export-ydpi="96"
   inkscape:export-xdpi="96"
   inkscape:export-filename="C:\Users\nbertin\Documents\Personnel\Rats\LORD\CakeLORD\docs\cdc\icon-backoffice.png"
   inkscape:version="1.0beta1 (fe3e306, 2019-09-17)"
   sodipodi:docname="icon-rattery.svg"
   id="SVGRoot"
   version="1.1"
   viewBox="0 0 64 64"
   height="64px"
   width="64px">
  <sodipodi:namedview
     inkscape:current-layer="SVGRoot"
     inkscape:window-maximized="0"
     inkscape:window-y="63"
     inkscape:window-x="692"
     inkscape:cy="5.5307619"
     inkscape:cx="29.689517"
     inkscape:zoom="3.6875"
     showgrid="false"
     id="namedview39"
     inkscape:window-height="785"
     inkscape:window-width="1371"
     inkscape:pageshadow="2"
     inkscape:pageopacity="0"
     guidetolerance="10"
     gridtolerance="10"
     objecttolerance="10"
     borderopacity="1"
     inkscape:document-rotation="0"
     bordercolor="#666666"
     pagecolor="#ffffff" />
  <defs
     id="defs830">
    <filter
       style="color-interpolation-filters:sRGB"
       id="filter901"
       x="-0.0049654186"
       width="1.0099308"
       y="-0.0049654186"
       height="1.0099308">
      <feGaussianBlur
         stdDeviation="0.95998094"
         id="feGaussianBlur903" />
    </filter>
    <filter
       style="color-interpolation-filters:sRGB"
       id="filter905"
       x="-0.0047999051"
       width="1.0095998"
       y="-0.0048000949"
       height="1.0096002">
      <feGaussianBlur
         stdDeviation="0.12254071"
         id="feGaussianBlur907" />
    </filter>
    <filter
       style="color-interpolation-filters:sRGB"
       id="filter909"
       x="-0.0089998216"
       width="1.0179996"
       y="-0.0089998216"
       height="1.0179996">
      <feGaussianBlur
         stdDeviation="0.12254071"
         id="feGaussianBlur911" />
    </filter>
    <filter
       style="color-interpolation-filters:sRGB"
       id="filter913"
       x="-0.03599929"
       width="1.0719986"
       y="-0.035999285"
       height="1.0719986">
      <feGaussianBlur
         stdDeviation="0.12254071"
         id="feGaussianBlur915" />
    </filter>
    <filter
       style="color-interpolation-filters:sRGB"
       id="filter917"
       x="-0.020571022"
       width="1.041142"
       y="-0.02057102"
       height="1.041142">
      <feGaussianBlur
         stdDeviation="0.12254071"
         id="feGaussianBlur919" />
    </filter>
    <filter
       style="color-interpolation-filters:sRGB"
       id="filter921"
       x="-0.0075787967"
       width="1.0151576"
       y="-0.0075787971"
       height="1.0151576">
      <feGaussianBlur
         stdDeviation="0.12254071"
         id="feGaussianBlur923" />
    </filter>
  </defs>
  <metadata
     id="metadata833">
    <rdf:RDF>
      <cc:Work
         rdf:about="">
        <dc:format>image/svg+xml</dc:format>
        <dc:type
           rdf:resource="http://purl.org/dc/dcmitype/StillImage" />
        <dc:title />
      </cc:Work>
    </rdf:RDF>
  </metadata>
  <path
     inkscape:connector-curvature="0"
     id="path2-2"
     d="M 61.172145,34.030569 56.768897,18.757196 C 56.036771,15.412379 53.08584,13.020509 49.661935,12.996562 H 45.131316 V 8.5160846 c -0.0063,-4.135879 -5.504232,-7.4871533 -9.640112,-7.4932341 h -6.917526 c -4.135867,0.00628 -9.634056,3.3573551 -9.640137,7.4932341 v 4.4804774 h -4.585798 c -3.401818,0.0025 -6.3504377,2.355574 -7.1069626,5.672348 L 2.8265016,34.030569 c -3.77418198,1.103523 -3.76315098,6.820045 0,7.912574 l 4.4142788,15.273374 c 0.7358827,3.34253 3.6845396,5.732578 7.1069626,5.760633 h 35.314192 c 3.403703,-0.0075 6.351166,-2.364557 7.106962,-5.683366 l 4.414279,-15.350641 c 3.763151,-1.114528 3.752133,-6.820044 -0.01131,-7.912574 z M 33.343862,20.644293 v 7.890487 c 0,1.471476 -2.678147,1.471476 -2.678147,0 v -7.890487 c 0,-1.471477 2.678147,-1.471477 2.678147,0 z m -16.733693,0 c 0,-1.471477 2.681501,-1.471477 2.681501,0 v 7.890487 c 0,1.471476 -2.681501,1.471476 -2.681501,0 z m 28.063639,0 c 0,-1.471477 2.682871,-1.471477 2.682871,0 v 7.890487 c 0,1.471476 -2.682871,1.471476 -2.682871,0 z M 24.672087,9.3147866 c 0,-1.091098 1.743595,-2.6195883 2.83439,-2.6195883 h 9.008382 c 1.08675,0.00628 2.822819,0.9961279 2.82253,2.0828653 0,0 -0.165012,3.7910684 -1.601159,3.7818594 -3.692154,-0.02375 -6.888404,0.01646 -11.718077,0 -1.170978,-0.0038 -1.346405,-3.2451114 -1.346405,-3.2451114 z M 19.291733,55.881219 c 0,1.471476 -2.681564,1.471476 -2.681564,0 v -7.890525 c 0,-1.471476 2.681564,-1.471476 2.681564,0 z m 14.052129,0 c 0,1.471476 -2.678147,1.471476 -2.678147,0 v -7.890525 c 0,-1.471476 2.678147,-1.471476 2.678147,0 z m 14.055546,0 c 0,1.471476 -2.681401,1.471476 -2.681401,0 v -7.890525 c 0,-1.471476 2.681401,-1.471476 2.681401,0 z M 61.801174,38.113756 c 0,1.005676 -0.815198,1.820887 -1.820887,1.820887 H 4.0293907 c -2.4166585,0 -2.4389465,-3.873511 0,-3.895573 H 59.980287 c 1.103535,0.01256 1.952316,0.979054 1.820887,2.074774 z"
     sodipodi:nodetypes="sccccccccccccccccccsssssssssssssssssccsssssssssssssssssscsccccccc"
     style="display:inline;opacity:1;fill:#663300;fill-opacity:1;stroke-width:1.10357;stop-opacity:1" />
</svg>
