<?xml version="1.0" encoding="UTF-8" standalone="no"?>
<svg
   xmlns:dc="http://purl.org/dc/elements/1.1/"
   xmlns:cc="http://creativecommons.org/ns#"
   xmlns:rdf="http://www.w3.org/1999/02/22-rdf-syntax-ns#"
   xmlns:svg="http://www.w3.org/2000/svg"
   xmlns="http://www.w3.org/2000/svg"
   xmlns:sodipodi="http://sodipodi.sourceforge.net/DTD/sodipodi-0.dtd"
   xmlns:inkscape="http://www.inkscape.org/namespaces/inkscape"
   id="SVGRoot"
   version="1.1"
   viewBox="0 0 64 64"
   height="64px"
   width="64px"
   inkscape:version="1.0beta1 (fe3e306, 2019-09-17)"
   sodipodi:docname="icon-back.svg">
  <defs
     id="defs869" />
  <sodipodi:namedview
     id="base"
     pagecolor="#ffffff"
     bordercolor="#666666"
     borderopacity="1.0"
     inkscape:pageopacity="0.0"
     inkscape:pageshadow="2"
     inkscape:zoom="7.919596"
     inkscape:cx="40.223704"
     inkscape:cy="41.690921"
     inkscape:document-units="px"
     inkscape:current-layer="layer1"
     inkscape:document-rotation="0"
     showgrid="false"
     inkscape:window-width="1920"
     inkscape:window-height="1001"
     inkscape:window-x="-9"
     inkscape:window-y="-9"
     inkscape:window-maximized="1"
     inkscape:grid-bbox="true" />
  <metadata
     id="metadata872">
    <rdf:RDF>
      <cc:Work
         rdf:about="">
        <dc:format>image/svg+xml</dc:format>
        <dc:type
           rdf:resource="http://purl.org/dc/dcmitype/StillImage" />
        <dc:title />
      </cc:Work>
    </rdf:RDF>
  </metadata>
  <g
     inkscape:label="Calque 1"
     inkscape:groupmode="layer"
     id="layer1">
    <g
       transform="matrix(2.6368808,0,0,2.6368808,0.3574304,0.35789418)"
       id="g6">
      <g
         id="g4">
        <path
           style="fill:#663300;fill-opacity:1"
           sodipodi:nodetypes="scscccscccsccssccscss"
           d="M 11.5,4.7584719 H 10 V 0.5 C 10,0.303 9.884,0.125 9.705,0.044 9.526,-0.038 9.316,-0.004 9.168,0.127 l -9,8 C 0.061,8.221 0,8.357 0,8.5 0,8.643 0.061,8.779 0.168,8.874 l 9,8 c 0.147,0.131 0.358,0.163 0.537,0.083 C 9.885,16.876 10,16.698 10,16.501 v -3.51 l 0.146,-0.755472 c 0.118,0.004 0.236,0.007 0.354,0.007 4.178,0 8.5,3.002472 8.5,6.758472 0,1.383 -0.973,3.132 -1.877,4.172 -0.158,0.181 -0.164,0.449 -0.015,0.638 C 17.205,23.934 17.351,24 17.5,24 17.578,24 17.658,23.981 17.731,23.943 21.422,22.014 24,18.131 24,14.5 24,8.809 18.276,4.7584719 11.5,4.7584719 Z"
           id="path2"
           inkscape:connector-curvature="0" />
      </g>
    </g>
  </g>
</svg>
