<?xml version="1.0" encoding="UTF-8" standalone="no"?>
<svg
   xmlns:dc="http://purl.org/dc/elements/1.1/"
   xmlns:cc="http://creativecommons.org/ns#"
   xmlns:rdf="http://www.w3.org/1999/02/22-rdf-syntax-ns#"
   xmlns:svg="http://www.w3.org/2000/svg"
   xmlns="http://www.w3.org/2000/svg"
   xmlns:sodipodi="http://sodipodi.sourceforge.net/DTD/sodipodi-0.dtd"
   xmlns:inkscape="http://www.inkscape.org/namespaces/inkscape"
   inkscape:version="1.0beta1 (fe3e306, 2019-09-17)"
   sodipodi:docname="icon-report-invert.svg"
   version="1.1"
   viewBox="0 0 60 60"
   data-name="Layer 1"
   id="Layer_1">
  <metadata
     id="metadata15">
    <rdf:RDF>
      <cc:Work
         rdf:about="">
        <dc:format>image/svg+xml</dc:format>
        <dc:type
           rdf:resource="http://purl.org/dc/dcmitype/StillImage" />
        <dc:title>icon-report</dc:title>
      </cc:Work>
    </rdf:RDF>
  </metadata>
  <sodipodi:namedview
     inkscape:current-layer="Layer_1"
     inkscape:window-maximized="1"
     inkscape:window-y="-9"
     inkscape:window-x="-9"
     inkscape:cy="22.29107"
     inkscape:cx="34.504407"
     inkscape:zoom="3.4416667"
     showgrid="false"
     id="namedview13"
     inkscape:window-height="1001"
     inkscape:window-width="1920"
     inkscape:pageshadow="2"
     inkscape:pageopacity="0"
     guidetolerance="10"
     gridtolerance="10"
     objecttolerance="10"
     borderopacity="1"
     inkscape:document-rotation="0"
     bordercolor="#666666"
     pagecolor="#ffffff" />
  <defs
     id="defs4">
    <style
       id="style2">.cls-1{fill:#630;}.cls-2{fill:none;stroke:#630;stroke-linecap:round;stroke-linejoin:round;stroke-width:2.5px;}</style>
    <filter
       height="1.0048"
       y="-0.0024000001"
       width="1.0048"
       x="-0.0024000001"
       id="filter1477"
       style="color-interpolation-filters:sRGB"
       inkscape:collect="always">
      <feGaussianBlur
         id="feGaussianBlur1479"
         stdDeviation="0.25142857"
         inkscape:collect="always" />
    </filter>
  </defs>
  <title
     id="title6">icon-report</title>
  <rect
     transform="matrix(0.233663,0,0,0.233663,23.18298,24.239138)"
     inkscape:export-ydpi="389.11411"
     inkscape:export-xdpi="389.11411"
     ry="53.598671"
     y="-101.05971"
     x="-96.539703"
     height="251.42857"
     width="251.42857"
     id="rect1409"
     style="fill:#663300;fill-opacity:1;stroke:none;stroke-width:0.377953;stroke-miterlimit:4;stroke-dasharray:none;stroke-opacity:1;filter:url(#filter1477)" />
  <path
     inkscape:connector-curvature="0"
     style="fill:#ffffff;fill-opacity:1"
     id="path8"
     d="m 27.526943,21.26914 a 1.25,1.25 0 0 1 1.21,-1.48 h 2.49 a 1.27,1.27 0 0 1 1.25,1.48 l -1.22,14.07 a 1.27,1.27 0 0 1 -1.28,1.24 1.23,1.23 0 0 1 -1.24,-1.24 z m 2.45,17.83 a 2.36,2.36 0 0 1 2.5,2.38 v 0.35 a 2.36,2.36 0 0 1 -2.45,2.38 2.38,2.38 0 0 1 -2.45,-2.38 v -0.35 a 2.38,2.38 0 0 1 2.4,-2.38 z"
     class="cls-1" />
  <polygon
     transform="translate(-0.52,-3.3050625)"
     style="stroke:#ffffff;stroke-opacity:1"
     id="polygon10"
     points="30.52,50.98 7.8,50.98 19.16,31.31 30.52,11.63 41.88,31.31 53.24,50.98 "
     class="cls-2" />
</svg>
