<?xml version="1.0" encoding="UTF-8" standalone="no"?>
<svg
   xmlns:dc="http://purl.org/dc/elements/1.1/"
   xmlns:cc="http://creativecommons.org/ns#"
   xmlns:rdf="http://www.w3.org/1999/02/22-rdf-syntax-ns#"
   xmlns:svg="http://www.w3.org/2000/svg"
   xmlns="http://www.w3.org/2000/svg"
   xmlns:sodipodi="http://sodipodi.sourceforge.net/DTD/sodipodi-0.dtd"
   xmlns:inkscape="http://www.inkscape.org/namespaces/inkscape"
   inkscape:version="1.0beta1 (fe3e306, 2019-09-17)"
   sodipodi:docname="icon-edit-as-staff.svg"
   version="1.1"
   width="512"
   viewBox="0 0 24 24"
   height="512"
   enable-background="new 0 0 24 24"
   id="bold">
  <metadata
     id="metadata17">
    <rdf:RDF>
      <cc:Work
         rdf:about="">
        <dc:format>image/svg+xml</dc:format>
        <dc:type
           rdf:resource="http://purl.org/dc/dcmitype/StillImage" />
        <dc:title></dc:title>
      </cc:Work>
    </rdf:RDF>
  </metadata>
  <defs
     id="defs15" />
  <sodipodi:namedview
     inkscape:current-layer="g10"
     inkscape:window-maximized="1"
     inkscape:window-y="-9"
     inkscape:window-x="-9"
     inkscape:cy="242.99405"
     inkscape:cx="171.3511"
     inkscape:zoom="0.57038106"
     showgrid="false"
     id="namedview13"
     inkscape:window-height="1001"
     inkscape:window-width="1920"
     inkscape:pageshadow="2"
     inkscape:pageopacity="0"
     guidetolerance="10"
     gridtolerance="10"
     objecttolerance="10"
     borderopacity="1"
     inkscape:document-rotation="0"
     bordercolor="#666666"
     pagecolor="#ffffff" />
  <g
     id="g10">
    <path
       style="fill:#b1000c;fill-opacity:1;stroke-width:1.00785"
       inkscape:connector-curvature="0"
       id="path4"
       d="m 23.589091,21.574895 c 0,2.183309 -7.104353,2.246203 -7.913824,2.246203 -0.809471,0 -7.913824,-0.06289 -7.913824,-2.246203 V 17.98097 c 0,2.18331 7.104353,2.246203 7.913824,2.246203 0.809471,0 7.913824,-0.06289 7.913824,-2.246203 z" />
    <path
       style="fill:#b1000c;fill-opacity:1;stroke-width:1.00785"
       inkscape:connector-curvature="0"
       id="path6"
       d="m 23.589091,16.184008 c 0,2.183309 -7.104353,2.246203 -7.913824,2.246203 -0.809471,0 -7.913824,-0.06289 -7.913824,-2.246203 v -3.593925 c 0,2.18331 7.104353,2.246203 7.913824,2.246203 0.809471,0 7.913824,-0.06289 7.913824,-2.246203 z" />
    <path
       style="fill:#b1000c;fill-opacity:1;stroke-width:1.00785"
       inkscape:connector-curvature="0"
       id="path8"
       d="m 15.675267,13.039324 c -0.809471,0 -7.913824,-0.06289 -7.913824,-2.246203 0,-2.1833095 7.104353,-2.2462032 7.913824,-2.2462032 0.809471,0 7.913824,0.062894 7.913824,2.2462032 0,2.183309 -7.104353,2.246203 -7.913824,2.246203 z" />
    <path
       inkscape:connector-curvature="0"
       style="overflow:hidden;fill:#b1000c;fill-opacity:1;stroke-width:0.0121706"
       d="M 11.449151,1.0153865 A 1.6097577,1.6097577 0 0 0 9.5823524,0.72199527 5.4581172,5.4581172 0 0 0 9.3424465,0.45768377 a 1.5972951,1.5972951 0 0 0 -2.2562577,0 L 4.2457457,3.2981269 a 0.51927669,0.51927669 0 0 0 0,0.7342567 0.525508,0.525508 0 0 0 0.7342578,0 L 7.8204467,1.1919405 a 0.55718388,0.55718388 0 0 1 0.787742,0 l 0.1900556,0.1905749 -1.1553897,1.154871 a 0.27002388,0.27002388 0 0 0 0,0.3811488 l 1.9036679,1.9010727 a 0.26898532,0.26898532 0 0 0 0.3801106,0 L 11.449151,3.2970888 a 1.6144312,1.6144312 0 0 0 0,-2.2817023 z"
       id="path2" />
    <path
       inkscape:connector-curvature="0"
       style="overflow:hidden;fill:#b1000c;fill-opacity:1;stroke-width:0.0121706"
       d="m 7.07165,3.4892209 a 0.2695046,0.2695046 0 0 0 -0.3806298,0 L 2.4189307,7.7623484 a 0.80695596,0.80695596 0 0 0 0,1.1424092 L 3.561339,10.047166 a 0.80695596,0.80695596 0 0 0 1.1424092,0 L 8.9763569,5.7745574 a 0.2695046,0.2695046 0 0 0 0,-0.3806298 z M 1.5730289,9.2132086 a 0.25963833,0.25963833 0 0 0 -0.4278836,0.09503 L 0.13515231,12.105063 a 0.25963833,0.25963833 0 0 0 0.0607601,0.271582 0.26535038,0.26535038 0 0 0 0.27210098,0.06127 L 3.2648379,11.42845 a 0.25963833,0.25963833 0 0 0 0.09503,-0.427884 z"
       id="path4-0" />
  </g>
</svg>
