<?xml version="1.0" encoding="UTF-8" standalone="no"?>
<svg
   xmlns:dc="http://purl.org/dc/elements/1.1/"
   xmlns:cc="http://creativecommons.org/ns#"
   xmlns:rdf="http://www.w3.org/1999/02/22-rdf-syntax-ns#"
   xmlns:svg="http://www.w3.org/2000/svg"
   xmlns="http://www.w3.org/2000/svg"
   width="64px"
   height="64px"
   viewBox="0 0 64 64"
   version="1.1"
   id="SVGRoot">
  <defs
     id="defs830" />
  <metadata
     id="metadata833">
    <rdf:RDF>
      <cc:Work
         rdf:about="">
        <dc:format>image/svg+xml</dc:format>
        <dc:type
           rdf:resource="http://purl.org/dc/dcmitype/StillImage" />
        <dc:title></dc:title>
      </cc:Work>
    </rdf:RDF>
  </metadata>
  <path
     fill="currentColor"
     d="m 57.280692,43.607134 -4.586684,-2.691175 3.989949,-1.088167 c 0.982863,-0.269114 1.567899,-1.298785 1.298785,-2.293336 L 57.503009,35.720841 C 57.245594,34.726267 56.227634,34.129532 55.24477,34.398657 l -9.325479,2.539052 -8.401123,-4.937703 8.412822,-4.937715 9.325479,2.539053 c 0.982864,0.269125 1.989125,-0.32761 2.258239,-1.322173 l 0.479733,-1.813615 c 0.257415,-0.994562 -0.315922,-2.024233 -1.298774,-2.293347 l -3.98996,-1.088167 4.586695,-2.691164 c 0.877549,-0.514841 1.181771,-1.661504 0.678641,-2.562462 l -0.924368,-1.626395 c -0.503131,-0.900958 -1.638094,-1.20518 -2.515654,-0.69035 l -4.586684,2.691174 1.064769,-4.060155 c 0.257415,-0.994573 -0.315922,-2.024222 -1.298785,-2.293347 L 47.931814,11.37161 c -0.982852,-0.269114 -1.989125,0.327622 -2.258239,1.322184 l -2.492256,9.477591 -8.412833,4.937703 v -9.887117 l 6.821536,-6.938516 c 0.713738,-0.7254605 0.713738,-1.9189305 0,-2.6443785 L 40.291237,6.3168926 c -0.713738,-0.7254372 -1.88381,-0.7254372 -2.597571,0 l -2.91347,2.9719879 v -5.370639 c 0,-1.02966 -0.819052,-1.872111 -1.837024,-1.872111 h -1.837014 c -1.01796,0 -1.837013,0.842451 -1.837013,1.872111 v 5.394038 L 26.355664,6.340302 c -0.713738,-0.7254482 -1.88381,-0.7254482 -2.597559,0 l -1.345582,1.3221835 c -0.713749,0.725437 -0.713749,1.918908 0,2.6443675 l 6.821524,6.938527 v 9.887118 L 20.821225,22.194783 18.328959,12.717192 C 18.071544,11.72263 17.053594,11.125895 16.07072,11.39502 l -1.778507,0.479732 c -0.982863,0.269114 -1.567888,1.298774 -1.298774,2.293337 l 1.064757,4.060155 -4.5866841,-2.691175 C 8.5939529,15.02225 7.4706886,15.326462 6.9558586,16.22742 l -0.9243563,1.626395 c -0.5031308,0.900958 -0.2106182,2.035932 0.6786405,2.562473 l 4.5866842,2.691163 -3.9899489,1.064758 C 6.3240149,24.441323 5.7389788,25.470994 6.008104,26.465556 l 0.4797214,1.813615 c 0.257415,0.994563 1.2753865,1.591298 2.2582385,1.322173 l 9.3254801,-2.539053 8.412833,4.937715 -8.412833,4.937703 -9.3254801,-2.539052 c -0.982852,-0.269125 -1.9891243,0.32761 -2.2582385,1.322184 L 6.008104,37.534456 c -0.257415,0.994551 0.3159109,2.024222 1.2987741,2.293336 l 3.9899489,1.088167 -4.5866842,2.691175 c -0.8775595,0.51483 -1.1817713,1.661492 -0.6786405,2.56245 l 0.9243563,1.626396 c 0.5031308,0.900958 1.6380943,1.20519 2.5156533,0.69035 l 4.5866841,-2.691174 -1.064757,4.060154 c -0.257415,0.994574 0.315911,2.024234 1.298774,2.293348 l 1.778507,0.479732 c 0.982874,0.269115 1.989124,-0.327621 2.258239,-1.322183 l 2.492266,-9.477592 8.412822,-4.937703 v 9.887118 l -6.821524,6.938527 c -0.713749,0.725448 -0.713749,1.918919 0,2.644367 l 1.298774,1.322184 c 0.713749,0.725437 1.883821,0.725437 2.59757,0 l 2.913481,-2.971988 v 5.370638 c 0,1.02966 0.819042,1.872111 1.837014,1.872111 h 1.837013 c 1.017972,0 1.837014,-0.842451 1.837014,-1.872111 V 54.68772 l 2.913481,2.971977 c 0.713738,0.725449 1.883821,0.725449 2.59757,0 l 1.298774,-1.322183 c 0.713749,-0.725437 0.713749,-1.918908 0,-2.644367 L 34.721689,46.75463 v -9.887117 l 8.412834,4.937704 2.492244,9.477592 c 0.257415,0.994562 1.275376,1.591296 2.25825,1.322183 l 1.778507,-0.479743 c 0.982863,-0.269115 1.567899,-1.298764 1.298774,-2.293337 l -1.064758,-4.060155 4.586685,2.691175 c 0.877548,0.514819 2.000823,0.210607 2.515653,-0.690351 l 0.924357,-1.626395 c 0.538239,-0.877561 0.245716,-2.024223 -0.643543,-2.539052 z"
     id="path2"
     style="fill:#b1000c;fill-opacity:1;stroke-width:0.117007" />
</svg>
