<?xml version="1.0" encoding="UTF-8" standalone="no"?>
<svg
   xmlns:dc="http://purl.org/dc/elements/1.1/"
   xmlns:cc="http://creativecommons.org/ns#"
   xmlns:rdf="http://www.w3.org/1999/02/22-rdf-syntax-ns#"
   xmlns:svg="http://www.w3.org/2000/svg"
   xmlns="http://www.w3.org/2000/svg"
   width="64px"
   height="64px"
   viewBox="0 0 64 64"
   version="1.1"
   id="SVGRoot">
  <defs
     id="defs830" />
  <metadata
     id="metadata833">
    <rdf:RDF>
      <cc:Work
         rdf:about="">
        <dc:format>image/svg+xml</dc:format>
        <dc:type
           rdf:resource="http://purl.org/dc/dcmitype/StillImage" />
        <dc:title></dc:title>
      </cc:Work>
    </rdf:RDF>
  </metadata>
  <path
     style="fill:#663300;fill-opacity:1;stroke:#663300;stroke-width:0.136096;stroke-opacity:1"
     id="path2"
     d="m 39.080325,6.4038781 h 15.242806 c 1.804016,0 3.266303,1.4622892 3.266303,3.2663054 V 24.912994 c 0,2.909944 -3.518342,4.36732 -5.575936,2.309538 l -4.923559,-4.923565 -9.700843,9.701036 9.700843,9.700838 4.923559,-4.923557 c 2.057691,-2.057688 5.575936,-0.600405 5.576031,2.309633 v 15.242807 c 0,1.804015 -1.462382,3.266398 -3.266301,3.266302 H 39.080421 c -2.909944,0 -4.367323,-3.51834 -2.309632,-5.576032 l 4.930006,-4.930009 -9.700848,-9.700839 -9.700838,9.700839 4.93011,4.930107 c 2.057687,2.057689 0.600405,5.575934 -2.309633,5.57603 H 9.676776 c -1.8040162,0 -3.2663054,-1.462286 -3.2663054,-3.266303 V 39.087012 c 0,-2.909944 3.5183452,-4.367313 5.5760414,-2.309633 l 4.923556,4.923565 9.700839,-9.700847 -9.700839,-9.700847 -4.923556,4.923566 C 9.9288158,29.280503 6.4105737,27.823221 6.4105737,24.913277 V 9.670467 c 0,-1.8040077 1.4623751,-3.2663913 3.2662968,-3.2662969 H 24.91968 c 2.909944,0 4.367321,3.5183452 2.309539,5.5759299 l -4.930015,4.930015 9.700743,9.700735 9.700848,-9.700838 -4.930103,-4.930092 C 34.713003,9.9222233 36.170285,6.4039812 39.080325,6.4038781 Z"
     fill="currentColor" />
</svg>
