<?xml version="1.0" encoding="UTF-8" standalone="no"?>
<svg
   xmlns:dc="http://purl.org/dc/elements/1.1/"
   xmlns:cc="http://creativecommons.org/ns#"
   xmlns:rdf="http://www.w3.org/1999/02/22-rdf-syntax-ns#"
   xmlns:svg="http://www.w3.org/2000/svg"
   xmlns="http://www.w3.org/2000/svg"
   width="64px"
   height="64px"
   viewBox="0 0 64 64"
   version="1.1"
   id="SVGRoot">
  <defs
     id="defs830" />
  <metadata
     id="metadata833">
    <rdf:RDF>
      <cc:Work
         rdf:about="">
        <dc:format>image/svg+xml</dc:format>
        <dc:type
           rdf:resource="http://purl.org/dc/dcmitype/StillImage" />
        <dc:title></dc:title>
      </cc:Work>
    </rdf:RDF>
  </metadata>
  <path
     style="fill:#ffffff;fill-opacity:1;stroke-width:0.0784892"
     id="path2"
     d="m 32.016006,18.903398 -3.90092,7.80184 c -0.47094,0.94972 -1.83665,0.91832 -2.26834,-0.0471 l -4.46605,-9.9132 -2.35468,5.62769 h -7.38584 l 14.3243,14.63826 c 0.55728,0.57297 1.4599,0.57297 2.01718,0 l 14.33215,-14.63826 h -8.56319 z m 12.04811,-13.3353404 -0.18838,-0.19622 c -4.0422,-4.12854 -10.65885,-4.12854 -14.70889,0 l -2.18986,2.24479 -2.18985,-2.23694 c -4.0422,-4.13639 -10.6667,-4.13639 -14.7089,0 l -0.1883702,0.18837 c -3.82243,3.9087703 -3.98726,10.1329704 -0.57298,14.2929104 h 8.0373102 l 2.81777,-6.76578 c 0.42384,-1.01251 1.85235,-1.03606 2.30759,-0.0314 l 4.56807,10.14867 3.84598,-7.6841 c 0.46309,-0.92618 1.78171,-0.92618 2.24479,0 l 2.16631,4.33261 h 9.33238 c 3.41429,-4.15994 3.24946,-10.3841401 -0.57297,-14.2929104 z"
     fill="currentColor" />
  <path
     d="m 56.634896,58.326458 h -1.4699 v -29.12251 c 0,-0.76151 -0.61653,-1.37803 -1.37804,-1.37803 h -5.51215 c -0.7615,0 -1.37803,0.61652 -1.37803,1.37803 v 29.12251 h -2.75608 v -20.85429 c 0,-0.76151 -0.61652,-1.37803 -1.37803,-1.37803 h -5.51215 c -0.76151,0 -1.37803,0.61652 -1.37803,1.37803 v 20.85429 h -2.75608 v -9.83 c 0,-0.7615 -0.61653,-1.37803 -1.37803,-1.37803 h -5.51215 c -0.76151,0 -1.37804,0.61653 -1.37804,1.37803 v 9.83 h -2.75607 v -15.34214 c 0,-0.76151 -0.61653,-1.37804 -1.37804,-1.37804 h -5.51214 c -0.76151,0 -1.37804,0.61653 -1.37804,1.37804 v 15.34214 h -1.4699 c -0.76151,0 -1.37804,0.61652 -1.37804,1.37803 0,0.76151 0.61653,1.37804 1.37804,1.37804 h 44.2809 c 0.76151,0 1.37804,-0.61653 1.37804,-1.37804 0,-0.76151 -0.61653,-1.37803 -1.37804,-1.37803 z m 0,0"
     id="path4"
     style="fill:#ffffff;fill-opacity:1;stroke-width:0.0918687" />
</svg>
