<?xml version="1.0" encoding="UTF-8" standalone="no"?>
<svg
   xmlns:dc="http://purl.org/dc/elements/1.1/"
   xmlns:cc="http://creativecommons.org/ns#"
   xmlns:rdf="http://www.w3.org/1999/02/22-rdf-syntax-ns#"
   xmlns:svg="http://www.w3.org/2000/svg"
   xmlns="http://www.w3.org/2000/svg"
   xmlns:sodipodi="http://sodipodi.sourceforge.net/DTD/sodipodi-0.dtd"
   xmlns:inkscape="http://www.inkscape.org/namespaces/inkscape"
   inkscape:version="1.0beta1 (fe3e306, 2019-09-17)"
   sodipodi:docname="icon-home.svg"
   version="1.1"
   viewBox="0 0 60 60"
   data-name="Layer 1"
   id="Layer_1">
  <metadata
     id="metadata15">
    <rdf:RDF>
      <cc:Work
         rdf:about="">
        <dc:format>image/svg+xml</dc:format>
        <dc:type
           rdf:resource="http://purl.org/dc/dcmitype/StillImage" />
        <dc:title>icon-report</dc:title>
      </cc:Work>
    </rdf:RDF>
  </metadata>
  <sodipodi:namedview
     inkscape:current-layer="Layer_1"
     inkscape:window-maximized="1"
     inkscape:window-y="-9"
     inkscape:window-x="-9"
     inkscape:cy="36.88664"
     inkscape:cx="25.856486"
     inkscape:zoom="13.766667"
     showgrid="false"
     id="namedview13"
     inkscape:window-height="1001"
     inkscape:window-width="1920"
     inkscape:pageshadow="2"
     inkscape:pageopacity="0"
     guidetolerance="10"
     gridtolerance="10"
     objecttolerance="10"
     borderopacity="1"
     inkscape:document-rotation="0"
     bordercolor="#666666"
     pagecolor="#ffffff">
    <inkscape:grid
       id="grid832"
       type="xygrid" />
  </sodipodi:namedview>
  <defs
     id="defs4">
    <style
       id="style2">.cls-1{fill:#630;}.cls-2{fill:none;stroke:#630;stroke-linecap:round;stroke-linejoin:round;stroke-width:2.5px;}</style>
  </defs>
  <title
     id="title6">icon-report</title>
  <path
     sodipodi:nodetypes="scccccccccccccscssccssccccccccsssssscssccscssc"
     inkscape:connector-curvature="0"
     id="path2"
     d="M 58.851072,26.395351 31.87128,4.1770456 c -0.0029,-0.0029 -0.0074,-0.0044 -0.01177,-0.0074 -0.111827,-0.0927 -0.235425,-0.167005 -0.359024,-0.240576 -0.04488,-0.02649 -0.08461,-0.06106 -0.130955,-0.08534 -0.103735,-0.05444 -0.214091,-0.09049 -0.322239,-0.131692 -0.328861,-0.125805 -0.670964,-0.189812 -1.016745,-0.192755 -0.37006,-0.0044 -0.738649,0.06106 -1.091787,0.198641 -0.103735,0.03973 -0.209677,0.07431 -0.308997,0.125806 -0.04046,0.02133 -0.07651,0.05297 -0.115506,0.07651 -0.129484,0.07651 -0.257496,0.153762 -0.375945,0.25014 -0.0029,0.0022 -0.0066,0.0037 -0.0096,0.0066 L 1.1489527,26.395351 c -1.25437695,1.032931 -1.43388995,2.887645 -0.40022295,4.142022 0.58194295,0.706278 1.42432495,1.071923 2.27332995,1.071923 h 6.644156 v 24.686599 c 0,1.625173 1.3176493,2.942822 2.9428223,2.942822 h 16.739508 1.300727 16.740243 c 1.625173,0 2.942822,-1.317649 2.942822,-2.942822 V 31.608561 h 6.641214 0.0044 0.0044 0.128013 l -0.01324,-0.01324 c 0.807805,-0.03237 1.599424,-0.38551 2.154146,-1.05868 1.033666,-1.254378 0.854154,-3.109092 -0.400224,-4.141287 z M 30.000381,24.216606 c 4.184693,0 7.578502,3.393074 7.578502,7.578502 0,4.185429 -3.393074,7.578503 -7.578502,7.578503 -4.185429,0 -7.578503,-3.393074 -7.578503,-7.578503 0,-4.185428 3.39381,-7.578502 7.578503,-7.578502 z M 42.286,51.243157 c -0.571267,-0.0082 -0.606226,0.01343 -2.151944,0.01341 L 19.866773,51.256372 C 18.321056,51.256357 17.769,51.228992 17.769,51.228992 l -0.6,-0.607209 c 0,-0.202319 -0.09389,-0.517812 -0.035,-0.703656 1.837459,-5.798581 6.59596,-9.32545 12.866378,-9.32545 6.271153,0 10.773213,3.219423 12.866018,9.326922 0.06296,0.183744 -0.0021,0.500307 -0.118401,0.665865 z"
     style="fill:#ffffff;fill-opacity:0.941176;stroke-width:0.735705" />
</svg>
