<?xml version="1.0" encoding="UTF-8" standalone="no"?>
<svg
   xmlns:dc="http://purl.org/dc/elements/1.1/"
   xmlns:cc="http://creativecommons.org/ns#"
   xmlns:rdf="http://www.w3.org/1999/02/22-rdf-syntax-ns#"
   xmlns:svg="http://www.w3.org/2000/svg"
   xmlns="http://www.w3.org/2000/svg"
   xmlns:sodipodi="http://sodipodi.sourceforge.net/DTD/sodipodi-0.dtd"
   xmlns:inkscape="http://www.inkscape.org/namespaces/inkscape"
   inkscape:version="1.0beta1 (fe3e306, 2019-09-17)"
   inkscape:export-ydpi="96"
   inkscape:export-xdpi="96"
   inkscape:export-filename="C:\Users\nbertin\Documents\Personnel\Rats\LORD\CakeLORD\docs\cdc\icon-report.png"
   sodipodi:docname="icon-three-rats.svg"
   id="SVGRoot"
   version="1.1"
   viewBox="0 0 64 64"
   height="64px"
   width="64px">
  <sodipodi:namedview
     inkscape:current-layer="SVGRoot"
     inkscape:window-maximized="0"
     inkscape:window-y="0"
     inkscape:window-x="0"
     inkscape:cy="19.140347"
     inkscape:cx="25.471578"
     inkscape:zoom="5.2149125"
     showgrid="false"
     id="namedview7"
     inkscape:window-height="825"
     inkscape:window-width="1520"
     inkscape:pageshadow="2"
     inkscape:pageopacity="0"
     guidetolerance="10"
     gridtolerance="10"
     objecttolerance="10"
     borderopacity="1"
     inkscape:document-rotation="0"
     bordercolor="#666666"
     pagecolor="#ffffff" />
  <defs
     id="defs830" />
  <metadata
     id="metadata833">
    <rdf:RDF>
      <cc:Work
         rdf:about="">
        <dc:format>image/svg+xml</dc:format>
        <dc:type
           rdf:resource="http://purl.org/dc/dcmitype/StillImage" />
        <dc:title></dc:title>
      </cc:Work>
    </rdf:RDF>
  </metadata>
  <g
     style="fill:#663300;fill-opacity:1"
     transform="translate(0.1970556,-0.54394656)"
     id="g891">
    <path
       inkscape:export-filename="C:\Users\nbertin\Documents\Personnel\Rats\LORD\CakeLORD\webroot\img\Unknown.png"
       inkscape:export-ydpi="94.953262"
       inkscape:export-xdpi="94.953262"
       sodipodi:nodetypes="sscssssssssscssssscscsscssssssssssss"
       inkscape:connector-curvature="0"
       id="path837"
       d="m 33.387644,48.373392 c -4.431561,-3.533132 -5.494368,-4.010737 -7.18188,-3.22738 -1.042023,0.483707 -1.380916,1.197335 -1.381911,2.909939 -4.02e-4,0.68638 -0.04962,1.125852 -0.135922,1.212099 C 24.517298,49.438714 13.383605,49.456228 11.365604,49.2889 5.4530422,48.799033 2.0876265,45.960315 0.4062429,40.04472 -0.25265578,37.726529 0.21946719,34.568486 1.5681717,32.27243 c 1.6300145,-2.774955 3.2861291,-4.144283 8.9354453,-7.388089 6.388524,-3.668283 7.57225,-4.796413 6.333005,-6.03566 -1.070897,-1.070897 -1.98109,-0.827836 -7.7989717,2.08271 -3.6589586,1.830498 -3.9763829,1.941154 -4.1945501,1.462335 -0.1966451,-0.431568 3.1700626,-2.671589 7.6144208,-5.066196 3.64874,-1.965934 7.122073,-0.783452 7.113195,2.421675 -0.0053,1.992286 -1.187793,3.010389 -8.897972,7.662409 -6.2599511,3.776997 -7.8363256,5.748233 -7.8363256,9.799162 0,4.804114 2.5167306,7.553768 7.5089516,8.203918 1.786571,0.23268 1.881914,0.211764 1.70616,-0.374309 -1.731149,-5.772678 1.223028,-10.786656 10.854901,-18.423488 2.930917,-2.323837 3.018262,-2.378801 3.279677,-2.063834 0.3709,0.446898 2.323904,1.510298 2.77377,1.510298 0.03168,0 -0.2945,-0.376897 -0.724717,-0.837556 -1.774273,-1.899893 -2.338095,-4.140581 -1.661778,-6.604128 0.325205,-1.184575 0.607472,-1.322852 1.97519,-0.967642 0.338605,0.08799 1.021548,0.239638 1.517661,0.337115 0.496116,0.09752 1.101653,0.225245 1.345655,0.283943 0.407572,0.09807 0.506778,0.06987 1.220376,-0.346934 3.149483,-1.839391 7.992119,-2.734588 11.498879,-2.125657 2.429912,0.421953 2.708438,0.741134 2.170393,2.487185 -0.854516,2.773045 -1.823498,4.434645 -4.500467,7.717298 -3.805405,4.666412 -5.077418,7.542511 -6.083812,13.755858 -0.498904,3.080141 -0.565595,3.876227 -0.561946,6.708786 0.0039,3.500511 0.103818,3.393675 -1.767659,1.901618 z m 5.601085,-27.825545 c 0.52827,-0.322113 0.717878,-0.663361 0.717878,-1.292061 0,-1.535266 -2.18398,-1.979467 -2.775206,-0.564457 -0.555024,1.328381 0.847659,2.594156 2.057328,1.856518 z"
       style="fill:#663300;fill-opacity:1;stroke-width:0.112753" />
    <path
       style="fill:#663300;fill-opacity:1;stroke-width:0.0683529"
       d="m 50.363239,48.838052 c -2.686491,-2.141848 -3.330784,-2.431382 -4.353785,-1.956496 -0.631694,0.293232 -0.837135,0.725845 -0.837741,1.764058 -2.43e-4,0.416094 -0.03008,0.682512 -0.08239,0.734797 -0.103431,0.103451 -9.026676,-0.130192 -10.23549,0.08344 -5.149542,-23.458291 -0.703907,-2.907455 1.540768,-2.419413 1.083051,0.141048 1.140852,0.128366 1.034306,-0.226913 -1.049455,-3.499502 0.74142,-6.539067 6.580438,-11.168651 1.776776,-1.408753 1.829725,-1.442075 1.9882,-1.251135 0.224846,0.270919 1.408793,0.915572 1.68151,0.915572 0.0192,0 -0.17853,-0.228484 -0.439337,-0.507743 -1.075597,-1.151749 -1.417397,-2.510096 -1.0074,-4.003542 0.197145,-0.718112 0.368262,-0.801938 1.197394,-0.586603 0.20527,0.05334 0.619282,0.145274 0.920035,0.204366 0.300755,0.0591 0.667842,0.136554 0.815761,0.172128 0.247077,0.05946 0.307218,0.04236 0.739814,-0.210315 1.909276,-1.115073 4.844967,-1.657758 6.970829,-1.288612 1.473058,0.255795 1.641904,0.449288 1.315733,1.507776 -0.518024,1.681072 -1.105438,2.688364 -2.728264,4.678367 -2.306907,2.828865 -3.078025,4.572406 -3.688118,8.339049 -0.302447,1.867237 -0.342876,2.349841 -0.340661,4.066988 0.0024,2.122075 0.06292,2.057308 -1.071588,1.152797 z m 3.395482,-16.868351 c 0.320245,-0.195269 0.435191,-0.402141 0.435191,-0.783271 0,-0.930705 -1.32397,-1.199987 -1.682381,-0.342182 -0.336466,0.805286 0.513867,1.572623 1.24719,1.125453 z"
       id="path837-4"
       inkscape:connector-curvature="0"
       sodipodi:nodetypes="sscsccsscscsscssssssssscssc"
       inkscape:export-xdpi="94.953262"
       inkscape:export-ydpi="94.953262"
       inkscape:export-filename="C:\Users\nbertin\Documents\Personnel\Rats\LORD\CakeLORD\webroot\img\Unknown.png" />
    <path
       inkscape:export-filename="C:\Users\nbertin\Documents\Personnel\Rats\LORD\CakeLORD\webroot\img\Unknown.png"
       inkscape:export-ydpi="94.953262"
       inkscape:export-xdpi="94.953262"
       sodipodi:nodetypes="sscsccsscscsscssssssssscssc"
       inkscape:connector-curvature="0"
       id="path837-4-0"
       d="m 59.325752,49.14785 c -1.405305,-1.1204 -1.742334,-1.271856 -2.277466,-1.023442 -0.330439,0.15339 -0.437906,0.37969 -0.438222,0.922779 -1.28e-4,0.217659 -0.01574,0.357022 -0.0431,0.384372 -0.0541,0.05411 -4.721856,-0.06811 -5.354188,0.04365 -2.693726,-12.271038 -0.368213,-1.520891 0.805977,-1.265595 0.566544,0.07379 0.59678,0.06714 0.541045,-0.118699 -0.54897,-1.83059 0.387837,-3.420587 3.442229,-5.842324 0.929432,-0.73692 0.957129,-0.75435 1.040027,-0.654469 0.117618,0.141717 0.736941,0.478935 0.879598,0.478935 0.01002,0 -0.09339,-0.119519 -0.229816,-0.265599 -0.562645,-0.602481 -0.741441,-1.313033 -0.526971,-2.094254 0.103128,-0.375645 0.192637,-0.419494 0.626357,-0.306853 0.107376,0.0279 0.323946,0.076 0.48127,0.106904 0.157325,0.03092 0.349348,0.07144 0.426725,0.09004 0.129246,0.0311 0.160705,0.02216 0.386996,-0.110016 0.998744,-0.583295 2.534404,-0.867174 3.646443,-0.674073 0.770556,0.133806 0.85888,0.235023 0.688261,0.788718 -0.270979,0.879369 -0.578256,1.406283 -1.427156,2.447254 -1.206744,1.47978 -1.610115,2.391828 -1.929256,4.36216 -0.15821,0.976751 -0.179358,1.229201 -0.178199,2.127441 0.0013,1.110058 0.03291,1.076179 -0.560549,0.603029 z m 1.776177,-8.823837 c 0.167521,-0.102146 0.227648,-0.21036 0.227648,-0.409729 0,-0.486853 -0.692568,-0.627714 -0.880054,-0.178996 -0.176005,0.421246 0.268804,0.822639 0.652406,0.588725 z"
       style="fill:#663300;fill-opacity:1;stroke-width:0.0357554" />
  </g>
</svg>
