<?xml version="1.0" encoding="UTF-8" standalone="no"?>
<svg
   xmlns:dc="http://purl.org/dc/elements/1.1/"
   xmlns:cc="http://creativecommons.org/ns#"
   xmlns:rdf="http://www.w3.org/1999/02/22-rdf-syntax-ns#"
   xmlns:svg="http://www.w3.org/2000/svg"
   xmlns="http://www.w3.org/2000/svg"
   width="64px"
   height="64px"
   viewBox="0 0 64 64"
   version="1.1"
   id="SVGRoot">
  <defs
     id="defs830" />
  <metadata
     id="metadata833">
    <rdf:RDF>
      <cc:Work
         rdf:about="">
        <dc:format>image/svg+xml</dc:format>
        <dc:type
           rdf:resource="http://purl.org/dc/dcmitype/StillImage" />
        <dc:title></dc:title>
      </cc:Work>
    </rdf:RDF>
  </metadata>
  <path
     fill="currentColor"
     d="M 2.107145,53.01841 V 10.98159 c 0,-0.77067 0.63055,-1.4012302 1.40122,-1.4012302 h 4.67076 c 0.77068,0 1.40124,0.6305602 1.40124,1.4012302 v 17.7372 l 20.02587,-18.27434 c 2.40544,-1.9967502 6.13037,-0.32695 6.13037,2.87252 v 15.40182 l 20.02587,-18.27434 c 2.40544,-1.9967502 6.13038,-0.32695 6.13038,2.87252 v 37.36607 c 0,3.19946 -3.72494,4.86926 -6.13038,2.87251 L 35.736605,35.42133 v 15.26171 c 0,3.19946 -3.72493,4.86926 -6.13037,2.87251 L 9.580365,35.42133 v 17.59708 c 0,0.77068 -0.63056,1.40123 -1.40124,1.40123 h -4.67076 c -0.77067,0 -1.40122,-0.63055 -1.40122,-1.40123 z"
     id="path2"
     style="fill:#b1000c;fill-opacity:1;stroke-width:0.116769" />
</svg>
