<?xml version="1.0" encoding="UTF-8" standalone="no"?>
<svg
   xmlns:osb="http://www.openswatchbook.org/uri/2009/osb"
   xmlns:dc="http://purl.org/dc/elements/1.1/"
   xmlns:cc="http://creativecommons.org/ns#"
   xmlns:rdf="http://www.w3.org/1999/02/22-rdf-syntax-ns#"
   xmlns:svg="http://www.w3.org/2000/svg"
   xmlns="http://www.w3.org/2000/svg"
   xmlns:sodipodi="http://sodipodi.sourceforge.net/DTD/sodipodi-0.dtd"
   xmlns:inkscape="http://www.inkscape.org/namespaces/inkscape"
   sodipodi:docname="icon-edit-as-staff.svg"
   inkscape:version="1.0beta1 (fe3e306, 2019-09-17)"
   width="64px"
   height="64px"
   viewBox="0 0 64 64"
   version="1.1"
   id="SVGRoot">
  <defs
     id="defs842">
    <linearGradient
       osb:paint="solid"
       id="linearGradient1474">
      <stop
         id="stop1472"
         offset="0"
         style="stop-color:#ffffff;stop-opacity:1;" />
    </linearGradient>
  </defs>
  <sodipodi:namedview
     inkscape:grid-bbox="true"
     inkscape:window-maximized="1"
     inkscape:window-y="-9"
     inkscape:window-x="-9"
     inkscape:window-height="1001"
     inkscape:window-width="1920"
     showgrid="false"
     inkscape:document-rotation="0"
     inkscape:current-layer="layer1"
     inkscape:document-units="px"
     inkscape:cy="64.832633"
     inkscape:cx="86.911627"
     inkscape:zoom="5.6"
     inkscape:pageshadow="2"
     inkscape:pageopacity="0.0"
     borderopacity="1.0"
     bordercolor="#666666"
     pagecolor="#ffffff"
     id="base">
    <inkscape:grid
       id="grid1478"
       type="xygrid" />
  </sodipodi:namedview>
  <metadata
     id="metadata845">
    <rdf:RDF>
      <cc:Work
         rdf:about="">
        <dc:format>image/svg+xml</dc:format>
        <dc:type
           rdf:resource="http://purl.org/dc/dcmitype/StillImage" />
        <dc:title></dc:title>
      </cc:Work>
    </rdf:RDF>
  </metadata>
  <g
     id="layer1"
     inkscape:groupmode="layer"
     inkscape:label="Calque 1">
    <path
       d="m 62.772591,57.814222 c 0,5.77795 -18.801082,5.944393 -20.943275,5.944393 -2.142203,0 -20.943284,-0.166433 -20.943284,-5.944393 v -9.511024 c 0,5.77795 18.801081,5.944383 20.943284,5.944383 2.142193,0 20.943275,-0.166423 20.943275,-5.944383 z"
       id="path4"
       inkscape:connector-curvature="0"
       style="fill:#b1000c;fill-opacity:1;stroke-width:2.66719" />
    <path
       d="m 62.772591,43.547681 c 0,5.77795 -18.801082,5.944394 -20.943275,5.944394 -2.142203,0 -20.943284,-0.166434 -20.943284,-5.944394 v -9.511024 c 0,5.77795 18.801081,5.944394 20.943284,5.944394 2.142193,0 20.943275,-0.166433 20.943275,-5.944394 z"
       id="path6"
       inkscape:connector-curvature="0"
       style="fill:#b1000c;fill-opacity:1;stroke-width:2.66719" />
    <path
       d="m 41.829316,35.225545 c -2.142203,0 -20.943284,-0.166444 -20.943284,-5.944394 0,-5.77795 18.801081,-5.944394 20.943284,-5.944394 2.142193,0 20.943275,0.166444 20.943275,5.944394 0,5.77795 -18.801082,5.944394 -20.943275,5.944394 z"
       id="path8"
       inkscape:connector-curvature="0"
       style="fill:#b1000c;fill-opacity:1;stroke-width:2.66719" />
    <path
       id="path2"
       d="m 30.64525,3.4051801 a 4.2600911,4.2600911 0 0 0 -4.940332,-0.7764424 14.444457,14.444457 0 0 0 -0.634897,-0.6994794 4.2271098,4.2271098 0 0 0 -5.97099,0 l -7.516999,7.516999 a 1.3742231,1.3742231 0 0 0 0,1.9431517 1.3907136,1.3907136 0 0 0 1.943152,0 l 7.516999,-7.5169989 a 1.4745412,1.4745412 0 0 1 2.084686,0 l 0.50297,0.5043406 -3.057639,3.0562676 a 0.71459596,0.71459596 0 0 0 0,1.0086812 l 5.037901,5.0310355 a 0.71184751,0.71184751 0 0 0 1.005929,0 l 4.02922,-4.0292196 a 4.2724591,4.2724591 0 0 0 0,-6.0383353 z"
       style="overflow:hidden;fill:#b1000c;fill-opacity:1;stroke-width:0.0322085"
       inkscape:connector-curvature="0" />
    <path
       id="path4-0"
       d="m 19.060549,9.9519794 a 0.71322174,0.71322174 0 0 0 -1.00731,0 L 6.7475065,21.260455 a 2.1355424,2.1355424 0 0 0 0,3.023291 l 3.0233016,3.023291 a 2.1355424,2.1355424 0 0 0 3.0232799,0 L 24.101203,15.999933 a 0.71322174,0.71322174 0 0 0 0,-1.007311 z M 4.5089046,25.100041 A 0.68711146,0.68711146 0 0 0 3.3765427,25.351525 L 0.70367687,32.75309 a 0.68711146,0.68711146 0 0 0 0.16080179,0.718726 0.7022279,0.7022279 0 0 0 0.72009634,0.162141 l 7.4015545,-2.671463 a 0.68711146,0.68711146 0 0 0 0.2514954,-1.132362 z"
       style="overflow:hidden;fill:#b1000c;fill-opacity:1;stroke-width:0.0322085"
       inkscape:connector-curvature="0" />
  </g>
</svg>
