<?xml version="1.0" encoding="UTF-8" standalone="no"?>
<svg
   xmlns:dc="http://purl.org/dc/elements/1.1/"
   xmlns:cc="http://creativecommons.org/ns#"
   xmlns:rdf="http://www.w3.org/1999/02/22-rdf-syntax-ns#"
   xmlns:svg="http://www.w3.org/2000/svg"
   xmlns="http://www.w3.org/2000/svg"
   xmlns:sodipodi="http://sodipodi.sourceforge.net/DTD/sodipodi-0.dtd"
   xmlns:inkscape="http://www.inkscape.org/namespaces/inkscape"
   inkscape:export-ydpi="96"
   inkscape:export-xdpi="96"
   inkscape:export-filename="C:\Users\nbertin\Documents\Personnel\Rats\LORD\CakeLORD\docs\cdc\icon-backoffice.png"
   inkscape:version="1.0beta1 (fe3e306, 2019-09-17)"
   sodipodi:docname="icon-add-rattery.svg"
   id="SVGRoot"
   version="1.1"
   viewBox="0 0 64 64"
   height="64px"
   width="64px">
  <sodipodi:namedview
     inkscape:current-layer="SVGRoot"
     inkscape:window-maximized="1"
     inkscape:window-y="-9"
     inkscape:window-x="-9"
     inkscape:cy="42.740482"
     inkscape:cx="-12.097214"
     inkscape:zoom="7.375"
     showgrid="false"
     id="namedview39"
     inkscape:window-height="1001"
     inkscape:window-width="1920"
     inkscape:pageshadow="2"
     inkscape:pageopacity="0"
     guidetolerance="10"
     gridtolerance="10"
     objecttolerance="10"
     borderopacity="1"
     inkscape:document-rotation="0"
     bordercolor="#666666"
     pagecolor="#ffffff" />
  <defs
     id="defs830">
    <filter
       style="color-interpolation-filters:sRGB"
       id="filter901"
       x="-0.0049654186"
       width="1.0099308"
       y="-0.0049654186"
       height="1.0099308">
      <feGaussianBlur
         stdDeviation="0.95998094"
         id="feGaussianBlur903" />
    </filter>
    <filter
       style="color-interpolation-filters:sRGB"
       id="filter905"
       x="-0.0047999051"
       width="1.0095998"
       y="-0.0048000949"
       height="1.0096002">
      <feGaussianBlur
         stdDeviation="0.12254071"
         id="feGaussianBlur907" />
    </filter>
    <filter
       style="color-interpolation-filters:sRGB"
       id="filter909"
       x="-0.0089998216"
       width="1.0179996"
       y="-0.0089998216"
       height="1.0179996">
      <feGaussianBlur
         stdDeviation="0.12254071"
         id="feGaussianBlur911" />
    </filter>
    <filter
       style="color-interpolation-filters:sRGB"
       id="filter913"
       x="-0.03599929"
       width="1.0719986"
       y="-0.035999285"
       height="1.0719986">
      <feGaussianBlur
         stdDeviation="0.12254071"
         id="feGaussianBlur915" />
    </filter>
    <filter
       style="color-interpolation-filters:sRGB"
       id="filter917"
       x="-0.020571022"
       width="1.041142"
       y="-0.02057102"
       height="1.041142">
      <feGaussianBlur
         stdDeviation="0.12254071"
         id="feGaussianBlur919" />
    </filter>
    <filter
       style="color-interpolation-filters:sRGB"
       id="filter921"
       x="-0.0075787967"
       width="1.0151576"
       y="-0.0075787971"
       height="1.0151576">
      <feGaussianBlur
         stdDeviation="0.12254071"
         id="feGaussianBlur923" />
    </filter>
  </defs>
  <metadata
     id="metadata833">
    <rdf:RDF>
      <cc:Work
         rdf:about="">
        <dc:format>image/svg+xml</dc:format>
        <dc:type
           rdf:resource="http://purl.org/dc/dcmitype/StillImage" />
        <dc:title></dc:title>
      </cc:Work>
    </rdf:RDF>
  </metadata>
  <path
     style="display:inline;opacity:1;fill:#663300;fill-opacity:1;stroke-width:0.813254;stop-opacity:1"
     sodipodi:nodetypes="cccccccccccccccccccsssssssssssssssssccsssssssssssssssssscssccc"
     d="M 61.916049,42.668394 58.671173,31.412983 c -0.53955,-2.464891 -2.714153,-4.227537 -5.237346,-4.245177 h -3.338739 v -3.301803 c -0.0045,-3.04785 -4.056249,-5.517504 -7.104098,-5.521983 h -5.097733 c -3.047849,0.0045 -7.099619,2.474133 -7.104098,5.521983 v 3.301803 h -3.379403 c -2.506911,0.0017 -4.679831,1.735983 -5.237342,4.180118 l -3.25301,11.32047 c -2.781323,0.813252 -2.773191,5.0259 0,5.831019 l 3.25301,11.255411 c 0.54228,2.463205 2.715235,4.224514 5.237342,4.245176 h 26.024071 c 2.508281,-0.0057 4.680376,-1.742582 5.237346,-4.188248 l 3.253008,-11.312339 c 2.77319,-0.821385 2.765058,-5.0259 -0.0082,-5.831019 z M 41.235043,32.803646 v 5.814752 c 0,1.084337 -1.626503,1.084337 -1.626503,0 v -5.814752 c 0,-1.084339 1.626503,-1.084339 1.626503,0 z m -11.808421,0 c 0,-1.084339 1.626505,-1.084339 1.626505,0 v 5.814752 c 0,1.084337 -1.626505,1.084337 -1.626505,0 z m 20.331306,0 c 0,-1.084339 1.626504,-1.084339 1.626504,0 v 5.814752 c 0,1.084337 -1.626504,1.084337 -1.626504,0 z M 35.018072,24.454588 c 0,-0.803974 1.284823,-1.930451 2.088795,-1.930451 h 6.638559 c 0.800794,0.0045 2.080101,0.734115 2.080087,1.534922 0,0 -0.1215,2.793744 -1.179881,2.786961 -2.720864,-0.01743 -5.076271,0.01207 -8.635386,0 -0.863023,-0.0028 -0.992174,-2.391432 -0.992174,-2.391432 z m -3.964945,34.316199 c 0,1.084337 -1.626505,1.084337 -1.626505,0 v -5.814753 c 0,-1.084335 1.626505,-1.084335 1.626505,0 z m 10.181916,0 c 0,1.084337 -1.626503,1.084337 -1.626503,0 v -5.814753 c 0,-1.084335 1.626503,-1.084335 1.626503,0 z m 10.18192,0 c 0,1.084337 -1.626505,1.084337 -1.626505,0 v -5.814753 c 0,-1.084335 1.626505,-1.084335 1.626505,0 z m 10.96264,-13.09336 c 0,0.741093 -0.600775,1.341866 -1.341866,1.341866 H 19.805849 c -1.781022,0 -1.797289,-2.854515 0,-2.870779 h 41.231888 c 0.813166,0.0089 1.438724,0.72149 1.341866,1.528913 z"
     id="path2"
     inkscape:connector-curvature="0" />
  <g
     id="g4"
     transform="matrix(-0.09386477,0,0,0.09386477,28.28108,0)"
     style="fill:#663300;fill-opacity:1">
    <path
       inkscape:connector-curvature="0"
       id="path2-2"
       d="M 150.648,0 C 67.584,0 0,67.584 0,150.648 c 0,83.07 67.584,150.647 150.648,150.647 83.07,0 150.648,-67.577 150.648,-150.647 C 301.296,67.584 233.718,0 150.648,0 Z m 78.04212,172.46724 h -56.2589 v 56.21335 c 0,3.387 -18.38122,6.14976 -21.78322,6.14976 -3.393,0 -21.16946,-2.82523 -21.81174,-6.14976 V 172.46724 H 72.622904 c -3.396,0 -6.149759,-18.42024 -6.149759,-21.81824 0,-3.393 2.753759,-21.82227 6.149759,-21.82227 H 128.83626 V 72.613375 c 0,-3.393 18.41974,-6.149759 21.81274,-6.149759 3.402,0 21.13673,2.819742 21.78222,6.149759 v 56.213355 h 56.2589 c 3.398,0 6.14976,18.42227 6.14976,21.81427 0,3.394 -2.81235,21.18213 -6.14976,21.82624 z"
       sodipodi:nodetypes="sssssscssscssscssscsss"
       style="fill:#663300;fill-opacity:1" />
  </g>
</svg>
