<svg id="Layer_1" data-name="Layer 1" xmlns="http://www.w3.org/2000/svg" viewBox="0 0 60 60"><defs><style>.cls-1{fill:#630;}.cls-2{fill:none;stroke:#630;stroke-linecap:round;stroke-linejoin:round;stroke-width:2.5px;}</style></defs><title>icon-report</title><path class="cls-1" d="M28.05,23.58a1.25,1.25,0,0,1,1.21-1.48h2.49A1.27,1.27,0,0,1,33,23.58L31.78,37.65a1.27,1.27,0,0,1-1.28,1.24,1.23,1.23,0,0,1-1.24-1.24ZM30.5,41.41A2.36,2.36,0,0,1,33,43.79v.35a2.36,2.36,0,0,1-2.45,2.38,2.38,2.38,0,0,1-2.45-2.38v-.35A2.38,2.38,0,0,1,30.5,41.41Z"/><polygon class="cls-2" points="30.52 11.63 41.88 31.31 53.24 50.98 30.52 50.98 7.8 50.98 19.16 31.31 30.52 11.63"/></svg>