<?xml version="1.0" encoding="UTF-8" standalone="no"?>
<svg
   xmlns:dc="http://purl.org/dc/elements/1.1/"
   xmlns:cc="http://creativecommons.org/ns#"
   xmlns:rdf="http://www.w3.org/1999/02/22-rdf-syntax-ns#"
   xmlns:svg="http://www.w3.org/2000/svg"
   xmlns="http://www.w3.org/2000/svg"
   xmlns:sodipodi="http://sodipodi.sourceforge.net/DTD/sodipodi-0.dtd"
   xmlns:inkscape="http://www.inkscape.org/namespaces/inkscape"
   inkscape:export-ydpi="96"
   inkscape:export-xdpi="96"
   inkscape:export-filename="C:\Users\nbertin\Documents\Personnel\Rats\LORD\CakeLORD\docs\cdc\icon-backoffice.png"
   inkscape:version="1.0beta1 (fe3e306, 2019-09-17)"
   sodipodi:docname="icon-add-rattery.svg"
   id="SVGRoot"
   version="1.1"
   viewBox="0 0 64 64"
   height="64px"
   width="64px">
  <sodipodi:namedview
     inkscape:current-layer="SVGRoot"
     inkscape:window-maximized="1"
     inkscape:window-y="-9"
     inkscape:window-x="-9"
     inkscape:cy="67.563743"
     inkscape:cx="29.689517"
     inkscape:zoom="3.6875"
     showgrid="false"
     id="namedview39"
     inkscape:window-height="1001"
     inkscape:window-width="1920"
     inkscape:pageshadow="2"
     inkscape:pageopacity="0"
     guidetolerance="10"
     gridtolerance="10"
     objecttolerance="10"
     borderopacity="1"
     inkscape:document-rotation="0"
     bordercolor="#666666"
     pagecolor="#ffffff" />
  <defs
     id="defs830">
    <filter
       style="color-interpolation-filters:sRGB"
       id="filter901"
       x="-0.0049654186"
       width="1.0099308"
       y="-0.0049654186"
       height="1.0099308">
      <feGaussianBlur
         stdDeviation="0.95998094"
         id="feGaussianBlur903" />
    </filter>
    <filter
       style="color-interpolation-filters:sRGB"
       id="filter905"
       x="-0.0047999051"
       width="1.0095998"
       y="-0.0048000949"
       height="1.0096002">
      <feGaussianBlur
         stdDeviation="0.12254071"
         id="feGaussianBlur907" />
    </filter>
    <filter
       style="color-interpolation-filters:sRGB"
       id="filter909"
       x="-0.0089998216"
       width="1.0179996"
       y="-0.0089998216"
       height="1.0179996">
      <feGaussianBlur
         stdDeviation="0.12254071"
         id="feGaussianBlur911" />
    </filter>
    <filter
       style="color-interpolation-filters:sRGB"
       id="filter913"
       x="-0.03599929"
       width="1.0719986"
       y="-0.035999285"
       height="1.0719986">
      <feGaussianBlur
         stdDeviation="0.12254071"
         id="feGaussianBlur915" />
    </filter>
    <filter
       style="color-interpolation-filters:sRGB"
       id="filter917"
       x="-0.020571022"
       width="1.041142"
       y="-0.02057102"
       height="1.041142">
      <feGaussianBlur
         stdDeviation="0.12254071"
         id="feGaussianBlur919" />
    </filter>
    <filter
       style="color-interpolation-filters:sRGB"
       id="filter921"
       x="-0.0075787967"
       width="1.0151576"
       y="-0.0075787971"
       height="1.0151576">
      <feGaussianBlur
         stdDeviation="0.12254071"
         id="feGaussianBlur923" />
    </filter>
  </defs>
  <metadata
     id="metadata833">
    <rdf:RDF>
      <cc:Work
         rdf:about="">
        <dc:format>image/svg+xml</dc:format>
        <dc:type
           rdf:resource="http://purl.org/dc/dcmitype/StillImage" />
        <dc:title></dc:title>
      </cc:Work>
    </rdf:RDF>
  </metadata>
  <path
     style="display:inline;opacity:1;fill:#663300;fill-opacity:1;stroke-width:0.834065;stop-opacity:1"
     sodipodi:nodetypes="cccccccccccccccccccsssssssssssssssssccsssssssssssssssssscssccc"
     d="M 61.862722,42.122522 58.534809,30.579087 c -0.553357,-2.527967 -2.783608,-4.335719 -5.371368,-4.35381 h -3.424177 v -3.386296 c -0.0047,-3.125844 -4.160048,-5.658697 -7.285891,-5.663289 H 37.22519 c -3.125843,0.0047 -7.281297,2.537445 -7.28589,5.663289 v 3.386296 h -3.465882 c -2.571063,0.0017 -4.799587,1.780405 -5.371365,4.287086 l -3.336254,11.610159 c -2.852497,0.834063 -2.844157,5.154511 0,5.980234 L 21.102053,59.64619 C 21.658211,62.172429 23.88677,63.97881 26.473418,64 h 26.690023 c 2.572467,-0.0059 4.800145,-1.787174 5.371368,-4.295425 l 3.336252,-11.601819 c 2.844155,-0.842405 2.835815,-5.154512 -0.0084,-5.980234 z M 40.652492,32.005336 v 5.963552 c 0,1.112084 -1.668126,1.112084 -1.668126,0 v -5.963552 c 0,-1.112086 1.668126,-1.112086 1.668126,0 z m -12.110597,0 c 0,-1.112086 1.668127,-1.112086 1.668127,0 v 5.963552 c 0,1.112084 -1.668127,1.112084 -1.668127,0 z m 20.85158,0 c 0,-1.112086 1.668127,-1.112086 1.668127,0 v 5.963552 c 0,1.112084 -1.668127,1.112084 -1.668127,0 z M 34.276429,23.442628 c 0,-0.824547 1.317703,-1.979851 2.142247,-1.979851 h 6.808439 c 0.821286,0.0047 2.13333,0.7529 2.133316,1.5742 0,0 -0.124609,2.865236 -1.210074,2.858279 -2.790491,-0.01788 -5.206172,0.01238 -8.856365,0 -0.885106,-0.0028 -1.017563,-2.452628 -1.017563,-2.452628 z m -4.066407,35.194344 c 0,1.112086 -1.668127,1.112086 -1.668127,0 v -5.963551 c 0,-1.112083 1.668127,-1.112083 1.668127,0 z m 10.44247,0 c 0,1.112086 -1.668126,1.112086 -1.668126,0 v -5.963551 c 0,-1.112083 1.668126,-1.112083 1.668126,0 z m 10.442473,0 c 0,1.112086 -1.668126,1.112086 -1.668126,0 v -5.963551 c 0,-1.112083 1.668126,-1.112083 1.668126,0 z M 62.338137,45.208555 c 0,0.760058 -0.616148,1.376205 -1.376204,1.376205 H 18.674928 c -1.826599,0 -1.843281,-2.927563 0,-2.944243 h 42.287005 c 0.833975,0.0091 1.47554,0.739953 1.376204,1.568038 z"
     id="path2"
     inkscape:connector-curvature="0" />
  <g
     id="g4"
     transform="matrix(-0.09386477,0,0,0.09386477,28.28108,0)"
     style="fill:#663300;fill-opacity:1">
    <path
       inkscape:connector-curvature="0"
       id="path2-2"
       d="M 150.648,0 C 67.584,0 0,67.584 0,150.648 c 0,83.07 67.584,150.647 150.648,150.647 83.07,0 150.648,-67.577 150.648,-150.647 C 301.296,67.584 233.718,0 150.648,0 Z m 78.04212,172.46724 h -56.2589 v 56.21335 c 0,3.387 -18.38122,6.14976 -21.78322,6.14976 -3.393,0 -21.16946,-2.82523 -21.81174,-6.14976 V 172.46724 H 72.622904 c -3.396,0 -6.149759,-18.42024 -6.149759,-21.81824 0,-3.393 2.753759,-21.82227 6.149759,-21.82227 H 128.83626 V 72.613375 c 0,-3.393 18.41974,-6.149759 21.81274,-6.149759 3.402,0 21.13673,2.819742 21.78222,6.149759 v 56.213355 h 56.2589 c 3.398,0 6.14976,18.42227 6.14976,21.81427 0,3.394 -2.81235,21.18213 -6.14976,21.82624 z"
       sodipodi:nodetypes="sssssscssscssscssscsss"
       style="fill:#663300;fill-opacity:1" />
  </g>
</svg>
