<?xml version="1.0" encoding="UTF-8" standalone="no"?>
<svg
   xmlns:osb="http://www.openswatchbook.org/uri/2009/osb"
   xmlns:dc="http://purl.org/dc/elements/1.1/"
   xmlns:cc="http://creativecommons.org/ns#"
   xmlns:rdf="http://www.w3.org/1999/02/22-rdf-syntax-ns#"
   xmlns:svg="http://www.w3.org/2000/svg"
   xmlns="http://www.w3.org/2000/svg"
   xmlns:xlink="http://www.w3.org/1999/xlink"
   xmlns:sodipodi="http://sodipodi.sourceforge.net/DTD/sodipodi-0.dtd"
   xmlns:inkscape="http://www.inkscape.org/namespaces/inkscape"
   id="Layer_1"
   data-name="Layer 1"
   viewBox="0 0 60 60"
   version="1.1"
   sodipodi:docname="icon-home-closed.svg"
   inkscape:version="1.0beta1 (fe3e306, 2019-09-17)">
  <metadata
     id="metadata15">
    <rdf:RDF>
      <cc:Work
         rdf:about="">
        <dc:format>image/svg+xml</dc:format>
        <dc:type
           rdf:resource="http://purl.org/dc/dcmitype/StillImage" />
        <dc:title>icon-report</dc:title>
      </cc:Work>
    </rdf:RDF>
  </metadata>
  <sodipodi:namedview
     pagecolor="#ffffff"
     bordercolor="#666666"
     inkscape:document-rotation="0"
     borderopacity="1"
     objecttolerance="10"
     gridtolerance="10"
     guidetolerance="10"
     inkscape:pageopacity="0"
     inkscape:pageshadow="2"
     inkscape:window-width="1920"
     inkscape:window-height="1001"
     id="namedview13"
     showgrid="false"
     inkscape:zoom="22.627417"
     inkscape:cx="25.278472"
     inkscape:cy="48.315624"
     inkscape:window-x="-9"
     inkscape:window-y="-9"
     inkscape:window-maximized="1"
     inkscape:current-layer="Layer_1">
    <inkscape:grid
       type="xygrid"
       id="grid832" />
  </sodipodi:namedview>
  <defs
     id="defs4">
    <linearGradient
       osb:paint="solid"
       id="linearGradient1459">
      <stop
         id="stop1457"
         offset="0"
         style="stop-color:#ffffff;stop-opacity:1;" />
    </linearGradient>
    <style
       id="style2">.cls-1{fill:#630;}.cls-2{fill:none;stroke:#630;stroke-linecap:round;stroke-linejoin:round;stroke-width:2.5px;}</style>
    <linearGradient
       gradientUnits="userSpaceOnUse"
       y2="51.047532"
       x2="35.039823"
       y1="51.047532"
       x1="24.015137"
       id="linearGradient1461"
       xlink:href="#linearGradient1459"
       inkscape:collect="always" />
  </defs>
  <title
     id="title6">icon-report</title>
  <path
     style="fill:#ffffff;fill-opacity:1;stroke-width:0.735705"
     d="m 58.851047,26.395354 2.5e-5,-3e-6 L 31.87128,4.1770456 c -0.0029,-0.0029 -0.0074,-0.0044 -0.01177,-0.0074 -0.111827,-0.0927 -0.235425,-0.167005 -0.359024,-0.240576 -0.04487,-0.02649 -0.0846,-0.06106 -0.130955,-0.08534 -0.103735,-0.05444 -0.214091,-0.09049 -0.322239,-0.131692 -0.73538,-0.2970887 -1.430554,-0.1499147 -2.108532,0.00589 -0.103735,0.03973 -0.209677,0.07431 -0.308997,0.125806 -0.168689,0.1032841 -0.344936,0.229267 -0.491451,0.32665 -0.0029,0.0022 -0.0066,0.0037 -0.0096,0.0066 L 1.1489527,26.395351 c -1.25437695,1.032931 -1.43388995,2.887645 -0.40022295,4.142022 0.58194295,0.706278 1.42432495,1.071923 2.27332995,1.071923 12.6070763,0.06501 6.644156,13.645719 6.644156,24.686599 0,1.625173 1.3176493,3.143105 2.9428223,3.143105 0,0 4.629342,-0.02351 8.209178,-0.02351 0,0 -4.222721,-20.817893 9.180693,-20.915107 13.616082,-0.09876 7.384252,20.930006 7.943257,20.926617 3.987296,-0.02417 9.44735,0.012 9.44735,0.012 1.625173,0 2.942822,-1.517938 2.942822,-3.143111 2.150914,-13.72064 -7.624025,-24.687334 6.641214,-24.687334 h 0.0044 0.0044 0.128013 l -0.01324,-0.01324 c 0.807805,-0.03237 1.599424,-0.38551 2.154146,-1.05868 1.033666,-1.254378 0.854154,-3.109092 -0.400224,-4.141287 z"
     id="path2"
     inkscape:connector-curvature="0"
     sodipodi:nodetypes="cscccccccccccccsssssccccccccc" />
  <path
     sodipodi:nodetypes="ccsc"
     inkscape:connector-curvature="0"
     id="path1455"
     d="m 25.339,59.199 8.071796,-0.044 c 0,0 4.29779,-16.011454 -3.877796,-15.961 -7.776559,0.04799 -4.194,16.005 -4.194,16.005 z"
     style="fill:url(#linearGradient1461);fill-opacity:1;stroke:none;stroke-width:1px;stroke-linecap:butt;stroke-linejoin:miter;stroke-opacity:1" />
</svg>
