<?xml version="1.0" encoding="UTF-8" standalone="no"?>
<svg
   xmlns:dc="http://purl.org/dc/elements/1.1/"
   xmlns:cc="http://creativecommons.org/ns#"
   xmlns:rdf="http://www.w3.org/1999/02/22-rdf-syntax-ns#"
   xmlns:svg="http://www.w3.org/2000/svg"
   xmlns="http://www.w3.org/2000/svg"
   xmlns:sodipodi="http://sodipodi.sourceforge.net/DTD/sodipodi-0.dtd"
   xmlns:inkscape="http://www.inkscape.org/namespaces/inkscape"
   inkscape:version="1.0beta1 (fe3e306, 2019-09-17)"
   sodipodi:docname="icon-report.svg"
   version="1.1"
   viewBox="0 0 60 60"
   data-name="Layer 1"
   id="Layer_1">
  <metadata
     id="metadata15">
    <rdf:RDF>
      <cc:Work
         rdf:about="">
        <dc:format>image/svg+xml</dc:format>
        <dc:type
           rdf:resource="http://purl.org/dc/dcmitype/StillImage" />
        <dc:title>icon-report</dc:title>
      </cc:Work>
    </rdf:RDF>
  </metadata>
  <sodipodi:namedview
     inkscape:current-layer="Layer_1"
     inkscape:window-maximized="1"
     inkscape:window-y="-9"
     inkscape:window-x="-9"
     inkscape:cy="26.420784"
     inkscape:cx="11.569904"
     inkscape:zoom="9.7345034"
     showgrid="false"
     id="namedview13"
     inkscape:window-height="1001"
     inkscape:window-width="1920"
     inkscape:pageshadow="2"
     inkscape:pageopacity="0"
     guidetolerance="10"
     gridtolerance="10"
     objecttolerance="10"
     borderopacity="1"
     inkscape:document-rotation="0"
     bordercolor="#666666"
     pagecolor="#ffffff" />
  <defs
     id="defs4">
    <style
       id="style2">.cls-1{fill:#630;}.cls-2{fill:none;stroke:#630;stroke-linecap:round;stroke-linejoin:round;stroke-width:2.5px;}</style>
  </defs>
  <title
     id="title6">icon-report</title>
  <path
     inkscape:connector-curvature="0"
     style="overflow:hidden;fill:#663300;fill-opacity:1;stroke-width:0.060579"
     d="m 30.000001,0.32538569 c -15.668091,0 -28.3665676,12.33350931 -28.3665676,27.55499531 0,6.570813 2.3712722,12.585224 6.3159943,17.314612 -1.3850842,6.676788 -6.0168121,12.62496 -6.0722155,12.691198 -0.2437788,0.304688 -0.3102648,0.755104 -0.1662101,1.152532 0.1440448,0.397428 0.4542997,0.635891 0.8088853,0.635891 7.3465032,0 12.8536026,-4.212735 15.5794506,-6.809264 3.623385,1.629447 7.645676,2.570028 11.900663,2.570028 15.668091,0 28.366566,-12.333509 28.366566,-27.554997 0,-15.221486 -12.698475,-27.55499543 -28.366566,-27.55499531 z m 0,44.51191931 c -1.961283,0 -3.545826,-1.894411 -3.545826,-4.239225 0,-2.344827 1.584543,-4.239239 3.545826,-4.239239 1.961282,0 3.545815,1.894412 3.545815,4.239239 0,2.344814 -1.584533,4.239225 -3.545815,4.239225 z m 2.81449,-14.625346 c -0.08864,1.086304 -0.853208,1.90766 -1.761826,1.90766 h -2.105328 c -0.908619,0 -1.673183,-0.821356 -1.761835,-1.90766 L 25.767179,13.255034 c -0.09973,-1.245269 0.720245,-2.331575 1.761826,-2.331575 h 4.941992 c 1.052664,0 1.872633,1.086306 1.761826,2.331575 z"
     id="path2" />
</svg>
