<?xml version="1.0" encoding="UTF-8" standalone="no"?>
<svg
   xmlns:dc="http://purl.org/dc/elements/1.1/"
   xmlns:cc="http://creativecommons.org/ns#"
   xmlns:rdf="http://www.w3.org/1999/02/22-rdf-syntax-ns#"
   xmlns:svg="http://www.w3.org/2000/svg"
   xmlns="http://www.w3.org/2000/svg"
   xmlns:sodipodi="http://sodipodi.sourceforge.net/DTD/sodipodi-0.dtd"
   xmlns:inkscape="http://www.inkscape.org/namespaces/inkscape"
   inkscape:export-ydpi="96"
   inkscape:export-xdpi="96"
   inkscape:export-filename="C:\Users\nbertin\Documents\Personnel\Rats\LORD\CakeLORD\docs\cdc\icon-backoffice.png"
   inkscape:version="1.0beta1 (fe3e306, 2019-09-17)"
   sodipodi:docname="icon-add-rattery.svg"
   id="SVGRoot"
   version="1.1"
   viewBox="0 0 64 64"
   height="64px"
   width="64px">
  <sodipodi:namedview
     inkscape:current-layer="SVGRoot"
     inkscape:window-maximized="1"
     inkscape:window-y="-9"
     inkscape:window-x="-9"
     inkscape:cy="42.740482"
     inkscape:cx="-12.097214"
     inkscape:zoom="7.375"
     showgrid="false"
     id="namedview39"
     inkscape:window-height="1001"
     inkscape:window-width="1920"
     inkscape:pageshadow="2"
     inkscape:pageopacity="0"
     guidetolerance="10"
     gridtolerance="10"
     objecttolerance="10"
     borderopacity="1"
     inkscape:document-rotation="0"
     bordercolor="#666666"
     pagecolor="#ffffff" />
  <defs
     id="defs830">
    <filter
       style="color-interpolation-filters:sRGB"
       id="filter901"
       x="-0.0049654186"
       width="1.0099308"
       y="-0.0049654186"
       height="1.0099308">
      <feGaussianBlur
         stdDeviation="0.95998094"
         id="feGaussianBlur903" />
    </filter>
    <filter
       style="color-interpolation-filters:sRGB"
       id="filter905"
       x="-0.0047999051"
       width="1.0095998"
       y="-0.0048000949"
       height="1.0096002">
      <feGaussianBlur
         stdDeviation="0.12254071"
         id="feGaussianBlur907" />
    </filter>
    <filter
       style="color-interpolation-filters:sRGB"
       id="filter909"
       x="-0.0089998216"
       width="1.0179996"
       y="-0.0089998216"
       height="1.0179996">
      <feGaussianBlur
         stdDeviation="0.12254071"
         id="feGaussianBlur911" />
    </filter>
    <filter
       style="color-interpolation-filters:sRGB"
       id="filter913"
       x="-0.03599929"
       width="1.0719986"
       y="-0.035999285"
       height="1.0719986">
      <feGaussianBlur
         stdDeviation="0.12254071"
         id="feGaussianBlur915" />
    </filter>
    <filter
       style="color-interpolation-filters:sRGB"
       id="filter917"
       x="-0.020571022"
       width="1.041142"
       y="-0.02057102"
       height="1.041142">
      <feGaussianBlur
         stdDeviation="0.12254071"
         id="feGaussianBlur919" />
    </filter>
    <filter
       style="color-interpolation-filters:sRGB"
       id="filter921"
       x="-0.0075787967"
       width="1.0151576"
       y="-0.0075787971"
       height="1.0151576">
      <feGaussianBlur
         stdDeviation="0.12254071"
         id="feGaussianBlur923" />
    </filter>
  </defs>
  <metadata
     id="metadata833">
    <rdf:RDF>
      <cc:Work
         rdf:about="">
        <dc:format>image/svg+xml</dc:format>
        <dc:type
           rdf:resource="http://purl.org/dc/dcmitype/StillImage" />
        <dc:title></dc:title>
      </cc:Work>
    </rdf:RDF>
  </metadata>
  <path
     style="display:inline;opacity:1;fill:#663300;fill-opacity:1;stroke-width:0.815052;stop-opacity:1"
     sodipodi:nodetypes="cccccccccccccccccccsssssssssssssssssccsssssssssssssssssscssccc"
     d="M 61.911443,42.621242 58.659394,31.340951 c -0.540743,-2.470339 -2.720153,-4.236881 -5.248922,-4.25456 h -3.34612 v -3.309102 c -0.0045,-3.054587 -4.065215,-5.5297 -7.119801,-5.534188 H 37.83555 c -3.054586,0.0045 -7.115312,2.479601 -7.119801,5.534188 v 3.309102 h -3.386873 c -2.512453,0.0017 -4.690176,1.73982 -5.24892,4.189357 l -3.2602,11.345494 c -2.787471,0.81505 -2.779321,5.037009 0,5.843908 l 3.2602,11.28029 c 0.54348,2.46865 2.721238,4.233853 5.24892,4.25456 h 26.081596 c 2.513824,-0.0057 4.690721,-1.746434 5.248922,-4.197506 L 61.919593,48.46515 c 2.779319,-0.823201 2.771169,-5.037009 -0.0082,-5.843908 z m -20.72672,-9.886554 v 5.827606 c 0,1.086733 -1.630099,1.086733 -1.630099,0 v -5.827606 c 0,-1.086735 1.630099,-1.086735 1.630099,0 z m -11.834523,0 c 0,-1.086735 1.6301,-1.086735 1.6301,0 v 5.827606 c 0,1.086733 -1.6301,1.086733 -1.6301,0 z m 20.376247,0 c 0,-1.086735 1.630099,-1.086735 1.630099,0 v 5.827606 c 0,1.086733 -1.630099,1.086733 -1.630099,0 z M 34.954009,24.367176 c 0,-0.805751 1.287664,-1.934719 2.093413,-1.934719 h 6.653232 c 0.802564,0.0045 2.084699,0.735737 2.084686,1.538315 0,0 -0.121769,2.79992 -1.18249,2.793122 -2.726878,-0.01747 -5.087492,0.0121 -8.654474,0 -0.86493,-0.0028 -0.994367,-2.396718 -0.994367,-2.396718 z M 30.9803,58.759228 c 0,1.086734 -1.6301,1.086734 -1.6301,0 v -5.827606 c 0,-1.086732 1.6301,-1.086732 1.6301,0 z m 10.204423,0 c 0,1.086734 -1.630099,1.086734 -1.630099,0 v -5.827606 c 0,-1.086732 1.630099,-1.086732 1.630099,0 z m 10.204426,0 c 0,1.086734 -1.6301,1.086734 -1.6301,0 v -5.827606 c 0,-1.086732 1.6301,-1.086732 1.6301,0 z M 62.376021,45.636926 c 0,0.742731 -0.602102,1.344832 -1.344832,1.344832 H 19.70816 c -1.784959,0 -1.801261,-2.860825 0,-2.877125 h 41.323029 c 0.814963,0.0089 1.441904,0.723085 1.344832,1.532293 z"
     id="path2"
     inkscape:connector-curvature="0" />
  <g
     id="g4"
     transform="matrix(-0.09386477,0,0,0.09386477,29.54508,1.219)"
     style="fill:#663300;fill-opacity:1">
    <path
       inkscape:connector-curvature="0"
       id="path2-2"
       d="M 150.648,0 C 67.584,0 0,67.584 0,150.648 c 0,83.07 67.584,150.647 150.648,150.647 83.07,0 150.648,-67.577 150.648,-150.647 C 301.296,67.584 233.718,0 150.648,0 Z m 78.04212,172.46724 h -56.2589 v 56.21335 c 0,3.387 -18.38122,6.14976 -21.78322,6.14976 -3.393,0 -21.16946,-2.82523 -21.81174,-6.14976 V 172.46724 H 72.622904 c -3.396,0 -6.149759,-18.42024 -6.149759,-21.81824 0,-3.393 2.753759,-21.82227 6.149759,-21.82227 H 128.83626 V 72.613375 c 0,-3.393 18.41974,-6.149759 21.81274,-6.149759 3.402,0 21.13673,2.819742 21.78222,6.149759 v 56.213355 h 56.2589 c 3.398,0 6.14976,18.42227 6.14976,21.81427 0,3.394 -2.81235,21.18213 -6.14976,21.82624 z"
       sodipodi:nodetypes="sssssscssscssscssscsss"
       style="fill:#663300;fill-opacity:1" />
  </g>
</svg>
