<?xml version="1.0" encoding="UTF-8" standalone="no"?>
<svg
   xmlns:dc="http://purl.org/dc/elements/1.1/"
   xmlns:cc="http://creativecommons.org/ns#"
   xmlns:rdf="http://www.w3.org/1999/02/22-rdf-syntax-ns#"
   xmlns:svg="http://www.w3.org/2000/svg"
   xmlns="http://www.w3.org/2000/svg"
   xmlns:sodipodi="http://sodipodi.sourceforge.net/DTD/sodipodi-0.dtd"
   xmlns:inkscape="http://www.inkscape.org/namespaces/inkscape"
   id="SVGRoot"
   version="1.1"
   viewBox="0 0 64 64"
   height="64px"
   width="64px"
   inkscape:version="1.0beta1 (fe3e306, 2019-09-17)"
   sodipodi:docname="icon-back.svg">
  <defs
     id="defs869" />
  <sodipodi:namedview
     id="base"
     pagecolor="#ffffff"
     bordercolor="#666666"
     borderopacity="1.0"
     inkscape:pageopacity="0.0"
     inkscape:pageshadow="2"
     inkscape:zoom="7.919596"
     inkscape:cx="40.223704"
     inkscape:cy="41.690921"
     inkscape:document-units="px"
     inkscape:current-layer="layer1"
     inkscape:document-rotation="0"
     showgrid="false"
     inkscape:window-width="1920"
     inkscape:window-height="1001"
     inkscape:window-x="-9"
     inkscape:window-y="-9"
     inkscape:window-maximized="1"
     inkscape:grid-bbox="true" />
  <metadata
     id="metadata872">
    <rdf:RDF>
      <cc:Work
         rdf:about="">
        <dc:format>image/svg+xml</dc:format>
        <dc:type
           rdf:resource="http://purl.org/dc/dcmitype/StillImage" />
        <dc:title />
      </cc:Work>
    </rdf:RDF>
  </metadata>
  <g
     inkscape:label="Calque 1"
     inkscape:groupmode="layer"
     id="layer1">
    <path
       sodipodi:nodetypes="sccsccccccssssccsssscccccs"
       style="fill:#663300;fill-opacity:1;stroke-width:0.768012"
       inkscape:connector-curvature="0"
       d="m 6.228,20.283788 c 0,-0.271529 0.1259396,-0.526089 0.3403044,-0.689541 L 27.918138,3.1792666 c 0.157201,-0.1205801 0.34209,-0.1795303 0.530554,-0.1795303 0.184888,0 0.367992,0.057164 0.525193,0.1741711 0.312615,0.2358008 0.428729,0.6511327 0.284033,1.0173396 L 24.96437,15.057753 v 0.460885 c 0.197395,-0.02144 0.393896,-0.03484 0.596649,-0.03484 v 0.04019 h 8.988135 c 12.806506,0 23.222846,8.417231 23.222846,21.222844 v 3.030584 c 0,12.805613 -10.41634,21.222848 -23.222846,21.222848 H 11.345065 V 50.282027 h 23.204089 c 6.896292,0 12.503776,-3.609211 12.504609,-10.504609 L 47.054129,36.747 C 47.054962,29.851601 41.445446,26.242228 34.549154,26.242228 h -9.294497 l 4.003261,10.134984 c 0.144696,0.363528 0.02769,0.779752 -0.284033,1.015553 -0.311722,0.235802 -0.744918,0.234015 -1.055747,-0.0053 L 6.5691976,20.974219 C 6.3539396,20.807193 6.228,20.554422 6.228,20.283788 Z"
       id="path2" />
  </g>
</svg>
