<?xml version="1.0" encoding="UTF-8" standalone="no"?>
<svg
   xmlns:dc="http://purl.org/dc/elements/1.1/"
   xmlns:cc="http://creativecommons.org/ns#"
   xmlns:rdf="http://www.w3.org/1999/02/22-rdf-syntax-ns#"
   xmlns:svg="http://www.w3.org/2000/svg"
   xmlns="http://www.w3.org/2000/svg"
   xmlns:sodipodi="http://sodipodi.sourceforge.net/DTD/sodipodi-0.dtd"
   xmlns:inkscape="http://www.inkscape.org/namespaces/inkscape"
   inkscape:version="1.0beta1 (fe3e306, 2019-09-17)"
   sodipodi:docname="icon-laborats.svg"
   width="64px"
   height="64px"
   viewBox="0 0 64 64"
   version="1.1"
   id="SVGRoot">
  <defs
     id="defs874" />
  <sodipodi:namedview
     inkscape:grid-bbox="true"
     inkscape:window-maximized="1"
     inkscape:window-y="-9"
     inkscape:window-x="-9"
     inkscape:window-height="1001"
     inkscape:window-width="1920"
     showgrid="false"
     inkscape:document-rotation="0"
     inkscape:current-layer="layer1"
     inkscape:document-units="px"
     inkscape:cy="6.1131191"
     inkscape:cx="33.03974"
     inkscape:zoom="2.8"
     inkscape:pageshadow="2"
     inkscape:pageopacity="0.0"
     borderopacity="1.0"
     bordercolor="#666666"
     pagecolor="#ffffff"
     id="base" />
  <metadata
     id="metadata877">
    <rdf:RDF>
      <cc:Work
         rdf:about="">
        <dc:format>image/svg+xml</dc:format>
        <dc:type
           rdf:resource="http://purl.org/dc/dcmitype/StillImage" />
        <dc:title></dc:title>
      </cc:Work>
    </rdf:RDF>
  </metadata>
  <g
     id="layer1"
     inkscape:groupmode="layer"
     inkscape:label="Calque 1">
    <g
       transform="matrix(1.4433438,0,0,1.4433438,-2.8411962,-27.560641)"
       id="g26"
       style="opacity:1;fill:#663300;fill-opacity:1;stop-opacity:1">
      <g
         id="g20"
         style="fill:#663300;fill-opacity:1" />
      <circle
         cx="20.698059"
         cy="38.505325"
         r="2.2863181"
         id="circle22"
         style="fill:#663300;fill-opacity:1" />
      <path
         sodipodi:nodetypes="ccccsssssssscccccssccsssssssssscccsccscccc"
         d="m 37.38054,53.396496 -5.430958,-9.799988 -5.27908,-9.540039 v -6.266728 h 2.406455 c 0.420044,0 0.75,-0.330017 0.75,-0.75 v -4.423403 c 0,-0.409973 -0.329956,-0.75 -0.75,-0.75 H 11.015576 c -0.409912,0 -0.75,0.340027 -0.75,0.75 v 4.423403 c 0,0.419983 0.340088,0.75 0.75,0.75 h 2.415328 v 6.266728 l -5.3681124,9.700012 -5.3602564,9.669983 c -1.0800784,2.160034 -0.9609039,4.679993 0.3089938,6.73999 1.2700195,2.050049 2.508531,3.27002 6.1432152,3.27002 H 30.94928 c 3.459958,0 4.870112,-1.219971 6.130122,-3.27002 1.28003,-2.059997 1.391104,-4.579956 0.301138,-6.769958 z M 11.348458,51.916082 c 0,-1.523719 1.313396,-2.745477 2.918579,-2.745477 1.605183,0 2.918579,1.221758 2.918579,2.745477 0,1.509979 -1.313396,2.731736 -2.918579,2.731736 -1.605183,0 -2.918579,-1.221757 -2.918579,-2.731736 z m 14.450592,6.890387 c -1.920734,0 -3.478515,-1.577248 -3.478515,-3.522101 0,-1.96018 1.557781,-3.537428 3.478515,-3.537428 1.920733,0 3.493652,1.577248 3.493652,3.537428 0,1.944853 -1.572919,3.522101 -3.493652,3.522101 z M 19.401247,43.376476 c -2.809936,0.549988 -5.48999,1.070008 -8.23999,0.239991 l 4.97998,-9.01001 c 0.07007,-0.109986 0.100098,-0.229981 0.100098,-0.359986 v -6.45673 h 7.619995 v 6.45673 c 0,0.130005 0.02991,0.25 0.08997,0.359986 l 4.590088,8.290039 c -3.340088,-0.650025 -6.28003,-0.08002 -9.140137,0.47998 z"
         id="path24"
         inkscape:connector-curvature="0"
         style="fill:#663300;fill-opacity:1" />
    </g>
    <path
       style="fill:#663300;fill-opacity:1;stroke:#663300;stroke-width:0.353548;stroke-opacity:1"
       inkscape:connector-curvature="0"
       d="m 56.439207,36.424886 c 0.157118,-0.416855 0.325207,-0.82747 0.494059,-1.247141 0.09004,-0.223432 0.180437,-0.445631 0.268796,-0.670737 0.100711,-0.255649 0.199321,-0.511628 0.294114,-0.770731 0.861788,-2.361462 1.383728,-4.892144 -0.226268,-8.097194 -1.606291,-3.198239 -3.945143,-4.294626 -6.35476,-5.013333 -0.1967,0.538568 -0.401606,1.051326 -0.597839,1.539023 -0.05336,0.13167 -0.08867,0.292417 -0.139671,0.420403 1.416035,0.409234 2.683171,0.953107 3.715903,1.898671 l -5.512359,2.768819 c -0.141686,-1.393358 0.178567,-2.734216 0.695972,-4.114782 0.09587,-0.254643 0.18778,-0.52737 0.291948,-0.790071 0.06262,-0.156538 0.122406,-0.322208 0.186404,-0.48276 0.189784,-0.471583 0.382092,-0.959836 0.566458,-1.460032 0.09473,-0.255396 0.184323,-0.518086 0.271596,-0.782661 0.630865,-1.916174 1.023934,-4.089543 0.430979,-6.747915 -0.124645,-0.555657 -0.675793,-0.906622 -1.231673,-0.782419 -0.08483,0.01882 -0.164376,0.04758 -0.238881,0.08473 -0.411731,0.207349 -0.630073,0.710068 -0.52503,1.181012 0.140546,0.6302 0.169515,1.136276 0.253263,1.826615 l -5.287839,2.655498 C 43.290856,17.360927 42.90254,17.03449 42.480842,16.545778 42.1658,16.180301 41.641476,16.072121 41.228405,16.279027 c -0.0743,0.03758 -0.149387,0.07527 -0.215547,0.132309 -0.431664,0.372072 -0.482389,1.018601 -0.110206,1.449939 1.778331,2.063026 3.754736,3.042672 5.668589,3.680538 0.100614,-0.25643 0.200776,-0.511518 0.301844,-0.761467 0.15805,-0.393826 0.288532,-0.824721 0.433532,-1.206114 -0.852087,-0.276768 -1.619882,-0.48869 -2.509093,-1.140132 l 4.161999,-2.090332 c -0.0085,1.102607 -0.296996,1.843925 -0.583253,2.69324 -0.08789,0.260647 -0.170146,0.542895 -0.267025,0.801308 -0.154557,0.408021 -0.311901,0.826663 -0.477297,1.237052 -0.09316,0.232829 -0.182847,0.47202 -0.275775,0.706414 -0.100831,0.255986 -0.197412,0.515985 -0.292537,0.774978 -0.862794,2.362247 -1.379248,4.89549 0.227268,8.093057 1.609881,3.205388 3.951521,4.298975 6.361139,5.017681 0.197691,-0.546062 0.405492,-1.065308 0.603167,-1.559604 0.05001,-0.124963 0.122172,-0.200123 0.170811,-0.322186 -1.312232,-0.379672 -2.543334,-0.96935 -3.444275,-1.61574 l 5.302806,-2.663573 c -0.01858,1.108217 -0.280931,2.448521 -0.76006,3.727054 -0.0952,0.254872 -0.206176,0.4885 -0.31092,0.751755 -0.05949,0.149009 -0.126155,0.288563 -0.186812,0.441282 -0.192229,0.478968 -0.390809,0.96477 -0.577499,1.473133 -0.09338,0.255849 -0.185338,0.513282 -0.270959,0.778404 -0.61893,1.900387 -0.994486,4.051253 -0.384149,6.676278 0.129002,0.554866 0.683494,0.899119 1.238248,0.770446 0.08136,-0.01959 0.157891,-0.04825 0.229156,-0.08348 0.416422,-0.209146 0.672238,-0.639484 0.562495,-1.113104 -0.114252,-0.491501 -0.206509,-1.003277 -0.203367,-1.371335 l 5.422998,-2.723941 c 0.297669,0.216703 0.652651,0.596525 0.979244,0.981098 0.313936,0.372185 0.822541,0.444616 1.2393,0.235581 0.0716,-0.03624 0.134339,-0.09181 0.198076,-0.14592 0.434809,-0.368049 0.486628,-1.023526 0.11825,-1.458447 -1.740757,-2.057281 -3.694148,-3.046807 -5.587655,-3.68538 -0.09593,0.245688 -0.192875,0.489927 -0.289263,0.730252 -0.16217,0.404007 -0.330664,0.776496 -0.478325,1.167063 0.9454,0.312134 1.820797,0.61746 2.731233,1.258805 l -4.418355,2.218804 c 0.02909,-1.11293 0.306895,-1.997447 0.621156,-2.941396 0.08663,-0.261438 0.18557,-0.509481 0.281818,-0.768473 z m -6.377332,-5.256572 c -0.250307,-0.240485 -0.671256,-0.933798 -0.960963,-1.510624 -0.237195,-0.472274 -0.337896,-0.766357 -0.56127,-1.386011 l 6.076674,-3.052243 c 0.36356,0.549526 0.539548,0.806356 0.776967,1.277959 0.290266,0.577386 0.59415,1.328374 0.637923,1.672869 z"
       id="path4" />
  </g>
</svg>
