<?xml version="1.0" encoding="UTF-8" standalone="no"?>
<svg
   xmlns:dc="http://purl.org/dc/elements/1.1/"
   xmlns:cc="http://creativecommons.org/ns#"
   xmlns:rdf="http://www.w3.org/1999/02/22-rdf-syntax-ns#"
   xmlns:svg="http://www.w3.org/2000/svg"
   xmlns="http://www.w3.org/2000/svg"
   xmlns:sodipodi="http://sodipodi.sourceforge.net/DTD/sodipodi-0.dtd"
   xmlns:inkscape="http://www.inkscape.org/namespaces/inkscape"
   sodipodi:docname="icon-black-rat.svg"
   inkscape:version="1.0beta1 (fe3e306, 2019-09-17)"
   width="64px"
   height="64px"
   viewBox="0 0 64 64"
   version="1.1"
   id="SVGRoot">
  <defs
     id="defs2785" />
  <sodipodi:namedview
     inkscape:grid-bbox="true"
     inkscape:window-maximized="1"
     inkscape:window-y="-9"
     inkscape:window-x="-9"
     inkscape:window-height="1001"
     inkscape:window-width="1920"
     showgrid="false"
     inkscape:document-rotation="0"
     inkscape:current-layer="layer1"
     inkscape:document-units="px"
     inkscape:cy="38.23769"
     inkscape:cx="17.822557"
     inkscape:zoom="7.919596"
     inkscape:pageshadow="2"
     inkscape:pageopacity="0.0"
     borderopacity="1.0"
     bordercolor="#666666"
     pagecolor="#ffffff"
     id="base" />
  <metadata
     id="metadata2788">
    <rdf:RDF>
      <cc:Work
         rdf:about="">
        <dc:format>image/svg+xml</dc:format>
        <dc:type
           rdf:resource="http://purl.org/dc/dcmitype/StillImage" />
        <dc:title></dc:title>
      </cc:Work>
    </rdf:RDF>
  </metadata>
  <g
     id="layer1"
     inkscape:groupmode="layer"
     inkscape:label="Calque 1">
    <path
       sodipodi:nodetypes="sscssssssssscssssscscsscssssssssssss"
       inkscape:connector-curvature="0"
       id="path837"
       d="m 45.877297,62.57684 c -6.109758,-4.871133 -7.575046,-5.529604 -9.901606,-4.449594 -1.436633,0.666899 -1.903862,1.650761 -1.905239,4.011944 -6.3e-4,0.946311 -0.0685,1.552203 -0.187411,1.671111 -0.235261,0.235262 -15.585204,0.259444 -18.36742,0.02894 C 7.3640356,63.163877 2.7241623,59.250145 0.40603919,51.094316 -0.5023786,47.898229 0.14852683,43.544235 2.0079937,40.378663 c 2.2472905,-3.82581 4.53056,-5.713692 12.3192313,-10.185936 8.807824,-5.057445 10.439808,-6.61281 8.731272,-8.321351 -1.476441,-1.476446 -2.731317,-1.14133 -10.752382,2.871433 -5.0445976,2.523705 -5.4822202,2.676272 -5.7830064,2.016115 -0.2711041,-0.595013 4.3705544,-3.683317 10.4979524,-6.984759 5.030489,-2.710429 9.819156,-1.080128 9.806919,3.338762 -0.0076,2.746773 -1.637597,4.15043 -12.267577,10.564151 -8.6305587,5.207348 -10.8038906,7.925065 -10.8038906,13.510095 0,6.623412 3.4697977,10.414357 10.3525526,11.310722 2.463127,0.320781 2.594573,0.291943 2.352263,-0.516061 -2.386726,-7.958778 1.686181,-14.871548 14.965576,-25.400426 4.040847,-3.20388 4.161272,-3.279664 4.521665,-2.845418 0.511359,0.616151 3.203948,2.082258 3.824187,2.082258 0.04359,0 -0.406036,-0.519639 -0.999162,-1.154755 -2.446186,-2.619363 -3.223514,-5.708584 -2.291074,-9.105088 0.448353,-1.633162 0.83751,-1.823813 2.723168,-1.33408 0.466832,0.121239 1.408408,0.330388 2.092396,0.464777 0.683986,0.134384 1.518851,0.310547 1.855248,0.391467 0.561916,0.135171 0.698688,0.09629 1.68252,-0.478302 4.342174,-2.535976 11.018674,-3.770183 15.853433,-2.930641 3.350084,0.581733 3.734094,1.021791 2.992294,3.429074 -1.178105,3.823183 -2.514046,6.114031 -6.204763,10.639822 -5.246482,6.433568 -7.000202,10.398845 -8.387714,18.965164 -0.687831,4.246592 -0.779764,5.344148 -0.774746,9.249404 0.0063,4.826141 0.143116,4.678851 -2.437059,2.621752 z m 7.722187,-38.363013 c 0.728317,-0.444108 0.989715,-0.914594 0.989715,-1.78137 0,-2.116678 -3.011023,-2.729099 -3.826152,-0.77821 -0.765213,1.831416 1.168668,3.57654 2.836437,2.55958 z"
       style="display:inline;fill:#000000;fill-opacity:1;stroke-width:0.155452" />
  </g>
</svg>
