<?xml version="1.0" encoding="UTF-8" standalone="no"?>
<svg
   xmlns:dc="http://purl.org/dc/elements/1.1/"
   xmlns:cc="http://creativecommons.org/ns#"
   xmlns:rdf="http://www.w3.org/1999/02/22-rdf-syntax-ns#"
   xmlns:svg="http://www.w3.org/2000/svg"
   xmlns="http://www.w3.org/2000/svg"
   xmlns:sodipodi="http://sodipodi.sourceforge.net/DTD/sodipodi-0.dtd"
   xmlns:inkscape="http://www.inkscape.org/namespaces/inkscape"
   inkscape:export-ydpi="96"
   inkscape:export-xdpi="96"
   inkscape:export-filename="C:\Users\nbertin\Documents\Personnel\Rats\LORD\CakeLORD\docs\cdc\icon-backoffice.png"
   inkscape:version="1.0beta1 (fe3e306, 2019-09-17)"
   sodipodi:docname="icon-keys.svg"
   id="SVGRoot"
   version="1.1"
   viewBox="0 0 64 64"
   height="64px"
   width="64px">
  <sodipodi:namedview
     inkscape:current-layer="SVGRoot"
     inkscape:window-maximized="1"
     inkscape:window-y="-9"
     inkscape:window-x="-9"
     inkscape:cy="46.822636"
     inkscape:cx="61.399675"
     inkscape:zoom="7.375"
     showgrid="false"
     id="namedview39"
     inkscape:window-height="1001"
     inkscape:window-width="1920"
     inkscape:pageshadow="2"
     inkscape:pageopacity="0"
     guidetolerance="10"
     gridtolerance="10"
     objecttolerance="10"
     borderopacity="1"
     inkscape:document-rotation="0"
     bordercolor="#666666"
     pagecolor="#ffffff" />
  <defs
     id="defs830">
    <filter
       style="color-interpolation-filters:sRGB"
       id="filter901"
       x="-0.0049654186"
       width="1.0099308"
       y="-0.0049654186"
       height="1.0099308">
      <feGaussianBlur
         stdDeviation="0.95998094"
         id="feGaussianBlur903" />
    </filter>
    <filter
       style="color-interpolation-filters:sRGB"
       id="filter905"
       x="-0.0047999051"
       width="1.0095998"
       y="-0.0048000949"
       height="1.0096002">
      <feGaussianBlur
         stdDeviation="0.12254071"
         id="feGaussianBlur907" />
    </filter>
    <filter
       style="color-interpolation-filters:sRGB"
       id="filter909"
       x="-0.0089998216"
       width="1.0179996"
       y="-0.0089998216"
       height="1.0179996">
      <feGaussianBlur
         stdDeviation="0.12254071"
         id="feGaussianBlur911" />
    </filter>
    <filter
       style="color-interpolation-filters:sRGB"
       id="filter913"
       x="-0.03599929"
       width="1.0719986"
       y="-0.035999285"
       height="1.0719986">
      <feGaussianBlur
         stdDeviation="0.12254071"
         id="feGaussianBlur915" />
    </filter>
    <filter
       style="color-interpolation-filters:sRGB"
       id="filter917"
       x="-0.020571022"
       width="1.041142"
       y="-0.02057102"
       height="1.041142">
      <feGaussianBlur
         stdDeviation="0.12254071"
         id="feGaussianBlur919" />
    </filter>
    <filter
       style="color-interpolation-filters:sRGB"
       id="filter921"
       x="-0.0075787967"
       width="1.0151576"
       y="-0.0075787971"
       height="1.0151576">
      <feGaussianBlur
         stdDeviation="0.12254071"
         id="feGaussianBlur923" />
    </filter>
  </defs>
  <metadata
     id="metadata833">
    <rdf:RDF>
      <cc:Work
         rdf:about="">
        <dc:format>image/svg+xml</dc:format>
        <dc:type
           rdf:resource="http://purl.org/dc/dcmitype/StillImage" />
        <dc:title />
      </cc:Work>
    </rdf:RDF>
  </metadata>
  <g
     style="stroke:#ffffff;stroke-opacity:1;fill:#ffffff;fill-opacity:1"
     transform="matrix(0.0602164,0,0,0.0602164,1.8920007,4.9668896)"
     id="g10">
    <g
       style="stroke:#ffffff;stroke-opacity:1;fill:#ffffff;fill-opacity:1"
       transform="matrix(0.1,0,0,-0.1,0,511)"
       id="g8">
      <path
         style="stroke:#ffffff;stroke-opacity:1;fill:#ffffff;fill-opacity:1"
         d="m 7724.5,4731.3 c -964,-105.4 -1709.5,-886 -1777.8,-1859.8 -23.4,-325.9 52.7,-700.6 199.1,-993.3 37.1,-72.2 66.4,-136.6 66.4,-142.5 0,-21.5 -173.7,-7.8 -257.6,21.5 -119,39 -228.3,136.6 -298.6,263.5 -50.7,91.7 -58.5,124.9 -58.5,251.7 0,165.9 41,277.1 144.4,394.2 50.8,58.5 60.5,85.9 60.5,167.8 0,132.7 48.8,402 107.3,583.5 35.1,111.2 41,154.2 23.4,165.9 -11.7,7.8 -83.9,29.3 -160,48.8 -105.4,27.3 -208.8,35.1 -458.6,33.2 -292.7,0 -337.6,-5.9 -495.7,-54.6 C 4450,3500 4106.5,3271.6 3876.2,2984.8 3731.8,2805.3 3577.6,2506.7 3521,2292 c -50.7,-185.4 -85.9,-489.8 -70.3,-606.9 l 11.7,-89.8 -1489,-864.5 C 1153.8,254.6 439.6,-163 384.9,-196.2 324.4,-235.2 273.7,-286 254.2,-328.9 219,-403.1 100,-1011.9 100,-1121.2 c 0,-35.1 13.7,-78.1 29.3,-93.7 15.6,-17.5 234.2,-97.6 484,-179.5 l 456.7,-150.3 226.4,130.8 c 224.4,130.7 226.4,130.7 345.4,121 160,-15.6 214.7,23.4 288.8,210.8 48.8,119 70.3,148.3 144.4,195.2 80,50.7 99.5,56.6 204.9,46.8 95.6,-9.8 128.8,-3.9 177.6,25.3 56.6,37.1 60.5,48.8 85.9,238.1 l 27.3,201 101.5,64.4 c 56.6,37.1 117.1,66.4 132.7,66.4 15.6,0 150.3,-42.9 296.6,-95.6 364.9,-130.8 343.5,-146.4 503.5,310.3 48.8,134.6 60.5,152.2 138.6,193.2 l 85.9,44.9 140.5,-89.8 c 78.1,-48.8 156.1,-89.8 171.7,-89.8 17.6,0 72.2,25.4 122.9,54.6 l 93.7,54.7 146.4,-72.2 c 173.7,-83.9 359.1,-144.4 544.5,-175.6 191.3,-31.2 587.4,-11.7 776.7,39 694.5,189.2 1219.5,751.2 1365.9,1465.5 50.7,240 41,634.2 -21.5,864.5 -81.9,312.2 -257.6,616.7 -491.8,860.6 -109.3,113.2 -136.6,132.7 -154.2,109.3 -29.3,-44.9 -78.1,-281 -78.1,-378.6 0,-78.1 9.8,-99.5 80,-169.8 115.1,-115.1 162,-232.2 163.9,-400.1 0,-115.1 -9.8,-156.1 -58.5,-251.7 -31.2,-62.5 -68.3,-117.1 -82,-121 -31.2,-11.7 -154.2,249.8 -202.9,435.2 -56.6,204.9 -60.5,579.6 -7.8,776.7 87.8,339.6 234.2,587.4 485.9,827.4 187.3,175.6 415.7,306.4 667.4,378.6 203,58.5 647.9,64.4 847,9.8 411.8,-113.2 796.2,-413.7 1008.9,-790.4 234.2,-417.6 265.4,-977.7 80,-1422.7 -154.2,-374.7 -441,-673.3 -815.7,-852.8 -80,-39 -158.1,-70.3 -171.7,-70.3 -19.5,0 -23.4,-13.7 -15.6,-42.9 5.8,-25.4 21.5,-105.4 35.1,-177.6 l 21.5,-134.7 60.5,11.7 c 87.8,17.6 361,152.2 497.6,243.9 376.6,255.6 657.6,647.9 794.2,1104.5 62.5,214.7 85.9,624.5 46.8,862.6 -128.8,804 -729.9,1440.2 -1528,1623.6 -195.1,45.1 -444.8,62.7 -628.3,41.2 z M 3690.8,816.6 C 3686.9,814.6 3041,438 2254.5,-20.6 1329.5,-557.3 808.4,-850 781.1,-846.1 c -52.7,7.8 -119,119 -103.4,177.6 7.8,33.2 353.2,242 1459.7,886 l 1450,841.1 54.6,-117.1 c 29.2,-66.3 50.7,-121 48.8,-124.9 z"
         id="path4"
         inkscape:connector-curvature="0" />
      <path
         style="stroke:#ffffff;stroke-opacity:1;fill:#ffffff;fill-opacity:1"
         d="M 7498.1,2044.1 C 7550.8,1653.8 7476.6,1222.5 7285.4,834.2 6984.9,223.4 6454.1,-186.4 5773,-334.8 c -257.6,-54.6 -661.5,-44.9 -934.8,23.4 l -56.6,13.6 35.1,-60.5 35.1,-60.5 L 3958,-1980 c -489.8,-858.7 -901.6,-1598.3 -915.3,-1643.1 -19.5,-74.2 -13.7,-101.5 83.9,-386.4 152.2,-441 171.7,-484 236.1,-505.4 42.9,-15.6 144.4,0 460.6,66.4 224.4,46.8 433.2,91.7 466.4,101.5 48.8,11.7 80,52.7 185.4,236.2 119,206.9 132.7,224.4 234.2,275.2 156.1,80 181.5,130.7 154.2,331.8 -21.5,150.3 -19.5,163.9 23.4,245.9 37.1,70.3 70.3,101.5 158.1,146.4 68.3,35.1 122.9,78.1 140.5,113.2 27.3,50.7 25.4,66.3 -46.8,247.8 l -74.1,193.2 60.5,113.2 c 37.1,64.4 78.1,117.1 101.5,122.9 21.5,3.9 154.2,29.3 292.7,56.6 353.2,66.3 351.3,64.4 283,446.9 l -39,220.5 46.8,85.9 48.8,83.9 171.7,-5.9 c 189.3,-5.9 214.7,7.8 286.9,148.3 29.3,56.6 39,62.4 162,74.2 308.3,27.3 523,83.9 757.2,201 394.2,195.1 753.3,581.6 905.5,975.7 115.1,302.5 128.8,376.7 126.8,735.7 0,302.5 -5.9,347.4 -52.7,507.4 -111.2,368.8 -341.5,727.9 -603,942.6 -68.3,56.6 -126.8,101.5 -132.7,101.5 -5.9,0 1.9,-93.8 17.5,-209 z m -2154.4,-2929.2 103.4,-74.2 -819.6,-1432.4 c -448.9,-788.3 -827.5,-1444 -839.2,-1457.7 -56.6,-70.3 -247.8,25.4 -220.5,111.3 13.7,41 1654.9,2925.3 1664.6,2927.2 3.9,0 52.7,-33.2 111.3,-74.2 z"
         id="path6"
         inkscape:connector-curvature="0" />
    </g>
  </g>
</svg>
