<svg id="Layer_1" data-name="Layer 1" xmlns="http://www.w3.org/2000/svg" viewBox="0 0 60 60"><defs><style>.cls-1{fill:none;stroke:#630;stroke-linecap:round;stroke-linejoin:round;stroke-width:2.5px;}</style></defs><title>icon-birth</title><rect class="cls-1" x="18.68" y="25.11" width="18.16" height="25.63" rx="4.75" ry="4.75" transform="translate(22.06 -8.73) rotate(29.24)"/><rect class="cls-1" x="27.59" y="22.21" width="14.95" height="5.34" rx="2.5" ry="2.5" transform="translate(16.62 -13.96) rotate(29.24)"/><path class="cls-1" d="M31.69,19.39a5.62,5.62,0,0,1,9.81,5.49"/><path class="cls-1" d="M37.93,15.91l2.29-4.09a1.88,1.88,0,0,1,2.55-.72h0a1.88,1.88,0,0,1,.72,2.55L41.2,17.74"/><line class="cls-1" x1="31.96" y1="36.18" x2="36.86" y2="38.92"/><line class="cls-1" x1="29.67" y1="40.26" x2="34.57" y2="43.01"/><line class="cls-1" x1="27.38" y1="44.35" x2="32.29" y2="47.09"/></svg>