<?xml version="1.0" encoding="UTF-8" standalone="no"?>
<svg
   xmlns:dc="http://purl.org/dc/elements/1.1/"
   xmlns:cc="http://creativecommons.org/ns#"
   xmlns:rdf="http://www.w3.org/1999/02/22-rdf-syntax-ns#"
   xmlns:svg="http://www.w3.org/2000/svg"
   xmlns="http://www.w3.org/2000/svg"
   xmlns:sodipodi="http://sodipodi.sourceforge.net/DTD/sodipodi-0.dtd"
   xmlns:inkscape="http://www.inkscape.org/namespaces/inkscape"
   width="64px"
   height="64px"
   viewBox="0 0 64 64"
   version="1.1"
   id="SVGRoot"
   sodipodi:docname="icon-staff-rattery.svg"
   inkscape:version="1.0beta1 (fe3e306, 2019-09-17)">
  <sodipodi:namedview
     pagecolor="#ffffff"
     bordercolor="#666666"
     inkscape:document-rotation="0"
     borderopacity="1"
     objecttolerance="10"
     gridtolerance="10"
     guidetolerance="10"
     inkscape:pageopacity="0"
     inkscape:pageshadow="2"
     inkscape:window-width="1920"
     inkscape:window-height="1001"
     id="namedview856"
     showgrid="false"
     inkscape:zoom="6.453125"
     inkscape:cx="24.621937"
     inkscape:cy="44.737103"
     inkscape:window-x="-9"
     inkscape:window-y="-9"
     inkscape:window-maximized="1"
     inkscape:current-layer="SVGRoot" />
  <defs
     id="defs830" />
  <metadata
     id="metadata833">
    <rdf:RDF>
      <cc:Work
         rdf:about="">
        <dc:format>image/svg+xml</dc:format>
        <dc:type
           rdf:resource="http://purl.org/dc/dcmitype/StillImage" />
        <dc:title></dc:title>
      </cc:Work>
    </rdf:RDF>
  </metadata>
  <path
     style="fill:#b1000c;fill-opacity:1;stroke-width:0.0479757"
     inkscape:connector-curvature="0"
     id="path2"
     d="m 22.488885,14.75736 -2.043763,-1.180203 c 0.206294,-1.113034 0.206294,-2.254855 0,-3.36789 L 22.488885,9.0290648 C 22.723965,8.8947338 22.829511,8.6164754 22.75275,8.3574061 22.220221,6.6494698 21.31348,5.1046579 20.128482,3.8189114 19.946174,3.6222092 19.648725,3.5742308 19.418442,3.7085657 L 17.374678,4.8887668 C 16.515914,4.1499445 15.527616,3.579031 14.457759,3.2048198 V 0.84921789 c 0,-0.2686659 -0.187105,-0.5037461 -0.450971,-0.5613171 -1.760707,-0.3934042 -3.564592,-0.3742113 -5.2389427,0 -0.263866,0.057571 -0.450971,0.2926512 -0.450971,0.5613171 V 3.209616 c -1.06506,0.3790076 -2.053359,0.949921 -2.916921,1.6839471 L 3.3609893,3.713362 C 3.1259083,3.579031 2.8332533,3.6222092 2.6509483,3.8237077 1.4659473,5.1046579 0.55920827,6.6494698 0.02668027,8.3622062 c -0.08156,0.2590694 0.02879,0.5373239 0.263862,0.6716549 L 2.3343083,10.214064 c -0.206295,1.113035 -0.206295,2.254856 0,3.367891 l -2.04376603,1.180201 c -0.235076,0.134332 -0.340622,0.412592 -0.263862,0.67166 0.532528,1.707933 1.43926703,3.252749 2.62426803,4.538497 0.182305,0.1967 0.479757,0.244677 0.710041,0.110345 l 2.043761,-1.180202 c 0.858765,0.738826 1.847064,1.309736 2.916922,1.683946 v 2.360403 c 0,0.268664 0.187104,0.503744 0.450971,0.561316 1.7607067,0.393399 3.5645907,0.374209 5.2389417,0 0.263866,-0.05757 0.45097,-0.292652 0.45097,-0.561316 v -2.360403 c 1.065061,-0.379007 2.053359,-0.949918 2.916921,-1.683946 l 2.043763,1.180202 c 0.235081,0.134332 0.527733,0.09115 0.710041,-0.110345 1.184998,-1.28095 2.091738,-2.825766 2.624269,-4.538497 0.07196,-0.263866 -0.03359,-0.542125 -0.268664,-0.676456 z m -11.101569,0.973904 c -2.1157257,0 -3.8380527,-1.722325 -3.8380527,-3.838051 0,-2.1157255 1.722327,-3.8380546 3.8380527,-3.8380546 2.115727,0 3.838053,1.7223291 3.838053,3.8380546 0,2.115726 -1.722326,3.838051 -3.838053,3.838051 z"
     fill="currentColor" />
  <path
     style="display:inline;opacity:1;fill:#b1000c;fill-opacity:1;stroke-width:0.873981;stop-opacity:1"
     sodipodi:nodetypes="cccccccccccccccccccsssssssssssssssssccsssssssssssssssssscssccc"
     d="M 61.760408,41.075531 58.273239,28.979661 C 57.6934,26.330713 55.356408,24.436448 52.644807,24.41749 h -3.588048 v -3.548353 c -0.0048,-3.275438 -4.359135,-5.929505 -7.634571,-5.934318 h -5.478389 c -3.275436,0.0048 -7.629758,2.65888 -7.634572,5.934318 v 3.548353 h -3.631748 c -2.694106,0.0018 -5.029281,1.865612 -5.628422,4.492254 L 15.55314,41.075531 c -2.989009,0.873979 -2.980269,5.401191 0,6.26643 L 19.049057,59.43783 C 19.63183,62.084967 21.967043,63.977795 24.677479,64 h 27.967328 c 2.695578,-0.0061 5.029872,-1.872703 5.628432,-4.500991 l 3.495906,-12.157048 c 2.980269,-0.882719 2.971531,-5.401192 -0.0086,-6.26643 z M 39.535121,30.474167 v 6.248948 c 0,1.165307 -1.747956,1.165307 -1.747956,0 v -6.248948 c 0,-1.165308 1.747956,-1.165308 1.747956,0 z m -12.690173,0 c 0,-1.165308 1.747958,-1.165308 1.747958,0 v 6.248948 c 0,1.165307 -1.747958,1.165307 -1.747958,0 z m 21.849475,0 c 0,-1.165308 1.747958,-1.165308 1.747958,0 v 6.248948 c 0,1.165307 -1.747958,1.165307 -1.747958,0 z M 32.85392,21.501672 c 0,-0.864008 1.380762,-2.0746 2.244768,-2.0746 h 7.13427 c 0.860591,0.0048 2.235426,0.788932 2.235411,1.649537 0,0 -0.130573,3.002357 -1.267985,2.995067 -2.924035,-0.01873 -5.455324,0.01297 -9.280203,0 -0.927466,-0.003 -1.066261,-2.570004 -1.066261,-2.570004 z m -4.261014,36.878642 c 0,1.165306 -1.747958,1.165306 -1.747958,0 v -6.24895 c 0,-1.165304 1.747958,-1.165304 1.747958,0 z m 10.942215,0 c 0,1.165306 -1.747956,1.165306 -1.747956,0 v -6.24895 c 0,-1.165304 1.747956,-1.165304 1.747956,0 z m 10.94222,0 c 0,1.165306 -1.747959,1.165306 -1.747959,0 v -6.24895 c 0,-1.165304 1.747959,-1.165304 1.747959,0 z M 62.258583,44.309253 c 0,0.796431 -0.645641,1.442065 -1.44207,1.442065 H 16.505777 c -1.914014,0 -1.931495,-3.067666 0,-3.085144 h 44.310736 c 0.873891,0.0096 1.546152,0.775364 1.44207,1.643079 z"
     id="path2-6"
     inkscape:connector-curvature="0" />
</svg>
