<?xml version="1.0" encoding="UTF-8" standalone="no"?>
<svg
   xmlns:dc="http://purl.org/dc/elements/1.1/"
   xmlns:cc="http://creativecommons.org/ns#"
   xmlns:rdf="http://www.w3.org/1999/02/22-rdf-syntax-ns#"
   xmlns:svg="http://www.w3.org/2000/svg"
   xmlns="http://www.w3.org/2000/svg"
   xmlns:sodipodi="http://sodipodi.sourceforge.net/DTD/sodipodi-0.dtd"
   xmlns:inkscape="http://www.inkscape.org/namespaces/inkscape"
   inkscape:version="1.0beta1 (fe3e306, 2019-09-17)"
   sodipodi:docname="icon-user.svg"
   id="SVGRoot"
   version="1.1"
   viewBox="0 0 64 64"
   height="64px"
   width="64px">
  <sodipodi:namedview
     inkscape:current-layer="SVGRoot"
     inkscape:window-maximized="0"
     inkscape:window-y="52"
     inkscape:window-x="248"
     inkscape:cy="44.737103"
     inkscape:cx="24.621937"
     inkscape:zoom="6.453125"
     showgrid="false"
     id="namedview856"
     inkscape:window-height="932"
     inkscape:window-width="1266"
     inkscape:pageshadow="2"
     inkscape:pageopacity="0"
     guidetolerance="10"
     gridtolerance="10"
     objecttolerance="10"
     borderopacity="1"
     inkscape:document-rotation="0"
     bordercolor="#666666"
     pagecolor="#ffffff" />
  <defs
     id="defs830" />
  <metadata
     id="metadata833">
    <rdf:RDF>
      <cc:Work
         rdf:about="">
        <dc:format>image/svg+xml</dc:format>
        <dc:type
           rdf:resource="http://purl.org/dc/dcmitype/StillImage" />
        <dc:title></dc:title>
      </cc:Work>
    </rdf:RDF>
  </metadata>
  <g
     transform="matrix(1.04335,0,0,1.04335,-1.3872003,0.6994999)"
     style="opacity:1"
     id="g1425">
    <path
       sodipodi:nodetypes="cssscsccsccccc"
       inkscape:connector-curvature="0"
       id="path1427"
       d="m 41.713268,34.475062 c 5.033964,-3.216644 8.381496,-8.850145 8.381496,-15.254489 0,-9.977451 -8.11731,-18.094761 -18.094766,-18.094761 -9.977451,0 -18.094761,8.11731 -18.094761,18.094761 0,6.404344 3.347532,12.037845 8.381495,15.254489 C 11.765229,38.420929 4.2546965,46.579328 4.2546965,58.461557 v 0.412631 H 59.745303 v -0.412631 c 0,-11.882229 -7.510532,-20.040628 -18.032035,-23.986495 z M 45.26949,19.220573 c -29.293284,-13.260673 -14.646642,-6.630336 0,0 z m 9.524484,38.828347 c -35.64294,-39.146238 -17.82147,-19.573119 0,0 z"
       style="color:#000000;font-style:normal;font-variant:normal;font-weight:normal;font-stretch:normal;font-size:medium;line-height:normal;font-family:sans-serif;font-variant-ligatures:normal;font-variant-position:normal;font-variant-caps:normal;font-variant-numeric:normal;font-variant-alternates:normal;font-variant-east-asian:normal;font-feature-settings:normal;font-variation-settings:normal;text-indent:0;text-align:start;text-decoration:none;text-decoration-line:none;text-decoration-style:solid;text-decoration-color:#000000;letter-spacing:normal;word-spacing:normal;text-transform:none;writing-mode:lr-tb;direction:ltr;text-orientation:mixed;dominant-baseline:auto;baseline-shift:baseline;text-anchor:start;white-space:normal;shape-padding:0;shape-margin:0;inline-size:0;clip-rule:nonzero;display:inline;overflow:hidden;visibility:visible;isolation:auto;mix-blend-mode:normal;color-interpolation:sRGB;color-interpolation-filters:linearRGB;solid-color:#000000;solid-opacity:1;vector-effect:none;fill:#663300;fill-opacity:1;fill-rule:nonzero;stroke:none;stroke-width:0.117804;stroke-linecap:butt;stroke-linejoin:miter;stroke-miterlimit:4;stroke-dasharray:none;stroke-dashoffset:0;stroke-opacity:1;color-rendering:auto;image-rendering:auto;shape-rendering:auto;text-rendering:auto;enable-background:accumulate;stop-color:#000000;stop-opacity:1" />
    <path
       sodipodi:nodetypes="sscsccscsssscccsccscccss"
       inkscape:connector-curvature="0"
       id="path1429"
       d="m 32,1.0664062 c -10.009398,0 -18.154297,8.1448988 -18.154297,18.1542968 0,6.388485 3.329465,12.004184 8.332031,15.240235 -10.496065,3.978733 -17.9824215,12.127381 -17.9824215,24 v 0.472656 H 59.804688 v -0.09978 c 0,-11.872619 -7.486357,-20.394148 -17.982422,-24.372881 5.002567,-3.236051 8.332031,-8.85175 8.332031,-15.240235 C 50.154297,9.211305 42.009403,1.0664062 32,1.0664062 Z m 0,0.1191407 c 9.945509,0 18.035156,8.0896523 18.035156,18.0351561 0,6.383819 -3.335862,11.998856 -8.353515,15.205078 l -0.09961,0.0625 0.111328,0.04102 c 10.499011,3.937432 17.992188,22.285156 17.992188,23.931641 v 0.353515 H 4.3144531 v -0.353515 c 0,-1.646485 7.4931769,-19.994209 17.9921879,-23.931641 l 0.111328,-0.04102 -0.09961,-0.0625 C 17.300707,31.219559 13.964844,25.604522 13.964844,19.220703 13.964844,9.2751992 22.054496,1.1855469 32,1.1855469 Z"
       style="color:#000000;font-style:normal;font-variant:normal;font-weight:normal;font-stretch:normal;font-size:medium;line-height:normal;font-family:sans-serif;font-variant-ligatures:normal;font-variant-position:normal;font-variant-caps:normal;font-variant-numeric:normal;font-variant-alternates:normal;font-variant-east-asian:normal;font-feature-settings:normal;font-variation-settings:normal;text-indent:0;text-align:start;text-decoration:none;text-decoration-line:none;text-decoration-style:solid;text-decoration-color:#000000;letter-spacing:normal;word-spacing:normal;text-transform:none;writing-mode:lr-tb;direction:ltr;text-orientation:mixed;dominant-baseline:auto;baseline-shift:baseline;text-anchor:start;white-space:normal;shape-padding:0;shape-margin:0;inline-size:0;clip-rule:nonzero;display:inline;overflow:hidden;visibility:visible;isolation:auto;mix-blend-mode:normal;color-interpolation:sRGB;color-interpolation-filters:linearRGB;solid-color:#000000;solid-opacity:1;vector-effect:none;fill:#663300;fill-opacity:1;fill-rule:nonzero;stroke:none;stroke-width:0.117804;stroke-linecap:butt;stroke-linejoin:miter;stroke-miterlimit:4;stroke-dasharray:none;stroke-dashoffset:0;stroke-opacity:1;color-rendering:auto;image-rendering:auto;shape-rendering:auto;text-rendering:auto;enable-background:accumulate;stop-color:#000000;stop-opacity:1" />
  </g>
</svg>
