<?xml version="1.0" encoding="UTF-8" standalone="no"?>
<svg
   xmlns:dc="http://purl.org/dc/elements/1.1/"
   xmlns:cc="http://creativecommons.org/ns#"
   xmlns:rdf="http://www.w3.org/1999/02/22-rdf-syntax-ns#"
   xmlns:svg="http://www.w3.org/2000/svg"
   xmlns="http://www.w3.org/2000/svg"
   xmlns:sodipodi="http://sodipodi.sourceforge.net/DTD/sodipodi-0.dtd"
   xmlns:inkscape="http://www.inkscape.org/namespaces/inkscape"
   inkscape:version="1.0beta1 (fe3e306, 2019-09-17)"
   sodipodi:docname="icon-laborats.svg"
   width="64px"
   height="64px"
   viewBox="0 0 64 64"
   version="1.1"
   id="SVGRoot">
  <defs
     id="defs874" />
  <sodipodi:namedview
     inkscape:grid-bbox="true"
     inkscape:window-maximized="1"
     inkscape:window-y="-9"
     inkscape:window-x="-9"
     inkscape:window-height="1001"
     inkscape:window-width="1920"
     showgrid="false"
     inkscape:document-rotation="0"
     inkscape:current-layer="layer1"
     inkscape:document-units="px"
     inkscape:cy="29.449959"
     inkscape:cx="14.338636"
     inkscape:zoom="7.9195959"
     inkscape:pageshadow="2"
     inkscape:pageopacity="0.0"
     borderopacity="1.0"
     bordercolor="#666666"
     pagecolor="#ffffff"
     id="base" />
  <metadata
     id="metadata877">
    <rdf:RDF>
      <cc:Work
         rdf:about="">
        <dc:format>image/svg+xml</dc:format>
        <dc:type
           rdf:resource="http://purl.org/dc/dcmitype/StillImage" />
        <dc:title></dc:title>
      </cc:Work>
    </rdf:RDF>
  </metadata>
  <g
     id="layer1"
     inkscape:groupmode="layer"
     inkscape:label="Calque 1">
    <g
       style="fill:#663300;fill-opacity:1"
       transform="matrix(1.1583316,0,0,1.1583316,-11.878436,-11.759092)"
       id="g1525">
      <g
         style="fill:#663300;fill-opacity:1"
         id="g26"
         transform="translate(6.9768508,-2.6858298)">
        <g
           style="fill:#663300;fill-opacity:1"
           id="g20" />
        <circle
           style="fill:#663300;fill-opacity:1"
           id="circle22"
           r="2.2863181"
           cy="38.505325"
           cx="20.698059" />
        <path
           style="fill:#663300;fill-opacity:1"
           inkscape:connector-curvature="0"
           id="path24"
           d="M 36.071289,53.396496 30.641237,43.596508 25.36133,34.056469 v -9.719971 h 2.329956 c 0.420044,0 0.75,-0.330017 0.75,-0.75 v -6.150024 c 0,-0.409973 -0.329956,-0.75 -0.75,-0.75 H 12.401247 c -0.409912,0 -0.75,0.340027 -0.75,0.75 v 6.150024 c 0,0.419983 0.340088,0.75 0.75,0.75 h 2.340088 v 9.719971 l -5.3699952,9.700012 -5.3599854,9.669983 c -1.0800784,2.160034 -0.9599612,4.679993 0.3099365,6.73999 1.2700195,2.050049 3.4700928,3.27002 5.8800051,3.27002 h 19.699951 c 2.410154,0 4.610105,-1.219971 5.870115,-3.27002 1.28003,-2.059997 1.389893,-4.579956 0.299927,-6.769958 z m -25.502317,5.739197 h -0.08106 c -0.414063,0 -0.7500001,-0.335938 -0.7500001,-0.75 0,-0.414063 0.3359371,-0.75 0.7500001,-0.75 0.414062,0 0.791016,0.335937 0.791016,0.75 0,0.414062 -0.295899,0.75 -0.709961,0.75 z m 2.303711,-3.455567 h -0.08106 c -0.414063,0 -0.75,-0.335937 -0.75,-0.75 0,-0.414062 0.335937,-0.75 0.75,-0.75 0.414062,0 0.790039,0.335938 0.790039,0.75 0,0.414063 -0.294922,0.75 -0.708984,0.75 z m 1.743164,5.759277 h -0.08106 c -0.414063,0 -0.75,-0.335937 -0.75,-0.75 0,-0.414062 0.335937,-0.75 0.75,-0.75 0.414062,0 0.791016,0.335938 0.791016,0.75 0,0.414063 -0.295899,0.75 -0.709961,0.75 z m -0.04456,-11.552917 c 0,-1.109985 0.900024,-2 2,-2 1.099976,0 2,0.890015 2,2 0,1.099976 -0.900024,1.98999 -2,1.98999 -1.099976,0 -2,-0.890014 -2,-1.98999 z m 3.840454,7.365417 h -0.08105 c -0.414062,0 -0.75,-0.335937 -0.75,-0.75 0,-0.414062 0.335938,-0.75 0.75,-0.75 0.414063,0 0.79004,0.335938 0.79004,0.75 0,0.414063 -0.294922,0.75 -0.708985,0.75 z m 5.799561,1.554566 c -1.27002,0 -2.300049,-1.029968 -2.300049,-2.299988 0,-1.280029 1.030029,-2.309997 2.300049,-2.309997 1.270019,0 2.310058,1.029968 2.310058,2.309997 0,1.27002 -1.040039,2.299988 -2.310058,2.299988 z M 19.401247,43.376476 c -2.809936,0.549988 -5.48999,1.070008 -8.23999,0.239991 l 4.97998,-9.01001 c 0.07007,-0.109986 0.100098,-0.229981 0.100098,-0.359986 v -9.909973 h 7.619995 v 9.909973 c 0,0.130005 0.02991,0.25 0.08997,0.359986 l 4.590088,8.290039 c -3.340088,-0.650025 -6.28003,-0.08002 -9.140137,0.47998 z" />
      </g>
      <path
         style="stroke-width:0.0834879;fill:#663300;fill-opacity:1"
         inkscape:connector-curvature="0"
         d="m 46.971666,35.395466 a 0.53014897,0.53014897 0 0 1 0.210389,0.667904 c -0.830707,1.845922 -3.7962,8.962442 2.912062,9.475894 3.923936,0.300555 7.488041,1.140444 9.470046,2.11809 a 5.704737,5.704737 0 0 1 2.41698,2.266698 l -6.901955,4.609378 a 8.29871,8.29871 0 0 1 -0.02171,-2.499635 l 3.313642,-2.191558 a 0.60204254,0.60204254 0 0 0 -0.667912,-1.001855 l -2.26336,1.49694 a 8.6668922,8.6668922 0 0 1 0.751395,-1.734047 0.48506543,0.48506543 0 0 0 -0.281356,-0.712984 c -0.348982,-0.10269 -0.717162,-0.182006 -1.012709,-0.237107 a 1.0502794,1.0502794 0 0 0 -1.001855,0.357329 c -2.671619,3.189243 -2.087203,6.437757 -1.586274,7.965589 a 1.5027845,1.5027845 0 0 0 2.04295,0.897495 v 0 l 0.0075,-0.0047 a 1.5194821,1.5194821 0 0 0 0.481726,-0.344803 l 7.634146,-5.462616 a 5.6513043,5.6513043 0 0 1 0.250464,1.241466 c 0.0359,0.433301 0.06262,0.918367 0.07597,1.466881 l -3.31698,2.198241 a 0.60194866,0.60194866 0 1 0 0.663731,1.001854 l 2.659928,-1.759088 c 0,0.110199 0,0.220404 -0.0058,0.333951 a 1.2130811,1.2130811 0 0 0 1.213083,1.241468 h 0.02922 a 1.2523204,1.2523204 0 0 0 1.243136,-1.085343 c 0.166977,-1.296577 0.36234,-3.579137 0.06346,-5.88257 A 3.9372954,3.9372954 0 0 0 63.848868,47.21272 c -0.985158,-0.76058 -2.523841,-1.709006 -4.893233,-2.548894 1.099539,-2.022911 4.389802,-9.350656 -4.868186,-10.5963 a 0.68710646,0.68710646 0 0 0 -0.693784,0.353159 c -0.10269,0.189513 -0.230428,0.427452 -0.357329,0.672914 a 0.68627158,0.68627158 0 0 0 0.500927,0.992667 6.0946259,6.0946259 0 0 1 1.156308,0.315585 l -4.957517,3.279414 c 0.04591,-1.83006 1.031076,-3.701031 1.55705,-4.574309 q 0.160299,-0.250464 0.323934,-0.505937 v 0 c 2.93377,-4.612716 6.699078,-11.560588 2.534697,-15.702427 a 1.3633595,1.3633595 0 0 0 -1.345826,-0.365684 1.310762,1.310762 0 0 0 -0.83989,1.739897 c 0.101858,0.250463 0.205379,0.544337 0.300556,0.867435 l -6.64648,4.238693 a 0.60278356,0.60278356 0 0 0 0.647866,1.016044 l 6.279969,-4.007428 a 10.530345,10.530345 0 0 1 0.01252,3.226818 l -7.08396,4.686183 c -1.055329,-1.015273 -2.008762,-2.360259 -2.326017,-4.056739 a 3.5707831,3.5707831 0 0 1 1.528665,-3.601673 l 4.223661,-2.857797 A 0.60205488,0.60205488 0 1 0 48.26996,18.759942 c 0,0 -4.884886,2.485437 -6.857707,3.90474 a 3.5732875,3.5732875 0 0 0 -0.984324,1.06948 c -1.041931,1.769109 -2.359373,6.291654 6.543793,11.661603 z m 5.943512,7.806969 4.482471,-2.967999 a 3.7628055,3.7628055 0 0 1 -0.06679,0.550186 9.3999174,9.3999174 0 0 1 -1.168833,3.055665 c -0.975974,-0.239611 -2.056308,-0.455846 -3.246848,-0.637852 z m 3.005568,-6.161412 a 3.6985196,3.6985196 0 0 1 1.309928,1.860943 l -5.857519,3.874682 a 3.068185,3.068185 0 0 1 -1.470227,-1.759097 z m -3.747777,-9.725525 c -0.480058,1.569576 -1.350839,3.296108 -2.816888,5.120317 a 0.45834926,0.45834926 0 0 1 -0.551855,0.130242 13.17942,13.17942 0 0 1 -2.379407,-1.448514 z"
         id="path4" />
    </g>
  </g>
</svg>
