<?xml version="1.0" encoding="UTF-8" standalone="no"?>
<svg
   xmlns:osb="http://www.openswatchbook.org/uri/2009/osb"
   xmlns:dc="http://purl.org/dc/elements/1.1/"
   xmlns:cc="http://creativecommons.org/ns#"
   xmlns:rdf="http://www.w3.org/1999/02/22-rdf-syntax-ns#"
   xmlns:svg="http://www.w3.org/2000/svg"
   xmlns="http://www.w3.org/2000/svg"
   xmlns:sodipodi="http://sodipodi.sourceforge.net/DTD/sodipodi-0.dtd"
   xmlns:inkscape="http://www.inkscape.org/namespaces/inkscape"
   inkscape:version="1.0beta1 (fe3e306, 2019-09-17)"
   sodipodi:docname="icon-tooltip.svg"
   id="SVGRoot"
   version="1.1"
   viewBox="0 0 64 64"
   height="64px"
   width="64px">
  <sodipodi:namedview
     inkscape:current-layer="SVGRoot"
     inkscape:window-maximized="0"
     inkscape:window-y="97"
     inkscape:window-x="2216"
     inkscape:cy="32"
     inkscape:cx="32"
     inkscape:zoom="3.6875"
     showgrid="false"
     id="namedview7"
     inkscape:window-height="847"
     inkscape:window-width="1320"
     inkscape:pageshadow="2"
     inkscape:pageopacity="0"
     guidetolerance="10"
     gridtolerance="10"
     objecttolerance="10"
     borderopacity="1"
     inkscape:document-rotation="0"
     bordercolor="#666666"
     pagecolor="#ffffff" />
  <defs
     id="defs830">
    <linearGradient
       osb:paint="solid"
       id="linearGradient834">
      <stop
         id="stop832"
         offset="0"
         style="stop-color:#6076bf;stop-opacity:1;" />
    </linearGradient>
  </defs>
  <metadata
     id="metadata833">
    <rdf:RDF>
      <cc:Work
         rdf:about="">
        <dc:format>image/svg+xml</dc:format>
        <dc:type
           rdf:resource="http://purl.org/dc/dcmitype/StillImage" />
        <dc:title></dc:title>
      </cc:Work>
    </rdf:RDF>
  </metadata>
  <g
     style="opacity:1;fill:#3d5299;fill-opacity:1;fill-rule:evenodd;stroke:#3d5299;stroke-opacity:1"
     transform="matrix(1.0666663,0,0,1.0666116,-2.1333217,-2.1315712)"
     id="layer1">
    <path
       inkscape:connector-curvature="0"
       style="opacity:0.998;fill:#3d5299;fill-opacity:1;fill-rule:evenodd;stroke:#3d5299;stroke-width:0.80597;stroke-miterlimit:4;stroke-dasharray:none;stroke-opacity:1"
       id="path2"
       d="m 55.056153,42.093165 c 2.811717,-6.422895 2.811717,-13.792935 0,-20.186222 l -8.1096,3.670217 c 1.775829,4.084605 1.775829,8.731576 0.02955,12.845787 l 8.079994,3.670218 M 42.122192,8.9427565 c -6.422559,-2.811863 -13.792217,-2.811863 -20.214777,0 l 3.670054,8.0804155 c 4.11397,-1.746316 8.7607,-1.746316 12.874696,0.02955 L 42.122192,8.9427027 M 8.9439285,21.877284 c -2.8117167,6.452499 -2.8117167,13.792933 0,20.245406 l 8.1095725,-3.699796 c -1.775802,-4.084605 -1.775802,-8.761183 0,-12.875394 L 8.9439285,21.877284 M 21.907415,55.057271 c 6.42256,2.811863 13.792218,2.811863 20.214777,-0.02955 l -3.670027,-8.080414 c -4.084391,1.775921 -8.760726,1.775921 -12.845118,0.02955 l -3.699632,8.080415 M 32.000001,2.401436 A 29.597022,29.598561 0 0 1 61.597025,32 29.597022,29.598561 0 0 1 32.000001,61.598564 29.597022,29.598561 0 0 1 2.4029751,32 29.597022,29.598561 0 0 1 32.000001,2.401436 m 0,17.759139 A 11.838809,11.839425 0 0 0 20.16119,32 11.838809,11.839425 0 0 0 32.000001,43.839426 11.838809,11.839425 0 0 0 43.838811,32 11.838809,11.839425 0 0 0 32.000001,20.160575 Z" />
  </g>
</svg>
