<?xml version="1.0" encoding="UTF-8" standalone="no"?>
<svg
   xmlns:dc="http://purl.org/dc/elements/1.1/"
   xmlns:cc="http://creativecommons.org/ns#"
   xmlns:rdf="http://www.w3.org/1999/02/22-rdf-syntax-ns#"
   xmlns:svg="http://www.w3.org/2000/svg"
   xmlns="http://www.w3.org/2000/svg"
   xmlns:sodipodi="http://sodipodi.sourceforge.net/DTD/sodipodi-0.dtd"
   xmlns:inkscape="http://www.inkscape.org/namespaces/inkscape"
   inkscape:version="1.0beta1 (fe3e306, 2019-09-17)"
   sodipodi:docname="icon-i18n.svg"
   width="64px"
   height="64px"
   viewBox="0 0 64 64"
   version="1.1"
   id="SVGRoot">
  <sodipodi:namedview
     inkscape:current-layer="SVGRoot"
     inkscape:window-maximized="0"
     inkscape:window-y="0"
     inkscape:window-x="0"
     inkscape:cy="32"
     inkscape:cx="32"
     inkscape:zoom="12.90625"
     showgrid="false"
     id="namedview6"
     inkscape:window-height="991"
     inkscape:window-width="1754"
     inkscape:pageshadow="2"
     inkscape:pageopacity="0"
     guidetolerance="10"
     gridtolerance="10"
     objecttolerance="10"
     borderopacity="1"
     inkscape:document-rotation="0"
     bordercolor="#666666"
     pagecolor="#ffffff" />
  <defs
     id="defs830" />
  <metadata
     id="metadata833">
    <rdf:RDF>
      <cc:Work
         rdf:about="">
        <dc:format>image/svg+xml</dc:format>
        <dc:type
           rdf:resource="http://purl.org/dc/dcmitype/StillImage" />
        <dc:title />
      </cc:Work>
    </rdf:RDF>
  </metadata>
  <path
     inkscape:connector-curvature="0"
     d="m 44.966975,40.20739 c 0.23793,-1.96289 0.41637,-3.92579 0.41637,-5.94816 0,-2.02237 -0.17844,-3.98526 -0.41637,-5.94815 h 10.05239 c 0.47585,1.90341 0.77326,3.89604 0.77326,5.94815 0,2.05212 -0.29741,4.04475 -0.77326,5.94816 m -15.3165,16.53587 c 1.78444,-3.30123 3.15252,-6.87012 4.10422,-10.58772 h 8.77353 c -2.85511,4.90723 -7.40545,8.71405 -12.87775,10.58772 m -0.74352,-16.53587 h -13.91868 c -0.29741,-1.96289 -0.47586,-3.92579 -0.47586,-5.94816 0,-2.02237 0.17845,-4.015 0.47586,-5.94815 h 13.91868 c 0.26766,1.93315 0.47585,3.92578 0.47585,5.94815 0,2.02237 -0.20819,3.98527 -0.47585,5.94816 m -6.95934,17.7255 c -2.46849,-3.5689 -4.46112,-7.52442 -5.68049,-11.77735 h 11.36097 c -1.21937,4.25293 -3.212,8.20845 -5.68048,11.77735 M 20.103695,22.36292 h -8.68431 c 2.82538,-4.93696 7.40546,-8.74378 12.84802,-10.58771 -1.78445,3.30123 -3.12278,6.87012 -4.16371,10.58771 m -8.68431,23.79262 h 8.68431 c 1.04093,3.7176 2.37926,7.28649 4.16371,10.58772 -5.44256,-1.87367 -10.02264,-5.68049 -12.84802,-10.58772 m -2.43874,-5.94815 c -0.47585,-1.90341 -0.77326,-3.89604 -0.77326,-5.94816 0,-2.05211 0.29741,-4.04474 0.77326,-5.94815 h 10.05238 c -0.23793,1.96289 -0.41637,3.92578 -0.41637,5.94815 0,2.02237 0.17844,3.98527 0.41637,5.94816 m 12.96698,-29.65155 c 2.46848,3.56889 4.46111,7.55415 5.68048,11.80708 h -11.36097 c 1.21937,-4.25293 3.212,-8.23819 5.68049,-11.80708 m 20.58061,11.80708 h -8.77353 c -0.9517,-3.71759 -2.31978,-7.28648 -4.10422,-10.58771 5.4723,1.87367 10.02264,5.65075 12.87775,10.58771 M 32.000005,4.51846 c -16.44665,0 -29.74078,13.38335 -29.74078,29.74077 A 29.740774,29.740774 0 0 0 32.000005,64 29.740774,29.740774 0 0 0 61.740775,34.25923 29.740774,29.740774 0 0 0 32.000005,4.51846 Z"
     id="path2"
     style="fill:#ffffff;fill-opacity:1;stroke-width:2.97409" />
</svg>
