<?xml version="1.0" encoding="UTF-8" standalone="no"?>
<svg
   xmlns:dc="http://purl.org/dc/elements/1.1/"
   xmlns:cc="http://creativecommons.org/ns#"
   xmlns:rdf="http://www.w3.org/1999/02/22-rdf-syntax-ns#"
   xmlns:svg="http://www.w3.org/2000/svg"
   xmlns="http://www.w3.org/2000/svg"
   xmlns:sodipodi="http://sodipodi.sourceforge.net/DTD/sodipodi-0.dtd"
   xmlns:inkscape="http://www.inkscape.org/namespaces/inkscape"
   inkscape:version="1.0beta1 (fe3e306, 2019-09-17)"
   sodipodi:docname="icon-fa-edit.svg"
   id="svg4"
   version="1.1"
   viewBox="0 0 576 512"
   role="img"
   class="svg-inline--fa fa-edit fa-w-18"
   data-icon="edit"
   data-prefix="fas"
   focusable="false"
   aria-hidden="true">
  <metadata
     id="metadata10">
    <rdf:RDF>
      <cc:Work
         rdf:about="">
        <dc:format>image/svg+xml</dc:format>
        <dc:type
           rdf:resource="http://purl.org/dc/dcmitype/StillImage" />
        <dc:title></dc:title>
      </cc:Work>
    </rdf:RDF>
  </metadata>
  <defs
     id="defs8" />
  <sodipodi:namedview
     inkscape:current-layer="svg4"
     inkscape:window-maximized="0"
     inkscape:window-y="227"
     inkscape:window-x="696"
     inkscape:cy="495.96892"
     inkscape:cx="224.37783"
     inkscape:zoom="0.40972222"
     showgrid="false"
     id="namedview6"
     inkscape:window-height="656"
     inkscape:window-width="1136"
     inkscape:pageshadow="2"
     inkscape:pageopacity="0"
     guidetolerance="10"
     gridtolerance="10"
     objecttolerance="10"
     borderopacity="1"
     inkscape:document-rotation="0"
     bordercolor="#666666"
     pagecolor="#ffffff" />
  <path
     style="opacity:0.999;fill:#663300;fill-opacity:1;stroke-width:0.934213"
     inkscape:connector-curvature="0"
     id="path2"
     d="m 420.96865,87.270645 80.64491,88.049675 c 3.39745,3.70941 3.39745,9.76161 0,13.47102 l -195.26441,213.19347 -82.96949,10.05446 c -11.08644,1.36662 -20.47415,-8.88306 -19.22245,-20.98746 l 9.20889,-90.5877 195.26441,-213.193465 c 3.39746,-3.709411 8.94068,-3.709411 12.33814,0 z M 565.80763,64.916567 522.17712,17.27993 c -13.58983,-14.8376405 -35.67331,-14.8376405 -49.35255,0 l -31.65,34.556085 c -3.39745,3.70941 -3.39745,9.761606 0,13.471016 l 80.64492,88.049679 c 3.39746,3.70941 8.94068,3.70941 12.33814,0 l 31.65,-34.55609 c 13.58983,-14.93525 13.58983,-39.046412 0,-53.884053 z M 404.33898,344.00087 v 99.37315 H 118.23728 V 131.00263 h 205.45679 c 2.86102,0 5.54322,-1.26901 7.59958,-3.41656 l 35.76271,-39.046417 c 6.79491,-7.41882 1.96694,-20.011292 -7.59958,-20.011292 H 103.93221 c -23.692801,0 -42.915259,20.987453 -42.915259,46.855699 v 343.60853 c 0,25.86826 19.222458,46.85571 42.915259,46.85571 h 314.71186 c 23.69279,0 42.91526,-20.98745 42.91526,-46.85571 V 304.95445 c 0,-10.44492 -11.53348,-15.61857 -18.3284,-8.29737 l -35.76271,39.04643 c -1.96695,2.24517 -3.12924,5.17365 -3.12924,8.29736 z"
     fill="currentColor" />
</svg>
