<?xml version="1.0" encoding="UTF-8" standalone="no"?>
<svg
   xmlns:dc="http://purl.org/dc/elements/1.1/"
   xmlns:cc="http://creativecommons.org/ns#"
   xmlns:rdf="http://www.w3.org/1999/02/22-rdf-syntax-ns#"
   xmlns:svg="http://www.w3.org/2000/svg"
   xmlns="http://www.w3.org/2000/svg"
   xmlns:sodipodi="http://sodipodi.sourceforge.net/DTD/sodipodi-0.dtd"
   xmlns:inkscape="http://www.inkscape.org/namespaces/inkscape"
   sodipodi:docname="icon-add-litter.svg"
   inkscape:version="1.0beta1 (fe3e306, 2019-09-17)"
   width="64px"
   height="64px"
   viewBox="0 0 64 64"
   version="1.1"
   id="SVGRoot">
  <defs
     id="defs2059" />
  <sodipodi:namedview
     inkscape:grid-bbox="true"
     inkscape:window-maximized="1"
     inkscape:window-y="-9"
     inkscape:window-x="-9"
     inkscape:window-height="1001"
     inkscape:window-width="1920"
     showgrid="false"
     inkscape:document-rotation="0"
     inkscape:current-layer="layer1"
     inkscape:document-units="px"
     inkscape:cy="35.586239"
     inkscape:cx="50.526882"
     inkscape:zoom="7.9195959"
     inkscape:pageshadow="2"
     inkscape:pageopacity="0.0"
     borderopacity="1.0"
     bordercolor="#666666"
     pagecolor="#ffffff"
     id="base" />
  <metadata
     id="metadata2062">
    <rdf:RDF>
      <cc:Work
         rdf:about="">
        <dc:format>image/svg+xml</dc:format>
        <dc:type
           rdf:resource="http://purl.org/dc/dcmitype/StillImage" />
        <dc:title></dc:title>
      </cc:Work>
    </rdf:RDF>
  </metadata>
  <g
     id="layer1"
     inkscape:groupmode="layer"
     inkscape:label="Calque 1">
    <path
       inkscape:connector-curvature="0"
       style="overflow:hidden;fill:#663300;fill-opacity:1;stroke-width:0.0593464"
       d="m 60.709675,33.565424 c 0.484863,0.513937 0.977438,0.977438 1.402357,1.497314 0.808894,0.989298 0.775655,2.157834 -0.04037,3.147729 -0.788709,0.956664 -2.096705,1.235586 -3.163161,0.64687 C 58.637877,38.707787 58.395748,38.491766 58.17498,38.271595 51.353111,31.464561 44.533619,24.65457 37.718286,17.840412 36.715924,16.83806 36.571121,15.48555 37.328967,14.478442 c 0.808894,-1.074763 2.23499,-1.424314 3.363162,-0.731738 0.505628,0.310381 0.895535,0.809483 1.339447,1.221348 0.145996,0.135311 0.297327,0.265868 0.420172,0.375072 5.017141,-3.754254 10.206981,-4.202315 15.773079,-0.954296 0.447473,-0.494355 0.887227,-1.038557 1.386925,-1.521043 1.001765,-0.966753 2.48305,-0.940645 3.459304,0.02378 1.048646,1.035593 1.099089,2.511535 0.09258,3.561374 -0.466466,0.486048 -0.983368,0.924021 -1.480696,1.386925 3.188092,5.500223 2.871184,10.700741 -0.97328,15.725601 z m -3.980354,8.279416 c 0.133522,0.134118 0.134118,0.351324 5.79e-4,0.485451 l -0.0061,0.0061 c -6.59041,6.59456 -13.183793,13.186758 -19.770648,19.785473 -1.38989,1.392269 -3.039122,1.944787 -4.921596,1.363187 C 31.290369,63.255933 30.556252,62.769886 29.998988,62.21856 24.571763,56.850087 19.17599,51.448971 13.784962,46.043706 11.76244,44.01584 11.719716,41.271668 13.738712,39.243207 20.395004,32.555465 27.083333,25.898585 33.7604,19.231608 l 0.0026,-0.0026 c 0.132345,-0.131162 0.348963,-0.123442 0.480116,0.0089 7.504348,7.544702 14.989704,15.069816 22.486341,22.606808 z M 33.333199,29.657463 c -0.463494,-0.463493 -1.214821,-0.463493 -1.678314,0 l -11.670466,11.66987 c -0.463494,0.463502 -0.463494,1.214821 0,1.67891 0.232039,0.232049 0.535306,0.347771 0.83916,0.347771 0.303846,0 0.6077,-0.115722 0.839153,-0.347771 L 33.333199,31.335785 c 0.463492,-0.463502 0.463492,-1.214821 0,-1.678322 z"
       id="path2" />
    <g
       id="g4"
       transform="matrix(-0.09386477,0,0,0.09386477,28.787751,0.25418059)"
       style="fill:#663300;fill-opacity:1">
      <path
         inkscape:connector-curvature="0"
         id="path2-4"
         d="M 150.648,0 C 67.584,0 0,67.584 0,150.648 c 0,83.07 67.584,150.647 150.648,150.647 83.07,0 150.648,-67.577 150.648,-150.647 C 301.296,67.584 233.718,0 150.648,0 Z m 78.04212,172.46724 h -56.2589 v 56.21335 c 0,3.387 -18.38122,6.14976 -21.78322,6.14976 -3.393,0 -21.16946,-2.82523 -21.81174,-6.14976 V 172.46724 H 72.622904 c -3.396,0 -6.149759,-18.42024 -6.149759,-21.81824 0,-3.393 2.753759,-21.82227 6.149759,-21.82227 H 128.83626 V 72.613375 c 0,-3.393 18.41974,-6.149759 21.81274,-6.149759 3.402,0 21.13673,2.819742 21.78222,6.149759 v 56.213355 h 56.2589 c 3.398,0 6.14976,18.42227 6.14976,21.81427 0,3.394 -2.81235,21.18213 -6.14976,21.82624 z"
         sodipodi:nodetypes="sssssscssscssscssscsss"
         style="fill:#663300;fill-opacity:1" />
    </g>
  </g>
</svg>
