<?xml version="1.0" encoding="UTF-8" standalone="no"?>
<svg
   xmlns:dc="http://purl.org/dc/elements/1.1/"
   xmlns:cc="http://creativecommons.org/ns#"
   xmlns:rdf="http://www.w3.org/1999/02/22-rdf-syntax-ns#"
   xmlns:svg="http://www.w3.org/2000/svg"
   xmlns="http://www.w3.org/2000/svg"
   xmlns:sodipodi="http://sodipodi.sourceforge.net/DTD/sodipodi-0.dtd"
   xmlns:inkscape="http://www.inkscape.org/namespaces/inkscape"
   inkscape:version="1.0beta1 (fe3e306, 2019-09-17)"
   sodipodi:docname="icon-unfreeze.svg"
   id="SVGRoot"
   version="1.1"
   viewBox="0 0 64 64"
   height="64px"
   width="64px">
  <sodipodi:namedview
     inkscape:current-layer="SVGRoot"
     inkscape:window-maximized="1"
     inkscape:window-y="-9"
     inkscape:window-x="-9"
     inkscape:cy="57.2355"
     inkscape:cx="-6.9949886"
     inkscape:zoom="4.5630485"
     showgrid="false"
     id="namedview6"
     inkscape:window-height="1001"
     inkscape:window-width="1920"
     inkscape:pageshadow="2"
     inkscape:pageopacity="0"
     guidetolerance="10"
     gridtolerance="10"
     objecttolerance="10"
     borderopacity="1"
     inkscape:document-rotation="0"
     bordercolor="#666666"
     pagecolor="#ffffff" />
  <defs
     id="defs830" />
  <metadata
     id="metadata833">
    <rdf:RDF>
      <cc:Work
         rdf:about="">
        <dc:format>image/svg+xml</dc:format>
        <dc:type
           rdf:resource="http://purl.org/dc/dcmitype/StillImage" />
        <dc:title></dc:title>
      </cc:Work>
    </rdf:RDF>
  </metadata>
  <path
     inkscape:connector-curvature="0"
     style="fill:#b1000c;fill-opacity:1;stroke-width:0.0511614"
     id="path2"
     d="m 22.515974,18.172551 -2.005529,-1.176717 1.744605,-0.475801 c 0.429758,-0.117669 0.685566,-0.567895 0.567895,-1.002761 L 22.613182,14.724268 C 22.500633,14.28939 22.055524,14.028469 21.625767,14.146143 l -4.077567,1.110201 -3.67339,-2.159011 3.678506,-2.159016 4.077566,1.110202 c 0.429758,0.117668 0.869745,-0.143248 0.987414,-0.578121 L 22.82806,10.677395 C 22.940609,10.242523 22.689923,9.7922992 22.260171,9.6746284 L 20.515561,9.1988278 22.521094,8.0221163 C 22.904802,7.7970019 23.037823,7.2956236 22.817829,6.9016796 L 22.41365,6.1905383 C 22.193656,5.7965944 21.697392,5.6635734 21.31368,5.8886827 l -2.005527,1.1767159 0.46557,-1.7753029 C 19.886276,4.8552186 19.635586,4.4050046 19.205828,4.2873295 L 18.428177,4.0775663 C 17.998424,3.9598963 17.558432,4.220819 17.440761,4.6556915 L 16.351022,8.7997686 12.672511,10.95878 V 6.635637 l 2.982717,-3.0338665 c 0.312081,-0.3172076 0.312081,-0.8390525 0,-1.1562546 l -0.567895,-0.578125 c -0.312082,-0.3171974 -0.823695,-0.3171974 -1.135788,0 L 12.677631,3.1668928 V 0.81858058 C 12.677631,0.36836172 12.319499,0 11.874392,0 H 11.071157 C 10.626055,0 10.267923,0.36836172 10.267923,0.81858058 V 3.1771241 L 8.9940032,1.8776267 c -0.312082,-0.3172022 -0.8236954,-0.3172022 -1.1357822,0 L 7.2698647,2.4557515 c -0.3120867,0.3171974 -0.3120867,0.8390426 0,1.1562498 L 10.252576,6.6458725 V 10.969016 L 6.5740699,8.8099993 5.4843265,4.6659221 C 5.3717724,4.2310499 4.9266732,3.9701275 4.496912,4.0878024 L 3.7192588,4.2975653 C 3.2895025,4.4152348 3.0337,4.8654542 3.1513708,5.3003269 L 3.6169347,7.07563 1.6114075,5.8989135 C 1.2276947,5.6738089 0.73654709,5.8068256 0.51143784,6.2007694 l -0.404175,0.7111415 c -0.2199937,0.3939438 -0.0920967,0.8902113 0.29673531,1.1204413 L 2.4095264,9.2090638 0.66492103,9.6746284 C 0.2351647,9.7922974 -0.02064264,10.242523 0.09703177,10.677395 l 0.20975899,0.793003 c 0.11254916,0.434873 0.55766303,0.695795 0.98741454,0.578121 L 5.3717724,10.938317 9.0502838,13.097335 5.3717724,15.256344 1.2942053,14.146143 C 0.86445379,14.028474 0.42446031,14.28939 0.30679076,14.724268 l -0.20975899,0.793004 c -0.11254917,0.434866 0.13813293,0.885091 0.56788926,1.002761 l 1.74460537,0.475801 -2.00552825,1.176717 c -0.38371283,0.225109 -0.51672901,0.726487 -0.29673531,1.120431 l 0.404175,0.711141 c 0.21999371,0.393944 0.71625686,0.52697 1.09996966,0.301856 l 2.0055272,-1.176716 -0.4655639,1.775302 c -0.1125492,0.434878 0.1381317,0.885097 0.567888,1.002768 l 0.7776532,0.209762 c 0.4297612,0.117668 0.8697437,-0.143252 0.9874145,-0.578125 l 1.0897434,-4.144077 3.6785061,-2.159011 v 4.323143 l -2.9827113,3.033871 c -0.3120867,0.317202 -0.3120867,0.839047 0,1.156249 L 7.837754,24.32727 c 0.3120868,0.317198 0.8237015,0.317198 1.1357882,0 l 1.2739188,-1.299501 v 2.348311 c 0,0.45022 0.358127,0.818581 0.803234,0.818581 h 0.803234 c 0.445109,0 0.803235,-0.368361 0.803235,-0.818581 v -2.358543 l 1.27392,1.299497 c 0.312082,0.317202 0.823701,0.317202 1.135787,0 l 0.567889,-0.578125 c 0.312087,-0.317197 0.312087,-0.839041 0,-1.156249 L 12.652048,19.548793 V 15.22565 l 3.678512,2.159012 1.089733,4.144078 c 0.11255,0.434871 0.557659,0.695793 0.987421,0.578124 l 0.777652,-0.209767 c 0.429757,-0.117669 0.685564,-0.567886 0.567889,-1.002762 l -0.465564,-1.775304 2.005528,1.176717 c 0.383708,0.225104 0.874859,0.09209 1.099968,-0.301856 l 0.404175,-0.711142 c 0.235345,-0.383713 0.107442,-0.885091 -0.281388,-1.110199 z"
     fill="currentColor" />
  <g
     style="fill:#b1000c;fill-opacity:1"
     transform="matrix(0.60990991,0,0,0.60990991,10.330957,2.5964177)"
     id="g4">
    <path
       style="fill:#b1000c;fill-opacity:1"
       d="M 50,0 C 50,0 13.086,42.309 13.086,63.085 13.086,85.84 32.052,100 50,100 69.033,100 86.914,85.092 86.914,63.085 86.914,42.309 50,0 50,0 Z M 75.516,69.342 C 73.463,80.997 63.328,86.106 55.223,86.106 54.565,86.102 78.405,75.81 69.217,45.023 c 4.842,5.461 7.888,15.297 6.299,24.319 z"
       id="path2-9"
       inkscape:connector-curvature="0" />
  </g>
</svg>
