<?xml version="1.0" encoding="UTF-8" standalone="no"?>
<svg
   xmlns:dc="http://purl.org/dc/elements/1.1/"
   xmlns:cc="http://creativecommons.org/ns#"
   xmlns:rdf="http://www.w3.org/1999/02/22-rdf-syntax-ns#"
   xmlns:svg="http://www.w3.org/2000/svg"
   xmlns="http://www.w3.org/2000/svg"
   xmlns:sodipodi="http://sodipodi.sourceforge.net/DTD/sodipodi-0.dtd"
   xmlns:inkscape="http://www.inkscape.org/namespaces/inkscape"
   width="64px"
   height="64px"
   viewBox="0 0 64 64"
   version="1.1"
   id="SVGRoot"
   sodipodi:docname="icon-rattery.svg"
   inkscape:version="1.0beta1 (fe3e306, 2019-09-17)"
   inkscape:export-filename="C:\Users\nbertin\Documents\Personnel\Rats\LORD\CakeLORD\docs\cdc\icon-backoffice.png"
   inkscape:export-xdpi="96"
   inkscape:export-ydpi="96">
  <sodipodi:namedview
     pagecolor="#ffffff"
     bordercolor="#666666"
     inkscape:document-rotation="0"
     borderopacity="1"
     objecttolerance="10"
     gridtolerance="10"
     guidetolerance="10"
     inkscape:pageopacity="0"
     inkscape:pageshadow="2"
     inkscape:window-width="1371"
     inkscape:window-height="785"
     id="namedview39"
     showgrid="false"
     inkscape:zoom="3.6875"
     inkscape:cx="29.689517"
     inkscape:cy="5.5307619"
     inkscape:window-x="64"
     inkscape:window-y="39"
     inkscape:window-maximized="0"
     inkscape:current-layer="SVGRoot" />
  <defs
     id="defs830">
    <filter
       height="1.0099308"
       y="-0.0049654186"
       width="1.0099308"
       x="-0.0049654186"
       id="filter901"
       style="color-interpolation-filters:sRGB">
      <feGaussianBlur
         id="feGaussianBlur903"
         stdDeviation="0.95998094" />
    </filter>
    <filter
       height="1.0096002"
       y="-0.0048000949"
       width="1.0095998"
       x="-0.0047999051"
       id="filter905"
       style="color-interpolation-filters:sRGB">
      <feGaussianBlur
         id="feGaussianBlur907"
         stdDeviation="0.12254071" />
    </filter>
    <filter
       height="1.0179996"
       y="-0.0089998216"
       width="1.0179996"
       x="-0.0089998216"
       id="filter909"
       style="color-interpolation-filters:sRGB">
      <feGaussianBlur
         id="feGaussianBlur911"
         stdDeviation="0.12254071" />
    </filter>
    <filter
       height="1.0719986"
       y="-0.035999285"
       width="1.0719986"
       x="-0.03599929"
       id="filter913"
       style="color-interpolation-filters:sRGB">
      <feGaussianBlur
         id="feGaussianBlur915"
         stdDeviation="0.12254071" />
    </filter>
    <filter
       height="1.041142"
       y="-0.02057102"
       width="1.041142"
       x="-0.020571022"
       id="filter917"
       style="color-interpolation-filters:sRGB">
      <feGaussianBlur
         id="feGaussianBlur919"
         stdDeviation="0.12254071" />
    </filter>
    <filter
       height="1.0151576"
       y="-0.0075787971"
       width="1.0151576"
       x="-0.0075787967"
       id="filter921"
       style="color-interpolation-filters:sRGB">
      <feGaussianBlur
         id="feGaussianBlur923"
         stdDeviation="0.12254071" />
    </filter>
  </defs>
  <metadata
     id="metadata833">
    <rdf:RDF>
      <cc:Work
         rdf:about="">
        <dc:format>image/svg+xml</dc:format>
        <dc:type
           rdf:resource="http://purl.org/dc/dcmitype/StillImage" />
        <dc:title></dc:title>
      </cc:Work>
    </rdf:RDF>
  </metadata>
  <g
     transform="matrix(1.0280568,0,0,1.0280568,-0.89332197,-0.8978176)"
     data-name="Layer 25"
     id="g4">
    <path
       style="fill:#663300;fill-opacity:1"
       sodipodi:nodetypes="cccccccccccccccccccsssssssssssssssssccsssssssssssssssssscssccc"
       d="M 58.43,33.84 54.44,20 C 53.776553,16.969093 51.102594,14.801691 48,14.78 H 43.894582 V 10.72 C 43.889075,6.9722701 38.906894,3.9355073 35.159164,3.93 h -6.268328 c -3.74773,0.00551 -8.729911,3.0422701 -8.735418,6.79 v 4.06 H 16 c -3.082577,0.0021 -5.754465,2.134617 -6.44,5.14 l -4,13.92 c -3.42,1 -3.41,6.18 0,7.17 l 4,13.84 c 0.666806,3.028834 3.338739,5.194593 6.44,5.22 h 32 c 3.084257,-0.0069 5.755133,-2.142734 6.44,-5.15 l 4,-13.91 C 61.85,40 61.84,34.83 58.43,33.84 Z M 33,21.71 v 7.15 c 0,1.333333 -2,1.333333 -2,0 v -7.15 c 0,-1.333333 2,-1.333333 2,0 z m -14.52,0 c 0,-1.333333 2,-1.333333 2,0 v 7.15 c 0,1.333333 -2,1.333333 -2,0 z m 25,0 c 0,-1.333333 2,-1.333333 2,0 v 7.15 c 0,1.333333 -2,1.333333 -2,0 z M 25.355418,11.443743 c 0,-0.98859 1.57986,-2.373743 2.56845,-2.373743 h 8.162973 c 0.984682,0.0055 2.557757,0.9026907 2.557741,1.887388 0,0 -0.149401,3.435275 -1.45082,3.426934 -3.345657,-0.02144 -6.241939,0.01485 -10.618336,0 -1.0612,-0.0036 -1.220008,-2.940579 -1.220008,-2.940579 z M 20.48,53.64 c 0,1.333333 -2,1.333333 -2,0 v -7.15 c 0,-1.333333 2,-1.333333 2,0 z m 12.52,0 c 0,1.333333 -2,1.333333 -2,0 v -7.15 c 0,-1.333333 2,-1.333333 2,0 z m 12.52,0 c 0,1.333333 -2,1.333333 -2,0 v -7.15 c 0,-1.333333 2,-1.333333 2,0 z M 59,37.54 c 0,0.91127 -0.73873,1.65 -1.65,1.65 H 6.65 c -2.19,0 -2.21,-3.51 0,-3.53 h 50.7 c 0.999893,0.01074 1.769099,0.887168 1.65,1.88 z"
       id="path2"
       inkscape:connector-curvature="0" />
  </g>
</svg>
