<?xml version="1.0" encoding="UTF-8" standalone="no"?>
<svg
   xmlns:osb="http://www.openswatchbook.org/uri/2009/osb"
   xmlns:dc="http://purl.org/dc/elements/1.1/"
   xmlns:cc="http://creativecommons.org/ns#"
   xmlns:rdf="http://www.w3.org/1999/02/22-rdf-syntax-ns#"
   xmlns:svg="http://www.w3.org/2000/svg"
   xmlns="http://www.w3.org/2000/svg"
   xmlns:sodipodi="http://sodipodi.sourceforge.net/DTD/sodipodi-0.dtd"
   xmlns:inkscape="http://www.inkscape.org/namespaces/inkscape"
   id="SVGRoot"
   version="1.1"
   viewBox="0 0 64 64"
   height="64px"
   width="64px"
   inkscape:version="1.0beta1 (fe3e306, 2019-09-17)"
   sodipodi:docname="icon-add-rat.svg">
  <defs
     id="defs842">
    <linearGradient
       id="linearGradient1474"
       osb:paint="solid">
      <stop
         style="stop-color:#ffffff;stop-opacity:1;"
         offset="0"
         id="stop1472" />
    </linearGradient>
  </defs>
  <sodipodi:namedview
     id="base"
     pagecolor="#ffffff"
     bordercolor="#666666"
     borderopacity="1.0"
     inkscape:pageopacity="0.0"
     inkscape:pageshadow="2"
     inkscape:zoom="7.9195959"
     inkscape:cx="32.488764"
     inkscape:cy="39.126454"
     inkscape:document-units="px"
     inkscape:current-layer="layer1"
     inkscape:document-rotation="0"
     showgrid="false"
     inkscape:window-width="1920"
     inkscape:window-height="1001"
     inkscape:window-x="-9"
     inkscape:window-y="-9"
     inkscape:window-maximized="1"
     inkscape:grid-bbox="true">
    <inkscape:grid
       type="xygrid"
       id="grid1478" />
  </sodipodi:namedview>
  <metadata
     id="metadata845">
    <rdf:RDF>
      <cc:Work
         rdf:about="">
        <dc:format>image/svg+xml</dc:format>
        <dc:type
           rdf:resource="http://purl.org/dc/dcmitype/StillImage" />
        <dc:title />
      </cc:Work>
    </rdf:RDF>
  </metadata>
  <g
     inkscape:label="Calque 1"
     inkscape:groupmode="layer"
     id="layer1">
    <g
       id="g4"
       transform="matrix(-0.09386477,0,0,0.09386477,29.54492,1.2186949)"
       style="fill:#663300;fill-opacity:1">
      <path
         inkscape:connector-curvature="0"
         id="path2"
         d="M 150.648,0 C 67.584,0 0,67.584 0,150.648 c 0,83.07 67.584,150.647 150.648,150.647 83.07,0 150.648,-67.577 150.648,-150.647 C 301.296,67.584 233.718,0 150.648,0 Z m 78.04212,172.46724 h -56.2589 v 56.21335 c 0,3.387 -18.38122,6.14976 -21.78322,6.14976 -3.393,0 -21.16946,-2.82523 -21.81174,-6.14976 V 172.46724 H 72.622904 c -3.396,0 -6.149759,-18.42024 -6.149759,-21.81824 0,-3.393 2.753759,-21.82227 6.149759,-21.82227 H 128.83626 V 72.613375 c 0,-3.393 18.41974,-6.149759 21.81274,-6.149759 3.402,0 21.13673,2.819742 21.78222,6.149759 v 56.213355 h 56.2589 c 3.398,0 6.14976,18.42227 6.14976,21.81427 0,3.394 -2.81235,21.18213 -6.14976,21.82624 z"
         sodipodi:nodetypes="sssssscssscssscssscsss"
         style="fill:#663300;fill-opacity:1" />
    </g>
    <path
       sodipodi:nodetypes="sscssssssssscssssscscsscssssssssssss"
       inkscape:connector-curvature="0"
       id="path837"
       d="m 50.248656,62.920119 c -4.636029,-3.696171 -5.747876,-4.195814 -7.513249,-3.376311 -1.090104,0.506037 -1.444633,1.252582 -1.445678,3.044226 -4.78e-4,0.718053 -0.05198,1.177798 -0.142206,1.268025 -0.178514,0.178514 -11.825912,0.196863 -13.937032,0.02196 -6.18535,-0.51246 -9.706044,-3.482165 -11.465015,-9.670734 -0.689299,-2.425162 -0.195398,-5.728933 1.215549,-8.130941 1.705224,-2.902989 3.437748,-4.335498 9.347722,-7.728996 6.683297,-3.837544 7.921632,-5.01774 6.62521,-6.314166 -1.12031,-1.120314 -2.072499,-0.866031 -8.15881,2.178817 -3.827796,1.914965 -4.15986,2.030731 -4.388094,1.529811 -0.205711,-0.451491 3.316338,-2.794868 7.965752,-5.299973 3.81709,-2.056649 7.450687,-0.819591 7.441402,2.533423 -0.0057,2.084226 -1.242594,3.149308 -9.308527,8.015982 -6.548791,3.951289 -8.197895,6.013468 -8.197895,10.251339 0,5.025784 2.632851,7.902319 7.855424,8.582473 1.868998,0.243406 1.968738,0.221524 1.784875,-0.391583 -1.811026,-6.039048 1.27946,-11.284396 11.355745,-19.273613 3.066158,-2.431076 3.157535,-2.48858 3.430999,-2.159078 0.388014,0.46753 2.431126,1.579999 2.901757,1.579999 0.03307,0 -0.308095,-0.394298 -0.758154,-0.876218 -1.856144,-1.98755 -2.445974,-4.331622 -1.738447,-6.908859 0.340207,-1.239229 0.635496,-1.383893 2.066316,-1.012288 0.354228,0.092 1.068687,0.250696 1.587691,0.352669 0.519002,0.101969 1.152491,0.23564 1.407745,0.297041 0.426377,0.102568 0.530158,0.07306 1.276681,-0.36293 3.294803,-1.924276 8.360871,-2.86078 12.029443,-2.223744 2.542013,0.441414 2.833396,0.775325 2.270525,2.60195 -0.893936,2.900996 -1.907635,4.639271 -4.708118,8.073401 -3.980983,4.881733 -5.31169,7.890549 -6.364522,14.390595 -0.52192,3.222276 -0.591678,4.055092 -0.58787,7.018365 0.0048,3.662032 0.108595,3.550269 -1.849219,1.989361 z m 5.859526,-29.109508 c 0.55264,-0.336985 0.750987,-0.693986 0.750987,-1.351688 0,-1.606116 -2.284737,-2.070815 -2.90325,-0.590499 -0.580636,1.389663 0.886776,2.713847 2.152263,1.942187 z"
       style="display:inline;fill:#663300;fill-opacity:1;stroke-width:0.117955" />
  </g>
</svg>
