<?xml version="1.0" encoding="UTF-8" standalone="no"?>
<svg
   xmlns:dc="http://purl.org/dc/elements/1.1/"
   xmlns:cc="http://creativecommons.org/ns#"
   xmlns:rdf="http://www.w3.org/1999/02/22-rdf-syntax-ns#"
   xmlns:svg="http://www.w3.org/2000/svg"
   xmlns="http://www.w3.org/2000/svg"
   xmlns:sodipodi="http://sodipodi.sourceforge.net/DTD/sodipodi-0.dtd"
   xmlns:inkscape="http://www.inkscape.org/namespaces/inkscape"
   inkscape:export-ydpi="96"
   inkscape:export-xdpi="96"
   inkscape:export-filename="C:\Users\nbertin\Documents\Personnel\Rats\LORD\CakeLORD\docs\cdc\icon-backoffice.png"
   inkscape:version="1.0beta1 (fe3e306, 2019-09-17)"
   sodipodi:docname="icon-add-rattery.svg"
   id="SVGRoot"
   version="1.1"
   viewBox="0 0 64 64"
   height="64px"
   width="64px">
  <sodipodi:namedview
     inkscape:current-layer="SVGRoot"
     inkscape:window-maximized="1"
     inkscape:window-y="-9"
     inkscape:window-x="-9"
     inkscape:cy="42.740482"
     inkscape:cx="-12.097214"
     inkscape:zoom="7.375"
     showgrid="false"
     id="namedview39"
     inkscape:window-height="1001"
     inkscape:window-width="1920"
     inkscape:pageshadow="2"
     inkscape:pageopacity="0"
     guidetolerance="10"
     gridtolerance="10"
     objecttolerance="10"
     borderopacity="1"
     inkscape:document-rotation="0"
     bordercolor="#666666"
     pagecolor="#ffffff" />
  <defs
     id="defs830">
    <filter
       style="color-interpolation-filters:sRGB"
       id="filter901"
       x="-0.0049654186"
       width="1.0099308"
       y="-0.0049654186"
       height="1.0099308">
      <feGaussianBlur
         stdDeviation="0.95998094"
         id="feGaussianBlur903" />
    </filter>
    <filter
       style="color-interpolation-filters:sRGB"
       id="filter905"
       x="-0.0047999051"
       width="1.0095998"
       y="-0.0048000949"
       height="1.0096002">
      <feGaussianBlur
         stdDeviation="0.12254071"
         id="feGaussianBlur907" />
    </filter>
    <filter
       style="color-interpolation-filters:sRGB"
       id="filter909"
       x="-0.0089998216"
       width="1.0179996"
       y="-0.0089998216"
       height="1.0179996">
      <feGaussianBlur
         stdDeviation="0.12254071"
         id="feGaussianBlur911" />
    </filter>
    <filter
       style="color-interpolation-filters:sRGB"
       id="filter913"
       x="-0.03599929"
       width="1.0719986"
       y="-0.035999285"
       height="1.0719986">
      <feGaussianBlur
         stdDeviation="0.12254071"
         id="feGaussianBlur915" />
    </filter>
    <filter
       style="color-interpolation-filters:sRGB"
       id="filter917"
       x="-0.020571022"
       width="1.041142"
       y="-0.02057102"
       height="1.041142">
      <feGaussianBlur
         stdDeviation="0.12254071"
         id="feGaussianBlur919" />
    </filter>
    <filter
       style="color-interpolation-filters:sRGB"
       id="filter921"
       x="-0.0075787967"
       width="1.0151576"
       y="-0.0075787971"
       height="1.0151576">
      <feGaussianBlur
         stdDeviation="0.12254071"
         id="feGaussianBlur923" />
    </filter>
  </defs>
  <metadata
     id="metadata833">
    <rdf:RDF>
      <cc:Work
         rdf:about="">
        <dc:format>image/svg+xml</dc:format>
        <dc:type
           rdf:resource="http://purl.org/dc/dcmitype/StillImage" />
        <dc:title></dc:title>
      </cc:Work>
    </rdf:RDF>
  </metadata>
  <path
     style="display:inline;opacity:1;fill:#663300;fill-opacity:1;stroke-width:0.831959;stop-opacity:1"
     sodipodi:nodetypes="cccccccccccccccccccsssssssssssssssssccsssssssssssssssssscssccc"
     d="M 61.868119,42.177774 58.548612,30.663492 C 57.996652,28.14191 55.772034,26.338724 53.190809,26.320678 H 49.77528 v -3.377744 c -0.0046,-3.117949 -4.149542,-5.644404 -7.26749,-5.648986 h -5.214979 c -3.117949,0.0046 -7.262908,2.531037 -7.26749,5.648986 v 3.377744 h -3.457128 c -2.56457,0.0017 -4.787466,1.77591 -5.3578,4.276259 l -3.327828,11.580837 c -2.845292,0.831957 -2.836973,5.141494 0,5.965131 l 3.327828,11.514281 c 0.554753,2.519858 2.777685,4.321677 5.3578,4.342814 h 26.622616 c 2.56597,-0.0058 4.788023,-1.782661 5.357803,-4.284576 l 3.327826,-11.572519 c 2.836972,-0.840277 2.828653,-5.141494 -0.0084,-5.965131 z M 40.711457,32.08614 v 5.94849 c 0,1.109276 -1.663913,1.109276 -1.663913,0 v -5.94849 c 0,-1.109278 1.663913,-1.109278 1.663913,0 z m -12.080011,0 c 0,-1.109278 1.663914,-1.109278 1.663914,0 v 5.94849 c 0,1.109276 -1.663914,1.109276 -1.663914,0 z m 20.798919,0 c 0,-1.109278 1.663913,-1.109278 1.663913,0 v 5.94849 c 0,1.109276 -1.663913,1.109276 -1.663913,0 z M 34.351497,23.545057 c 0,-0.822465 1.314374,-1.974851 2.136837,-1.974851 h 6.791243 c 0.819212,0.0046 2.127943,0.750999 2.127929,1.570225 0,0 -0.124295,2.857999 -1.207018,2.85106 -2.783443,-0.01783 -5.193024,0.01235 -8.833997,0 -0.882872,-0.0029 -1.014994,-2.446434 -1.014994,-2.446434 z m -4.056137,35.10546 c 0,1.109276 -1.663914,1.109276 -1.663914,0 v -5.948491 c 0,-1.109274 1.663914,-1.109274 1.663914,0 z m 10.416097,0 c 0,1.109276 -1.663913,1.109276 -1.663913,0 v -5.948491 c 0,-1.109274 1.663913,-1.109274 1.663913,0 z m 10.4161,0 c 0,1.109276 -1.663914,1.109276 -1.663914,0 v -5.948491 c 0,-1.109274 1.663914,-1.109274 1.663914,0 z M 62.342334,45.256014 c 0,0.758138 -0.614592,1.372728 -1.372728,1.372728 H 18.789398 c -1.821985,0 -1.838626,-2.920168 0,-2.936806 h 42.180208 c 0.831868,0.0091 1.471814,0.738084 1.372728,1.564078 z"
     id="path2"
     inkscape:connector-curvature="0" />
  <g
     id="g4"
     transform="matrix(-0.09386477,0,0,0.09386477,28.28108,0)"
     style="fill:#663300;fill-opacity:1">
    <path
       inkscape:connector-curvature="0"
       id="path2-2"
       d="M 150.648,0 C 67.584,0 0,67.584 0,150.648 c 0,83.07 67.584,150.647 150.648,150.647 83.07,0 150.648,-67.577 150.648,-150.647 C 301.296,67.584 233.718,0 150.648,0 Z m 78.04212,172.46724 h -56.2589 v 56.21335 c 0,3.387 -18.38122,6.14976 -21.78322,6.14976 -3.393,0 -21.16946,-2.82523 -21.81174,-6.14976 V 172.46724 H 72.622904 c -3.396,0 -6.149759,-18.42024 -6.149759,-21.81824 0,-3.393 2.753759,-21.82227 6.149759,-21.82227 H 128.83626 V 72.613375 c 0,-3.393 18.41974,-6.149759 21.81274,-6.149759 3.402,0 21.13673,2.819742 21.78222,6.149759 v 56.213355 h 56.2589 c 3.398,0 6.14976,18.42227 6.14976,21.81427 0,3.394 -2.81235,21.18213 -6.14976,21.82624 z"
       sodipodi:nodetypes="sssssscssscssscssscsss"
       style="fill:#663300;fill-opacity:1" />
  </g>
</svg>
