<?xml version="1.0" encoding="UTF-8" standalone="no"?>
<svg
   xmlns:dc="http://purl.org/dc/elements/1.1/"
   xmlns:cc="http://creativecommons.org/ns#"
   xmlns:rdf="http://www.w3.org/1999/02/22-rdf-syntax-ns#"
   xmlns:svg="http://www.w3.org/2000/svg"
   xmlns="http://www.w3.org/2000/svg"
   xmlns:sodipodi="http://sodipodi.sourceforge.net/DTD/sodipodi-0.dtd"
   xmlns:inkscape="http://www.inkscape.org/namespaces/inkscape"
   inkscape:version="1.0beta1 (fe3e306, 2019-09-17)"
   sodipodi:docname="icon-logout.svg"
   id="svg4"
   viewBox="0 0 24 24"
   height="24"
   width="24"
   version="1.1">
  <metadata
     id="metadata10">
    <rdf:RDF>
      <cc:Work
         rdf:about="">
        <dc:format>image/svg+xml</dc:format>
        <dc:type
           rdf:resource="http://purl.org/dc/dcmitype/StillImage" />
        <dc:title></dc:title>
      </cc:Work>
    </rdf:RDF>
  </metadata>
  <defs
     id="defs8" />
  <sodipodi:namedview
     inkscape:current-layer="svg4"
     inkscape:window-maximized="0"
     inkscape:window-y="0"
     inkscape:window-x="0"
     inkscape:cy="12"
     inkscape:cx="12"
     inkscape:zoom="9.8333333"
     showgrid="false"
     id="namedview6"
     inkscape:window-height="480"
     inkscape:window-width="944"
     inkscape:pageshadow="2"
     inkscape:pageopacity="0"
     guidetolerance="10"
     gridtolerance="10"
     objecttolerance="10"
     borderopacity="1"
     inkscape:document-rotation="0"
     bordercolor="#666666"
     pagecolor="#ffffff" />
  <path
     inkscape:connector-curvature="0"
     style="fill:#ffffff;fill-opacity:1"
     id="path2"
     d="m 13.978305,17.18322 2.59,-2.59 H 6.8983051 v -2 h 9.6699999 l -2.59,-2.59 1.42,-1.4099997 5,4.9999997 -5,5 -1.42,-1.41 m 4.92,-12.5899997 a 2,2 0 0 1 2,2 V 11.26322 l -2,-1.9999997 v -2.67 H 4.8983051 V 20.59322 H 18.898305 v -2.67 l 2,-2 v 4.67 a 2,2 0 0 1 -2,2 H 4.8983051 c -1.11,0 -2,-0.9 -2,-2 V 6.5932203 c 0,-1.11 0.89,-2 2,-2 z" />
</svg>
