<?xml version="1.0" encoding="UTF-8" standalone="no"?>
<svg
   xmlns:osb="http://www.openswatchbook.org/uri/2009/osb"
   xmlns:dc="http://purl.org/dc/elements/1.1/"
   xmlns:cc="http://creativecommons.org/ns#"
   xmlns:rdf="http://www.w3.org/1999/02/22-rdf-syntax-ns#"
   xmlns:svg="http://www.w3.org/2000/svg"
   xmlns="http://www.w3.org/2000/svg"
   xmlns:sodipodi="http://sodipodi.sourceforge.net/DTD/sodipodi-0.dtd"
   xmlns:inkscape="http://www.inkscape.org/namespaces/inkscape"
   sodipodi:docname="icon-attach-rat.svg"
   inkscape:version="1.0beta1 (fe3e306, 2019-09-17)"
   width="64px"
   height="64px"
   viewBox="0 0 64 64"
   version="1.1"
   id="SVGRoot">
  <defs
     id="defs842">
    <linearGradient
       osb:paint="solid"
       id="linearGradient1474">
      <stop
         id="stop1472"
         offset="0"
         style="stop-color:#ffffff;stop-opacity:1;" />
    </linearGradient>
  </defs>
  <sodipodi:namedview
     inkscape:grid-bbox="true"
     inkscape:window-maximized="1"
     inkscape:window-y="-9"
     inkscape:window-x="-9"
     inkscape:window-height="1001"
     inkscape:window-width="1920"
     showgrid="false"
     inkscape:document-rotation="0"
     inkscape:current-layer="layer1"
     inkscape:document-units="px"
     inkscape:cy="39.749036"
     inkscape:cx="1.8453846"
     inkscape:zoom="5.6"
     inkscape:pageshadow="2"
     inkscape:pageopacity="0.0"
     borderopacity="1.0"
     bordercolor="#666666"
     pagecolor="#ffffff"
     id="base">
    <inkscape:grid
       id="grid1478"
       type="xygrid" />
  </sodipodi:namedview>
  <metadata
     id="metadata845">
    <rdf:RDF>
      <cc:Work
         rdf:about="">
        <dc:format>image/svg+xml</dc:format>
        <dc:type
           rdf:resource="http://purl.org/dc/dcmitype/StillImage" />
        <dc:title></dc:title>
      </cc:Work>
    </rdf:RDF>
  </metadata>
  <g
     id="layer1"
     inkscape:groupmode="layer"
     inkscape:label="Calque 1">
    <path
       style="display:inline;fill:#b1000c;fill-opacity:1;stroke-width:0.121747"
       d="m 49.806608,62.885405 c -4.785057,-3.814987 -5.932646,-4.330691 -7.754768,-3.484845 -1.125146,0.522304 -1.491072,1.292847 -1.49215,3.142085 -4.94e-4,0.741136 -0.05365,1.215659 -0.146778,1.308787 -0.184252,0.184252 -12.206065,0.203191 -14.385048,0.02267 C 19.643681,63.345168 16.009811,60.28 14.194297,53.892495 c -0.711457,-2.503121 -0.201679,-5.913094 1.254624,-8.392317 1.760039,-2.996308 3.548257,-4.474866 9.648211,-7.97745 6.898137,-3.960905 8.176279,-5.17904 6.838183,-6.51714 -1.156323,-1.156327 -2.139121,-0.89387 -8.421081,2.248857 -3.950844,1.976523 -4.293582,2.09601 -4.529153,1.578988 -0.212324,-0.466005 3.422944,-2.884712 8.221817,-5.470345 3.939794,-2.122762 7.690195,-0.845938 7.680612,2.614862 -0.0059,2.151225 -1.282538,3.250545 -9.607757,8.273662 -6.759307,4.078306 -8.461423,6.206775 -8.461423,10.580876 0,5.187342 2.717486,8.156345 8.107943,8.858363 1.929079,0.251231 2.032025,0.228645 1.842251,-0.404171 -1.869243,-6.233178 1.32059,-11.647141 11.720785,-19.893178 3.164722,-2.509225 3.259036,-2.568577 3.541291,-2.228483 0.400487,0.482559 2.509276,1.630789 2.995036,1.630789 0.03413,0 -0.317999,-0.406973 -0.782526,-0.904384 -1.915811,-2.051442 -2.524601,-4.470866 -1.79433,-7.13095 0.351143,-1.279065 0.655924,-1.428379 2.132739,-1.044829 0.365615,0.09496 1.103041,0.258755 1.638729,0.364006 0.535685,0.105247 1.189538,0.243215 1.452998,0.30659 0.440083,0.105865 0.5472,0.07541 1.317721,-0.374597 3.400717,-1.986133 8.629637,-2.952742 12.416138,-2.295228 2.623728,0.455603 2.924478,0.800248 2.343513,2.685592 -0.922672,2.99425 -1.968957,4.788404 -4.859464,8.332926 -4.108955,5.03866 -5.482438,8.144197 -6.569114,14.853192 -0.538698,3.325859 -0.610698,4.185446 -0.606768,7.243976 0.005,3.779751 0.112086,3.664395 -1.908664,2.05331 z M 55.854493,32.84015 c 0.570405,-0.347818 0.775128,-0.716295 0.775128,-1.395139 0,-1.657746 -2.358181,-2.137383 -2.996577,-0.609481 -0.599301,1.434334 0.915282,2.801085 2.221449,2.00462 z"
       id="path837"
       inkscape:connector-curvature="0"
       sodipodi:nodetypes="sscssssssssscssssscscsscssssssssssss" />
    <g
       transform="matrix(1.1026193,0.15141359,-0.15141359,1.1026193,6.551022,-5.3710011)"
       id="g858">
      <path
         inkscape:connector-curvature="0"
         id="path43"
         d="M 13.766848,4.6307809 8.5412344,9.855174 C 10.097504,9.4219546 11.760737,9.3928639 13.339667,9.814672 c 0.213801,0.058354 0.419502,0.1387937 0.628512,0.210891 l 2.59637,-2.5963712 c 1.542972,-1.5460557 4.045832,-1.5406846 5.593057,0 1.542972,1.5502598 1.541913,4.0458332 -0.0014,5.5919982 l -3.530573,3.531793 -2.061375,2.060097 c -0.508843,0.508844 -1.125314,0.834038 -1.775469,1.007497 -1.318342,0.355714 -2.779244,0.03157 -3.81605,-1.005639 C 10.273365,17.917232 9.9057611,17.024788 9.8430425,16.113884 9.5374021,16.247277 9.2562951,16.412462 9.02752,16.63998 l -2.4474366,2.447437 c 0.3825206,0.840686 0.9019614,1.634194 1.5948828,2.325251 1.0181377,1.019996 2.2489798,1.695686 3.5490808,2.041646 2.025628,0.53978 4.220411,0.260966 6.068057,-0.835264 0.558933,-0.330572 1.089573,-0.72867 1.569994,-1.20824 l 5.593066,-5.593059 C 28.047966,12.726859 28.041317,7.7188491 24.959547,4.6316291 21.863232,1.5438204 16.856391,1.5396754 13.766506,4.6312145 Z"
         style="fill:#b1000c;fill-opacity:1;stroke:#b1000c;stroke-width:0.0531911;stroke-opacity:1" />
      <path
         inkscape:connector-curvature="0"
         id="path45"
         d="m 16.192901,24.56798 c -1.774192,0.490357 -3.663334,0.429475 -5.409023,-0.172248 l -2.5903594,2.592219 c -1.546057,1.540046 -4.0489693,1.540046 -5.5946554,-0.0021 -1.5436104,-1.54835 -1.5406853,-4.045833 -0.00218,-5.594663 L 8.192405,15.796534 c 0.5105135,-0.506979 1.1243046,-0.831112 1.7719059,-1.003984 1.3183491,-0.353226 2.7792441,-0.02932 3.8201941,1.005631 0.699361,0.704782 1.066965,1.602599 1.126592,2.518874 0.292552,-0.133393 0.570161,-0.310416 0.810317,-0.551008 l 2.450522,-2.448663 C 17.791915,14.479124 17.273483,13.688543 16.584712,12.997906 15.562851,11.979769 14.333228,11.303497 13.034405,10.957327 11.00628,10.416264 8.8140016,10.696361 6.9647517,11.791365 6.4064566,12.120907 5.8761934,12.517537 5.3947569,12.997319 l -5.59465465,5.594654 c -3.08966685,3.091532 -3.09152485,8.101567 -0.00218,11.189847 3.09089345,3.090305 8.09784275,3.090305 11.19037775,0 z"
         style="fill:#b1000c;fill-opacity:1;stroke:#b1000c;stroke-width:0.0531911;stroke-opacity:1" />
    </g>
  </g>
</svg>
