<?xml version="1.0" encoding="UTF-8" standalone="no"?>
<svg
   xmlns:dc="http://purl.org/dc/elements/1.1/"
   xmlns:cc="http://creativecommons.org/ns#"
   xmlns:rdf="http://www.w3.org/1999/02/22-rdf-syntax-ns#"
   xmlns:svg="http://www.w3.org/2000/svg"
   xmlns="http://www.w3.org/2000/svg"
   xmlns:sodipodi="http://sodipodi.sourceforge.net/DTD/sodipodi-0.dtd"
   xmlns:inkscape="http://www.inkscape.org/namespaces/inkscape"
   width="64px"
   height="64px"
   viewBox="0 0 64 64"
   version="1.1"
   id="SVGRoot"
   sodipodi:docname="icon-keys.svg"
   inkscape:version="1.0beta1 (fe3e306, 2019-09-17)"
   inkscape:export-filename="C:\Users\nbertin\Documents\Personnel\Rats\LORD\CakeLORD\docs\cdc\icon-backoffice.png"
   inkscape:export-xdpi="96"
   inkscape:export-ydpi="96">
  <sodipodi:namedview
     pagecolor="#ffffff"
     bordercolor="#666666"
     inkscape:document-rotation="0"
     borderopacity="1"
     objecttolerance="10"
     gridtolerance="10"
     guidetolerance="10"
     inkscape:pageopacity="0"
     inkscape:pageshadow="2"
     inkscape:window-width="1920"
     inkscape:window-height="1001"
     id="namedview39"
     showgrid="false"
     inkscape:zoom="3.6875"
     inkscape:cx="32"
     inkscape:cy="32"
     inkscape:window-x="-9"
     inkscape:window-y="-9"
     inkscape:window-maximized="1"
     inkscape:current-layer="SVGRoot" />
  <defs
     id="defs830">
    <filter
       height="1.0099308"
       y="-0.0049654186"
       width="1.0099308"
       x="-0.0049654186"
       id="filter901"
       style="color-interpolation-filters:sRGB">
      <feGaussianBlur
         id="feGaussianBlur903"
         stdDeviation="0.95998094" />
    </filter>
    <filter
       height="1.0096002"
       y="-0.0048000949"
       width="1.0095998"
       x="-0.0047999051"
       id="filter905"
       style="color-interpolation-filters:sRGB">
      <feGaussianBlur
         id="feGaussianBlur907"
         stdDeviation="0.12254071" />
    </filter>
    <filter
       height="1.0179996"
       y="-0.0089998216"
       width="1.0179996"
       x="-0.0089998216"
       id="filter909"
       style="color-interpolation-filters:sRGB">
      <feGaussianBlur
         id="feGaussianBlur911"
         stdDeviation="0.12254071" />
    </filter>
    <filter
       height="1.0719986"
       y="-0.035999285"
       width="1.0719986"
       x="-0.03599929"
       id="filter913"
       style="color-interpolation-filters:sRGB">
      <feGaussianBlur
         id="feGaussianBlur915"
         stdDeviation="0.12254071" />
    </filter>
    <filter
       height="1.041142"
       y="-0.02057102"
       width="1.041142"
       x="-0.020571022"
       id="filter917"
       style="color-interpolation-filters:sRGB">
      <feGaussianBlur
         id="feGaussianBlur919"
         stdDeviation="0.12254071" />
    </filter>
    <filter
       height="1.0151576"
       y="-0.0075787971"
       width="1.0151576"
       x="-0.0075787967"
       id="filter921"
       style="color-interpolation-filters:sRGB">
      <feGaussianBlur
         id="feGaussianBlur923"
         stdDeviation="0.12254071" />
    </filter>
  </defs>
  <metadata
     id="metadata833">
    <rdf:RDF>
      <cc:Work
         rdf:about="">
        <dc:format>image/svg+xml</dc:format>
        <dc:type
           rdf:resource="http://purl.org/dc/dcmitype/StillImage" />
        <dc:title></dc:title>
      </cc:Work>
    </rdf:RDF>
  </metadata>
  <path
     inkscape:connector-curvature="0"
     d="m 13.264352,5.7298187 c -0.345668,-0.0052 -0.695217,0.0063 -1.047066,0.03667 -5.6295709,0.484877 -9.8001909,5.4372883 -9.3148319,11.0612053 0.425438,4.929502 4.288371,8.736657 9.0265099,9.27563 0.01283,-0.858447 0.09876,-1.708938 0.252915,-2.543053 -3.0718829,-0.365654 -5.6475609,-2.562594 -6.4783989,-5.548939 -0.01567,-0.05634 -0.02983,-0.112535 -0.04426,-0.169452 -0.101008,-0.398373 -0.170901,-0.810206 -0.20739,-1.232957 -0.0056,-0.06592 -0.01118,-0.131628 -0.01518,-0.197273 -0.25151,-4.135858 2.844459,-7.7403373 7.0006659,-8.0983143 0.172667,-0.01487 0.343903,-0.02572 0.514681,-0.02908 0.0097,-3.5e-5 0.01942,6e-5 0.02908,0 0.104008,-0.0016 0.207908,8.8e-5 0.311084,0.0025 0.03663,8.42e-4 0.07223,0.0012 0.108754,0.0025 0.01997,8.42e-4 0.04077,0.0016 0.0607,0.0025 0.04911,0.0023 0.09781,0.0056 0.14669,0.0089 0.04637,0.003 0.09294,0.0062 0.139103,0.01012 0.07205,0.006 0.144706,0.01345 0.216242,0.0215 0.0031,5.81e-4 0.0058,9.72e-4 0.0089,0.0013 0.0522,0.006 0.104903,0.01199 0.156808,0.01897 h 0.0013 c 0.08743,0.0118 0.17395,0.02444 0.260502,0.0392 0.04674,0.008 0.09263,0.01647 0.139103,0.02529 0.0293,0.0056 0.05806,0.01184 0.08725,0.0177 0.01179,0.0024 0.02364,0.0051 0.03541,0.0076 0.257276,0.05317 0.510907,0.118776 0.758743,0.197273 0.01762,0.0056 0.03553,0.01199 0.05311,0.0177 0.03402,0.01104 0.06734,0.02136 0.101166,0.03288 0.02338,0.008 0.04628,0.01711 0.06955,0.02529 0.0031,0.0011 0.0058,0.0016 0.0089,0.0025 0.05735,0.02022 0.115235,0.04169 0.171982,0.06323 0.01865,0.0071 0.03706,0.01303 0.05564,0.02023 0.02472,0.0096 0.04999,0.02049 0.07461,0.03035 0.02535,0.01016 0.05066,0.01992 0.07588,0.03035 0.04645,0.01918 0.09181,0.03938 0.137838,0.05944 0.0037,0.0016 0.0077,0.0022 0.01138,0.0038 0.02465,0.01079 0.04883,0.02309 0.07335,0.03414 0.07373,0.03324 0.148775,0.06694 0.221299,0.102431 0.03887,0.01904 0.07657,0.0385 0.115076,0.05817 0.0091,0.0046 0.01878,0.0092 0.02782,0.01391 0.04779,0.02465 0.09566,0.04897 0.142896,0.07461 0.04723,0.02561 0.09372,0.05308 0.140368,0.07967 0.04663,0.0266 0.09306,0.0534 0.139102,0.08093 0.01298,0.0078 0.02626,0.01617 0.0392,0.02403 0.124662,0.07557 0.246715,0.152806 0.366725,0.235211 0.0046,0.0032 0.0093,0.007 0.01391,0.01011 0.03951,0.02725 0.07862,0.05421 0.117605,0.0822 0.0067,0.0047 0.0136,0.01038 0.02023,0.01518 0.0368,0.02659 0.07244,0.05496 0.108753,0.0822 0.03769,0.02826 0.0754,0.05579 0.112547,0.08473 0.005,0.004 0.01138,0.0074 0.01644,0.01138 0.0094,0.0074 0.01715,0.01532 0.02656,0.02276 0.03258,0.02575 0.06647,0.05086 0.09864,0.07714 0.0039,0.0032 0.0074,0.0069 0.01138,0.01012 0.161493,0.13247 0.317629,0.272121 0.467892,0.417308 9.06e-4,9.07e-4 0.0016,0.0016 0.0025,0.0025 0.03753,0.03631 0.07448,0.07169 0.111282,0.108754 0.0033,0.0034 0.0068,0.0067 0.01012,0.01012 0.03434,0.03473 0.06873,0.07083 0.10243,0.106223 0.03695,0.03879 0.0739,0.0793 0.110018,0.11887 0.03615,0.03959 0.07216,0.07724 0.107489,0.117605 0.0049,0.0056 0.0091,0.01215 0.01391,0.0177 0.136044,0.15625 0.264898,0.318351 0.388223,0.485595 0.03191,0.0433 0.06383,0.08751 0.09484,0.131515 0.03104,0.04399 0.0622,0.08808 0.09231,0.132781 0.03014,0.0447 0.05928,0.08867 0.08852,0.134044 0.02921,0.04538 0.05771,0.09179 0.08599,0.137838 0.11314,0.184218 0.219706,0.374601 0.317408,0.569057 0.04882,0.09724 0.09556,0.193745 0.140366,0.29338 0.0224,0.04983 0.04438,0.101324 0.06576,0.151749 0.02136,0.05041 0.04164,0.102025 0.06196,0.153013 0.04065,0.101976 0.07996,0.204361 0.116341,0.308555 0.03637,0.104211 0.07044,0.208554 0.102431,0.314879 0.02502,0.08317 0.04851,0.167212 0.07082,0.251649 0.02207,0.08366 0.04265,0.168081 0.06196,0.252914 0.01922,0.08433 0.03794,0.168719 0.05437,0.254179 6e-6,0.0012 -5.7e-4,0.0027 0,0.0038 9.71e-4,0.0054 0.0028,0.0098 0.0038,0.01518 0.01519,0.08011 0.03029,0.161729 0.043,0.242798 6e-6,0.0012 -5.7e-4,0.0027 0,0.0038 v 0.0013 c 6e-6,0.0012 7.12e-4,0.0027 0.0013,0.0038 0.027,0.173527 0.0479,0.348452 0.06323,0.526062 0.006,0.06997 0.0098,0.140214 0.01391,0.209919 0.002,0.03689 0.0047,0.07444 0.0063,0.111282 1.7e-5,0.0054 0.001,0.01105 0.0013,0.01644 0.0012,0.02721 0.003,0.05378 0.0038,0.08093 6.39e-4,0.01992 8.41e-4,0.04058 0.0013,0.0607 3.5e-5,0.0085 0,0.01682 0,0.02529 8.42e-4,0.04071 0.0011,0.08082 0.0013,0.121399 v 0.04426 c 0,0.05432 -0.0013,0.107788 -0.0025,0.161865 -1.1e-5,0.0012 0.0013,0.0026 0.0013,0.0038 -5.81e-4,0.01946 -0.0019,0.03873 -0.0025,0.05817 -0.0012,0.03532 -0.0023,0.071 -0.0038,0.106224 -0.0024,0.05491 -0.0053,0.109742 -0.0089,0.164394 -0.0034,0.05251 -0.0057,0.105794 -0.01012,0.158071 6e-6,0.0019 -0.0024,0.0032 -0.0025,0.0051 6e-6,0.0012 0.0013,0.0027 0.0013,0.0038 -0.0092,0.105332 -0.02193,0.210678 -0.03541,0.314878 -5.82e-4,0.0025 -9.07e-4,0.0051 -0.0013,0.0076 -0.0032,0.02523 -0.0053,0.04945 -0.0089,0.07461 -0.004,0.0284 -0.0083,0.05769 -0.01265,0.08599 -0.01171,0.07696 -0.02519,0.15389 -0.0392,0.230151 -0.0015,0.0081 -0.0036,0.01594 -0.005,0.02403 -0.0149,0.07997 -0.03068,0.159868 -0.04805,0.239004 -0.0011,0.0048 -0.0014,0.01033 -0.0025,0.01518 -0.0084,0.03785 -0.01756,0.07613 -0.02656,0.113812 -0.01089,0.04581 -0.02243,0.09232 -0.03414,0.137838 -0.0049,0.01868 -0.01022,0.03702 -0.01518,0.05564 -0.01698,0.06392 -0.03454,0.126386 -0.05311,0.189686 -0.01889,0.0641 -0.03764,0.127517 -0.05817,0.19095 -0.0057,0.01758 -0.0119,0.03558 -0.0177,0.05311 -0.01498,0.04522 -0.03098,0.09044 -0.04679,0.13531 -0.06882,0.195831 -0.144626,0.387972 -0.228888,0.576644 v 0.0025 c -0.312587,1.315641 -0.177432,2.707094 0.385695,3.939139 1.252131,-1.310322 2.154958,-2.947557 2.573402,-4.753523 0.0031,-0.01364 0.0058,-0.02681 0.0089,-0.04047 0.01139,-0.05009 0.02225,-0.100129 0.03288,-0.150484 0.0034,-0.01602 0.0068,-0.032 0.01012,-0.04805 0.0099,-0.04823 0.01982,-0.09699 0.02908,-0.145426 0.0014,-0.0073 0.0024,-0.01415 0.0038,-0.0215 0.01074,-0.05696 0.02054,-0.114705 0.03035,-0.171982 8.41e-4,-0.0049 0.0016,-0.01024 0.0025,-0.01518 0.01009,-0.05952 0.02004,-0.119749 0.02908,-0.179569 5.8e-4,-0.0037 -2.61e-4,-0.0065 0,-0.01012 0.0082,-0.05479 0.01669,-0.109347 0.02403,-0.164394 0.0096,-0.07229 0.01974,-0.144806 0.02782,-0.217507 0.0021,-0.01889 0.003,-0.03799 0.005,-0.05691 0.0096,-0.09154 0.01808,-0.18351 0.02529,-0.275677 0.0069,-0.08786 0.0131,-0.175874 0.0177,-0.264296 -1.8e-5,-0.0042 0.0012,-0.0084 0.0013,-0.01264 0.0032,-0.06242 0.0056,-0.125755 0.0076,-0.188422 -2.9e-5,-0.0078 -6.4e-4,-0.01494 0,-0.02277 0.0017,-0.05848 0.0043,-0.117092 0.005,-0.175775 2.3e-5,-0.0012 -0.0013,-0.0026 -0.0013,-0.0038 1.2e-5,-0.0012 0,-0.0027 0,-0.0038 8.42e-4,-0.06637 5.18e-4,-0.131905 0,-0.198538 0,-0.01644 7.77e-4,-0.03286 0,-0.04932 -8.42e-4,-0.06674 -0.003,-0.132815 -0.0051,-0.199802 -0.0027,-0.08833 -0.005,-0.178089 -0.01012,-0.266824 -1.7e-5,-0.0054 -9.71e-4,-0.01102 -0.0013,-0.01644 -0.0016,-0.02656 -0.0033,-0.05312 -0.005,-0.07969 -0.0045,-0.06829 -0.0093,-0.135104 -0.01518,-0.203595 C 22.834976,9.7998657 18.449345,5.8084887 13.264335,5.7297227 Z m 17.294277,3.420665 c -0.491355,-0.0046 -0.982835,0.01351 -1.471962,0.05564 -2.239719,0.192906 -4.436244,0.8758423 -6.417699,2.0309013 0.133795,0.262575 0.255364,0.530244 0.364197,0.805532 0.364749,0.866438 0.59527,1.780711 0.696778,2.708712 1.946489,-0.655245 4.178468,-0.312202 5.865082,1.105235 2.571043,2.160732 2.901402,5.996487 0.738509,8.564941 -2.162911,2.568478 -6.000215,2.899247 -8.571263,0.73851 -0.741398,-0.623073 -1.296427,-1.384498 -1.659118,-2.215529 v -0.0025 c -0.581875,-1.163641 -0.804028,-2.558036 -0.366725,-3.738095 0.07674,-0.350399 0.184782,-0.695656 0.324994,-1.03189 0.389042,-1.582752 0.316039,-3.282701 -0.226358,-4.805371 -0.408819,0.388924 -0.800282,0.802609 -1.172257,1.244338 -5.456255,6.479356 -4.6219,16.150627 1.863977,21.601406 5.079479,4.268832 12.117593,4.681213 17.55225,1.547835 l 2.94645,2.477296 2.74665,-1.363208 -0.875084,2.935069 2.052399,1.724871 3.327087,-1.330329 -0.743568,3.501598 1.69579,1.426436 2.133332,-0.816913 -0.440071,2.239556 2.894599,2.431775 7.31934,-0.67781 -0.58297,-7.320608 L 44.815405,29.761731 C 46.976917,23.875739 45.36471,17.017646 40.284446,12.74819 37.446884,10.363463 33.998106,9.1827487 30.558629,9.1504837 Z m -12.62548,5.4047773 c -4.779098,4.022866 -6.792764,10.740001 -4.538546,16.951578 2.262553,6.234522 8.152073,10.108443 14.427493,10.108983 l 1.31389,3.617939 3.058997,0.189685 -2.22691,2.106776 0.914286,2.517758 3.545857,0.51089 -2.395098,2.65939 0.754949,2.08275 2.255996,0.35788 -1.502311,1.71982 1.289863,3.55217 L 41.51108,64 44.668714,57.36732 37.928549,38.794563 c -5.676967,2.907913 -12.812864,2.37613 -18.004965,-1.893063 -3.430296,-2.820556 -5.362116,-6.738071 -5.713333,-10.79185 0,0 0.0013,0 0.0013,0 -0.0026,-0.02625 -0.0041,-0.05338 -0.0063,-0.07967 -5.37e-4,-0.0063 -6.47e-4,-0.01272 -0.0013,-0.01897 -0.321131,-4.000307 0.894128,-8.125777 3.729221,-11.455751 z"
     style="color:#000000;stroke-width:0.64746;enable-background:accumulate;fill:#ffffff;fill-opacity:1"
     display="inline"
     overflow="visible"
     visibility="visible"
     fill="#000000"
     fill-opacity="1"
     fill-rule="nonzero"
     stroke="none"
     marker="none"
     id="path2" />
</svg>
