<?xml version="1.0" encoding="UTF-8" standalone="no"?>
<svg
   xmlns:dc="http://purl.org/dc/elements/1.1/"
   xmlns:cc="http://creativecommons.org/ns#"
   xmlns:rdf="http://www.w3.org/1999/02/22-rdf-syntax-ns#"
   xmlns:svg="http://www.w3.org/2000/svg"
   xmlns="http://www.w3.org/2000/svg"
   width="64px"
   height="64px"
   viewBox="0 0 64 64"
   version="1.1"
   id="SVGRoot">
  <defs
     id="defs830" />
  <metadata
     id="metadata833">
    <rdf:RDF>
      <cc:Work
         rdf:about="">
        <dc:format>image/svg+xml</dc:format>
        <dc:type
           rdf:resource="http://purl.org/dc/dcmitype/StillImage" />
        <dc:title></dc:title>
      </cc:Work>
    </rdf:RDF>
  </metadata>
  <g
     transform="matrix(1.0033898,0,0,1.0033898,-0.1084736,-0.1084736)"
     id="g22"
     style="fill:#ffffff;fill-opacity:1">
    <circle
       cx="8"
       cy="6"
       r="4"
       id="circle2"
       style="fill:#ffffff;fill-opacity:1" />
    <circle
       cx="20"
       cy="6"
       r="4"
       id="circle4"
       style="fill:#ffffff;fill-opacity:1" />
    <path
       d="m 30,28 c 0,-2.209 -1.791,-4 -4,-4 -1.862,0 -3.413,1.278 -3.859,3 H 15 V 16 h 11 c 0,-3.314 -2.686,-6 -6,-6 -2.972,0 -5.433,2.163 -5.91,5 H 13.91 C 13.433,12.163 10.972,10 8,10 4.686,10 2,12.686 2,16 h 11 v 13 h 9.141 c 0.446,1.722 1.997,3 3.859,3 2.209,0 4,-1.791 4,-4 z"
       id="path6"
       style="fill:#ffffff;fill-opacity:1" />
    <path
       d="M 41.859,29 H 51 V 16 h 11 c 0,-3.314 -2.686,-6 -6,-6 -2.972,0 -5.433,2.163 -5.91,5 H 49.91 C 49.433,12.163 46.972,10 44,10 c -3.314,0 -6,2.686 -6,6 H 49 V 27 H 41.859 C 41.413,25.278 39.862,24 38,24 c -2.209,0 -4,1.791 -4,4 0,2.209 1.791,4 4,4 1.862,0 3.412,-1.278 3.859,-3 z"
       id="path8"
       style="fill:#ffffff;fill-opacity:1" />
    <path
       d="M 2,62 H 14 C 14,58.686 11.314,56 8,56 4.686,56 2,58.686 2,62 Z"
       id="path10"
       style="fill:#ffffff;fill-opacity:1" />
    <path
       d="m 26,62 h 12 c 0,-3.314 -2.686,-6 -6,-6 -3.314,0 -6,2.686 -6,6 z"
       id="path12"
       style="fill:#ffffff;fill-opacity:1" />
    <path
       d="m 60,52 c 0,-1.862 -1.278,-3.413 -3,-3.859 V 41 H 33 v -3 h 11 c 0,-3.314 -2.686,-6 -6,-6 -2.972,0 -5.433,2.163 -5.91,5 H 31.91 C 31.433,34.163 28.972,32 26,32 c -3.314,0 -6,2.686 -6,6 h 11 v 3 H 7 v 7.141 C 5.278,48.587 4,50.138 4,52 c 0,2.209 1.791,4 4,4 2.209,0 4,-1.791 4,-4 0,-1.862 -1.278,-3.413 -3,-3.859 v -4.856 h 22 v 4.856 c -1.722,0.446 -3,1.997 -3,3.859 0,2.209 1.791,4 4,4 2.209,0 4,-1.791 4,-4 0,-1.862 -1.278,-3.413 -3,-3.859 v -4.856 h 22 v 4.856 c -1.722,0.446 -3,1.997 -3,3.859 0,2.209 1.791,4 4,4 2.209,0 4,-1.791 4,-4 z"
       id="path14"
       style="fill:#ffffff;fill-opacity:1" />
    <path
       d="m 56,56 c -3.314,0 -6,2.686 -6,6 h 12 c 0,-3.314 -2.686,-6 -6,-6 z"
       id="path16"
       style="fill:#ffffff;fill-opacity:1" />
    <circle
       cx="44"
       cy="6"
       r="4"
       id="circle18"
       style="fill:#ffffff;fill-opacity:1" />
    <circle
       cx="56"
       cy="6"
       r="4"
       id="circle20"
       style="fill:#ffffff;fill-opacity:1" />
  </g>
</svg>
