<?xml version="1.0" encoding="UTF-8" standalone="no"?>
<svg
   xmlns:dc="http://purl.org/dc/elements/1.1/"
   xmlns:cc="http://creativecommons.org/ns#"
   xmlns:rdf="http://www.w3.org/1999/02/22-rdf-syntax-ns#"
   xmlns:svg="http://www.w3.org/2000/svg"
   xmlns="http://www.w3.org/2000/svg"
   xmlns:sodipodi="http://sodipodi.sourceforge.net/DTD/sodipodi-0.dtd"
   xmlns:inkscape="http://www.inkscape.org/namespaces/inkscape"
   inkscape:version="1.0beta1 (fe3e306, 2019-09-17)"
   inkscape:export-ydpi="96"
   inkscape:export-xdpi="96"
   inkscape:export-filename="C:\Users\nbertin\Documents\Personnel\Rats\LORD\CakeLORD\docs\cdc\icon-report.png"
   sodipodi:docname="icon-one-rat.svg"
   id="SVGRoot"
   version="1.1"
   viewBox="0 0 64 64"
   height="64px"
   width="64px">
  <sodipodi:namedview
     inkscape:current-layer="SVGRoot"
     inkscape:window-maximized="0"
     inkscape:window-y="17"
     inkscape:window-x="0"
     inkscape:cy="32.472266"
     inkscape:cx="33.84825"
     inkscape:zoom="10.429825"
     showgrid="false"
     id="namedview7"
     inkscape:window-height="808"
     inkscape:window-width="1520"
     inkscape:pageshadow="2"
     inkscape:pageopacity="0"
     guidetolerance="10"
     gridtolerance="10"
     objecttolerance="10"
     borderopacity="1"
     inkscape:document-rotation="0"
     bordercolor="#666666"
     pagecolor="#ffffff" />
  <defs
     id="defs830" />
  <metadata
     id="metadata833">
    <rdf:RDF>
      <cc:Work
         rdf:about="">
        <dc:format>image/svg+xml</dc:format>
        <dc:type
           rdf:resource="http://purl.org/dc/dcmitype/StillImage" />
        <dc:title />
      </cc:Work>
    </rdf:RDF>
  </metadata>
  <path
     inkscape:export-filename="C:\Users\nbertin\Documents\Personnel\Rats\LORD\CakeLORD\webroot\img\Unknown.png"
     inkscape:export-ydpi="94.953262"
     inkscape:export-xdpi="94.953262"
     sodipodi:nodetypes="sscssssssssscssssscscsscssssssssssss"
     inkscape:connector-curvature="0"
     id="path837"
     d="m 19.326146,51.975079 c 5.57992,-4.44869 6.91814,-5.050057 9.04294,-4.063709 1.31205,0.609064 1.73876,1.507601 1.74002,3.664015 5.1e-4,0.864243 0.0626,1.41759 0.17115,1.526186 0.21486,0.21486 14.23365,0.236945 16.7746,0.02643 7.44468,-0.616791 11.68218,-4.191111 13.79927,-11.63964 0.82964,-2.918912 0.23518,-6.895314 -1.46303,-9.786364 -2.0524,-3.49402 -4.13767,-5.21818 -11.2509,-9.30258 -8.04401,-4.61884 -9.53447,-6.03932 -7.9741,-7.59969 1.3484,-1.34841 2.49446,-1.04235 9.81993,2.62241 4.60713,2.30484 5.0068,2.44418 5.28151,1.84127 0.24759,-0.54341 -3.99154,-3.36388 -9.58757,-6.37901 -4.59425,-2.47537 -8.96764,-0.98646 -8.95646,3.04921 0.007,2.50856 1.49558,3.79049 11.20373,9.64799 7.88211,4.75575 9.86697,7.23778 9.86697,12.33846 0,6.04901 -3.1689,9.51119 -9.45477,10.329819 -2.24953,0.292963 -2.36958,0.266626 -2.14828,-0.471305 2.17975,-7.268566 -1.53995,-13.581844 -13.66776,-23.197624 -3.69042,-2.92603 -3.8004,-2.99524 -4.12954,-2.59865 -0.46701,0.56271 -2.9261,1.90167 -3.49255,1.90167 -0.0398,0 0.37082,-0.47457 0.91251,-1.05461 2.23405,-2.3922 2.94397,-5.21351 2.09239,-8.31546 -0.40947,-1.49153 -0.76488,-1.66564 -2.48701,-1.21839 -0.42635,0.11073 -1.28627,0.30174 -1.91094,0.42448 -0.62468,0.12273 -1.38714,0.28361 -1.69437,0.35752 -0.51318,0.12344 -0.63809,0.0879 -1.53661,-0.43683 -3.96562,-2.31604 -10.06313,-3.44322 -14.4786196,-2.67648 -3.05956,0.53128 -3.41027,0.93317 -2.7328,3.13169 1.07594,3.49162 2.29603,5.5838 5.66669,9.7171 4.7914996,5.87563 6.3931396,9.49702 7.6603296,17.320446 0.62818,3.878314 0.71214,4.880687 0.70756,8.447266 -0.006,4.407604 -0.13071,4.273086 2.22571,2.394384 z m -7.05251,-35.036042 c -0.66516,-0.4056 -0.90389,-0.83528 -0.90389,-1.62689 0,-1.93311 2.7499,-2.49242 3.49435,-0.71072 0.69885,1.67259 -1.06733,3.26637 -2.59046,2.33761 z"
     style="fill:#663300;fill-opacity:1;stroke-width:0.141971"
     transform="matrix(-1,0,0,1,64,0)" />
</svg>
