<?xml version="1.0" encoding="UTF-8" standalone="no"?>
<svg
   xmlns:dc="http://purl.org/dc/elements/1.1/"
   xmlns:cc="http://creativecommons.org/ns#"
   xmlns:rdf="http://www.w3.org/1999/02/22-rdf-syntax-ns#"
   xmlns:svg="http://www.w3.org/2000/svg"
   xmlns="http://www.w3.org/2000/svg"
   id="svg4"
   version="1.1"
   viewBox="0 0 576 512"
   role="img"
   class="svg-inline--fa fa-people-arrows fa-w-18"
   data-icon="people-arrows"
   data-prefix="fas"
   focusable="false"
   aria-hidden="true">
  <metadata
     id="metadata10">
    <rdf:RDF>
      <cc:Work
         rdf:about="">
        <dc:format>image/svg+xml</dc:format>
        <dc:type
           rdf:resource="http://purl.org/dc/dcmitype/StillImage" />
        <dc:title></dc:title>
      </cc:Work>
    </rdf:RDF>
  </metadata>
  <defs
     id="defs8" />
  <path
     style="fill:#663300;fill-opacity:1;stroke:#663300;stroke-width:0.864407;stroke-opacity:1"
     id="path2"
     d="M 122.03389,145.35602 A 55.322037,55.322037 0 1 0 66.71185,90.033978 55.322037,55.322037 0 0 0 122.03389,145.35602 Z m 0,152.20476 a 38.128985,38.128985 0 0 1 11.79051,-27.66102 l 62.34966,-58.84882 c 1.42627,-1.33983 3.25882,-1.99678 4.84933,-3.08593 A 55.244241,55.244241 0 0 0 149.69491,173.01704 H 94.372869 a 55.322037,55.322037 0 0 0 -55.322037,55.32204 v 82.98305 a 27.661019,27.661019 0 0 0 27.661018,27.66102 v 110.64408 a 27.661019,27.661019 0 0 0 27.661019,27.66101 h 55.322041 a 27.661019,27.661019 0 0 0 27.66102,-27.66101 V 366.30705 L 133.8244,325.22179 A 38.103053,38.103053 0 0 1 122.03389,297.56078 Z M 453.96611,145.35602 a 55.322037,55.322037 0 1 0 -55.32203,-55.322042 55.322037,55.322037 0 0 0 55.32203,55.322042 z m 27.66102,27.66102 h -55.32204 a 55.244241,55.244241 0 0 0 -51.32847,34.93932 c 1.59051,1.0978 3.45762,1.72882 4.85796,3.10322 l 62.34102,58.83153 a 38.353731,38.353731 0 0 1 0,55.32204 l -43.53152,41.10255 v 83.31153 a 27.661019,27.661019 0 0 0 27.66101,27.66101 h 55.32204 a 27.661019,27.661019 0 0 0 27.66102,-27.66101 V 338.98315 a 27.661019,27.661019 0 0 0 27.66102,-27.66102 v -82.98305 a 55.322037,55.322037 0 0 0 -55.32204,-55.32204 z m -58.4339,116.98882 -62.34102,-58.83153 a 10.372882,10.372882 0 0 0 -17.53017,7.53763 V 269.8306 H 232.67796 v -31.11864 a 10.372882,10.372882 0 0 0 -17.53017,-7.54627 l -62.34102,58.84017 a 10.718645,10.718645 0 0 0 0,15.10119 l 62.34102,58.84017 a 10.372882,10.372882 0 0 0 17.53017,-7.55492 v -31.23966 h 110.64408 v 31.23966 a 10.372882,10.372882 0 0 0 17.53017,7.55492 l 62.34102,-58.84017 a 10.718645,10.718645 0 0 0 0,-15.10119 z"
     fill="currentColor" />
</svg>
