<?xml version="1.0" encoding="UTF-8" standalone="no"?>
<svg
   xmlns:osb="http://www.openswatchbook.org/uri/2009/osb"
   xmlns:dc="http://purl.org/dc/elements/1.1/"
   xmlns:cc="http://creativecommons.org/ns#"
   xmlns:rdf="http://www.w3.org/1999/02/22-rdf-syntax-ns#"
   xmlns:svg="http://www.w3.org/2000/svg"
   xmlns="http://www.w3.org/2000/svg"
   xmlns:sodipodi="http://sodipodi.sourceforge.net/DTD/sodipodi-0.dtd"
   xmlns:inkscape="http://www.inkscape.org/namespaces/inkscape"
   id="SVGRoot"
   version="1.1"
   viewBox="0 0 64 64"
   height="64px"
   width="64px"
   inkscape:version="1.0beta1 (fe3e306, 2019-09-17)"
   sodipodi:docname="icon-add-rat.svg">
  <defs
     id="defs842">
    <linearGradient
       id="linearGradient1474"
       osb:paint="solid">
      <stop
         style="stop-color:#ffffff;stop-opacity:1;"
         offset="0"
         id="stop1472" />
    </linearGradient>
  </defs>
  <sodipodi:namedview
     id="base"
     pagecolor="#ffffff"
     bordercolor="#666666"
     borderopacity="1.0"
     inkscape:pageopacity="0.0"
     inkscape:pageshadow="2"
     inkscape:zoom="7.9195959"
     inkscape:cx="32.488764"
     inkscape:cy="39.126454"
     inkscape:document-units="px"
     inkscape:current-layer="layer1"
     inkscape:document-rotation="0"
     showgrid="false"
     inkscape:window-width="1920"
     inkscape:window-height="1001"
     inkscape:window-x="-9"
     inkscape:window-y="-9"
     inkscape:window-maximized="1"
     inkscape:grid-bbox="true">
    <inkscape:grid
       type="xygrid"
       id="grid1478" />
  </sodipodi:namedview>
  <metadata
     id="metadata845">
    <rdf:RDF>
      <cc:Work
         rdf:about="">
        <dc:format>image/svg+xml</dc:format>
        <dc:type
           rdf:resource="http://purl.org/dc/dcmitype/StillImage" />
        <dc:title />
      </cc:Work>
    </rdf:RDF>
  </metadata>
  <g
     inkscape:label="Calque 1"
     inkscape:groupmode="layer"
     id="layer1">
    <g
       id="g4"
       transform="matrix(-0.09386477,0,0,0.09386477,28.28108,0)"
       style="fill:#663300;fill-opacity:1">
      <path
         inkscape:connector-curvature="0"
         id="path2"
         d="M 150.648,0 C 67.584,0 0,67.584 0,150.648 c 0,83.07 67.584,150.647 150.648,150.647 83.07,0 150.648,-67.577 150.648,-150.647 C 301.296,67.584 233.718,0 150.648,0 Z m 78.04212,172.46724 h -56.2589 v 56.21335 c 0,3.387 -18.38122,6.14976 -21.78322,6.14976 -3.393,0 -21.16946,-2.82523 -21.81174,-6.14976 V 172.46724 H 72.622904 c -3.396,0 -6.149759,-18.42024 -6.149759,-21.81824 0,-3.393 2.753759,-21.82227 6.149759,-21.82227 H 128.83626 V 72.613375 c 0,-3.393 18.41974,-6.149759 21.81274,-6.149759 3.402,0 21.13673,2.819742 21.78222,6.149759 v 56.213355 h 56.2589 c 3.398,0 6.14976,18.42227 6.14976,21.81427 0,3.394 -2.81235,21.18213 -6.14976,21.82624 z"
         sodipodi:nodetypes="sssssscssscssscssscsss"
         style="fill:#663300;fill-opacity:1" />
    </g>
    <path
       sodipodi:nodetypes="sscssssssssscssssscscsscssssssssssss"
       inkscape:connector-curvature="0"
       id="path837"
       d="m 49.806608,62.885405 c -4.785057,-3.814987 -5.932646,-4.330691 -7.754768,-3.484845 -1.125146,0.522304 -1.491072,1.292847 -1.49215,3.142085 -4.94e-4,0.741136 -0.05365,1.215659 -0.146778,1.308787 -0.184252,0.184252 -12.206065,0.203191 -14.385048,0.02267 C 19.643681,63.345168 16.009811,60.28 14.194297,53.892495 c -0.711457,-2.503121 -0.201679,-5.913094 1.254624,-8.392317 1.760039,-2.996308 3.548257,-4.474866 9.648211,-7.97745 6.898137,-3.960905 8.176279,-5.17904 6.838183,-6.51714 -1.156323,-1.156327 -2.139121,-0.89387 -8.421081,2.248857 -3.950844,1.976523 -4.293582,2.09601 -4.529153,1.578988 -0.212324,-0.466005 3.422944,-2.884712 8.221817,-5.470345 3.939794,-2.122762 7.690195,-0.845938 7.680612,2.614862 -0.0059,2.151225 -1.282538,3.250545 -9.607757,8.273662 -6.759307,4.078306 -8.461423,6.206775 -8.461423,10.580876 0,5.187342 2.717486,8.156345 8.107943,8.858363 1.929079,0.251231 2.032025,0.228645 1.842251,-0.404171 -1.869243,-6.233178 1.32059,-11.647141 11.720785,-19.893178 3.164722,-2.509225 3.259036,-2.568577 3.541291,-2.228483 0.400487,0.482559 2.509276,1.630789 2.995036,1.630789 0.03413,0 -0.317999,-0.406973 -0.782526,-0.904384 -1.915811,-2.051442 -2.524601,-4.470866 -1.79433,-7.13095 0.351143,-1.279065 0.655924,-1.428379 2.132739,-1.044829 0.365615,0.09496 1.103041,0.258755 1.638729,0.364006 0.535685,0.105247 1.189538,0.243215 1.452998,0.30659 0.440083,0.105865 0.5472,0.07541 1.317721,-0.374597 3.400717,-1.986133 8.629637,-2.952742 12.416138,-2.295228 2.623728,0.455603 2.924478,0.800248 2.343513,2.685592 -0.922672,2.99425 -1.968957,4.788404 -4.859464,8.332926 -4.108955,5.03866 -5.482438,8.144197 -6.569114,14.853192 -0.538698,3.325859 -0.610698,4.185446 -0.606768,7.243976 0.005,3.779751 0.112086,3.664395 -1.908664,2.05331 z M 55.854493,32.84015 c 0.570405,-0.347818 0.775128,-0.716295 0.775128,-1.395139 0,-1.657746 -2.358181,-2.137383 -2.996577,-0.609481 -0.599301,1.434334 0.915282,2.801085 2.221449,2.00462 z"
       style="display:inline;fill:#663300;fill-opacity:1;stroke-width:0.121747" />
  </g>
</svg>
