<svg id="Layer_1" data-name="Layer 1" xmlns="http://www.w3.org/2000/svg" viewBox="0 0 60 60"><defs><style>.cls-1{fill:none;stroke:#630;stroke-linecap:round;stroke-linejoin:round;stroke-width:2.5px;}.cls-2{fill:#630;}</style></defs><title>icon-help</title><path class="cls-1" d="M30.67,10.66a19.77,19.77,0,0,0-20,19.49,19.24,19.24,0,0,0,6.2,14.15c-.36,1.07-1.79,4.93-3.6,5.37-2.07.5,3.47,2.49,10.14-1.3a20.62,20.62,0,0,0,7.23,1.33,19.77,19.77,0,0,0,20-19.49A19.77,19.77,0,0,0,30.67,10.66Z"/><path class="cls-2" d="M29.91,35.14a1.45,1.45,0,0,1-1.45-1.32L28.12,31a1.38,1.38,0,0,1,1.32-1.65c3.18-.29,4.93-1.47,4.94-3.55v-.07c0-1.84-1.45-3.13-3.88-3.13a6.71,6.71,0,0,0-4.6,1.8,2,2,0,0,1-1.25.46A1.86,1.86,0,0,1,22.76,23a1.89,1.89,0,0,1,.68-1.42,10.09,10.09,0,0,1,7.17-2.72c4.72,0,7.93,2.58,7.92,6.7v.06c0,4.16-3.08,6-6.83,6.65l-.14,1.52a1.49,1.49,0,0,1-1.45,1.31Zm0,2.41a2.28,2.28,0,0,1,2.4,2.28v.33a2.4,2.4,0,0,1-4.8,0v-.33A2.28,2.28,0,0,1,29.9,37.55Z"/></svg>