<?xml version="1.0" encoding="UTF-8" standalone="no"?>
<svg
   xmlns:dc="http://purl.org/dc/elements/1.1/"
   xmlns:cc="http://creativecommons.org/ns#"
   xmlns:rdf="http://www.w3.org/1999/02/22-rdf-syntax-ns#"
   xmlns:svg="http://www.w3.org/2000/svg"
   xmlns="http://www.w3.org/2000/svg"
   xmlns:sodipodi="http://sodipodi.sourceforge.net/DTD/sodipodi-0.dtd"
   xmlns:inkscape="http://www.inkscape.org/namespaces/inkscape"
   inkscape:version="1.0beta1 (fe3e306, 2019-09-17)"
   sodipodi:docname="icon-laborats.svg"
   width="64px"
   height="64px"
   viewBox="0 0 64 64"
   version="1.1"
   id="SVGRoot">
  <defs
     id="defs874" />
  <sodipodi:namedview
     inkscape:grid-bbox="true"
     inkscape:window-maximized="1"
     inkscape:window-y="-9"
     inkscape:window-x="-9"
     inkscape:window-height="1001"
     inkscape:window-width="1920"
     showgrid="false"
     inkscape:document-rotation="0"
     inkscape:current-layer="layer1"
     inkscape:document-units="px"
     inkscape:cy="39.551485"
     inkscape:cx="-5.4419806"
     inkscape:zoom="7.9195959"
     inkscape:pageshadow="2"
     inkscape:pageopacity="0.0"
     borderopacity="1.0"
     bordercolor="#666666"
     pagecolor="#ffffff"
     id="base" />
  <metadata
     id="metadata877">
    <rdf:RDF>
      <cc:Work
         rdf:about="">
        <dc:format>image/svg+xml</dc:format>
        <dc:type
           rdf:resource="http://purl.org/dc/dcmitype/StillImage" />
        <dc:title></dc:title>
      </cc:Work>
    </rdf:RDF>
  </metadata>
  <g
     id="layer1"
     inkscape:groupmode="layer"
     inkscape:label="Calque 1">
    <g
       transform="matrix(1.4433438,0,0,1.4433438,3.0649819,-29.560642)"
       id="g26"
       style="opacity:1;fill:#663300;fill-opacity:1;stop-opacity:1">
      <g
         id="g20"
         style="fill:#663300;fill-opacity:1" />
      <circle
         cx="20.698059"
         cy="38.505325"
         r="2.2863181"
         id="circle22"
         style="fill:#663300;fill-opacity:1" />
      <path
         sodipodi:nodetypes="ccccsssssssscccccssccsssssssssscccsccscccc"
         d="m 36.856822,53.396496 -4.90724,-9.799988 -5.27908,-9.540039 v -6.266728 h 2.406455 c 0.420044,0 0.75,-0.330017 0.75,-0.75 v -4.423403 c 0,-0.409973 -0.329956,-0.75 -0.75,-0.75 H 11.015576 c -0.409912,0 -0.75,0.340027 -0.75,0.75 v 4.423403 c 0,0.419983 0.340088,0.75 0.75,0.75 h 2.415328 v 6.266728 l -5.3681124,9.700012 -4.8365382,9.669983 c -1.0800784,2.160034 -0.9609039,4.679993 0.3089938,6.73999 1.2700195,2.050049 3.733303,3.27002 6.1432153,3.27002 H 30.425562 c 2.410154,0 4.870112,-1.219971 6.130122,-3.27002 1.28003,-2.059997 1.391104,-4.579956 0.301138,-6.769958 z M 11.348458,51.916082 c 0,-1.523719 1.313396,-2.745477 2.918579,-2.745477 1.605183,0 2.918579,1.221758 2.918579,2.745477 0,1.509979 -1.313396,2.731736 -2.918579,2.731736 -1.605183,0 -2.918579,-1.221757 -2.918579,-2.731736 z m 14.450592,6.890387 c -1.920734,0 -3.478515,-1.577248 -3.478515,-3.522101 0,-1.96018 1.557781,-3.537428 3.478515,-3.537428 1.920733,0 3.493652,1.577248 3.493652,3.537428 0,1.944853 -1.572919,3.522101 -3.493652,3.522101 z M 19.401247,43.376476 c -2.809936,0.549988 -5.48999,1.070008 -8.23999,0.239991 l 4.97998,-9.01001 c 0.07007,-0.109986 0.100098,-0.229981 0.100098,-0.359986 v -6.45673 h 7.619995 v 6.45673 c 0,0.130005 0.02991,0.25 0.08997,0.359986 l 4.590088,8.290039 c -3.340088,-0.650025 -6.28003,-0.08002 -9.140137,0.47998 z"
         id="path24"
         inkscape:connector-curvature="0"
         style="fill:#663300;fill-opacity:1" />
    </g>
  </g>
</svg>
