<?xml version="1.0" encoding="UTF-8" standalone="no"?>
<svg
   xmlns:osb="http://www.openswatchbook.org/uri/2009/osb"
   xmlns:dc="http://purl.org/dc/elements/1.1/"
   xmlns:cc="http://creativecommons.org/ns#"
   xmlns:rdf="http://www.w3.org/1999/02/22-rdf-syntax-ns#"
   xmlns:svg="http://www.w3.org/2000/svg"
   xmlns="http://www.w3.org/2000/svg"
   xmlns:xlink="http://www.w3.org/1999/xlink"
   xmlns:sodipodi="http://sodipodi.sourceforge.net/DTD/sodipodi-0.dtd"
   xmlns:inkscape="http://www.inkscape.org/namespaces/inkscape"
   sodipodi:docname="icon-rat-add.svg"
   inkscape:version="1.0beta1 (fe3e306, 2019-09-17)"
   width="64px"
   height="64px"
   viewBox="0 0 64 64"
   version="1.1"
   id="SVGRoot">
  <defs
     id="defs842">
    <linearGradient
       osb:paint="solid"
       id="linearGradient1474">
      <stop
         id="stop1472"
         offset="0"
         style="stop-color:#ffffff;stop-opacity:1;" />
    </linearGradient>
    <linearGradient
       gradientUnits="userSpaceOnUse"
       y2="150.6475"
       x2="301.296"
       y1="150.6475"
       x1="0"
       id="linearGradient1476"
       xlink:href="#linearGradient1474"
       inkscape:collect="always" />
  </defs>
  <sodipodi:namedview
     inkscape:grid-bbox="true"
     inkscape:window-maximized="1"
     inkscape:window-y="-9"
     inkscape:window-x="-9"
     inkscape:window-height="1001"
     inkscape:window-width="1920"
     showgrid="false"
     inkscape:document-rotation="0"
     inkscape:current-layer="layer1"
     inkscape:document-units="px"
     inkscape:cy="22.677909"
     inkscape:cx="29.044857"
     inkscape:zoom="15.839192"
     inkscape:pageshadow="2"
     inkscape:pageopacity="0.0"
     borderopacity="1.0"
     bordercolor="#666666"
     pagecolor="#ffffff"
     id="base">
    <inkscape:grid
       id="grid1478"
       type="xygrid" />
  </sodipodi:namedview>
  <metadata
     id="metadata845">
    <rdf:RDF>
      <cc:Work
         rdf:about="">
        <dc:format>image/svg+xml</dc:format>
        <dc:type
           rdf:resource="http://purl.org/dc/dcmitype/StillImage" />
        <dc:title></dc:title>
      </cc:Work>
    </rdf:RDF>
  </metadata>
  <g
     id="layer1"
     inkscape:groupmode="layer"
     inkscape:label="Calque 1">
    <path
       sodipodi:nodetypes="sscssssccssssscscsscssssssssssss"
       inkscape:connector-curvature="0"
       id="path837"
       d="m 19.003395,56.48376 c 5.72202,-4.561979 7.09431,-5.178661 9.27322,-4.167194 1.34546,0.624573 1.78304,1.545993 1.78433,3.757321 5.9e-4,0.886252 0.0642,1.45369 0.17552,1.565052 0.22033,0.22033 14.59612,0.242978 17.20177,0.0271 7.63426,-0.6325 11.97967,-4.297843 14.15068,-11.936054 0.85077,-2.993243 0.24117,-7.070907 -1.50029,-10.035576 -2.10467,-3.583 -4.24303,-5.35106 -11.53741,-9.53947 -6.697564,-3.33672 -6.736692,-3.393671 -11.70742,-6.63048 0.007,2.57245 1.53366,3.88702 11.48904,9.89369 8.08284,4.87686 10.11824,7.422093 10.11824,12.652664 0,6.203052 -3.2496,9.753399 -9.69555,10.592875 -2.30681,0.300423 -2.42991,0.273416 -2.20298,-0.483308 2.23525,-7.453666 -1.57917,-13.92771 -14.01582,-23.788361 -3.7844,-3.00054 -3.89718,-3.07152 -4.2347,-2.66483 -0.47891,0.57704 -3.00062,1.9501 -3.5815,1.9501 -0.0408,0 0.38027,-0.48666 0.93575,-1.08146 2.29095,-2.45313 3.01895,-5.34629 2.14568,-8.52723 -0.4199,-1.52951 -0.78436,-1.70806 -2.55035,-1.24941 -0.4372,0.11355 -1.31903,0.30942 -1.9596,0.43528 -0.64058,0.12586 -1.42246,0.29084 -1.73751,0.36662 -0.52626,0.12659 -0.65435,0.0902 -1.57575,-0.44794 -4.0666,-2.37503 -10.3193904,-3.53091 -14.8473204,-2.74465 -3.13748,0.54481 -3.49712,0.95694 -2.8024,3.21144 1.10334,3.58055 2.3545,5.726 5.81099,9.96456 4.9135304,6.02525 6.5559504,9.738871 7.8554104,17.76152 0.64418,3.977079 0.73028,5.004977 0.72558,8.662382 -0.006,4.519846 -0.13404,4.381904 2.28239,2.455359 z m -7.23211,-35.928261 c -0.6821,-0.41593 -0.92691,-0.85655 -0.92691,-1.66832 0,-1.98234 2.81994,-2.55589 3.58334,-0.72882 0.71665,1.71519 -1.09451,3.34955 -2.65643,2.39714 z"
       style="display:inline;fill:#ffffff;fill-opacity:1;stroke-width:0.145586" />
    <g
       transform="matrix(0.08075685,0,0,0.08075685,34.798429,1.9417819)"
       id="g4">
      <path
         style="fill:url(#linearGradient1476);fill-opacity:1"
         sodipodi:nodetypes="sssssscssscssscssscsss"
         d="M 150.648,0 C 67.584,0 0,67.584 0,150.648 c 0,83.07 67.584,150.647 150.648,150.647 83.07,0 150.648,-67.577 150.648,-150.647 C 301.296,67.584 233.718,0 150.648,0 Z m 87.154,181.5627 h -56.2393 v 56.2393 c 0,3.387 -27.5127,6.148 -30.9147,6.148 -3.393,0 -30.9147,-2.762 -30.9147,-6.148 V 181.5627 H 63.501 c -3.396,0 -6.149,-27.5157 -6.149,-30.9137 0,-3.393 2.753,-30.9147 6.149,-30.9147 h 56.2333 V 63.494 c 0,-3.393 27.5217,-6.148 30.9147,-6.148 3.402,0 30.9147,2.756 30.9147,6.148 v 56.2333 h 56.2393 c 3.398,0 6.148,27.5217 6.148,30.9137 0,3.394 -2.75,30.9217 -6.149,30.9217 z"
         id="path2"
         inkscape:connector-curvature="0" />
    </g>
  </g>
</svg>
