<?xml version="1.0" encoding="UTF-8" standalone="no"?>
<svg
   xmlns:osb="http://www.openswatchbook.org/uri/2009/osb"
   xmlns:dc="http://purl.org/dc/elements/1.1/"
   xmlns:cc="http://creativecommons.org/ns#"
   xmlns:rdf="http://www.w3.org/1999/02/22-rdf-syntax-ns#"
   xmlns:svg="http://www.w3.org/2000/svg"
   xmlns="http://www.w3.org/2000/svg"
   xmlns:sodipodi="http://sodipodi.sourceforge.net/DTD/sodipodi-0.dtd"
   xmlns:inkscape="http://www.inkscape.org/namespaces/inkscape"
   id="SVGRoot"
   version="1.1"
   viewBox="0 0 64 64"
   height="64px"
   width="64px"
   inkscape:version="1.0beta1 (fe3e306, 2019-09-17)"
   sodipodi:docname="icon-add-rat.svg">
  <defs
     id="defs842">
    <linearGradient
       id="linearGradient1474"
       osb:paint="solid">
      <stop
         style="stop-color:#ffffff;stop-opacity:1;"
         offset="0"
         id="stop1472" />
    </linearGradient>
  </defs>
  <sodipodi:namedview
     id="base"
     pagecolor="#ffffff"
     bordercolor="#666666"
     borderopacity="1.0"
     inkscape:pageopacity="0.0"
     inkscape:pageshadow="2"
     inkscape:zoom="7.9195959"
     inkscape:cx="32.488764"
     inkscape:cy="39.126454"
     inkscape:document-units="px"
     inkscape:current-layer="layer1"
     inkscape:document-rotation="0"
     showgrid="false"
     inkscape:window-width="1920"
     inkscape:window-height="1001"
     inkscape:window-x="-9"
     inkscape:window-y="-9"
     inkscape:window-maximized="1"
     inkscape:grid-bbox="true">
    <inkscape:grid
       type="xygrid"
       id="grid1478" />
  </sodipodi:namedview>
  <metadata
     id="metadata845">
    <rdf:RDF>
      <cc:Work
         rdf:about="">
        <dc:format>image/svg+xml</dc:format>
        <dc:type
           rdf:resource="http://purl.org/dc/dcmitype/StillImage" />
        <dc:title />
      </cc:Work>
    </rdf:RDF>
  </metadata>
  <g
     inkscape:label="Calque 1"
     inkscape:groupmode="layer"
     id="layer1">
    <path
       style="display:inline;fill:#663300;fill-opacity:1;stroke-width:0.165152"
       d="m 44.525429,61.515275 c -6.491026,-5.175082 -8.047743,-5.874643 -10.519486,-4.72724 -1.526281,0.708512 -2.02267,1.753765 -2.024132,4.262282 -6.69e-4,1.005359 -0.07283,1.649057 -0.19911,1.775386 -0.249941,0.249942 -16.71767,1.02058 -19.513585,0.03074 1.004722,-6.222899 -2.4099979,-20.016507 5.023684,-5.674638 2.616831,0.340798 -3.761534,0.310162 -4.018962,-0.548261 C 10.738183,48.17815 15.06524,40.834033 29.1733,29.648169 c 4.293001,-3.403794 4.420938,-3.484313 4.803818,-3.022966 0.543273,0.654591 3.403886,2.212181 4.062833,2.212181 0.04629,0 -0.431376,-0.552065 -1.06151,-1.226801 -2.59884,-2.782817 -3.424678,-6.0648 -2.434046,-9.67324 0.476332,-1.735066 0.889773,-1.937612 2.893101,-1.417324 0.495958,0.128811 1.4963,0.351005 2.22296,0.49378 0.72667,0.142774 1.61363,0.329927 1.97102,0.415892 0.596985,0.143602 0.74229,0.102322 1.787522,-0.508141 4.613127,-2.694219 11.706254,-4.005442 16.842711,-3.113514 3.559139,0.618028 3.967113,1.085546 3.179027,3.643039 -1.251623,4.061753 -2.670932,6.49554 -6.591954,11.303737 -5.573879,6.835007 -7.43703,11.047716 -8.91113,20.148561 -0.730754,4.511575 -0.828425,5.677617 -0.823094,9.826555 0.0068,5.127286 0.152055,4.970806 -2.589129,2.785344 z M 52.729491,20.75847 c 0.773771,-0.471829 1.051481,-0.971664 1.051481,-1.892532 0,-2.248755 -3.198923,-2.899386 -4.06492,-0.826768 -0.812963,1.945699 1.241606,3.799708 3.013439,2.7193 z"
       id="path837"
       inkscape:connector-curvature="0"
       sodipodi:nodetypes="sscsccsscscsscssssssssscssc" />
    <g
       id="g4"
       transform="matrix(-0.09386477,0,0,0.09386477,29.54492,1.2186949)"
       style="fill:#663300;fill-opacity:1">
      <path
         inkscape:connector-curvature="0"
         id="path2"
         d="M 150.648,0 C 67.584,0 0,67.584 0,150.648 c 0,83.07 67.584,150.647 150.648,150.647 83.07,0 150.648,-67.577 150.648,-150.647 C 301.296,67.584 233.718,0 150.648,0 Z m 78.04212,172.46724 h -56.2589 v 56.21335 c 0,3.387 -18.38122,6.14976 -21.78322,6.14976 -3.393,0 -21.16946,-2.82523 -21.81174,-6.14976 V 172.46724 H 72.622904 c -3.396,0 -6.149759,-18.42024 -6.149759,-21.81824 0,-3.393 2.753759,-21.82227 6.149759,-21.82227 H 128.83626 V 72.613375 c 0,-3.393 18.41974,-6.149759 21.81274,-6.149759 3.402,0 21.13673,2.819742 21.78222,6.149759 v 56.213355 h 56.2589 c 3.398,0 6.14976,18.42227 6.14976,21.81427 0,3.394 -2.81235,21.18213 -6.14976,21.82624 z"
         sodipodi:nodetypes="sssssscssscssscssscsss"
         style="fill:#663300;fill-opacity:1" />
    </g>
  </g>
</svg>
