<?xml version="1.0" encoding="UTF-8" standalone="no"?>
<svg
   xmlns:dc="http://purl.org/dc/elements/1.1/"
   xmlns:cc="http://creativecommons.org/ns#"
   xmlns:rdf="http://www.w3.org/1999/02/22-rdf-syntax-ns#"
   xmlns:svg="http://www.w3.org/2000/svg"
   xmlns="http://www.w3.org/2000/svg"
   xmlns:sodipodi="http://sodipodi.sourceforge.net/DTD/sodipodi-0.dtd"
   xmlns:inkscape="http://www.inkscape.org/namespaces/inkscape"
   width="64px"
   height="64px"
   viewBox="0 0 64 64"
   version="1.1"
   id="SVGRoot"
   sodipodi:docname="icon-key.svg"
   inkscape:version="1.0beta1 (fe3e306, 2019-09-17)"
   inkscape:export-filename="C:\Users\nbertin\Documents\Personnel\Rats\LORD\CakeLORD\docs\cdc\icon-backoffice.png"
   inkscape:export-xdpi="96"
   inkscape:export-ydpi="96">
  <sodipodi:namedview
     pagecolor="#ffffff"
     bordercolor="#666666"
     inkscape:document-rotation="0"
     borderopacity="1"
     objecttolerance="10"
     gridtolerance="10"
     guidetolerance="10"
     inkscape:pageopacity="0"
     inkscape:pageshadow="2"
     inkscape:window-width="1920"
     inkscape:window-height="1001"
     id="namedview39"
     showgrid="false"
     inkscape:zoom="3.6875"
     inkscape:cx="32"
     inkscape:cy="32"
     inkscape:window-x="-9"
     inkscape:window-y="-9"
     inkscape:window-maximized="1"
     inkscape:current-layer="SVGRoot" />
  <defs
     id="defs830">
    <filter
       height="1.0099308"
       y="-0.0049654186"
       width="1.0099308"
       x="-0.0049654186"
       id="filter901"
       style="color-interpolation-filters:sRGB">
      <feGaussianBlur
         id="feGaussianBlur903"
         stdDeviation="0.95998094" />
    </filter>
    <filter
       height="1.0096002"
       y="-0.0048000949"
       width="1.0095998"
       x="-0.0047999051"
       id="filter905"
       style="color-interpolation-filters:sRGB">
      <feGaussianBlur
         id="feGaussianBlur907"
         stdDeviation="0.12254071" />
    </filter>
    <filter
       height="1.0179996"
       y="-0.0089998216"
       width="1.0179996"
       x="-0.0089998216"
       id="filter909"
       style="color-interpolation-filters:sRGB">
      <feGaussianBlur
         id="feGaussianBlur911"
         stdDeviation="0.12254071" />
    </filter>
    <filter
       height="1.0719986"
       y="-0.035999285"
       width="1.0719986"
       x="-0.03599929"
       id="filter913"
       style="color-interpolation-filters:sRGB">
      <feGaussianBlur
         id="feGaussianBlur915"
         stdDeviation="0.12254071" />
    </filter>
    <filter
       height="1.041142"
       y="-0.02057102"
       width="1.041142"
       x="-0.020571022"
       id="filter917"
       style="color-interpolation-filters:sRGB">
      <feGaussianBlur
         id="feGaussianBlur919"
         stdDeviation="0.12254071" />
    </filter>
    <filter
       height="1.0151576"
       y="-0.0075787971"
       width="1.0151576"
       x="-0.0075787967"
       id="filter921"
       style="color-interpolation-filters:sRGB">
      <feGaussianBlur
         id="feGaussianBlur923"
         stdDeviation="0.12254071" />
    </filter>
  </defs>
  <metadata
     id="metadata833">
    <rdf:RDF>
      <cc:Work
         rdf:about="">
        <dc:format>image/svg+xml</dc:format>
        <dc:type
           rdf:resource="http://purl.org/dc/dcmitype/StillImage" />
        <dc:title></dc:title>
      </cc:Work>
    </rdf:RDF>
  </metadata>
  <path
     style="stroke-width:0.629375;fill:#ffffff;fill-opacity:1"
     inkscape:connector-curvature="0"
     d="m 8.6534974,10.733629 c 6.6355046,-6.6355053 17.3946776,-6.6355053 24.0295536,0 4.331362,4.330732 5.818576,10.416163 4.493741,15.967884 -0.03399,0.145386 0.04406,0.317205 0.178113,0.383919 l 6.181097,3.090863 c 0.3021,0.158603 0.508535,0.475179 0.508535,0.840846 0,0.259302 -0.103847,0.494059 -0.27252,0.665249 l -3.671776,3.671147 c -0.105735,0.105106 -0.105735,0.276926 0,0.382661 l 19.959384,19.958754 c 0.162379,0.170561 0.26245,0.401541 0.26245,0.655809 v 5.100459 c 0,0.524269 -0.424828,0.949098 -0.949098,0.949098 H 49.222409 c -0.52427,0 -0.948469,-0.424829 -0.948469,-0.948469 l -0.0013,-4.387376 c 0,-0.149162 -0.12084,-0.270632 -0.271261,-0.270632 l -4.386117,-6.29e-4 c -0.52427,0 -0.949098,-0.424828 -0.949098,-0.949098 l -6.3e-4,-4.386747 c 6.3e-4,-0.149162 -0.12084,-0.270631 -0.270631,-0.270631 l -4.386747,-6.3e-4 c -0.52427,0 -0.948469,-0.424828 -0.948469,-0.949098 l -6.29e-4,-4.386747 c 6.29e-4,-0.149162 -0.08559,-0.356226 -0.19196,-0.462591 l -3.209185,-3.209185 c -0.105735,-0.105735 -0.277555,-0.105735 -0.38329,0 l -3.693804,3.693804 c -0.169302,0.156085 -0.393989,0.251121 -0.642593,0.250492 -0.365037,6.29e-4 -0.682243,-0.205806 -0.840845,-0.509165 L 25.007147,39.43189 c -0.06671,-0.134057 -0.238533,-0.212729 -0.384548,-0.177484 -5.551091,1.324206 -11.635264,-0.162378 -15.9678836,-4.49437 -6.635503,-6.633617 -6.635503,-17.391531 -0.0013,-24.026407 z m 4.5088456,10.64148 c 1.69302,1.694279 4.439614,1.694908 6.133263,6.29e-4 1.694908,-1.694908 1.694908,-4.440873 6.3e-4,-6.135152 -1.69302,-1.693649 -4.440873,-1.694278 -6.133893,0 -1.694908,1.694908 -1.69302,4.440244 0,6.134523 z"
     id="path2" />
</svg>
