<?xml version="1.0" encoding="UTF-8" standalone="no"?>
<svg
   xmlns:dc="http://purl.org/dc/elements/1.1/"
   xmlns:cc="http://creativecommons.org/ns#"
   xmlns:rdf="http://www.w3.org/1999/02/22-rdf-syntax-ns#"
   xmlns:svg="http://www.w3.org/2000/svg"
   xmlns="http://www.w3.org/2000/svg"
   width="64px"
   height="64px"
   viewBox="0 0 64 64"
   version="1.1"
   id="SVGRoot">
  <defs
     id="defs830" />
  <metadata
     id="metadata833">
    <rdf:RDF>
      <cc:Work
         rdf:about="">
        <dc:format>image/svg+xml</dc:format>
        <dc:type
           rdf:resource="http://purl.org/dc/dcmitype/StillImage" />
        <dc:title></dc:title>
      </cc:Work>
    </rdf:RDF>
  </metadata>
  <path
     style="fill:#663300;fill-opacity:1;stroke-width:2.99428"
     id="path2"
     d="m 31.999997,53.558824 c -7.485702,0 -14.103063,-3.83268 -17.965686,-9.581699 0.08983,-5.988562 11.977124,-9.282271 17.965686,-9.282271 5.988562,0 17.875858,3.293709 17.965686,9.282271 -3.862622,5.749019 -10.479983,9.581699 -17.965686,9.581699 m 0,-42.518791 a 8.982843,8.982843 0 0 1 8.982843,8.982843 8.982843,8.982843 0 0 1 -8.982843,8.982844 8.982843,8.982843 0 0 1 -8.982843,-8.982844 8.982843,8.982843 0 0 1 8.982843,-8.982843 m 0,-8.9828437 A 29.94281,29.94281 0 0 0 2.057193,32.000001 a 29.94281,29.94281 0 0 0 29.942804,29.94281 29.94281,29.94281 0 0 0 29.94281,-29.94281 c 0,-16.558375 -13.474264,-29.9428117 -29.94281,-29.9428117 z" />
</svg>
