<?xml version="1.0" encoding="UTF-8" standalone="no"?>
<svg
   xmlns:osb="http://www.openswatchbook.org/uri/2009/osb"
   xmlns:dc="http://purl.org/dc/elements/1.1/"
   xmlns:cc="http://creativecommons.org/ns#"
   xmlns:rdf="http://www.w3.org/1999/02/22-rdf-syntax-ns#"
   xmlns:svg="http://www.w3.org/2000/svg"
   xmlns="http://www.w3.org/2000/svg"
   xmlns:sodipodi="http://sodipodi.sourceforge.net/DTD/sodipodi-0.dtd"
   xmlns:inkscape="http://www.inkscape.org/namespaces/inkscape"
   sodipodi:docname="icon-litter.svg"
   inkscape:version="1.0beta1 (fe3e306, 2019-09-17)"
   width="64px"
   height="64px"
   viewBox="0 0 64 64"
   version="1.1"
   id="SVGRoot">
  <defs
     id="defs842">
    <linearGradient
       osb:paint="solid"
       id="linearGradient1474">
      <stop
         id="stop1472"
         offset="0"
         style="stop-color:#ffffff;stop-opacity:1;" />
    </linearGradient>
  </defs>
  <sodipodi:namedview
     inkscape:grid-bbox="true"
     inkscape:window-maximized="1"
     inkscape:window-y="-9"
     inkscape:window-x="-9"
     inkscape:window-height="1001"
     inkscape:window-width="1920"
     showgrid="false"
     inkscape:document-rotation="0"
     inkscape:current-layer="layer1"
     inkscape:document-units="px"
     inkscape:cy="48.215849"
     inkscape:cx="40.072955"
     inkscape:zoom="7.9195959"
     inkscape:pageshadow="2"
     inkscape:pageopacity="0.0"
     borderopacity="1.0"
     bordercolor="#666666"
     pagecolor="#ffffff"
     id="base">
    <inkscape:grid
       id="grid1478"
       type="xygrid" />
  </sodipodi:namedview>
  <metadata
     id="metadata845">
    <rdf:RDF>
      <cc:Work
         rdf:about="">
        <dc:format>image/svg+xml</dc:format>
        <dc:type
           rdf:resource="http://purl.org/dc/dcmitype/StillImage" />
        <dc:title></dc:title>
      </cc:Work>
    </rdf:RDF>
  </metadata>
  <g
     id="layer1"
     inkscape:groupmode="layer"
     inkscape:label="Calque 1">
    <g
       style="fill:#663300;fill-opacity:1"
       transform="matrix(0,-0.69694394,-0.69694394,0,58.048729,58.488741)"
       id="g2723">
      <path
         style="fill:#663300;fill-opacity:1"
         id="path2-9"
         d="m 52.625024,1.4314358 c -1.765,-1.76499998 -3.56,-1.76599998 -5.324,0 l -2.632,2.6330004 c -1.766,1.766 -1.766,3.559 0,5.324 l 21.322,21.3219998 c 1.766,1.765 3.561,1.768 5.326,0 l 2.631,-2.63 c 1.768,-1.767 1.765,-3.562 -0.002,-5.327 z"
         inkscape:connector-curvature="0" />
      <path
         style="fill:#663300;fill-opacity:1"
         id="path4"
         d="m 81.297024,3.3394362 c 2.69,-2.94300038 1.903,-6.7840004 -0.283,-8.9700004 -2.188,-2.188 -6.026,-2.975 -8.971,-0.284 -1.734,1.734 -1.688,3.71 -3.026,5.04700002 -2.555,2.55599998 -9.297,-2.48300002 -13.33,1.265 l 19.299,19.29900018 c 3.748,-4.033 -1.291,-10.7749998 1.265,-13.3299998 1.337,-1.336 3.313,-1.294 5.046,-3.027 z"
         inkscape:connector-curvature="0" />
      <path
         style="fill:#663300;fill-opacity:1"
         id="path6"
         d="m 42.890024,11.775436 c -4.402,-4.4009998 -8.883,-4.4009998 -13.283,0 l -3.481,3.481 10.564,10.565 c 0.912,0.912 0.912,2.395 -10e-4,3.308 -0.913,0.913 -2.396,0.914 -3.308,0 l -10.565,-10.564 -7.286,7.287 10.566,10.566 c 0.913,0.912 0.913,2.394 0,3.306 -0.913,0.913 -2.396,0.916 -3.308,0.004 l -10.567,-10.568 -7.286,7.286 10.569,10.567 c 0.912,0.912 0.911,2.393 -0.003,3.307 -0.913,0.914 -2.394,0.916 -3.307,0 l -10.567,-10.564 -5.318,5.318 c -4.401,4.401 -4.401,8.881 0,13.284 l 20.717,20.715 c 4.401,4.402 8.882,4.402 13.284,0.002 l 33.299,-33.299 c 4.4,-4.401 4.4,-8.882 -0.002,-13.284 z"
         inkscape:connector-curvature="0" />
    </g>
  </g>
</svg>
