<?xml version="1.0" encoding="UTF-8" standalone="no"?>
<svg
   xmlns:osb="http://www.openswatchbook.org/uri/2009/osb"
   xmlns:dc="http://purl.org/dc/elements/1.1/"
   xmlns:cc="http://creativecommons.org/ns#"
   xmlns:rdf="http://www.w3.org/1999/02/22-rdf-syntax-ns#"
   xmlns:svg="http://www.w3.org/2000/svg"
   xmlns="http://www.w3.org/2000/svg"
   xmlns:sodipodi="http://sodipodi.sourceforge.net/DTD/sodipodi-0.dtd"
   xmlns:inkscape="http://www.inkscape.org/namespaces/inkscape"
   sodipodi:docname="icon-litter.svg"
   inkscape:version="1.0beta1 (fe3e306, 2019-09-17)"
   width="64px"
   height="64px"
   viewBox="0 0 64 64"
   version="1.1"
   id="SVGRoot">
  <defs
     id="defs842">
    <linearGradient
       osb:paint="solid"
       id="linearGradient1474">
      <stop
         id="stop1472"
         offset="0"
         style="stop-color:#ffffff;stop-opacity:1;" />
    </linearGradient>
  </defs>
  <sodipodi:namedview
     inkscape:grid-bbox="true"
     inkscape:window-maximized="1"
     inkscape:window-y="-9"
     inkscape:window-x="-9"
     inkscape:window-height="1001"
     inkscape:window-width="1920"
     showgrid="false"
     inkscape:document-rotation="0"
     inkscape:current-layer="layer1"
     inkscape:document-units="px"
     inkscape:cy="48.215849"
     inkscape:cx="40.072955"
     inkscape:zoom="7.9195959"
     inkscape:pageshadow="2"
     inkscape:pageopacity="0.0"
     borderopacity="1.0"
     bordercolor="#666666"
     pagecolor="#ffffff"
     id="base">
    <inkscape:grid
       id="grid1478"
       type="xygrid" />
  </sodipodi:namedview>
  <metadata
     id="metadata845">
    <rdf:RDF>
      <cc:Work
         rdf:about="">
        <dc:format>image/svg+xml</dc:format>
        <dc:type
           rdf:resource="http://purl.org/dc/dcmitype/StillImage" />
        <dc:title></dc:title>
      </cc:Work>
    </rdf:RDF>
  </metadata>
  <g
     id="layer1"
     inkscape:groupmode="layer"
     inkscape:label="Calque 1">
    <g
       style="fill:#663300;fill-opacity:1"
       transform="matrix(0,1.2042341,-1.2042341,0,76.938238,-13.128724)"
       id="g2690">
      <path
         style="fill:#663300;fill-opacity:1;stroke-width:0.101433"
         inkscape:connector-curvature="0"
         id="path2-1"
         d="m 12.640056,12.942543 c 0.854362,-0.980651 2.037884,-1.545225 3.332468,-1.589752 1.276435,-0.04395 2.526801,0.448738 3.429752,1.351593 0.14079,0.140791 0.597438,0.595918 0.994546,0.991613 0.723121,0.720472 1.707417,1.136952 2.727523,1.101452 0.606073,-0.02114 1.216385,-0.167264 1.796281,-0.43869 1.981895,-0.927608 4.344568,-0.539728 5.928239,0.958535 L 15.475304,30.689632 c -1.51033,-1.595536 -1.891725,-3.972105 -0.94211,-5.96273 0.02542,-0.05333 0.04977,-0.107131 0.07304,-0.161171 0.681326,-1.583065 0.251757,-3.426807 -1.002053,-4.609414 -0.382701,-0.36099 -0.780225,-0.743193 -0.931253,-0.912998 -1.54026,-1.731552 -1.554453,-4.354296 -0.0329,-6.100776 z" />
      <path
         style="fill:#663300;fill-opacity:1;stroke-width:0.101433"
         inkscape:connector-curvature="0"
         id="path4"
         d="m 45.035352,28.569785 -3.718933,3.718637 c -0.594196,0.594088 -0.594291,1.557493 -9.5e-5,2.151689 0.297092,0.297092 0.686492,0.445697 1.075892,0.445697 0.3894,0 0.778705,-0.148498 1.075797,-0.44559 l 3.719136,-3.718839 2.801576,2.801374 -3.718934,3.718625 c -0.594196,0.594089 -0.594291,1.557506 -1.07e-4,2.151701 0.297104,0.297092 0.686504,0.445686 1.075904,0.445686 0.3894,0 0.778693,-0.148499 1.075797,-0.445591 l 3.719136,-3.718827 2.801564,2.801375 -3.718922,3.718625 c -0.594195,0.594089 -0.594302,1.557493 -1.07e-4,2.151689 0.297092,0.297092 0.686492,0.445697 1.075904,0.445697 0.389401,0 0.778694,-0.148498 1.075786,-0.44559 l 3.719135,-3.718839 5.902383,5.901872 c 0.285226,0.285333 0.44559,0.672299 0.44559,1.075892 0,0.403605 -0.160364,0.79057 -0.445697,1.075904 L 48.837865,62.83804 c -0.297092,0.297104 -0.686397,0.445602 -1.075797,0.445602 -0.3894,0 -0.778693,-0.148498 -1.075797,-0.445602 l -20.757,-20.755171 16.310087,-16.30877 z" />
      <path
         style="fill:#663300;fill-opacity:1;stroke-width:0.101433"
         inkscape:connector-curvature="0"
         id="path6"
         d="m 33.970657,16.355655 c 0.594089,-0.594089 1.557506,-0.594089 2.151701,0 l 4.612039,4.611646 c 0.285334,0.285334 0.445697,0.672394 0.445697,1.075904 0,0.403499 -0.160363,0.790559 -0.445697,1.075893 L 23.27396,40.578109 c -0.297092,0.297104 -0.686492,0.445603 -1.075797,0.445603 -0.389294,0 -0.778801,-0.148499 -1.075786,-0.445603 l -4.61205,-4.611634 c -0.285334,-0.285334 -0.445697,-0.672299 -0.445697,-1.075904 0,-0.403593 0.160268,-0.790559 0.445697,-1.075892 z" />
    </g>
  </g>
</svg>
