<?xml version="1.0" encoding="UTF-8" standalone="no"?>
<svg
   xmlns:dc="http://purl.org/dc/elements/1.1/"
   xmlns:cc="http://creativecommons.org/ns#"
   xmlns:rdf="http://www.w3.org/1999/02/22-rdf-syntax-ns#"
   xmlns:svg="http://www.w3.org/2000/svg"
   xmlns="http://www.w3.org/2000/svg"
   width="20px"
   height="10px"
   viewBox="0 0 20 10"
   version="1.1"
   id="SVGRoot">
  <defs
     id="defs840" />
  <metadata
     id="metadata843">
    <rdf:RDF>
      <cc:Work
         rdf:about="">
        <dc:format>image/svg+xml</dc:format>
        <dc:type
           rdf:resource="http://purl.org/dc/dcmitype/StillImage" />
        <dc:title></dc:title>
      </cc:Work>
    </rdf:RDF>
  </metadata>
  <g
     id="layer1">
    <path
       style="fill:#ffd42a;fill-opacity:1;stroke-width:0.00209983"
       d="M 4.0438176,0.09142095 C 2.1088697,0.39350451 0.48209238,2.1595594 0.18921761,4.2695396 0.0195362,5.4986806 0.262519,6.6397608 0.92934404,7.7556474 1.1259954,8.0870826 1.8699437,8.8840233 2.1936103,9.1149096 c 0.5859411,0.4111736 1.1795256,0.6628742 1.8194068,0.7675843 0.5627928,0.092225 11.4096089,0.092225 11.9724019,0 C 16.952994,9.723017 17.835625,9.2196197 18.544953,8.4226827 19.254076,7.6257458 19.670535,6.7363656 19.813043,5.7085395 19.9789,4.500426 19.732125,3.3426984 19.069097,2.2351367 18.992009,2.1008523 18.733758,1.7862823 18.502481,1.5304217 17.920366,0.89690192 17.423194,0.55714154 16.713869,0.29711956 16.000715,0.03709667 16.201196,0.04541897 9.9605738,0.04958296 6.8346264,0.05356221 4.1710329,0.07038874 4.0438176,0.09142095 Z m 11.7372984,0.8346166 c 1.638252,0.21818495 2.875547,1.43483955 3.222363,3.16737875 0.08877,0.4571757 0.08877,1.3465562 0,1.8037319 -0.316019,1.5689019 -1.372157,2.7268494 -2.836903,3.1084506 -0.269922,0.071191 -0.666855,0.075577 -5.916756,0.092224 -3.9393388,0.00834 -5.7394242,0 -6.0016988,-0.03352 C 3.3230176,8.951048 2.6060395,8.581935 1.9778326,7.8938693 1.0412549,6.8662623 0.69041807,5.3056824 1.0603812,3.8248447 1.4458403,2.281134 2.6676317,1.1400537 4.1595589,0.93041378 4.5526703,0.87586967 15.376332,0.87148302 15.781116,0.92605554 Z"
       id="path4-6" />
    <circle
       r="3.3705356"
       cy="5.0223217"
       cx="14.84375"
       id="path1446"
       style="fill:#ffd42a;fill-opacity:1;stroke-width:0" />
    <text
       transform="scale(0.86213013,1.1599177)"
       id="text1454"
       y="6.812367"
       x="2.0747349"
       style="font-style:normal;font-variant:normal;font-weight:bold;font-stretch:semi-condensed;font-size:6.89704px;line-height:1.25;font-family:'DejaVu Sans';-inkscape-font-specification:'DejaVu Sans Bold Semi-Condensed';font-variant-ligatures:normal;font-variant-caps:normal;font-variant-numeric:normal;font-variant-east-asian:normal;letter-spacing:0px;word-spacing:0px;stroke-width:0.86213"
       xml:space="preserve"><tspan
         style="font-style:normal;font-variant:normal;font-weight:bold;font-stretch:semi-condensed;font-size:6.89704px;font-family:'DejaVu Sans';-inkscape-font-specification:'DejaVu Sans Bold Semi-Condensed';font-variant-ligatures:normal;font-variant-caps:normal;font-variant-numeric:normal;font-variant-east-asian:normal;fill:#ffd42a;stroke-width:0.86213"
         y="6.812367"
         x="2.0747349"
         id="tspan1452">ON</tspan></text>
  </g>
</svg>
