<?xml version="1.0" encoding="UTF-8" standalone="no"?>
<svg
   xmlns:osb="http://www.openswatchbook.org/uri/2009/osb"
   xmlns:dc="http://purl.org/dc/elements/1.1/"
   xmlns:cc="http://creativecommons.org/ns#"
   xmlns:rdf="http://www.w3.org/1999/02/22-rdf-syntax-ns#"
   xmlns:svg="http://www.w3.org/2000/svg"
   xmlns="http://www.w3.org/2000/svg"
   id="SVGRoot"
   version="1.1"
   viewBox="0 0 64 64"
   height="64px"
   width="64px">
  <defs
     id="defs842">
    <linearGradient
       id="linearGradient1474"
       osb:paint="solid">
      <stop
         style="stop-color:#ffffff;stop-opacity:1;"
         offset="0"
         id="stop1472" />
    </linearGradient>
  </defs>
  <metadata
     id="metadata845">
    <rdf:RDF>
      <cc:Work
         rdf:about="">
        <dc:format>image/svg+xml</dc:format>
        <dc:type
           rdf:resource="http://purl.org/dc/dcmitype/StillImage" />
        <dc:title></dc:title>
      </cc:Work>
    </rdf:RDF>
  </metadata>
  <g
     id="layer1">
    <g
       style="font-weight:500;font-size:209.459px;line-height:1.25;font-family:'Sassoon Sans Std';-inkscape-font-specification:'Sassoon Sans Std Medium';letter-spacing:0px;word-spacing:0px;fill:#663300;fill-opacity:1;stroke-width:3.2728"
       id="text855"
       aria-label="“">
      <path
         id="path835"
         style="font-style:italic;font-variant:normal;font-weight:normal;font-stretch:normal;font-size:209.459px;font-family:Alegreya;-inkscape-font-specification:'Alegreya Italic';font-variant-ligatures:normal;font-variant-caps:normal;font-variant-numeric:normal;font-variant-east-asian:normal;fill:#663300;fill-opacity:1;stroke-width:3.2728"
         d="m 56.297245,46.527273 c -4.608098,-2.722967 -8.37836,-7.331065 -8.37836,-12.986458 0,-7.121606 6.702688,-15.499966 15.081048,-20.736441 v -2.09459 L 59.229671,7.5678994 C 47.709426,13.64221 32.418919,24.952996 32.418919,40.034044 c 0,9.216196 5.027016,14.871589 11.310786,14.871589 4.608098,0 9.425655,-3.351344 12.148622,-5.445934 z m -31.41885,0 c -4.608098,-2.722967 -8.37836,-7.331065 -8.37836,-12.986458 0,-7.121606 6.702688,-15.499966 15.081048,-20.736441 v -2.09459 L 27.810821,7.5678994 C 16.290576,13.64221 1.0000687,24.952996 1.0000687,40.034044 c 0,9.216196 5.027016,14.871589 11.3107863,14.871589 4.608098,0 9.425655,-3.351344 12.148622,-5.445934 z" />
    </g>
  </g>
</svg>
