<?xml version="1.0" encoding="UTF-8" standalone="no"?>
<svg
   xmlns:dc="http://purl.org/dc/elements/1.1/"
   xmlns:cc="http://creativecommons.org/ns#"
   xmlns:rdf="http://www.w3.org/1999/02/22-rdf-syntax-ns#"
   xmlns:svg="http://www.w3.org/2000/svg"
   xmlns="http://www.w3.org/2000/svg"
   xmlns:sodipodi="http://sodipodi.sourceforge.net/DTD/sodipodi-0.dtd"
   xmlns:inkscape="http://www.inkscape.org/namespaces/inkscape"
   inkscape:version="1.0beta1 (fe3e306, 2019-09-17)"
   sodipodi:docname="icon-edit-admin.svg"
   id="svg4"
   viewBox="0 0 24 24"
   height="24"
   width="24"
   version="1.1">
  <metadata
     id="metadata10">
    <rdf:RDF>
      <cc:Work
         rdf:about="">
        <dc:format>image/svg+xml</dc:format>
        <dc:type
           rdf:resource="http://purl.org/dc/dcmitype/StillImage" />
        <dc:title></dc:title>
      </cc:Work>
    </rdf:RDF>
  </metadata>
  <defs
     id="defs8" />
  <sodipodi:namedview
     inkscape:current-layer="svg4"
     inkscape:window-maximized="0"
     inkscape:window-y="0"
     inkscape:window-x="0"
     inkscape:cy="12"
     inkscape:cx="12"
     inkscape:zoom="9.8333333"
     showgrid="false"
     id="namedview6"
     inkscape:window-height="975"
     inkscape:window-width="1810"
     inkscape:pageshadow="2"
     inkscape:pageopacity="0"
     guidetolerance="10"
     gridtolerance="10"
     objecttolerance="10"
     borderopacity="1"
     inkscape:document-rotation="0"
     bordercolor="#666666"
     pagecolor="#ffffff" />
  <path
     inkscape:connector-curvature="0"
     style="fill:#b1000c;fill-opacity:1;stroke-width:1.08645"
     id="path2"
     d="m 3.4915255,14.172902 v 3.259353 c 0,2.172902 3.3136756,4.041598 7.6051575,4.345804 v -3.139844 l 0.141238,-0.119509 C 6.8812527,18.257958 3.4915255,16.410991 3.4915255,14.172902 m 8.6916085,-1.086451 c -4.8021138,0 -8.6916085,-1.944748 -8.6916085,-4.3458043 V 12 c 0,2.401056 3.8894947,4.345804 8.6916085,4.345804 0.423716,0 0.836567,0 1.260283,0 l 4.171972,-4.215429 c -1.738322,0.65187 -3.574424,0.956077 -5.432255,0.956077 m 0,-10.8645115 c -4.8021138,0 -8.6916085,1.9447473 -8.6916085,4.3458041 0,2.4010569 3.8894947,4.3458054 8.6916085,4.3458054 4.802113,0 8.691608,-1.9447485 8.691608,-4.3458054 0,-2.4010568 -3.889495,-4.3458041 -8.691608,-4.3458041 m 9.778059,8.8328475 c -0.162968,0 -0.315071,0.06519 -0.423716,0.184697 l -1.086451,1.086451 2.227225,2.172902 1.086451,-1.086451 c 0.228155,-0.21729 0.239019,-0.586684 0,-0.836567 l -1.347199,-1.336335 c -0.108646,-0.11951 -0.260749,-0.184697 -0.412852,-0.184697 m -2.172902,1.901289 -6.562164,6.583893 v 2.238089 h 2.238089 l 6.583893,-6.594758 z" />
</svg>
