<?xml version="1.0" encoding="UTF-8" standalone="no"?>
<svg
   xmlns:osb="http://www.openswatchbook.org/uri/2009/osb"
   xmlns:dc="http://purl.org/dc/elements/1.1/"
   xmlns:cc="http://creativecommons.org/ns#"
   xmlns:rdf="http://www.w3.org/1999/02/22-rdf-syntax-ns#"
   xmlns:svg="http://www.w3.org/2000/svg"
   xmlns="http://www.w3.org/2000/svg"
   xmlns:sodipodi="http://sodipodi.sourceforge.net/DTD/sodipodi-0.dtd"
   xmlns:inkscape="http://www.inkscape.org/namespaces/inkscape"
   sodipodi:docname="icon-rat-add.svg"
   inkscape:version="1.0beta1 (fe3e306, 2019-09-17)"
   width="64px"
   height="64px"
   viewBox="0 0 64 64"
   version="1.1"
   id="SVGRoot">
  <defs
     id="defs842">
    <linearGradient
       osb:paint="solid"
       id="linearGradient1474">
      <stop
         id="stop1472"
         offset="0"
         style="stop-color:#ffffff;stop-opacity:1;" />
    </linearGradient>
  </defs>
  <sodipodi:namedview
     inkscape:grid-bbox="true"
     inkscape:window-maximized="1"
     inkscape:window-y="-9"
     inkscape:window-x="-9"
     inkscape:window-height="1001"
     inkscape:window-width="1920"
     showgrid="false"
     inkscape:document-rotation="0"
     inkscape:current-layer="layer1"
     inkscape:document-units="px"
     inkscape:cy="30.313467"
     inkscape:cx="15.81113"
     inkscape:zoom="7.9195959"
     inkscape:pageshadow="2"
     inkscape:pageopacity="0.0"
     borderopacity="1.0"
     bordercolor="#666666"
     pagecolor="#ffffff"
     id="base">
    <inkscape:grid
       id="grid1478"
       type="xygrid" />
  </sodipodi:namedview>
  <metadata
     id="metadata845">
    <rdf:RDF>
      <cc:Work
         rdf:about="">
        <dc:format>image/svg+xml</dc:format>
        <dc:type
           rdf:resource="http://purl.org/dc/dcmitype/StillImage" />
        <dc:title></dc:title>
      </cc:Work>
    </rdf:RDF>
  </metadata>
  <g
     id="layer1"
     inkscape:groupmode="layer"
     inkscape:label="Calque 1">
    <path
       sodipodi:nodetypes="sscssssccssssscscsscssssssssssss"
       inkscape:connector-curvature="0"
       id="path837"
       d="m 45.331472,57.847689 c -5.878726,-4.686915 -7.288598,-5.320486 -9.527181,-4.281318 -1.382307,0.641678 -1.831871,1.588332 -1.833196,3.86022 -6.06e-4,0.910524 -0.06596,1.493502 -0.180327,1.607914 -0.226364,0.226364 -14.995856,0.249632 -17.672865,0.02784 C 8.2745681,58.412523 3.8101531,54.646799 1.5796861,46.799405 0.70561708,43.724188 1.3319121,39.534851 3.1210641,36.48899 c 2.162309,-3.681125 4.359231,-5.497606 11.8533779,-9.800722 6.880987,-3.428101 6.921186,-3.486611 12.028045,-6.812065 -0.0072,2.6429 -1.575662,3.993472 -11.803684,10.164643 -8.3041999,5.01042 -10.3953419,7.625358 -10.3953419,12.999175 0,6.372932 3.338594,10.02051 9.9610759,10.882976 2.369985,0.308651 2.496457,0.280904 2.263312,-0.496544 -2.296466,-7.657795 1.622418,-14.30914 14.399663,-24.439839 3.888041,-3.082714 4.00391,-3.155638 4.350673,-2.73781 0.492026,0.592843 3.082797,2.003506 3.679585,2.003506 0.04192,0 -0.390684,-0.499988 -0.961377,-1.111077 -2.353691,-2.520313 -3.101628,-5.492706 -2.204443,-8.760761 0.4314,-1.571397 0.805841,-1.754837 2.620195,-1.283627 0.449174,0.11666 1.355154,0.317894 2.013267,0.447201 0.658123,0.129307 1.461416,0.298805 1.785094,0.376661 0.540672,0.130056 0.67227,0.09267 1.618904,-0.460208 4.17797,-2.440073 10.602002,-3.627609 15.253936,-2.819816 3.223404,0.55973 3.592894,0.983147 2.879148,3.29939 -1.133557,3.678608 -2.418982,5.882815 -5.970133,10.237454 -5.048094,6.19026 -6.735494,10.005583 -8.070542,18.247944 -0.661822,4.085997 -0.75028,5.142046 -0.745451,8.899614 0.0062,4.643628 0.137711,4.501909 -2.344896,2.522602 z m 7.430171,-36.912207 c 0.700781,-0.427321 0.952295,-0.880008 0.952295,-1.71401 0,-2.036629 -2.897168,-2.625886 -3.681475,-0.748779 -0.736276,1.762162 1.124485,3.441282 2.72918,2.462789 z"
       style="display:inline;fill:#663300;fill-opacity:1;stroke-width:0.149573" />
    <g
       style="fill:#663300;fill-opacity:1"
       transform="matrix(-0.08296849,0,0,0.08296849,31.438956,3.239)"
       id="g4">
      <path
         style="fill:#663300;fill-opacity:1"
         sodipodi:nodetypes="sssssscssscssscssscsss"
         d="M 150.648,0 C 67.584,0 0,67.584 0,150.648 c 0,83.07 67.584,150.647 150.648,150.647 83.07,0 150.648,-67.577 150.648,-150.647 C 301.296,67.584 233.718,0 150.648,0 Z m 87.154,181.5627 h -56.2393 v 56.2393 c 0,3.387 -27.5127,6.148 -30.9147,6.148 -3.393,0 -30.9147,-2.762 -30.9147,-6.148 V 181.5627 H 63.501 c -3.396,0 -6.149,-27.5157 -6.149,-30.9137 0,-3.393 2.753,-30.9147 6.149,-30.9147 h 56.2333 V 63.494 c 0,-3.393 27.5217,-6.148 30.9147,-6.148 3.402,0 30.9147,2.756 30.9147,6.148 v 56.2333 h 56.2393 c 3.398,0 6.148,27.5217 6.148,30.9137 0,3.394 -2.75,30.9217 -6.149,30.9217 z"
         id="path2"
         inkscape:connector-curvature="0" />
    </g>
  </g>
</svg>
