<?xml version="1.0" encoding="UTF-8" standalone="no"?>
<svg
   xmlns:dc="http://purl.org/dc/elements/1.1/"
   xmlns:cc="http://creativecommons.org/ns#"
   xmlns:rdf="http://www.w3.org/1999/02/22-rdf-syntax-ns#"
   xmlns:svg="http://www.w3.org/2000/svg"
   xmlns="http://www.w3.org/2000/svg"
   xmlns:sodipodi="http://sodipodi.sourceforge.net/DTD/sodipodi-0.dtd"
   xmlns:inkscape="http://www.inkscape.org/namespaces/inkscape"
   id="SVGRoot"
   version="1.1"
   viewBox="0 0 64 64"
   height="64px"
   width="64px"
   inkscape:version="1.0beta1 (fe3e306, 2019-09-17)"
   sodipodi:docname="icon-list.svg">
  <defs
     id="defs848" />
  <sodipodi:namedview
     id="base"
     pagecolor="#ffffff"
     bordercolor="#666666"
     borderopacity="1.0"
     inkscape:pageopacity="0.0"
     inkscape:pageshadow="2"
     inkscape:zoom="11.2"
     inkscape:cx="30.879053"
     inkscape:cy="36.412025"
     inkscape:document-units="px"
     inkscape:current-layer="layer1"
     inkscape:document-rotation="0"
     showgrid="false"
     inkscape:window-width="1920"
     inkscape:window-height="1001"
     inkscape:window-x="-9"
     inkscape:window-y="-9"
     inkscape:window-maximized="1"
     inkscape:grid-bbox="true" />
  <metadata
     id="metadata851">
    <rdf:RDF>
      <cc:Work
         rdf:about="">
        <dc:format>image/svg+xml</dc:format>
        <dc:type
           rdf:resource="http://purl.org/dc/dcmitype/StillImage" />
        <dc:title />
      </cc:Work>
    </rdf:RDF>
  </metadata>
  <g
     inkscape:label="Calque 1"
     inkscape:groupmode="layer"
     id="layer1">
    <path
       id="path2"
       d="M 32.110927,2.7923681 C -5.663445,2.7658057 3.0716132,-5.089674 2.7946145,32.103935 2.5222864,68.671106 -5.6110044,61.04272 32.111083,61.415638 69.184708,61.782144 61.294419,68.732921 61.42724,32.103935 61.560061,-4.5250506 69.885299,2.8189305 32.110927,2.7923681 Z M 15,47.075545 c -1.423527,0 -2.5,-1.151611 -2.5,-2.575139 0,-1.422725 1.076473,-2.57595 2.5,-2.57595 1.422722,0 2.678907,1.152417 2.678907,2.575142 0,1.423528 -1.256185,2.575947 -2.678907,2.575947 z M 15,34.5 c -1.423527,0 -2.5,-1.076878 -2.5,-2.500407 0,-1.422719 1.076473,-2.57514 2.5,-2.57514 1.422722,0 2.678907,1.152421 2.678907,2.57514 C 17.678907,33.423122 16.422722,34.5 15,34.5 Z M 15,22 c -1.423527,0 -2.5,-1.076475 -2.5,-2.5 0,-1.422725 1.076473,-2.5 2.5,-2.5 1.422722,0 2.678907,1.077275 2.678907,2.5 0,1.423525 -1.256185,2.5 -2.678907,2.5 z M 49.045125,47.000406 H 23.25 c -1.340982,0 -2.333954,-1.010917 -2.333954,-2.351901 0,-1.340983 0.992972,-2.648099 2.333954,-2.648099 h 25.795125 c 1.340996,0 2.427867,1.307116 2.427867,2.648099 0,1.340984 -1.086871,2.351901 -2.427867,2.351901 z m 0,-12.500406 H 23.25 c -1.340982,0 -2.333954,-1.159421 -2.333954,-2.500407 C 20.916046,30.65861 21.909018,29.5 23.25,29.5 h 25.795125 c 1.340996,0 2.427867,1.15861 2.427867,2.499593 0,1.340986 -1.086871,2.500407 -2.427867,2.500407 z m 0,-12.5 H 23.25 c -1.340982,0 -2.333954,-1.15902 -2.333954,-2.5 0,-1.340984 0.992972,-2.5 2.333954,-2.5 h 25.721085 c 1.340996,0 2.501907,1.159015 2.501907,2.5 0,1.34098 -1.086871,2.5 -2.427867,2.5 z"
       inkscape:connector-curvature="0"
       style="fill:#663300;fill-opacity:1;stroke:none;stroke-width:0.809286;stroke-opacity:1"
       sodipodi:nodetypes="zsszzssssssssssssssssssssssssssssssssssss" />
  </g>
</svg>
