<?xml version="1.0" encoding="UTF-8" standalone="no"?>
<svg
   xmlns:dc="http://purl.org/dc/elements/1.1/"
   xmlns:cc="http://creativecommons.org/ns#"
   xmlns:rdf="http://www.w3.org/1999/02/22-rdf-syntax-ns#"
   xmlns:svg="http://www.w3.org/2000/svg"
   xmlns="http://www.w3.org/2000/svg"
   xmlns:sodipodi="http://sodipodi.sourceforge.net/DTD/sodipodi-0.dtd"
   xmlns:inkscape="http://www.inkscape.org/namespaces/inkscape"
   inkscape:version="1.0beta1 (fe3e306, 2019-09-17)"
   sodipodi:docname="icon-help.svg"
   version="1.1"
   width="24"
   height="24"
   viewBox="0 0 24 24"
   id="svg4">
  <sodipodi:namedview
     inkscape:current-layer="svg4"
     inkscape:window-maximized="0"
     inkscape:window-y="0"
     inkscape:window-x="0"
     inkscape:cy="12"
     inkscape:cx="12"
     inkscape:zoom="9.8333333"
     showgrid="false"
     id="namedview6"
     inkscape:window-height="855"
     inkscape:window-width="1607"
     inkscape:pageshadow="2"
     inkscape:pageopacity="0"
     guidetolerance="10"
     gridtolerance="10"
     objecttolerance="10"
     borderopacity="1"
     inkscape:document-rotation="0"
     bordercolor="#666666"
     pagecolor="#ffffff" />
  <metadata
     id="metadata10">
    <rdf:RDF>
      <cc:Work
         rdf:about="">
        <dc:format>image/svg+xml</dc:format>
        <dc:type
           rdf:resource="http://purl.org/dc/dcmitype/StillImage" />
        <dc:title />
      </cc:Work>
    </rdf:RDF>
  </metadata>
  <defs
     id="defs8" />
  <path
     inkscape:connector-curvature="0"
     d="m 20.582204,15.75678 c 1.04661,-2.390678 1.04661,-5.133898 0,-7.5135595 L 17.56356,9.6093223 c 0.661017,1.5203387 0.661017,3.2499997 0.01102,4.7813557 l 3.007622,1.366102 M 15.767797,3.4177968 c -2.390678,-1.0466101 -5.133898,-1.0466101 -7.5245765,0 L 9.6093223,6.425424 c 1.5313557,-0.65 3.2610167,-0.65 4.7923727,0.011017 L 15.767797,3.4177968 M 3.4177968,8.2322037 c -1.0466101,2.4016953 -1.0466101,5.1338983 0,7.5355933 l 3.0186441,-1.377119 c -0.6610169,-1.520339 -0.6610169,-3.261017 0,-4.7923726 L 3.4177968,8.2322037 M 8.2432205,20.582204 c 2.3906785,1.04661 5.1338985,1.04661 7.5245765,-0.01102 l -1.366102,-3.007627 c -1.520338,0.661017 -3.261017,0.661017 -4.7813558,0.01102 L 8.2432205,20.582204 M 12.000001,0.9830511 A 11.016949,11.016949 0 0 1 23.016949,12.000001 11.016949,11.016949 0 0 1 12.000001,23.016949 11.016949,11.016949 0 0 1 0.9830511,12.000001 11.016949,11.016949 0 0 1 12.000001,0.9830511 m 0,6.6101694 A 4.4067797,4.4067797 0 0 0 7.5932205,12.000001 4.4067797,4.4067797 0 0 0 12.000001,16.40678 4.4067797,4.4067797 0 0 0 16.40678,12.000001 4.4067797,4.4067797 0 0 0 12.000001,7.5932205 Z"
     id="path2"
     style="opacity:0.998;fill:#663300;fill-opacity:1;stroke:#663300;stroke-opacity:1;stroke-width:0.3;stroke-miterlimit:4;stroke-dasharray:none" />
</svg>
