<?xml version="1.0" encoding="UTF-8" standalone="no"?>
<svg
   xmlns:dc="http://purl.org/dc/elements/1.1/"
   xmlns:cc="http://creativecommons.org/ns#"
   xmlns:rdf="http://www.w3.org/1999/02/22-rdf-syntax-ns#"
   xmlns:svg="http://www.w3.org/2000/svg"
   xmlns="http://www.w3.org/2000/svg"
   xmlns:sodipodi="http://sodipodi.sourceforge.net/DTD/sodipodi-0.dtd"
   xmlns:inkscape="http://www.inkscape.org/namespaces/inkscape"
   inkscape:version="1.0beta1 (fe3e306, 2019-09-17)"
   sodipodi:docname="icon-print.svg"
   id="SVGRoot"
   version="1.1"
   viewBox="0 0 64 64"
   height="64px"
   width="64px">
  <sodipodi:namedview
     inkscape:current-layer="SVGRoot"
     inkscape:window-maximized="1"
     inkscape:window-y="-9"
     inkscape:window-x="-9"
     inkscape:cy="59.827776"
     inkscape:cx="33.382296"
     inkscape:zoom="4.5630485"
     showgrid="false"
     id="namedview8"
     inkscape:window-height="1001"
     inkscape:window-width="1920"
     inkscape:pageshadow="2"
     inkscape:pageopacity="0"
     guidetolerance="10"
     gridtolerance="10"
     objecttolerance="10"
     borderopacity="1"
     inkscape:document-rotation="0"
     bordercolor="#666666"
     pagecolor="#ffffff" />
  <defs
     id="defs830">
    <filter
       style="color-interpolation-filters:sRGB"
       id="filter862"
       x="-0.0022799999"
       width="1.00456"
       y="-0.0025333334"
       height="1.0050668">
      <feGaussianBlur
         stdDeviation="0.019"
         id="feGaussianBlur864" />
    </filter>
  </defs>
  <metadata
     id="metadata833">
    <rdf:RDF>
      <cc:Work
         rdf:about="">
        <dc:format>image/svg+xml</dc:format>
        <dc:type
           rdf:resource="http://purl.org/dc/dcmitype/StillImage" />
        <dc:title></dc:title>
      </cc:Work>
    </rdf:RDF>
  </metadata>
  <path
     style="stroke-width:0.661532;fill:#663300;fill-opacity:1"
     inkscape:connector-curvature="0"
     d="M 49.861368,11.492498 H 14.138623 V 4.0045152 a 1.7734689,1.7734689 0 0 1 1.773449,-1.7734694 h 32.175834 a 1.7734623,1.7734623 0 0 1 1.773462,1.7734694 z m 11.907583,9.845539 v 21.323879 a 7.1994562,7.1994562 0 0 1 -7.19945,7.199456 H 52.507504 V 34.646129 H 11.492501 V 49.861372 H 9.4305055 A 7.1994562,7.1994562 0 0 1 2.2310495,42.661916 V 21.338037 a 7.1994562,7.1994562 0 0 1 7.199449,-7.19941 H 54.569494 a 7.1994562,7.1994562 0 0 1 7.199457,7.19941 z m -6.615324,2.723575 a 3.3076616,3.3076616 0 1 0 -3.307661,3.307662 3.3076616,3.3076616 0 0 0 3.307661,-3.307662 z M 15.912072,61.768954 A 1.7734689,1.7734689 0 0 1 14.138603,59.995485 V 37.292258 h 35.722745 v 22.703227 a 1.7734623,1.7734623 0 0 1 -1.773442,1.773469 z m 2.195725,-18.853671 a 1.6538308,1.6538308 0 0 0 1.653831,1.653831 h 24.476696 a 1.653831,1.653831 0 0 0 0,-3.307662 H 19.761628 a 1.6538308,1.6538308 0 0 0 -1.653811,1.653831 z m 0,6.615323 a 1.6538308,1.6538308 0 0 0 1.653831,1.653831 h 24.476696 a 1.653831,1.653831 0 0 0 0,-3.307662 H 19.761628 a 1.6538308,1.6538308 0 0 0 -1.653811,1.653831 z m 0,6.615323 a 1.6538308,1.6538308 0 0 0 1.653831,1.653831 h 24.476696 a 1.6538308,1.6538308 0 0 0 0,-3.307661 H 19.761628 a 1.6538308,1.6538308 0 0 0 -1.653811,1.65383 z"
     id="path4" />
</svg>
