<svg id="Layer_1" data-name="Layer 1" xmlns="http://www.w3.org/2000/svg" viewBox="0 0 60 60"><defs><style>.cls-1,.cls-2{fill:none;stroke:#b1000c;stroke-miterlimit:10;stroke-width:3px;}.cls-2{stroke-linecap:round;}.cls-3{fill:#b1000c;}</style></defs><title>icon-edit-staff</title><ellipse class="cls-1" cx="20.45" cy="19.72" rx="14.31" ry="6.26"/><path class="cls-2" d="M27.33,35.53a30.85,30.85,0,0,1-6.93.73c-7,0-12.91-2.07-14.42-4.85"/><path class="cls-2" d="M31.85,44.24A25.13,25.13,0,0,1,20.6,46.55c-8,0-14.53-2.81-14.53-6.27"/><line class="cls-2" x1="6.06" y1="20.34" x2="6.06" y2="40.2"/><line class="cls-2" x1="34.85" y1="20.34" x2="34.85" y2="24.21"/><path class="cls-3" d="M55.61,22.49,48.82,15.7a1.29,1.29,0,0,0-1.8,0L33.64,29.09l-.1.07a1.51,1.51,0,0,0-.21.23l-3.27,3.28a1.29,1.29,0,0,0-.38.9v6.79A1.27,1.27,0,0,0,31,41.63h6.79a1.26,1.26,0,0,0,.9-.37l17-17A1.27,1.27,0,0,0,55.61,22.49ZM37.22,39.09h-5v-5l2.1-2.1L39,37.32Zm3.57-3.57L36.13,30.2,47.92,18.4l5,5Z"/></svg>