<?xml version="1.0" encoding="UTF-8" standalone="no"?>
<svg
   xmlns:osb="http://www.openswatchbook.org/uri/2009/osb"
   xmlns:dc="http://purl.org/dc/elements/1.1/"
   xmlns:cc="http://creativecommons.org/ns#"
   xmlns:rdf="http://www.w3.org/1999/02/22-rdf-syntax-ns#"
   xmlns:svg="http://www.w3.org/2000/svg"
   xmlns="http://www.w3.org/2000/svg"
   xmlns:sodipodi="http://sodipodi.sourceforge.net/DTD/sodipodi-0.dtd"
   xmlns:inkscape="http://www.inkscape.org/namespaces/inkscape"
   id="SVGRoot"
   version="1.1"
   viewBox="0 0 64 64"
   height="64px"
   width="64px"
   inkscape:version="1.0beta1 (fe3e306, 2019-09-17)"
   sodipodi:docname="icon-edit-as-staff.svg">
  <defs
     id="defs842">
    <linearGradient
       id="linearGradient1474"
       osb:paint="solid">
      <stop
         style="stop-color:#ffffff;stop-opacity:1;"
         offset="0"
         id="stop1472" />
    </linearGradient>
  </defs>
  <sodipodi:namedview
     id="base"
     pagecolor="#ffffff"
     bordercolor="#666666"
     borderopacity="1.0"
     inkscape:pageopacity="0.0"
     inkscape:pageshadow="2"
     inkscape:zoom="5.6"
     inkscape:cx="86.911627"
     inkscape:cy="64.832633"
     inkscape:document-units="px"
     inkscape:current-layer="layer1"
     inkscape:document-rotation="0"
     showgrid="false"
     inkscape:window-width="1920"
     inkscape:window-height="1001"
     inkscape:window-x="-9"
     inkscape:window-y="-9"
     inkscape:window-maximized="1"
     inkscape:grid-bbox="true">
    <inkscape:grid
       type="xygrid"
       id="grid1478" />
  </sodipodi:namedview>
  <metadata
     id="metadata845">
    <rdf:RDF>
      <cc:Work
         rdf:about="">
        <dc:format>image/svg+xml</dc:format>
        <dc:type
           rdf:resource="http://purl.org/dc/dcmitype/StillImage" />
        <dc:title />
      </cc:Work>
    </rdf:RDF>
  </metadata>
  <g
     inkscape:label="Calque 1"
     inkscape:groupmode="layer"
     id="layer1">
    <g
       transform="translate(0.31957775,0.14914752)"
       id="g840">
      <path
         id="path2"
         d="m 61.497293,10.96634 a 7.4434892,7.4434892 0 0 0 -8.632047,-1.356647 25.23823,25.23823 0 0 0 -1.109331,-1.2221728 7.3858623,7.3858623 0 0 0 -10.432875,0 L 28.188884,21.521676 a 2.4011258,2.4011258 0 0 0 0,3.395192 2.429939,2.429939 0 0 0 3.395193,0 L 44.718233,11.782713 a 2.5764077,2.5764077 0 0 1 3.642489,0 l 0.87882,0.881214 -5.342492,5.340096 a 1.2485854,1.2485854 0 0 0 0,1.762429 l 8.802526,8.79053 a 1.2437831,1.2437831 0 0 0 1.75762,0 l 7.040097,-7.040097 a 7.4650993,7.4650993 0 0 0 0,-10.550545 z"
         style="overflow:hidden;fill:#b1000c;fill-opacity:1;stroke-width:0.0562767"
         inkscape:connector-curvature="0" />
      <path
         id="path4-0"
         d="m 41.255801,22.405304 a 1.2461842,1.2461842 0 0 0 -1.760032,0 l -19.75406,19.758854 a 3.731349,3.731349 0 0 0 0,5.282477 l 5.282496,5.282478 a 3.731349,3.731349 0 0 0 5.282457,0 L 50.063138,32.972655 a 1.2461842,1.2461842 0 0 0 0,-1.760035 z M 15.830287,48.872915 a 1.2005627,1.2005627 0 0 0 -1.978531,0.439408 L 9.1815624,62.244786 a 1.2005627,1.2005627 0 0 0 0.2809628,1.255801 1.2269751,1.2269751 0 0 0 1.2581968,0.283303 l 12.932444,-4.667742 a 1.2005627,1.2005627 0 0 0 0.439428,-1.978532 z"
         style="overflow:hidden;fill:#b1000c;fill-opacity:1;stroke-width:0.0562767"
         inkscape:connector-curvature="0" />
    </g>
    <path
       style="fill:#b1000c;fill-opacity:1;stroke-width:0.0512535"
       inkscape:connector-curvature="0"
       id="path2-9"
       d="M 24.0254,15.765631 21.842,14.504794 c 0.220389,-1.189081 0.220389,-2.408915 0,-3.597997 l 2.1834,-1.2608371 c 0.251141,-0.143509 0.363898,-0.440779 0.281893,-0.7175486 -0.568913,-1.824628 -1.537606,-3.474986 -2.803567,-4.848579 -0.194764,-0.210142 -0.512535,-0.261398 -0.758552,-0.117885 l -2.1834,1.260836 c -0.917438,-0.789301 -1.97326,-1.399221 -3.116213,-1.799 V 0.90723927 c 0,-0.287022 -0.199889,-0.538164 -0.481783,-0.599668 -1.881004,-0.42028297 -3.808137,-0.39977897 -5.5968839,0 -0.2818951,0.0615 -0.4817832,0.312646 -0.4817832,0.599668 V 3.4289073 c -1.1378287,0.404903 -2.1936516,1.014823 -3.1162149,1.799 L 3.5906231,3.9670713 c -0.2511417,-0.143509 -0.5637919,-0.09738 -0.7585529,0.117885 -1.2659644,1.368469 -2.23465469,3.018827 -2.80356625,4.848584 -0.087133,0.2767686 0.030752,0.5740346 0.2818896,0.7175436 L 2.4937959,10.911923 c -0.2203894,1.189081 -0.2203894,2.408914 0,3.597996 l -2.18340235,1.260837 c -0.2511374,0.14351 -0.3638941,0.440781 -0.2818896,0.717549 0.56891156,1.824625 1.53760185,3.474988 2.80356625,4.848582 0.194761,0.21014 0.5125352,0.261394 0.7585529,0.117885 l 2.1833982,-1.260838 c 0.917438,0.789305 1.9732609,1.399222 3.1162148,1.798999 v 2.521673 c 0,0.28702 0.1998885,0.538161 0.4817836,0.599667 1.8810033,0.420278 3.8081353,0.399776 5.5968833,0 0.281894,-0.06151 0.481782,-0.312647 0.481782,-0.599667 v -2.521673 c 1.137829,-0.404902 2.193651,-1.014819 3.116215,-1.798999 l 2.183399,1.260838 c 0.251142,0.143509 0.563789,0.09738 0.758553,-0.117885 1.265961,-1.368468 2.234653,-3.018831 2.803568,-4.848582 0.07688,-0.281894 -0.03588,-0.579164 -0.28702,-0.722674 z m -11.860065,1.040445 c -2.2602791,0 -4.1002811,-1.84 -4.1002811,-4.10028 0,-2.260279 1.840002,-4.1002827 4.1002811,-4.1002827 2.260281,0 4.100282,1.8400037 4.100282,4.1002827 0,2.26028 -1.840001,4.10028 -4.100282,4.10028 z"
       fill="currentColor" />
  </g>
</svg>
