<?xml version="1.0" encoding="UTF-8" standalone="no"?>
<svg
   xmlns:dc="http://purl.org/dc/elements/1.1/"
   xmlns:cc="http://creativecommons.org/ns#"
   xmlns:rdf="http://www.w3.org/1999/02/22-rdf-syntax-ns#"
   xmlns:svg="http://www.w3.org/2000/svg"
   xmlns="http://www.w3.org/2000/svg"
   width="40px"
   height="40px"
   viewBox="0 0 40 40"
   version="1.1"
   id="SVGRoot">
  <defs
     id="defs1433" />
  <metadata
     id="metadata1436">
    <rdf:RDF>
      <cc:Work
         rdf:about="">
        <dc:format>image/svg+xml</dc:format>
        <dc:type
           rdf:resource="http://purl.org/dc/dcmitype/StillImage" />
        <dc:title></dc:title>
      </cc:Work>
    </rdf:RDF>
  </metadata>
  <g
     id="layer1">
    <path
       style="fill:#606c76;fill-opacity:1;stroke-width:0.0778237"
       id="path2"
       d="M 39.07733,30.870001 29.9642,21.756875 C 28.16648,19.95915 25.48155,19.60894 23.31807,20.675119 L 15.022088,12.37914 V 7.5462793 L 5.0606601,0.07522218 0.07994609,5.0559363 7.5510031,15.017335 h 4.8328609 l 8.295976,8.296007 c -1.058402,2.163484 -0.71597,4.84841 1.08176,6.646135 l 9.11312,9.113126 c 1.13624,1.136233 2.97286,1.136233 4.10132,0 l 4.10129,-4.101287 c 1.12846,-1.136232 1.12846,-2.972857 0,-4.101315 z M 25.89404,17.585534 c 2.20238,0 4.27249,0.856048 5.82896,2.412515 l 1.50979,1.509794 c 1.22961,-0.53699 2.39697,-1.284114 3.40867,-2.295816 2.88726,-2.887255 3.86783,-6.949642 2.94951,-10.6384689 C 39.41988,7.8731375 38.54036,7.631881 38.02673,8.1455201 L 32.23664,13.935607 26.95242,13.056181 26.07302,7.7719591 31.8631,1.9819 C 32.37672,1.4682606 32.12783,0.58886138 31.41949,0.40985558 27.73066,-0.50066812 23.66828,0.47993858 20.7888,3.3593898 18.570836,5.57735 17.528007,8.5035051 17.582484,11.421885 l 6.389296,6.38933 c 0.63037,-0.147825 1.28409,-0.225567 1.92226,-0.225567 z M 17.808164,23.967061 13.395567,19.554463 1.5352631,31.42254 c -1.94560501,1.945607 -1.94560501,5.097469 0,7.043048 1.945578,1.945577 5.097442,1.945577 7.043019,0 L 18.197274,28.846595 C 17.605807,27.297902 17.426829,25.60913 17.808164,23.967061 Z M 5.0606601,36.807941 c -1.027279,0 -1.867778,-0.840499 -1.867778,-1.86775 0,-1.035054 0.832724,-1.867778 1.867778,-1.867778 1.035054,0 1.867778,0.832724 1.867778,1.867778 0,1.027251 -0.832724,1.86775 -1.867778,1.86775 z"
       fill="currentColor" />
  </g>
</svg>
