<?xml version="1.0" encoding="UTF-8" standalone="no"?>
<svg
   xmlns:dc="http://purl.org/dc/elements/1.1/"
   xmlns:cc="http://creativecommons.org/ns#"
   xmlns:rdf="http://www.w3.org/1999/02/22-rdf-syntax-ns#"
   xmlns:svg="http://www.w3.org/2000/svg"
   xmlns="http://www.w3.org/2000/svg"
   xmlns:sodipodi="http://sodipodi.sourceforge.net/DTD/sodipodi-0.dtd"
   xmlns:inkscape="http://www.inkscape.org/namespaces/inkscape"
   inkscape:version="1.0beta1 (fe3e306, 2019-09-17)"
   sodipodi:docname="icon-laborats.svg"
   width="64px"
   height="64px"
   viewBox="0 0 64 64"
   version="1.1"
   id="SVGRoot">
  <defs
     id="defs874" />
  <sodipodi:namedview
     inkscape:grid-bbox="true"
     inkscape:window-maximized="1"
     inkscape:window-y="-9"
     inkscape:window-x="-9"
     inkscape:window-height="1001"
     inkscape:window-width="1920"
     showgrid="false"
     inkscape:document-rotation="0"
     inkscape:current-layer="layer1"
     inkscape:document-units="px"
     inkscape:cy="6.1131191"
     inkscape:cx="33.03974"
     inkscape:zoom="2.8"
     inkscape:pageshadow="2"
     inkscape:pageopacity="0.0"
     borderopacity="1.0"
     bordercolor="#666666"
     pagecolor="#ffffff"
     id="base" />
  <metadata
     id="metadata877">
    <rdf:RDF>
      <cc:Work
         rdf:about="">
        <dc:format>image/svg+xml</dc:format>
        <dc:type
           rdf:resource="http://purl.org/dc/dcmitype/StillImage" />
        <dc:title></dc:title>
      </cc:Work>
    </rdf:RDF>
  </metadata>
  <g
     id="layer1"
     inkscape:groupmode="layer"
     inkscape:label="Calque 1">
    <path
       style="fill:#663300;fill-opacity:1;stroke:#663300;stroke-width:0.697552;stroke-opacity:1"
       inkscape:connector-curvature="0"
       d="m 40.287064,48.406598 c 0.309994,-0.822457 0.641636,-1.632604 0.974781,-2.460617 0.17765,-0.440833 0.356004,-0.879233 0.530336,-1.323368 0.198704,-0.504397 0.393262,-1.009446 0.58029,-1.520657 1.700312,-4.659179 2.730103,-9.652231 -0.446429,-15.975814 -3.169222,-6.310145 -7.783791,-8.473324 -12.537981,-9.891338 -0.38809,1.062599 -0.79237,2.074273 -1.179539,3.036503 -0.105281,0.259785 -0.174947,0.57694 -0.275573,0.829458 2.793847,0.80742 5.293914,1.880485 7.3315,3.746089 L 24.38853,30.309751 c -0.279546,-2.749104 0.352314,-5.394625 1.373158,-8.11849 0.189152,-0.502412 0.370491,-1.040505 0.576015,-1.558815 0.12355,-0.308851 0.241508,-0.635719 0.367776,-0.952489 0.374445,-0.930436 0.75387,-1.893763 1.117626,-2.880653 0.186903,-0.503897 0.363669,-1.022187 0.53586,-1.544194 1.244701,-3.780623 2.020228,-8.0686943 0.850324,-13.3136787 -0.245925,-1.09631428 -1.333343,-1.78877048 -2.430098,-1.54371758 -0.16737,0.037136 -0.324315,0.093876 -0.471314,0.1671729 -0.812348,0.4091012 -1.243138,1.40096898 -1.035888,2.33014428 0.277299,1.2433883 0.334454,2.2418796 0.49969,3.6039227 L 15.33874,11.738268 C 14.345286,10.793289 13.579137,10.149226 12.747124,9.1849946 12.125544,8.4639062 11.09105,8.2504665 10.276058,8.6586927 10.129464,8.7328364 9.9813165,8.8072014 9.8507824,8.9197392 8.9991067,9.6538396 8.8990259,10.929445 9.6333453,11.780478 c 3.5086577,4.070363 7.4081167,6.003211 11.1841597,7.261725 0.198513,-0.505938 0.396133,-1.009229 0.595541,-1.50238 0.311834,-0.777021 0.569276,-1.62718 0.855361,-2.37967 -1.681173,-0.546066 -3.196037,-0.964189 -4.950456,-2.249488 l 8.21165,-4.1242373 c -0.01677,2.1754503 -0.585975,3.6380753 -1.150761,5.3137783 -0.173408,0.514259 -0.335699,1.071136 -0.526843,1.580986 -0.304942,0.805028 -0.615382,1.631011 -0.941709,2.440712 -0.183806,0.459373 -0.360759,0.931298 -0.544106,1.393759 -0.198941,0.505062 -0.389495,1.018042 -0.577178,1.529037 -1.702298,4.660728 -2.721265,9.658832 0.448401,15.967651 3.176305,6.32425 7.796376,8.481904 12.550568,9.899916 0.390045,-1.077384 0.800038,-2.101859 1.190052,-3.077108 0.09867,-0.246553 0.241046,-0.394845 0.337011,-0.635676 -2.589042,-0.749095 -5.018014,-1.912533 -6.795576,-3.187865 l 10.462469,-5.255246 c -0.03666,2.18652 -0.554279,4.830947 -1.499603,7.353501 -0.18783,0.502864 -0.406787,0.963813 -0.613447,1.483217 -0.117375,0.293996 -0.248905,0.569337 -0.368582,0.870652 -0.379269,0.945008 -0.771068,1.903498 -1.139409,2.906501 -0.184239,0.504791 -0.365672,1.012708 -0.534603,1.535796 -1.221153,3.749475 -1.962128,7.993147 -0.757929,13.172338 0.254522,1.094754 1.348538,1.773967 2.443071,1.520095 0.160524,-0.03865 0.31152,-0.0952 0.452126,-0.164707 0.821603,-0.412647 1.32633,-1.261706 1.109806,-2.196161 -0.22542,-0.969735 -0.407443,-1.979472 -0.401244,-2.705652 l 10.699609,-5.374353 c 0.587303,0.427556 1.287684,1.176947 1.932054,1.935712 0.619398,0.734324 1.622879,0.877231 2.445147,0.464803 0.141267,-0.0715 0.265052,-0.181141 0.390805,-0.287901 0.857881,-0.726163 0.96012,-2.019423 0.233308,-2.877525 -3.434524,-4.059028 -7.288577,-6.011369 -11.024478,-7.271278 -0.18927,0.484744 -0.380544,0.966629 -0.570717,1.440792 -0.319963,0.797108 -0.652403,1.532032 -0.943739,2.302622 1.86528,0.615843 3.592444,1.218253 5.38874,2.48363 l -8.717442,4.377715 c 0.0574,-2.195818 0.605506,-3.940976 1.225544,-5.803393 0.170922,-0.515818 0.366132,-1.005209 0.556029,-1.516202 z M 27.704548,38.035348 c -0.493857,-0.474478 -1.324392,-1.842388 -1.895985,-2.980469 -0.467988,-0.9318 -0.666672,-1.512028 -1.10739,-2.734609 l 11.989316,-6.022095 c 0.717306,1.084219 1.064531,1.590946 1.53296,2.521422 0.572697,1.139186 1.172262,2.62089 1.258627,3.300581 z"
       id="path4" />
  </g>
</svg>
