<?xml version="1.0" encoding="UTF-8" standalone="no"?>
<svg
   xmlns:dc="http://purl.org/dc/elements/1.1/"
   xmlns:cc="http://creativecommons.org/ns#"
   xmlns:rdf="http://www.w3.org/1999/02/22-rdf-syntax-ns#"
   xmlns:svg="http://www.w3.org/2000/svg"
   xmlns="http://www.w3.org/2000/svg"
   xmlns:sodipodi="http://sodipodi.sourceforge.net/DTD/sodipodi-0.dtd"
   xmlns:inkscape="http://www.inkscape.org/namespaces/inkscape"
   sodipodi:docname="icon-black-rat.svg"
   inkscape:version="1.0beta1 (fe3e306, 2019-09-17)"
   width="64px"
   height="48px"
   viewBox="0 0 64 48"
   version="1.1"
   id="SVGRoot">
  <defs
     id="defs1398" />
  <sodipodi:namedview
     inkscape:window-maximized="1"
     inkscape:window-y="-9"
     inkscape:window-x="-9"
     inkscape:window-height="1001"
     inkscape:window-width="1920"
     showgrid="false"
     inkscape:document-rotation="0"
     inkscape:current-layer="layer1"
     inkscape:document-units="px"
     inkscape:cy="28.368783"
     inkscape:cx="30.823283"
     inkscape:zoom="11.2"
     inkscape:pageshadow="2"
     inkscape:pageopacity="0.0"
     borderopacity="1.0"
     bordercolor="#666666"
     pagecolor="#ffffff"
     id="base" />
  <metadata
     id="metadata1401">
    <rdf:RDF>
      <cc:Work
         rdf:about="">
        <dc:format>image/svg+xml</dc:format>
        <dc:type
           rdf:resource="http://purl.org/dc/dcmitype/StillImage" />
        <dc:title></dc:title>
      </cc:Work>
    </rdf:RDF>
  </metadata>
  <g
     id="layer1"
     inkscape:groupmode="layer"
     inkscape:label="Calque 1">
    <path
       style="display:inline;fill:#000000;fill-opacity:1;stroke-width:0.155452"
       d="m 45.877297,45.87188 c -6.109758,-4.871133 -7.575046,-5.529604 -9.901606,-4.449594 -1.436633,0.666899 -1.903862,1.650761 -1.905239,4.011944 -6.3e-4,0.946311 -0.0685,1.552203 -0.187411,1.671111 -0.235261,0.235262 -15.585204,0.259444 -18.36742,0.02894 C 7.3640349,46.458917 2.7241619,42.545185 0.40603889,34.389356 -0.50237891,31.193269 0.14852649,26.839275 2.0079939,23.673703 4.2552839,19.847893 6.5385539,17.960011 14.327225,13.487767 23.135049,8.4303227 24.767033,6.8749577 23.058497,5.1664167 21.582056,3.6899707 20.32718,4.0250867 12.306115,8.0378497 7.2615169,10.561555 6.8238949,10.714121 6.5231079,10.053965 6.2520039,9.4589517 10.893663,6.3706477 17.021061,3.0692057 22.05155,0.3587765 26.840217,1.9890776 26.82798,6.4079677 26.82038,9.1547407 25.190383,10.558398 14.560403,16.972118 5.9298439,22.179466 3.7565119,24.897183 3.7565119,30.482213 c 0,6.623412 3.469798,10.414357 10.3525531,11.310722 2.463127,0.320781 2.594573,0.291943 2.352263,-0.516061 -2.386726,-7.958778 1.686181,-14.871548 14.965576,-25.400426 4.040847,-3.20388 4.161272,-3.279664 4.521665,-2.845418 0.511359,0.616151 3.203948,2.082258 3.824187,2.082258 0.04359,0 -0.406036,-0.519639 -0.999162,-1.154755 C 36.327408,11.33917 35.55008,8.2499497 36.48252,4.8534457 c 0.448353,-1.633162 0.83751,-1.823813 2.723168,-1.33408 0.466832,0.121239 1.408408,0.330388 2.092396,0.464777 0.683986,0.134384 1.518851,0.310547 1.855248,0.391467 0.561916,0.135171 0.698688,0.09629 1.68252,-0.478302 4.342174,-2.5359762 11.018674,-3.7701832 15.853433,-2.9306412 3.350084,0.581733 3.734094,1.0217911 2.992294,3.4290742 -1.178105,3.823183 -2.514046,6.1140313 -6.204763,10.6398213 -5.246482,6.433568 -7.000202,10.398845 -8.387714,18.965164 -0.687831,4.246592 -0.779764,5.344148 -0.774746,9.249404 0.0063,4.826141 0.143116,4.678851 -2.437059,2.621752 z M 53.599484,7.5088677 c 0.728317,-0.444108 0.989715,-0.914594 0.989715,-1.78137 0,-2.116678 -3.011023,-2.729099 -3.826152,-0.77821 -0.765213,1.831416 1.168668,3.57654 2.836437,2.55958 z"
       id="path837"
       inkscape:connector-curvature="0"
       sodipodi:nodetypes="sscssssssssscssssscscsscssssssssssss" />
  </g>
</svg>
