<?xml version="1.0" encoding="UTF-8" standalone="no"?>
<svg
   xmlns:dc="http://purl.org/dc/elements/1.1/"
   xmlns:cc="http://creativecommons.org/ns#"
   xmlns:rdf="http://www.w3.org/1999/02/22-rdf-syntax-ns#"
   xmlns:svg="http://www.w3.org/2000/svg"
   xmlns="http://www.w3.org/2000/svg"
   xmlns:sodipodi="http://sodipodi.sourceforge.net/DTD/sodipodi-0.dtd"
   xmlns:inkscape="http://www.inkscape.org/namespaces/inkscape"
   inkscape:export-ydpi="96"
   inkscape:export-xdpi="96"
   inkscape:export-filename="C:\Users\nbertin\Documents\Personnel\Rats\LORD\CakeLORD\webroot\img\icon-picture.png"
   inkscape:version="1.0beta1 (fe3e306, 2019-09-17)"
   sodipodi:docname="icon-picture.svg"
   id="SVGRoot"
   version="1.1"
   viewBox="0 0 64 64"
   height="64px"
   width="64px">
  <sodipodi:namedview
     inkscape:current-layer="SVGRoot"
     inkscape:window-maximized="0"
     inkscape:window-y="0"
     inkscape:window-x="0"
     inkscape:cy="50.317764"
     inkscape:cx="22.825922"
     inkscape:zoom="5.2149125"
     showgrid="false"
     id="namedview14"
     inkscape:window-height="758"
     inkscape:window-width="1288"
     inkscape:pageshadow="2"
     inkscape:pageopacity="0"
     guidetolerance="10"
     gridtolerance="10"
     objecttolerance="10"
     borderopacity="1"
     inkscape:document-rotation="0"
     bordercolor="#666666"
     pagecolor="#ffffff" />
  <defs
     id="defs830" />
  <metadata
     id="metadata833">
    <rdf:RDF>
      <cc:Work
         rdf:about="">
        <dc:format>image/svg+xml</dc:format>
        <dc:type
           rdf:resource="http://purl.org/dc/dcmitype/StillImage" />
        <dc:title></dc:title>
      </cc:Work>
    </rdf:RDF>
  </metadata>
  <g
     style="fill:#663300;fill-opacity:1"
     transform="translate(0.14692135,0.16113785)"
     id="g855">
    <path
       id="path4"
       d="m 16.849867,28.838384 c 3.309813,0 6.000951,-2.691692 6.000951,-6.001503 0,-3.309811 -2.691138,-6.001505 -6.000951,-6.001505 -3.309813,0 -6.001513,2.691694 -6.001513,6.001505 0,3.309811 2.6917,6.001503 6.001513,6.001503 z m 0,0"
       inkscape:connector-curvature="0"
       style="stroke-width:0.140656;fill:#663300;fill-opacity:1" />
    <path
       id="path6"
       d="M 54.357761,7.8333933 H 9.3478498 c -4.1345254,0 -7.5014715,3.3669527 -7.5014715,7.5020187 v 33.006902 c 0,4.135071 3.3669461,7.502017 7.5014715,7.502017 H 54.357761 c 4.135066,0 7.502018,-3.366946 7.502018,-7.502017 V 15.335412 c 0,-4.135066 -3.366952,-7.5020187 -7.502018,-7.5020187 z M 9.3478498,13.834898 H 54.357761 c 0.828552,0 1.500514,0.671962 1.500514,1.500514 v 21.301693 l -9.478897,-11.06073 c -1.00547,-1.179091 -2.460928,-1.809296 -4.024079,-1.84501 -1.554356,0.0088 -3.012558,0.698883 -4.008695,1.893361 l -11.14479,13.376608 -3.630679,-3.621899 c -2.052151,-2.052143 -5.392179,-2.052143 -7.441577,0 l -8.281675,8.27893 V 15.335412 c 0,-0.828552 0.6719639,-1.500514 1.4999668,-1.500514 z m 0,0"
       inkscape:connector-curvature="0"
       style="stroke-width:0.140656;fill:#663300;fill-opacity:1" />
  </g>
</svg>
