<?xml version="1.0" encoding="UTF-8" standalone="no"?>
<svg
   xmlns:dc="http://purl.org/dc/elements/1.1/"
   xmlns:cc="http://creativecommons.org/ns#"
   xmlns:rdf="http://www.w3.org/1999/02/22-rdf-syntax-ns#"
   xmlns:svg="http://www.w3.org/2000/svg"
   xmlns="http://www.w3.org/2000/svg"
   xmlns:sodipodi="http://sodipodi.sourceforge.net/DTD/sodipodi-0.dtd"
   xmlns:inkscape="http://www.inkscape.org/namespaces/inkscape"
   sodipodi:docname="icon-list.svg"
   inkscape:version="1.0beta1 (fe3e306, 2019-09-17)"
   width="64px"
   height="64px"
   viewBox="0 0 64 64"
   version="1.1"
   id="SVGRoot">
  <defs
     id="defs848" />
  <sodipodi:namedview
     inkscape:grid-bbox="true"
     inkscape:window-maximized="1"
     inkscape:window-y="-9"
     inkscape:window-x="-9"
     inkscape:window-height="1001"
     inkscape:window-width="1920"
     showgrid="false"
     inkscape:document-rotation="0"
     inkscape:current-layer="layer1"
     inkscape:document-units="px"
     inkscape:cy="-22.631041"
     inkscape:cx="-144.99373"
     inkscape:zoom="1.979899"
     inkscape:pageshadow="2"
     inkscape:pageopacity="0.0"
     borderopacity="1.0"
     bordercolor="#666666"
     pagecolor="#ffffff"
     id="base" />
  <metadata
     id="metadata851">
    <rdf:RDF>
      <cc:Work
         rdf:about="">
        <dc:format>image/svg+xml</dc:format>
        <dc:type
           rdf:resource="http://purl.org/dc/dcmitype/StillImage" />
        <dc:title></dc:title>
      </cc:Work>
    </rdf:RDF>
  </metadata>
  <g
     id="layer1"
     inkscape:groupmode="layer"
     inkscape:label="Calque 1">
    <ellipse
       transform="scale(-1,1)"
       ry="24.213573"
       rx="24.289959"
       cy="27.785149"
       cx="-36.132366"
       id="path1418"
       style="fill:none;fill-opacity:1;stroke:#663300;stroke-width:4.44679;stroke-miterlimit:4;stroke-dasharray:none;stroke-opacity:1" />
    <ellipse
       transform="scale(-1,1)"
       ry="6.6929011"
       rx="6.7624745"
       cy="55.887489"
       cx="-7.3310404"
       id="path1424"
       style="fill:#663300;fill-opacity:1;stroke:#000000;stroke-width:0;stroke-miterlimit:4;stroke-dasharray:none;stroke-opacity:1" />
    <g
       transform="matrix(-1.5454878,0,0,1.5977998,65.765486,-4.1998)"
       style="opacity:1;fill:#663300;fill-opacity:1;stroke:#000000;stroke-opacity:1"
       id="g1431">
      <path
         sodipodi:nodetypes="ccccc"
         inkscape:connector-curvature="0"
         id="path1433"
         d="m 40.479676,34.260632 -6.064592,5.988233 -5.327395,-7.336909 3.684526,-3.717524 z"
         style="color:#000000;font-style:normal;font-variant:normal;font-weight:normal;font-stretch:normal;font-size:medium;line-height:normal;font-family:sans-serif;font-variant-ligatures:normal;font-variant-position:normal;font-variant-caps:normal;font-variant-numeric:normal;font-variant-alternates:normal;font-variant-east-asian:normal;font-feature-settings:normal;font-variation-settings:normal;text-indent:0;text-align:start;text-decoration:none;text-decoration-line:none;text-decoration-style:solid;text-decoration-color:#000000;letter-spacing:normal;word-spacing:normal;text-transform:none;writing-mode:lr-tb;direction:ltr;text-orientation:mixed;dominant-baseline:auto;baseline-shift:baseline;text-anchor:start;white-space:normal;shape-padding:0;shape-margin:0;inline-size:0;clip-rule:nonzero;display:inline;overflow:visible;visibility:visible;isolation:auto;mix-blend-mode:normal;color-interpolation:sRGB;color-interpolation-filters:linearRGB;solid-color:#000000;solid-opacity:1;vector-effect:none;fill:#663300;fill-opacity:1;fill-rule:nonzero;stroke:#000000;stroke-width:0;stroke-linecap:butt;stroke-linejoin:miter;stroke-miterlimit:4;stroke-dasharray:none;stroke-dashoffset:0;stroke-opacity:1;color-rendering:auto;image-rendering:auto;shape-rendering:auto;text-rendering:auto;enable-background:accumulate;stop-color:#000000;stop-opacity:1" />
    </g>
    <path
       sodipodi:nodetypes="sssssssssssssssssssssssssssssssssssssssss"
       style="fill:#a6540f;fill-opacity:1;stroke:none;stroke-width:0.41984;stroke-opacity:1"
       inkscape:connector-curvature="0"
       d="M 36.069139,12.597417 C 15.49782,12.582955 21.004165,8.5083824 20.860464,27.80363 20.719186,46.773895 16.499809,42.816452 36.06922,43.009913 55.302222,43.200049 51.211142,46.805971 51.277814,27.80363 51.34804,7.7884013 55.665674,12.611197 36.069139,12.597417 Z m -8.765325,22.657938 c -0.738495,0 -1.336346,-0.59785 -1.336346,-1.336346 0,-0.738079 0.597851,-1.335929 1.336346,-1.335929 0.738078,0 1.336349,0.59785 1.336349,1.335929 0,0.738496 -0.598271,1.336346 -1.336349,1.336346 z m 0,-6.167855 c -0.738495,0 -1.336346,-0.597853 -1.336346,-1.33635 0,-0.738076 0.597851,-1.335927 1.336346,-1.335927 0.738078,0 1.336349,0.597851 1.336349,1.335927 0,0.738497 -0.598271,1.33635 -1.336349,1.33635 z m 0,-6.168276 c -0.738495,0 -1.336346,-0.597853 -1.336346,-1.336348 0,-0.738079 0.597851,-1.33593 1.336346,-1.33593 0.738078,0 1.336349,0.597851 1.336349,1.33593 0,0.738495 -0.598271,1.336348 -1.336349,1.336348 z M 44.912285,35.255775 H 31.579037 c -0.695673,0 -1.259516,-0.563843 -1.259516,-1.259516 0,-0.695674 0.563843,-1.25952 1.259516,-1.25952 h 13.333248 c 0.69568,0 1.259525,0.563846 1.259525,1.25952 0,0.695673 -0.563845,1.259516 -1.259525,1.259516 z m 0,-6.245106 H 31.579037 c -0.695673,0 -1.259516,-0.563844 -1.259516,-1.259519 0,-0.695673 0.563843,-1.259516 1.259516,-1.259516 h 13.333248 c 0.69568,0 1.259525,0.563843 1.259525,1.259516 0,0.695675 -0.563845,1.259519 -1.259525,1.259519 z m 0,-6.245106 H 31.579037 c -0.695673,0 -1.259516,-0.563846 -1.259516,-1.259518 0,-0.695674 0.563843,-1.259516 1.259516,-1.259516 h 13.333248 c 0.69568,0 1.259525,0.563842 1.259525,1.259516 0,0.695672 -0.563845,1.259518 -1.259525,1.259518 z"
       id="path2" />
  </g>
</svg>
