<?xml version="1.0" encoding="UTF-8" standalone="no"?>
<svg
   xmlns:dc="http://purl.org/dc/elements/1.1/"
   xmlns:cc="http://creativecommons.org/ns#"
   xmlns:rdf="http://www.w3.org/1999/02/22-rdf-syntax-ns#"
   xmlns:svg="http://www.w3.org/2000/svg"
   xmlns="http://www.w3.org/2000/svg"
   xmlns:sodipodi="http://sodipodi.sourceforge.net/DTD/sodipodi-0.dtd"
   xmlns:inkscape="http://www.inkscape.org/namespaces/inkscape"
   width="64px"
   height="64px"
   viewBox="0 0 64 64"
   version="1.1"
   id="SVGRoot"
   sodipodi:docname="icon-edit.svg"
   inkscape:version="1.0beta1 (fe3e306, 2019-09-17)">
  <sodipodi:namedview
     pagecolor="#ffffff"
     bordercolor="#666666"
     inkscape:document-rotation="0"
     borderopacity="1"
     objecttolerance="10"
     gridtolerance="10"
     guidetolerance="10"
     inkscape:pageopacity="0"
     inkscape:pageshadow="2"
     inkscape:window-width="1920"
     inkscape:window-height="1001"
     id="namedview856"
     showgrid="false"
     inkscape:zoom="6.453125"
     inkscape:cx="24.621937"
     inkscape:cy="44.737103"
     inkscape:window-x="-9"
     inkscape:window-y="-9"
     inkscape:window-maximized="1"
     inkscape:current-layer="SVGRoot" />
  <defs
     id="defs830" />
  <metadata
     id="metadata833">
    <rdf:RDF>
      <cc:Work
         rdf:about="">
        <dc:format>image/svg+xml</dc:format>
        <dc:type
           rdf:resource="http://purl.org/dc/dcmitype/StillImage" />
        <dc:title></dc:title>
      </cc:Work>
    </rdf:RDF>
  </metadata>
  <path
     sodipodi:nodetypes="ccccccccccccsccccccccccccsccccc"
     style="stroke-width:0.726853;fill:#663300;fill-opacity:1"
     inkscape:connector-curvature="0"
     d="M 45.884728,0.041911 63.767856,18.027253 C 57.183519,24.217406 45.928224,29.70763 42.964541,31.109179 L 32.846811,20.94744 C 34.233756,17.983757 39.723773,6.6554493 45.884728,0.041911 Z M 30.051552,21.498257 c 0.208041,-0.0219 0.42227,0.02639 0.604763,0.150482 0.0584,0.131397 0.132447,0.247435 0.220043,0.335033 l 11.066047,11.111475 c 0.102196,0.102195 0.218851,0.189042 0.364846,0.23282 0.33578,0.364982 0.320574,0.933982 -0.02982,1.298965 l -0.699875,0.701299 c -0.175193,0.175196 -0.409101,0.276828 -0.65729,0.276828 -0.248191,0 -0.481081,-0.08703 -0.641675,-0.276828 L 28.788077,23.795225 c -0.364985,-0.364989 -0.364985,-0.963794 0,-1.328777 l 0.701299,-0.701299 c 0.153294,-0.153293 0.354134,-0.244991 0.562176,-0.266892 z m -1.832748,4.792684 9.416431,9.446245 c -4.277629,5.022203 -7.006996,15.19735 -6.350022,20.847324 L 1.7496622,64.268016 19.371645,48.278231 c 1.372346,0.204392 2.74412,-0.248401 3.722281,-1.226563 1.708131,-1.693531 1.708131,-4.453083 0,-6.16121 -0.817568,-0.832168 -1.927252,-1.284769 -3.080606,-1.284769 -1.153354,0 -2.262021,0.467198 -3.064989,1.284769 -1.036558,1.051156 -1.474544,2.539971 -1.182555,3.970715 L 0.232144,62.623924 7.458076,32.670776 c 5.620779,0.642374 15.753127,-2.087604 20.760728,-6.379835 z"
     id="path4" />
</svg>
