<?xml version="1.0" encoding="UTF-8" standalone="no"?>
<svg
   xmlns:osb="http://www.openswatchbook.org/uri/2009/osb"
   xmlns:dc="http://purl.org/dc/elements/1.1/"
   xmlns:cc="http://creativecommons.org/ns#"
   xmlns:rdf="http://www.w3.org/1999/02/22-rdf-syntax-ns#"
   xmlns:svg="http://www.w3.org/2000/svg"
   xmlns="http://www.w3.org/2000/svg"
   xmlns:sodipodi="http://sodipodi.sourceforge.net/DTD/sodipodi-0.dtd"
   xmlns:inkscape="http://www.inkscape.org/namespaces/inkscape"
   sodipodi:docname="icon-add-rat.svg"
   inkscape:version="1.0beta1 (fe3e306, 2019-09-17)"
   width="64px"
   height="64px"
   viewBox="0 0 64 64"
   version="1.1"
   id="SVGRoot">
  <defs
     id="defs842">
    <linearGradient
       osb:paint="solid"
       id="linearGradient1474">
      <stop
         id="stop1472"
         offset="0"
         style="stop-color:#ffffff;stop-opacity:1;" />
    </linearGradient>
  </defs>
  <sodipodi:namedview
     inkscape:grid-bbox="true"
     inkscape:window-maximized="1"
     inkscape:window-y="-9"
     inkscape:window-x="-9"
     inkscape:window-height="1001"
     inkscape:window-width="1920"
     showgrid="false"
     inkscape:document-rotation="0"
     inkscape:current-layer="layer1"
     inkscape:document-units="px"
     inkscape:cy="36.895077"
     inkscape:cx="52.307259"
     inkscape:zoom="7.9195959"
     inkscape:pageshadow="2"
     inkscape:pageopacity="0.0"
     borderopacity="1.0"
     bordercolor="#666666"
     pagecolor="#ffffff"
     id="base">
    <inkscape:grid
       id="grid1478"
       type="xygrid" />
  </sodipodi:namedview>
  <metadata
     id="metadata845">
    <rdf:RDF>
      <cc:Work
         rdf:about="">
        <dc:format>image/svg+xml</dc:format>
        <dc:type
           rdf:resource="http://purl.org/dc/dcmitype/StillImage" />
        <dc:title></dc:title>
      </cc:Work>
    </rdf:RDF>
  </metadata>
  <g
     id="layer1"
     inkscape:groupmode="layer"
     inkscape:label="Calque 1">
    <path
       sodipodi:nodetypes="sscssssccssssscscsscssssssssscssc"
       inkscape:connector-curvature="0"
       id="path837"
       d="m 45.17179,58.906693 c -6.306654,-5.028091 -7.819154,-5.707781 -10.22069,-4.592969 -1.482929,0.688388 -1.965218,1.703952 -1.966639,4.141217 -6.5e-4,0.976804 -0.07076,1.602219 -0.193455,1.72496 -0.242842,0.242842 -16.140795,0.630036 -18.959321,0.02987 C 5.5506855,58.446447 1.6727823,56.139172 0.34614859,47.054169 -0.14942271,43.660417 0.08033829,39.260805 1.9997277,35.993226 4.3194371,32.04414 6.676279,30.095432 14.715948,25.479079 22.097821,21.801434 22.828747,15.741318 28.307349,12.173794 28.299644,15.00908 28.040146,22.45531 17.067598,29.075701 8.1589115,34.450846 5.9155494,37.256133 5.9155494,43.021128 c 0,6.836838 2.8034046,9.817015 8.5752136,11.675181 2.440613,0.785728 0.567223,0.301353 0.317106,-0.532688 -2.463634,-8.215231 1.740518,-15.350748 15.447855,-26.218894 4.171061,-3.307114 4.295365,-3.385346 4.667369,-2.937103 0.527842,0.635998 3.307202,2.149348 3.947433,2.149348 0.04498,0 -0.419123,-0.536385 -1.03136,-1.191956 -2.525021,-2.703775 -3.327404,-5.892538 -2.364909,-9.398485 0.462803,-1.685784 0.864502,-1.882577 2.810926,-1.377067 0.481871,0.125153 1.453799,0.341035 2.159818,0.479754 0.70603,0.13872 1.567798,0.320557 1.915036,0.40408 0.580029,0.139523 0.721206,0.09942 1.736749,-0.493708 4.482096,-2.617694 11.373751,-3.891674 16.364312,-3.025079 3.458044,0.600473 3.854431,1.054713 3.08873,3.539563 -1.216072,3.946385 -2.595067,6.311044 -6.404716,10.982671 -5.41556,6.640869 -7.22579,10.733921 -8.65802,19.576269 -0.709997,4.383431 -0.804894,5.516353 -0.799714,9.547446 0.0067,4.981654 0.147736,4.829618 -2.515588,2.706231 z m 7.971035,-39.599165 c 0.751793,-0.458428 1.021616,-0.944066 1.021616,-1.838777 0,-2.184883 -3.108062,-2.817034 -3.949461,-0.803286 -0.789872,1.890435 1.206339,3.691784 2.927845,2.642063 z"
       style="display:inline;fill:#663300;fill-opacity:1;stroke-width:0.160462" />
    <g
       style="fill:#663300;fill-opacity:1"
       transform="matrix(-0.09386477,0,0,0.09386477,29.292382,1.0924258)"
       id="g4">
      <path
         style="fill:#663300;fill-opacity:1"
         sodipodi:nodetypes="sssssscssscssscssscsss"
         d="M 150.648,0 C 67.584,0 0,67.584 0,150.648 c 0,83.07 67.584,150.647 150.648,150.647 83.07,0 150.648,-67.577 150.648,-150.647 C 301.296,67.584 233.718,0 150.648,0 Z m 78.04212,172.46724 h -56.2589 v 56.21335 c 0,3.387 -18.38122,6.14976 -21.78322,6.14976 -3.393,0 -21.16946,-2.82523 -21.81174,-6.14976 V 172.46724 H 72.622904 c -3.396,0 -6.149759,-18.42024 -6.149759,-21.81824 0,-3.393 2.753759,-21.82227 6.149759,-21.82227 H 128.83626 V 72.613375 c 0,-3.393 18.41974,-6.149759 21.81274,-6.149759 3.402,0 21.13673,2.819742 21.78222,6.149759 v 56.213355 h 56.2589 c 3.398,0 6.14976,18.42227 6.14976,21.81427 0,3.394 -2.81235,21.18213 -6.14976,21.82624 z"
         id="path2"
         inkscape:connector-curvature="0" />
    </g>
  </g>
</svg>
