<?xml version="1.0" encoding="UTF-8" standalone="no"?>
<svg
   xmlns:dc="http://purl.org/dc/elements/1.1/"
   xmlns:cc="http://creativecommons.org/ns#"
   xmlns:rdf="http://www.w3.org/1999/02/22-rdf-syntax-ns#"
   xmlns:svg="http://www.w3.org/2000/svg"
   xmlns="http://www.w3.org/2000/svg"
   xmlns:sodipodi="http://sodipodi.sourceforge.net/DTD/sodipodi-0.dtd"
   xmlns:inkscape="http://www.inkscape.org/namespaces/inkscape"
   inkscape:version="1.0beta1 (fe3e306, 2019-09-17)"
   sodipodi:docname="icon-homerat.svg"
   version="1.1"
   viewBox="0 0 60 60"
   data-name="Layer 1"
   id="Layer_1">
  <metadata
     id="metadata15">
    <rdf:RDF>
      <cc:Work
         rdf:about="">
        <dc:format>image/svg+xml</dc:format>
        <dc:type
           rdf:resource="http://purl.org/dc/dcmitype/StillImage" />
        <dc:title>icon-report</dc:title>
      </cc:Work>
    </rdf:RDF>
  </metadata>
  <sodipodi:namedview
     inkscape:current-layer="Layer_1"
     inkscape:window-maximized="1"
     inkscape:window-y="-9"
     inkscape:window-x="-9"
     inkscape:cy="26.420784"
     inkscape:cx="11.569904"
     inkscape:zoom="9.7345034"
     showgrid="false"
     id="namedview13"
     inkscape:window-height="1001"
     inkscape:window-width="1920"
     inkscape:pageshadow="2"
     inkscape:pageopacity="0"
     guidetolerance="10"
     gridtolerance="10"
     objecttolerance="10"
     borderopacity="1"
     inkscape:document-rotation="0"
     bordercolor="#666666"
     pagecolor="#ffffff" />
  <defs
     id="defs4">
    <style
       id="style2">.cls-1{fill:#630;}.cls-2{fill:none;stroke:#630;stroke-linecap:round;stroke-linejoin:round;stroke-width:2.5px;}</style>
  </defs>
  <title
     id="title6">icon-report</title>
  <path
     inkscape:connector-curvature="0"
     d="M 59.497454,27.585279 31.056861,2.8849475 c -0.722444,-0.62185 -1.792397,-0.62185 -2.505698,0.009 L 0.48550822,27.795474 c -0.59442,0.521257 -0.7956,1.362586 -0.51211,2.094177 0.28349,0.740736 0.9876505,1.225416 1.77411048,1.225416 h 3.94144 v 19.579201 c -0.0731,0.695008 -0.20119,3.191564 1.39917,5.029687 0.73159,0.841327 2.10332,1.847266 4.4809893,1.847266 h 35.51874 c 0.06405,0 0.16461,0.0091 0.274347,0.0091 0.85962,0 2.926362,-0.173749 4.563299,-1.682656 0.905347,-0.841329 1.993578,-2.414255 1.993578,-5.139426 V 31.051158 l 4.38955,-0.12803 c 0.786455,-0.01829 1.472327,-0.521257 1.73753,-1.261995 0.256049,-0.740732 0.04573,-1.563769 -0.548698,-2.075884 z M 25.039527,40.726474 c 0,-0.0091 0.0091,-0.01824 0.0091,-0.03656 0.02744,-0.09145 0.100593,-0.228621 0.256057,-0.393222 0.329216,-0.338369 1.435747,-1.115685 4.535864,-1.115685 2.67945,0 3.831706,0.612706 4.279807,0.978509 0.402374,0.320059 0.466387,0.6127 0.475535,0.685863 v 12.921724 h -9.556409 z m 0,0"
     fill=""
     id="path2"
     style="overflow:hidden;fill:#ffffff;fill-opacity:1;fill-rule:nonzero;stroke-width:0.0706419" />
  <path
     style="fill:#663300;fill-opacity:1;stroke-width:0.116538"
     d="m 34.58767,56.533578 c -4.580334,-3.651758 -5.678832,-4.145416 -7.423009,-3.33574 -1.077032,0.499969 -1.427298,1.237518 -1.428321,3.00765 -4.62e-4,0.709425 -0.05151,1.163649 -0.14054,1.252792 -0.176219,0.176217 -11.683861,0.194525 -13.769631,0.02163 l 0.21421,-4.308724 c -0.0576,-5.966502 1.75884,-11.231283 11.714133,-19.124525 3.029326,-2.401878 3.119607,-2.458687 3.389796,-2.133132 0.383348,0.461884 2.401905,1.560998 2.866902,1.560998 0.03254,0 -0.304344,-0.389546 -0.749053,-0.865681 -1.833849,-1.963666 -2.41659,-4.279573 -1.717562,-6.825863 0.336119,-1.224323 0.627848,-1.367264 2.041488,-1.00012 0.349988,0.0909 1.055866,0.247584 1.568612,0.348452 0.512768,0.100835 1.138663,0.232682 1.390869,0.293481 0.421216,0.101499 0.52376,0.07235 1.261335,-0.358583 3.255213,-1.901162 8.260445,-2.826408 11.884973,-2.197011 2.511478,0.436108 2.799371,0.765998 2.243229,2.570679 -0.883162,2.866159 -1.884712,4.583532 -4.65156,7.976401 -3.933162,4.823099 -5.247895,7.795755 -6.288095,14.217717 -0.515638,3.183588 -0.584571,4.006392 -0.58078,6.934079 0.0064,3.618026 0.107317,3.507583 -1.827026,1.965451 z m 5.789163,-28.759833 c 0.545983,-0.332919 0.741967,-0.685643 0.741967,-1.335426 0,-1.586832 -2.257297,-2.04597 -2.868408,-0.583417 -0.573641,1.372962 0.876148,2.681249 2.126441,1.918843 z"
     id="path837"
     inkscape:connector-curvature="0"
     sodipodi:nodetypes="sscsccscscsscssssssssscssc"
     inkscape:export-xdpi="94.953262"
     inkscape:export-ydpi="94.953262"
     inkscape:export-filename="C:\Users\nbertin\Documents\Personnel\Rats\LORD\CakeLORD\webroot\img\Unknown.png" />
</svg>
