<?xml version="1.0" encoding="UTF-8" standalone="no"?>
<svg
   xmlns:osb="http://www.openswatchbook.org/uri/2009/osb"
   xmlns:dc="http://purl.org/dc/elements/1.1/"
   xmlns:cc="http://creativecommons.org/ns#"
   xmlns:rdf="http://www.w3.org/1999/02/22-rdf-syntax-ns#"
   xmlns:svg="http://www.w3.org/2000/svg"
   xmlns="http://www.w3.org/2000/svg"
   xmlns:sodipodi="http://sodipodi.sourceforge.net/DTD/sodipodi-0.dtd"
   xmlns:inkscape="http://www.inkscape.org/namespaces/inkscape"
   sodipodi:docname="icon-rat-add.svg"
   inkscape:version="1.0beta1 (fe3e306, 2019-09-17)"
   width="64px"
   height="64px"
   viewBox="0 0 64 64"
   version="1.1"
   id="SVGRoot">
  <defs
     id="defs842">
    <linearGradient
       osb:paint="solid"
       id="linearGradient1474">
      <stop
         id="stop1472"
         offset="0"
         style="stop-color:#ffffff;stop-opacity:1;" />
    </linearGradient>
  </defs>
  <sodipodi:namedview
     inkscape:grid-bbox="true"
     inkscape:window-maximized="1"
     inkscape:window-y="-9"
     inkscape:window-x="-9"
     inkscape:window-height="1001"
     inkscape:window-width="1920"
     showgrid="false"
     inkscape:document-rotation="0"
     inkscape:current-layer="layer1"
     inkscape:document-units="px"
     inkscape:cy="32.044825"
     inkscape:cx="52.307259"
     inkscape:zoom="7.9195959"
     inkscape:pageshadow="2"
     inkscape:pageopacity="0.0"
     borderopacity="1.0"
     bordercolor="#666666"
     pagecolor="#ffffff"
     id="base">
    <inkscape:grid
       id="grid1478"
       type="xygrid" />
  </sodipodi:namedview>
  <metadata
     id="metadata845">
    <rdf:RDF>
      <cc:Work
         rdf:about="">
        <dc:format>image/svg+xml</dc:format>
        <dc:type
           rdf:resource="http://purl.org/dc/dcmitype/StillImage" />
        <dc:title></dc:title>
      </cc:Work>
    </rdf:RDF>
  </metadata>
  <g
     id="layer1"
     inkscape:groupmode="layer"
     inkscape:label="Calque 1">
    <path
       sodipodi:nodetypes="sscssssccssssscscsscssssssssssss"
       inkscape:connector-curvature="0"
       id="path837"
       d="m 45.550488,60.759711 c -5.975158,-4.763799 -7.408156,-5.407763 -9.68346,-4.351549 -1.404981,0.652204 -1.86192,1.614387 -1.863266,3.923543 -6.16e-4,0.92546 -0.06704,1.518001 -0.183286,1.63429 -0.230078,0.230078 -15.241841,0.253727 -17.962762,0.0283 C 7.8857201,61.33381 3.3480729,57.506314 1.0810185,49.530191 0.19261163,46.404529 0.82918007,42.14647 2.6476805,39.050645 4.845459,35.309135 7.0784182,33.462857 14.695497,29.089153 c 6.993859,-3.484336 7.034716,-3.543806 12.225346,-6.92381 -0.0073,2.686254 -1.601508,4.05898 -11.997306,10.331383 -8.4404182,5.092611 -10.5658622,7.750444 -10.5658622,13.212413 0,6.477473 3.3933587,10.184886 10.1244732,11.061499 2.408861,0.313714 2.537408,0.285512 2.300438,-0.504689 -2.334137,-7.783413 1.649032,-14.543866 14.635869,-24.840749 3.951818,-3.133282 4.069588,-3.207402 4.422038,-2.78272 0.500097,0.602568 3.133366,2.036371 3.739944,2.036371 0.04261,0 -0.397092,-0.50819 -0.977148,-1.129303 -2.392299,-2.561656 -3.152505,-5.582808 -2.240602,-8.904472 0.438476,-1.597174 0.81906,-1.783623 2.663174,-1.304684 0.456543,0.118574 1.377384,0.323109 2.046293,0.454537 0.668918,0.131428 1.485389,0.303707 1.814375,0.38284 0.549541,0.132189 0.683297,0.09419 1.64546,-0.467757 4.246504,-2.4801 10.775912,-3.687116 15.504154,-2.866072 3.27628,0.568911 3.651831,0.999274 2.926377,3.353513 -1.152151,3.738951 -2.458662,5.979316 -6.068064,10.405388 -5.130902,6.291805 -6.845981,10.169714 -8.202929,18.547282 -0.672677,4.153024 -0.762586,5.226396 -0.757678,9.045603 0.0063,4.719802 0.13997,4.575758 -2.383361,2.563983 z m 7.552053,-37.517713 c 0.712276,-0.434331 0.967916,-0.894443 0.967916,-1.742126 0,-2.070038 -2.944692,-2.668961 -3.741865,-0.761062 -0.748353,1.791068 1.142931,3.497732 2.773949,2.503188 z"
       style="display:inline;fill:#663300;fill-opacity:1;stroke-width:0.152027" />
    <g
       style="fill:#663300;fill-opacity:1"
       transform="matrix(-0.09386477,0,0,0.09386477,29.54492,1.2186949)"
       id="g4">
      <path
         style="fill:#663300;fill-opacity:1"
         sodipodi:nodetypes="sssssscssscssscssscsss"
         d="M 150.648,0 C 67.584,0 0,67.584 0,150.648 c 0,83.07 67.584,150.647 150.648,150.647 83.07,0 150.648,-67.577 150.648,-150.647 C 301.296,67.584 233.718,0 150.648,0 Z m 78.04212,172.46724 h -56.2589 v 56.21335 c 0,3.387 -18.38122,6.14976 -21.78322,6.14976 -3.393,0 -21.16946,-2.82523 -21.81174,-6.14976 V 172.46724 H 72.622904 c -3.396,0 -6.149759,-18.42024 -6.149759,-21.81824 0,-3.393 2.753759,-21.82227 6.149759,-21.82227 H 128.83626 V 72.613375 c 0,-3.393 18.41974,-6.149759 21.81274,-6.149759 3.402,0 21.13673,2.819742 21.78222,6.149759 v 56.213355 h 56.2589 c 3.398,0 6.14976,18.42227 6.14976,21.81427 0,3.394 -2.81235,21.18213 -6.14976,21.82624 z"
         id="path2"
         inkscape:connector-curvature="0" />
    </g>
  </g>
</svg>
