<?xml version="1.0" encoding="UTF-8" standalone="no"?>
<svg
   xmlns:dc="http://purl.org/dc/elements/1.1/"
   xmlns:cc="http://creativecommons.org/ns#"
   xmlns:rdf="http://www.w3.org/1999/02/22-rdf-syntax-ns#"
   xmlns:svg="http://www.w3.org/2000/svg"
   xmlns="http://www.w3.org/2000/svg"
   id="SVGRoot"
   version="1.1"
   viewBox="0 0 64 64"
   height="64px"
   width="64px">
  <defs
     id="defs830" />
  <metadata
     id="metadata833">
    <rdf:RDF>
      <cc:Work
         rdf:about="">
        <dc:format>image/svg+xml</dc:format>
        <dc:type
           rdf:resource="http://purl.org/dc/dcmitype/StillImage" />
        <dc:title></dc:title>
      </cc:Work>
    </rdf:RDF>
  </metadata>
  <g
     id="g856"
     transform="matrix(1.124814,0,0,1.124814,468.18019,537.48542)"
     style="fill:#b1000c;fill-opacity:1">
    <path
       style="overflow:hidden;fill:#b1000c;fill-opacity:1;stroke-width:0.053161"
       d="m -364.06768,-472.13623 a 7.0314242,7.0314242 0 0 0 -8.15419,-1.28153 23.841064,23.841064 0 0 0 -1.04791,-1.15452 6.9769874,6.9769874 0 0 0 -9.85533,0 l -12.40706,12.40706 a 2.2682013,2.2682013 0 0 0 0,3.20724 2.2954197,2.2954197 0 0 0 3.20723,0 l 12.40707,-12.40706 a 2.43378,2.43378 0 0 1 3.44086,0 l 0.83016,0.83243 -5.04675,5.04448 a 1.1794647,1.1794647 0 0 0 0,1.66486 l 8.31523,8.30388 a 1.1749283,1.1749283 0 0 0 1.66032,0 l 6.65037,-6.65036 a 7.051838,7.051838 0 0 0 0,-9.96648 z"
       id="path2" />
    <path
       style="overflow:hidden;fill:#b1000c;fill-opacity:1;stroke-width:0.053161"
       d="m -383.18862,-461.33052 a 1.1771965,1.1771965 0 0 0 -1.66259,0 l -18.66049,18.66503 a 3.5247848,3.5247848 0 0 0 0,4.99004 l 4.99004,4.99005 a 3.5247848,3.5247848 0 0 0 4.99004,0 l 18.66276,-18.66276 a 1.1771965,1.1771965 0 0 0 0,-1.6626 z m -24.01798,25.00238 a 1.1341006,1.1341006 0 0 0 -1.869,0.41509 l -4.41165,12.21653 a 1.1341006,1.1341006 0 0 0 0.26538,1.18627 1.1590509,1.1590509 0 0 0 1.18853,0.26765 l 12.21654,-4.40939 a 1.1341006,1.1341006 0 0 0 0.41508,-1.869 z"
       id="path4" />
  </g>
</svg>
