<?xml version="1.0" encoding="UTF-8" standalone="no"?>
<svg
   xmlns:dc="http://purl.org/dc/elements/1.1/"
   xmlns:cc="http://creativecommons.org/ns#"
   xmlns:rdf="http://www.w3.org/1999/02/22-rdf-syntax-ns#"
   xmlns:svg="http://www.w3.org/2000/svg"
   xmlns="http://www.w3.org/2000/svg"
   xmlns:sodipodi="http://sodipodi.sourceforge.net/DTD/sodipodi-0.dtd"
   xmlns:inkscape="http://www.inkscape.org/namespaces/inkscape"
   width="64px"
   height="64px"
   viewBox="0 0 64 64"
   version="1.1"
   id="SVGRoot"
   sodipodi:docname="icon-staff-rat.svg"
   inkscape:version="1.0beta1 (fe3e306, 2019-09-17)">
  <sodipodi:namedview
     pagecolor="#ffffff"
     bordercolor="#666666"
     inkscape:document-rotation="0"
     borderopacity="1"
     objecttolerance="10"
     gridtolerance="10"
     guidetolerance="10"
     inkscape:pageopacity="0"
     inkscape:pageshadow="2"
     inkscape:window-width="1920"
     inkscape:window-height="1001"
     id="namedview856"
     showgrid="false"
     inkscape:zoom="6.453125"
     inkscape:cx="24.621937"
     inkscape:cy="44.737103"
     inkscape:window-x="-9"
     inkscape:window-y="-9"
     inkscape:window-maximized="1"
     inkscape:current-layer="SVGRoot" />
  <defs
     id="defs830" />
  <metadata
     id="metadata833">
    <rdf:RDF>
      <cc:Work
         rdf:about="">
        <dc:format>image/svg+xml</dc:format>
        <dc:type
           rdf:resource="http://purl.org/dc/dcmitype/StillImage" />
        <dc:title></dc:title>
      </cc:Work>
    </rdf:RDF>
  </metadata>
  <path
     style="fill:#b1000c;fill-opacity:1;stroke-width:0.0479757"
     inkscape:connector-curvature="0"
     id="path2"
     d="m 22.488885,14.75736 -2.043763,-1.180203 c 0.206294,-1.113034 0.206294,-2.254855 0,-3.36789 L 22.488885,9.0290648 C 22.723965,8.8947338 22.829511,8.6164754 22.75275,8.3574061 22.220221,6.6494698 21.31348,5.1046579 20.128482,3.8189114 19.946174,3.6222092 19.648725,3.5742308 19.418442,3.7085657 L 17.374678,4.8887668 C 16.515914,4.1499445 15.527616,3.579031 14.457759,3.2048198 V 0.84921789 c 0,-0.2686659 -0.187105,-0.5037461 -0.450971,-0.5613171 -1.760707,-0.3934042 -3.564592,-0.3742113 -5.2389427,0 -0.263866,0.057571 -0.450971,0.2926512 -0.450971,0.5613171 V 3.209616 c -1.06506,0.3790076 -2.053359,0.949921 -2.916921,1.6839471 L 3.3609893,3.713362 C 3.1259083,3.579031 2.8332533,3.6222092 2.6509483,3.8237077 1.4659473,5.1046579 0.55920827,6.6494698 0.02668027,8.3622062 c -0.08156,0.2590694 0.02879,0.5373239 0.263862,0.6716549 L 2.3343083,10.214064 c -0.206295,1.113035 -0.206295,2.254856 0,3.367891 l -2.04376603,1.180201 c -0.235076,0.134332 -0.340622,0.412592 -0.263862,0.67166 0.532528,1.707933 1.43926703,3.252749 2.62426803,4.538497 0.182305,0.1967 0.479757,0.244677 0.710041,0.110345 l 2.043761,-1.180202 c 0.858765,0.738826 1.847064,1.309736 2.916922,1.683946 v 2.360403 c 0,0.268664 0.187104,0.503744 0.450971,0.561316 1.7607067,0.393399 3.5645907,0.374209 5.2389417,0 0.263866,-0.05757 0.45097,-0.292652 0.45097,-0.561316 v -2.360403 c 1.065061,-0.379007 2.053359,-0.949918 2.916921,-1.683946 l 2.043763,1.180202 c 0.235081,0.134332 0.527733,0.09115 0.710041,-0.110345 1.184998,-1.28095 2.091738,-2.825766 2.624269,-4.538497 0.07196,-0.263866 -0.03359,-0.542125 -0.268664,-0.676456 z m -11.101569,0.973904 c -2.1157257,0 -3.8380527,-1.722325 -3.8380527,-3.838051 0,-2.1157255 1.722327,-3.8380546 3.8380527,-3.8380546 2.115727,0 3.838053,1.7223291 3.838053,3.8380546 0,2.115726 -1.722326,3.838051 -3.838053,3.838051 z"
     fill="currentColor" />
  <path
     sodipodi:nodetypes="sscssssssssscssssscscsscssssssssssss"
     inkscape:connector-curvature="0"
     id="path837"
     d="m 47.455762,62.700794 c -5.577604,-4.446862 -6.915268,-5.047982 -9.039187,-4.062039 -1.311503,0.608813 -1.738038,1.506981 -1.739294,3.662508 -5.76e-4,0.86389 -0.06254,1.417008 -0.171089,1.525561 -0.214769,0.214769 -14.22775,0.236845 -16.767638,0.02642 C 12.296962,63.236707 8.0612154,59.663857 5.9449986,52.218392 5.1157032,49.30068 5.7099155,45.325915 7.4074254,42.436059 9.458979,38.943474 11.543379,37.220023 18.653666,33.137307 c 8.040672,-4.616948 9.530512,-6.036842 7.970788,-7.596571 -1.347844,-1.347849 -2.493423,-1.041922 -9.815861,2.621334 -4.605221,2.303894 -5.004726,2.443171 -5.279315,1.840515 -0.247491,-0.543189 3.989885,-3.362506 9.583593,-6.376396 4.592341,-2.474354 8.963919,-0.98605 8.952749,3.047961 -0.0069,2.507531 -1.494964,3.788931 -11.199086,9.644025 -7.878848,4.753794 -9.8628849,7.234801 -9.8628849,12.333382 0,6.04652 3.1675819,9.507277 9.4508579,10.32557 2.248592,0.292843 2.368589,0.266516 2.147383,-0.471113 -2.178845,-7.265577 1.539318,-13.576253 13.662094,-23.188077 3.688893,-2.924827 3.798828,-2.99401 4.127833,-2.597586 0.46682,0.562485 2.924887,1.900896 3.491103,1.900896 0.03978,0 -0.370669,-0.47438 -0.912136,-1.054177 -2.233126,-2.391222 -2.942749,-5.211374 -2.091524,-8.312046 0.409303,-1.490916 0.764565,-1.664961 2.485984,-1.217884 0.426171,0.110688 1.285737,0.301612 1.910151,0.424296 0.62441,0.122679 1.386561,0.283499 1.693657,0.357371 0.512974,0.123399 0.637833,0.0879 1.535975,-0.436642 3.963976,-2.315095 10.05896,-3.441803 14.472618,-2.675385 3.058295,0.531064 3.408858,0.932792 2.731668,3.130405 -1.075494,3.490186 -2.295075,5.581505 -5.664335,9.713105 -4.78952,5.873211 -6.390492,9.493117 -7.657154,17.31332 -0.627922,3.87672 -0.711847,4.87868 -0.707267,8.443793 0.0058,4.40579 0.130651,4.271327 -2.224795,2.393399 z m 7.049594,-35.021639 c 0.664881,-0.405426 0.903512,-0.834934 0.903512,-1.626215 0,-1.932318 -2.748765,-2.491397 -3.492899,-0.710429 -0.698563,1.671902 1.06688,3.265028 2.589387,2.336644 z"
     style="display:inline;fill:#b1000c;fill-opacity:1;stroke-width:0.141912" />
</svg>
