<?xml version="1.0" encoding="UTF-8" standalone="no"?>
<svg
   xmlns:dc="http://purl.org/dc/elements/1.1/"
   xmlns:cc="http://creativecommons.org/ns#"
   xmlns:rdf="http://www.w3.org/1999/02/22-rdf-syntax-ns#"
   xmlns:svg="http://www.w3.org/2000/svg"
   xmlns="http://www.w3.org/2000/svg"
   xmlns:sodipodi="http://sodipodi.sourceforge.net/DTD/sodipodi-0.dtd"
   xmlns:inkscape="http://www.inkscape.org/namespaces/inkscape"
   id="Layer_1"
   data-name="Layer 1"
   viewBox="0 0 60 60"
   version="1.1"
   sodipodi:docname="icon-home.svg"
   inkscape:version="1.0beta1 (fe3e306, 2019-09-17)">
  <metadata
     id="metadata15">
    <rdf:RDF>
      <cc:Work
         rdf:about="">
        <dc:format>image/svg+xml</dc:format>
        <dc:type
           rdf:resource="http://purl.org/dc/dcmitype/StillImage" />
        <dc:title>icon-report</dc:title>
      </cc:Work>
    </rdf:RDF>
  </metadata>
  <sodipodi:namedview
     pagecolor="#ffffff"
     bordercolor="#666666"
     inkscape:document-rotation="0"
     borderopacity="1"
     objecttolerance="10"
     gridtolerance="10"
     guidetolerance="10"
     inkscape:pageopacity="0"
     inkscape:pageshadow="2"
     inkscape:window-width="1920"
     inkscape:window-height="1001"
     id="namedview13"
     showgrid="false"
     inkscape:zoom="9.7345034"
     inkscape:cx="27.127012"
     inkscape:cy="36.433002"
     inkscape:window-x="-9"
     inkscape:window-y="-9"
     inkscape:window-maximized="1"
     inkscape:current-layer="Layer_1" />
  <defs
     id="defs4">
    <style
       id="style2">.cls-1{fill:#630;}.cls-2{fill:none;stroke:#630;stroke-linecap:round;stroke-linejoin:round;stroke-width:2.5px;}</style>
  </defs>
  <title
     id="title6">icon-report</title>
  <path
     style="fill:#ffffff;fill-opacity:0.941176;stroke-width:0.735705"
     d="M 58.851072,26.395351 31.87128,4.1770456 c -0.0029,-0.0029 -0.0074,-0.0044 -0.01177,-0.0074 -0.111827,-0.0927 -0.235425,-0.167005 -0.359024,-0.240576 -0.04488,-0.02649 -0.08461,-0.06106 -0.130955,-0.08534 -0.103735,-0.05444 -0.214091,-0.09049 -0.322239,-0.131692 -0.328861,-0.125805 -0.670964,-0.189812 -1.016745,-0.192755 -0.37006,-0.0044 -0.738649,0.06106 -1.091787,0.198641 -0.103735,0.03973 -0.209677,0.07431 -0.308997,0.125806 -0.04046,0.02133 -0.07651,0.05297 -0.115506,0.07651 -0.129484,0.07651 -0.257496,0.153762 -0.375945,0.25014 -0.0029,0.0022 -0.0066,0.0037 -0.0096,0.0066 L 1.1489527,26.395351 c -1.25437695,1.032931 -1.43388995,2.887645 -0.40022295,4.142022 0.58194295,0.706278 1.42432495,1.071923 2.27332995,1.071923 h 6.644156 v 24.686599 c 0,1.625173 1.3176493,2.942822 2.9428223,2.942822 h 16.739508 1.300727 16.740243 c 1.625173,0 2.942822,-1.317649 2.942822,-2.942822 V 31.608561 h 6.641214 0.0044 0.0044 0.128013 l -0.01324,-0.01324 c 0.807805,-0.03237 1.599424,-0.38551 2.154146,-1.05868 1.033666,-1.254378 0.854154,-3.109092 -0.400224,-4.141287 z M 30.000381,24.216606 c 4.184693,0 7.578502,3.393074 7.578502,7.578502 0,4.185429 -3.393074,7.578503 -7.578502,7.578503 -4.185429,0 -7.578503,-3.393074 -7.578503,-7.578503 0,-4.185428 3.39381,-7.578502 7.578503,-7.578502 z m 12.786096,29.026551 c -0.571267,-0.0082 -1.106703,0.01343 -2.652421,0.01341 l -20.267283,-1.95e-4 c -1.545717,-1.4e-5 -2.797888,-0.02738 -2.797888,-0.02738 v -0.607209 c 0,-0.202319 0.02428,-0.513108 0.06548,-0.703656 0.03973,-6.260854 6.5956,-11.32545 12.866018,-11.32545 6.271153,0 12.827761,5.065332 12.866018,11.326922 0.0412,0.189812 0.129645,0.469373 0.08144,0.665865 z"
     id="path2"
     inkscape:connector-curvature="0"
     sodipodi:nodetypes="scccccccccccccscssccssccccccccsssssscssccscssc" />
</svg>
