<?xml version="1.0" encoding="UTF-8" standalone="no"?>
<svg
   xmlns:dc="http://purl.org/dc/elements/1.1/"
   xmlns:cc="http://creativecommons.org/ns#"
   xmlns:rdf="http://www.w3.org/1999/02/22-rdf-syntax-ns#"
   xmlns:svg="http://www.w3.org/2000/svg"
   xmlns="http://www.w3.org/2000/svg"
   xmlns:sodipodi="http://sodipodi.sourceforge.net/DTD/sodipodi-0.dtd"
   xmlns:inkscape="http://www.inkscape.org/namespaces/inkscape"
   inkscape:version="1.0beta1 (fe3e306, 2019-09-17)"
   sodipodi:docname="icon-edit.svg"
   id="svg4"
   viewBox="0 0 24 24"
   height="24"
   width="24"
   version="1.1">
  <metadata
     id="metadata10">
    <rdf:RDF>
      <cc:Work
         rdf:about="">
        <dc:format>image/svg+xml</dc:format>
        <dc:type
           rdf:resource="http://purl.org/dc/dcmitype/StillImage" />
        <dc:title></dc:title>
      </cc:Work>
    </rdf:RDF>
  </metadata>
  <defs
     id="defs8" />
  <sodipodi:namedview
     inkscape:current-layer="svg4"
     inkscape:window-maximized="0"
     inkscape:window-y="0"
     inkscape:window-x="0"
     inkscape:cy="12"
     inkscape:cx="12"
     inkscape:zoom="9.8333333"
     showgrid="false"
     id="namedview6"
     inkscape:window-height="956"
     inkscape:window-width="1701"
     inkscape:pageshadow="2"
     inkscape:pageopacity="0"
     guidetolerance="10"
     gridtolerance="10"
     objecttolerance="10"
     borderopacity="1"
     inkscape:document-rotation="0"
     bordercolor="#666666"
     pagecolor="#ffffff" />
  <path
     inkscape:connector-curvature="0"
     style="fill:#663300;fill-opacity:1"
     id="path2"
     d="m 5.025,2 c -1.1,0 -2,0.9 -2,2 v 16 c 0,1.1 0.9,2 2,2 h 4 v -1.9 l 10,-10 V 8 l -6,-6 h -8 m 7,1.5 5.5,5.5 h -5.5 V 3.5 m 7.1,9.5 c -0.1,0 -0.3,0.1 -0.4,0.2 l -1,1 2.1,2.1 1,-1 c 0.2,-0.2 0.2,-0.6 0,-0.8 l -1.3,-1.3 c -0.1,-0.1 -0.2,-0.2 -0.4,-0.2 m -2,1.8 -6.1,6.1 V 23 h 2.1 l 6.1,-6.1 z" />
</svg>
