<?xml version="1.0" encoding="UTF-8" standalone="no"?>
<svg
   xmlns:dc="http://purl.org/dc/elements/1.1/"
   xmlns:cc="http://creativecommons.org/ns#"
   xmlns:rdf="http://www.w3.org/1999/02/22-rdf-syntax-ns#"
   xmlns:svg="http://www.w3.org/2000/svg"
   xmlns="http://www.w3.org/2000/svg"
   xmlns:sodipodi="http://sodipodi.sourceforge.net/DTD/sodipodi-0.dtd"
   xmlns:inkscape="http://www.inkscape.org/namespaces/inkscape"
   sodipodi:docname="icon-rattery.svg"
   inkscape:version="1.0beta1 (fe3e306, 2019-09-17)"
   width="64px"
   height="64px"
   viewBox="0 0 64 64"
   version="1.1"
   id="SVGRoot">
  <defs
     id="defs2785" />
  <sodipodi:namedview
     inkscape:grid-bbox="true"
     inkscape:window-maximized="1"
     inkscape:window-y="-9"
     inkscape:window-x="-9"
     inkscape:window-height="1001"
     inkscape:window-width="1920"
     showgrid="false"
     inkscape:document-rotation="0"
     inkscape:current-layer="layer1"
     inkscape:document-units="px"
     inkscape:cy="38.847712"
     inkscape:cx="43.401942"
     inkscape:zoom="7.9195959"
     inkscape:pageshadow="2"
     inkscape:pageopacity="0.0"
     borderopacity="1.0"
     bordercolor="#666666"
     pagecolor="#ffffff"
     id="base" />
  <metadata
     id="metadata2788">
    <rdf:RDF>
      <cc:Work
         rdf:about="">
        <dc:format>image/svg+xml</dc:format>
        <dc:type
           rdf:resource="http://purl.org/dc/dcmitype/StillImage" />
        <dc:title></dc:title>
      </cc:Work>
    </rdf:RDF>
  </metadata>
  <g
     id="layer1"
     inkscape:groupmode="layer"
     inkscape:label="Calque 1">
    <path
       style="fill:#663300;stroke-width:0.141535;fill-opacity:1"
       d="m 13.558056,60.585089 c -2.78926,-0.69302 -4.3768603,-2.42213 -5.3894703,-5.86984 -0.33415,-1.1377 -0.86641,-2.92586 -1.18281,-3.97369 -0.31639,-1.04783 -0.57526,-1.97406 -0.57526,-2.0583 0,-0.0842 -0.44793,-1.6379 -0.99541,-3.45258 -0.54747,-1.81467 -1.05899,-3.5959 -1.1367,-3.95827 -0.13067,-0.60927 -0.20098,-0.69012 -0.93415,-1.07397 -2.68015004,-1.40324 -2.56807004,-5.62728 0.18268,-6.88512 0.55071,-0.25182 0.59769,-0.32164 0.82332,-1.22354 0.13161,-0.52606 0.55566,-2.00158 0.94234,-3.27894 0.38667,-1.27735 0.83465,-2.83778 0.99551,-3.46762 0.16086,-0.62983 0.6929,-2.48267 1.1823,-4.1174 0.48941,-1.63474 0.99243,-3.33204 1.11782,-3.77179 0.77816,-2.72894 3.2943803,-4.37582 6.8451803,-4.48022 2.01688,-0.0593 3.54019,-0.15165 3.54228,-2.64817 0.004,-4.90059 4.65738,-5.54713 8.10788,-6.73919 1.31753,-0.45517 8.31641,-0.52097 9.75277,-0.0768 3.41658,1.05644 6.68041,1.3137 7.81699,5.93158 0.71058,2.88706 2.02404,3.43403 4.02986,3.51028 3.0109,0.11444 4.58604,0.95433 6.23291,3.32349 0.34076,0.49021 0.38767,0.63296 1.74335,5.3047 0.55344,1.90719 1.44391,4.96436 1.97882,6.7937 0.53492,1.82935 1.04831,3.63119 1.14087,4.0041 0.14425,0.58117 0.2415,0.70852 0.6808,0.89151 2.99627,1.24811 2.80172,6.23204 -0.28146,7.21061 -0.13753,0.0437 -0.28766,0.28057 -0.33727,0.53224 -0.0833,0.42272 -0.78863,2.88193 -3.19481,11.13951 -0.53306,1.82934 -1.03531,3.58635 -1.11612,3.90446 -0.48593,1.91289 -2.68846,3.91388 -4.97922,4.52359 -1.04755,0.27881 -35.87217,0.28419 -36.993,0.006 z m 5.97988,-5.78553 c 0.49163,-0.44998 0.5012,-8.59225 0.0107,-9.11436 -0.40596,-0.43212 -1.18035,-0.44155 -1.62925,-0.0198 -0.39788,0.37379 -0.51824,8.5584 -0.13331,9.0652 0.43329,0.57046 1.17217,0.59956 1.75185,0.069 z m 12.92118,0.32401 c 0.7897,0 1.14999,-8.63352 0.39387,-9.43837 -0.40596,-0.43212 -1.18035,-0.44155 -1.62925,-0.0198 -0.39788,0.37379 -0.51825,8.5584 -0.13332,9.0652 0.22322,0.29389 0.79541,0.54044 1.05575,0.45492 0.10368,-0.0341 0.2445,-0.0619 0.31295,-0.0619 z m 13.30433,0 c 0.78971,0 1.15,-8.63352 0.39388,-9.43837 -0.40596,-0.43212 -1.18036,-0.44155 -1.62925,-0.0198 -0.50876,0.47795 -0.51694,8.67044 -0.009,9.13245 0.37854,0.34439 0.67411,0.46664 0.93155,0.38531 0.10368,-0.0328 0.24451,-0.0596 0.31295,-0.0596 z m 13.93663,-16.48037 c 1.4484,-0.60517 1.42581,-2.99929 -0.034,-3.60105 -1.27252,-0.52456 -55.3913903,-0.0972 -55.8848903,0.44129 -0.86708,0.94616 -0.56959,2.66942 0.54443,3.15371 0.69585,0.3025 54.6508003,0.3084 55.3744203,0.006 z m -40.09137,-10.15892 c 0.23945,-1.1999 0.29841,-6.82543 -0.0367,-9.01985 -0.1232,-0.80669 -1.64932,-0.58859 -1.78718,-0.0376 -0.1965,0.25864 -0.28899,8.39006 -0.101,8.87995 0.23407,0.60998 1.78348,0.88632 1.92493,0.17752 z m 12.85592,0.31369 c 0.0715,0 0.25734,-0.12738 0.41303,-0.28307 0.35676,-0.35676 0.43879,-8.62917 0.0901,-9.08809 -0.44462,-0.58521 -1.43405,-0.58521 -1.87866,0 -0.2913,0.38341 -0.27253,8.62842 0.0206,9.04692 0.21267,0.30362 0.6778,0.47197 1.03646,0.37513 0.10368,-0.028 0.24698,-0.0509 0.31846,-0.0509 z m 13.68198,-0.31824 c 0.46935,-0.43809 0.5027,-8.46764 0.0376,-9.05888 -0.57695,-0.73347 -1.66008,-0.54877 -1.96839,0.33567 -0.23129,0.66347 -0.20969,8.00885 0.0249,8.47252 0.37359,0.73836 1.25867,0.85479 1.90585,0.25069 z m -5.93429,-17.98968 c -0.27149,-2.87014 -4.18633,-3.40988 -8.36859,-3.35857 -4.91763,0.0603 -8.24615,1.12559 -8.37818,3.35857 -0.1014,1.71498 3.79627,2.45594 8.5629,2.45594 4.85898,0 8.3549,-0.64776 8.18387,-2.45594 z"
       id="path837"
       inkscape:connector-curvature="0"
       sodipodi:nodetypes="cscsssccscsscsssssssssccccsssccccscccsccscssccccscsscccssccsssccccsssssssssss" />
  </g>
</svg>
