<?xml version="1.0" encoding="UTF-8" standalone="no"?>
<svg
   xmlns:dc="http://purl.org/dc/elements/1.1/"
   xmlns:cc="http://creativecommons.org/ns#"
   xmlns:rdf="http://www.w3.org/1999/02/22-rdf-syntax-ns#"
   xmlns:svg="http://www.w3.org/2000/svg"
   xmlns="http://www.w3.org/2000/svg"
   xmlns:sodipodi="http://sodipodi.sourceforge.net/DTD/sodipodi-0.dtd"
   xmlns:inkscape="http://www.inkscape.org/namespaces/inkscape"
   id="SVGRoot"
   version="1.1"
   viewBox="0 0 64 64"
   height="64px"
   width="64px"
   inkscape:version="1.0beta1 (fe3e306, 2019-09-17)"
   sodipodi:docname="icon-declare-death.svg">
  <defs
     id="defs2785" />
  <sodipodi:namedview
     id="base"
     pagecolor="#ffffff"
     bordercolor="#666666"
     borderopacity="1.0"
     inkscape:pageopacity="0.0"
     inkscape:pageshadow="2"
     inkscape:zoom="5.6"
     inkscape:cx="42.090632"
     inkscape:cy="38.217934"
     inkscape:document-units="px"
     inkscape:current-layer="layer1"
     inkscape:document-rotation="0"
     showgrid="false"
     inkscape:window-width="1920"
     inkscape:window-height="1001"
     inkscape:window-x="-9"
     inkscape:window-y="-9"
     inkscape:window-maximized="1"
     inkscape:grid-bbox="true" />
  <metadata
     id="metadata2788">
    <rdf:RDF>
      <cc:Work
         rdf:about="">
        <dc:format>image/svg+xml</dc:format>
        <dc:type
           rdf:resource="http://purl.org/dc/dcmitype/StillImage" />
        <dc:title></dc:title>
      </cc:Work>
    </rdf:RDF>
  </metadata>
  <g
     inkscape:label="Calque 1"
     inkscape:groupmode="layer"
     id="layer1">
    <path
       id="path2"
       style="fill:#663300;fill-opacity:1;stroke-width:3.00001"
       d="M 26,2 C 16.07,2 11,10.07 11,19.999998 v 31.980473 c 5.882434,-2.857977 11.007445,-4.668811 19.025391,-4.927739 h -0.45117 v -20.32031 h -7.283203 v -4.857425 h 7.283203 v -7.283204 h 4.851564 v 7.283204 h 7.283202 v 4.857425 h -7.283202 v 20.32031 h -0.45117 c 8.017943,0.258939 13.14296,2.069762 19.025392,4.927739 V 19.999998 C 53.000002,10.07 47.930002,2 38.000003,2 Z m 7.775391,49.335934 C 20.729786,51.141393 9.987499,56.762888 4.9999993,59.931641 V 62 H 59.000001 V 59.749997 C 50.258749,53.663748 41.602754,51.452658 33.775391,51.335934 Z"
       inkscape:connector-curvature="0" />
  </g>
</svg>
