<?xml version="1.0" encoding="UTF-8" standalone="no"?>
<svg
   xmlns:dc="http://purl.org/dc/elements/1.1/"
   xmlns:cc="http://creativecommons.org/ns#"
   xmlns:rdf="http://www.w3.org/1999/02/22-rdf-syntax-ns#"
   xmlns:svg="http://www.w3.org/2000/svg"
   xmlns="http://www.w3.org/2000/svg"
   xmlns:sodipodi="http://sodipodi.sourceforge.net/DTD/sodipodi-0.dtd"
   xmlns:inkscape="http://www.inkscape.org/namespaces/inkscape"
   inkscape:export-ydpi="96"
   inkscape:export-xdpi="96"
   inkscape:export-filename="C:\Users\nbertin\Documents\Personnel\Rats\LORD\CakeLORD\docs\cdc\icon-backoffice.png"
   inkscape:version="1.0beta1 (fe3e306, 2019-09-17)"
   sodipodi:docname="icon-rattery.svg"
   id="SVGRoot"
   version="1.1"
   viewBox="0 0 64 64"
   height="64px"
   width="64px">
  <sodipodi:namedview
     inkscape:current-layer="SVGRoot"
     inkscape:window-maximized="1"
     inkscape:window-y="-9"
     inkscape:window-x="-9"
     inkscape:cy="34.719746"
     inkscape:cx="38.87305"
     inkscape:zoom="10.429825"
     showgrid="false"
     id="namedview39"
     inkscape:window-height="1001"
     inkscape:window-width="1920"
     inkscape:pageshadow="2"
     inkscape:pageopacity="0"
     guidetolerance="10"
     gridtolerance="10"
     objecttolerance="10"
     borderopacity="1"
     inkscape:document-rotation="0"
     bordercolor="#666666"
     pagecolor="#ffffff" />
  <defs
     id="defs830">
    <filter
       style="color-interpolation-filters:sRGB"
       id="filter901"
       x="-0.0049654186"
       width="1.0099308"
       y="-0.0049654186"
       height="1.0099308">
      <feGaussianBlur
         stdDeviation="0.95998094"
         id="feGaussianBlur903" />
    </filter>
    <filter
       style="color-interpolation-filters:sRGB"
       id="filter905"
       x="-0.0047999051"
       width="1.0095998"
       y="-0.0048000949"
       height="1.0096002">
      <feGaussianBlur
         stdDeviation="0.12254071"
         id="feGaussianBlur907" />
    </filter>
    <filter
       style="color-interpolation-filters:sRGB"
       id="filter909"
       x="-0.0089998216"
       width="1.0179996"
       y="-0.0089998216"
       height="1.0179996">
      <feGaussianBlur
         stdDeviation="0.12254071"
         id="feGaussianBlur911" />
    </filter>
    <filter
       style="color-interpolation-filters:sRGB"
       id="filter913"
       x="-0.03599929"
       width="1.0719986"
       y="-0.035999285"
       height="1.0719986">
      <feGaussianBlur
         stdDeviation="0.12254071"
         id="feGaussianBlur915" />
    </filter>
    <filter
       style="color-interpolation-filters:sRGB"
       id="filter917"
       x="-0.020571022"
       width="1.041142"
       y="-0.02057102"
       height="1.041142">
      <feGaussianBlur
         stdDeviation="0.12254071"
         id="feGaussianBlur919" />
    </filter>
    <filter
       style="color-interpolation-filters:sRGB"
       id="filter921"
       x="-0.0075787967"
       width="1.0151576"
       y="-0.0075787971"
       height="1.0151576">
      <feGaussianBlur
         stdDeviation="0.12254071"
         id="feGaussianBlur923" />
    </filter>
  </defs>
  <metadata
     id="metadata833">
    <rdf:RDF>
      <cc:Work
         rdf:about="">
        <dc:format>image/svg+xml</dc:format>
        <dc:type
           rdf:resource="http://purl.org/dc/dcmitype/StillImage" />
        <dc:title />
      </cc:Work>
    </rdf:RDF>
  </metadata>
  <path
     inkscape:connector-curvature="0"
     id="path2-2"
     d="M 60.251933,33.966517 55.987582,19.17493 C 55.278551,15.935623 52.420704,13.619202 49.104803,13.596011 H 44.717099 V 9.2568659 C 44.710998,5.2514501 39.386494,2.0058892 35.381077,2.0000002 h -6.699318 c -4.005404,0.00608 -9.330157,3.2514499 -9.336047,7.2568657 V 13.596011 H 14.90457 c -3.294511,0.0024 -6.1501189,2.281269 -6.8827798,5.493418 L 3.7467563,33.966517 c -3.65512835,1.068713 -3.64444535,6.604912 0,7.662978 L 8.0217902,56.421082 C 8.7344601,59.658175 11.590104,61.97283 14.90457,62 h 34.200233 c 3.296336,-0.0073 6.150824,-2.289968 6.882779,-5.504088 l 4.275034,-14.866417 c 3.644445,-1.079371 3.633775,-6.604911 -0.01095,-7.662978 z M 33.308,21.0025 v 7.641588 c 0,1.425059 -2.600196,1.425059 -2.600196,0 V 21.0025 c 0,-1.42506 2.600196,-1.42506 2.600196,0 z m -16.215,0 c 0,-1.42506 2.599544,-1.42506 2.599544,0 v 7.641588 c 0,1.425059 -2.599544,1.425059 -2.599544,0 z m 27.181023,0 c 0,-1.42506 2.599977,-1.42506 2.599977,0 v 7.641588 c 0,1.425059 -2.599977,1.425059 -2.599977,0 z M 24.90324,10.030373 c 0,-1.0566795 1.688595,-2.5369547 2.744982,-2.5369547 h 8.72422 c 1.05247,0.00608 2.733775,0.9647058 2.733495,2.0171636 0,0 -0.159807,3.6714821 -1.550652,3.6625631 -3.575688,-0.02299 -6.671114,0.01594 -11.348438,0 -1.134042,-0.0037 -1.303935,-3.142747 -1.303935,-3.142747 z m -5.210634,45.097532 c 0,1.425059 -2.599606,1.425059 -2.599606,0 V 47.48628 c 0,-1.425059 2.599606,-1.425059 2.599606,0 z m 13.615394,0 c 0,1.425059 -2.600196,1.425059 -2.600196,0 V 47.48628 c 0,-1.425059 2.600196,-1.425059 2.600196,0 z m 13.566,0.0061 c 0,1.425059 -2.6,1.418964 -2.6,-0.0061 V 47.48628 c 0,-1.425059 2.6,-1.425059 2.6,0 z M 60.86112,37.920903 c 0,0.973952 -0.789483,1.763448 -1.763449,1.763448 H 4.9117013 c -2.340427,0 -2.3620118,-3.751324 0,-3.77269 H 59.097671 c 1.068725,0.01216 1.890732,0.94817 1.763449,2.009327 z"
     sodipodi:nodetypes="sccccccccccccccccccsssssssssssssssssccsssssssssssssssssscsccccccc"
     style="display:inline;opacity:1;fill:#663300;fill-opacity:1;stroke-width:1.06876;stop-opacity:1" />
</svg>
