<?xml version="1.0" encoding="UTF-8" standalone="no"?>
<svg
   xmlns:dc="http://purl.org/dc/elements/1.1/"
   xmlns:cc="http://creativecommons.org/ns#"
   xmlns:rdf="http://www.w3.org/1999/02/22-rdf-syntax-ns#"
   xmlns:svg="http://www.w3.org/2000/svg"
   xmlns="http://www.w3.org/2000/svg"
   xmlns:sodipodi="http://sodipodi.sourceforge.net/DTD/sodipodi-0.dtd"
   xmlns:inkscape="http://www.inkscape.org/namespaces/inkscape"
   sodipodi:docname="icon-report.svg"
   inkscape:version="1.0beta1 (fe3e306, 2019-09-17)"
   width="64px"
   height="64px"
   viewBox="0 0 64 64"
   version="1.1"
   id="SVGRoot">
  <defs
     id="defs841" />
  <sodipodi:namedview
     inkscape:grid-bbox="true"
     inkscape:window-maximized="0"
     inkscape:window-y="38"
     inkscape:window-x="48"
     inkscape:window-height="1030"
     inkscape:window-width="1818"
     showgrid="false"
     inkscape:document-rotation="0"
     inkscape:current-layer="layer1"
     inkscape:document-units="px"
     inkscape:cy="35.868687"
     inkscape:cx="31.223981"
     inkscape:zoom="7.9195959"
     inkscape:pageshadow="2"
     inkscape:pageopacity="0.0"
     borderopacity="1.0"
     bordercolor="#666666"
     pagecolor="#ffffff"
     id="base" />
  <metadata
     id="metadata844">
    <rdf:RDF>
      <cc:Work
         rdf:about="">
        <dc:format>image/svg+xml</dc:format>
        <dc:type
           rdf:resource="http://purl.org/dc/dcmitype/StillImage" />
        <dc:title></dc:title>
      </cc:Work>
    </rdf:RDF>
  </metadata>
  <g
     id="layer1"
     inkscape:groupmode="layer"
     inkscape:label="Calque 1">
    <path
       inkscape:connector-curvature="0"
       style="overflow:hidden;fill:#663300;fill-opacity:1;stroke-width:0.0640673"
       d="m 32.000001,0.6166315 c -16.570307,0 -30.0000009,13.0437105 -30.0000009,29.1416955 0,6.949181 2.5078173,13.309919 6.6796889,18.31164 -1.464842,7.061258 -6.3632789,13.351944 -6.4218726,13.421996 -0.2578163,0.322233 -0.3281308,0.798585 -0.175781,1.218898 0.1523394,0.420313 0.4804597,0.672508 0.8554634,0.672508 7.7695372,0 13.5937522,-4.455317 16.4765632,-7.201363 3.83203,1.723275 8.085937,2.718018 12.585939,2.718018 C 48.570308,58.900024 62,45.856315 62,29.758327 62,13.660342 48.570308,0.6166315 32.000001,0.6166315 Z m 0,47.0750505 c -2.07422,0 -3.750005,-2.003496 -3.750005,-4.483332 0,-2.479849 1.675785,-4.483347 3.750005,-4.483347 2.074219,0 3.749994,2.003498 3.749994,4.483347 0,2.479836 -1.675775,4.483332 -3.749994,4.483332 z m 2.976557,-15.467518 c -0.09374,1.148857 -0.902338,2.017508 -1.863277,2.017508 h -2.226559 c -0.960941,0 -1.76953,-0.868651 -1.863287,-2.017508 L 27.52344,14.290808 c -0.105472,-1.316975 0.761719,-2.465834 1.863278,-2.465834 h 5.226567 c 1.113279,0 1.980464,1.148859 1.863277,2.465834 z"
       id="path2" />
  </g>
</svg>
