<?xml version="1.0" encoding="UTF-8" standalone="no"?>
<svg
   xmlns:dc="http://purl.org/dc/elements/1.1/"
   xmlns:cc="http://creativecommons.org/ns#"
   xmlns:rdf="http://www.w3.org/1999/02/22-rdf-syntax-ns#"
   xmlns:svg="http://www.w3.org/2000/svg"
   xmlns="http://www.w3.org/2000/svg"
   xmlns:sodipodi="http://sodipodi.sourceforge.net/DTD/sodipodi-0.dtd"
   xmlns:inkscape="http://www.inkscape.org/namespaces/inkscape"
   inkscape:version="1.0beta1 (fe3e306, 2019-09-17)"
   sodipodi:docname="icon-laborats.svg"
   width="64px"
   height="64px"
   viewBox="0 0 64 64"
   version="1.1"
   id="SVGRoot">
  <defs
     id="defs874" />
  <sodipodi:namedview
     inkscape:grid-bbox="true"
     inkscape:window-maximized="1"
     inkscape:window-y="-9"
     inkscape:window-x="-9"
     inkscape:window-height="1001"
     inkscape:window-width="1920"
     showgrid="false"
     inkscape:document-rotation="0"
     inkscape:current-layer="layer1"
     inkscape:document-units="px"
     inkscape:cy="39.551485"
     inkscape:cx="-5.4419806"
     inkscape:zoom="7.9195959"
     inkscape:pageshadow="2"
     inkscape:pageopacity="0.0"
     borderopacity="1.0"
     bordercolor="#666666"
     pagecolor="#ffffff"
     id="base" />
  <metadata
     id="metadata877">
    <rdf:RDF>
      <cc:Work
         rdf:about="">
        <dc:format>image/svg+xml</dc:format>
        <dc:type
           rdf:resource="http://purl.org/dc/dcmitype/StillImage" />
        <dc:title></dc:title>
      </cc:Work>
    </rdf:RDF>
  </metadata>
  <g
     id="layer1"
     inkscape:groupmode="layer"
     inkscape:label="Calque 1">
    <g
       transform="matrix(1.4433438,0,0,1.4433438,3.0649819,-29.560642)"
       id="g26"
       style="opacity:1;fill:#663300;fill-opacity:1;stop-opacity:1">
      <g
         id="g20"
         style="fill:#663300;fill-opacity:1" />
      <circle
         cx="20.698059"
         cy="38.505325"
         r="2.2863181"
         id="circle22"
         style="fill:#663300;fill-opacity:1" />
      <path
         sodipodi:nodetypes="ccccsssssssscccccsscccsssscccsssscccssssccssssscssssscssssscccsccscccc"
         d="M 36.071289,53.396496 30.641237,43.596508 25.36133,34.056469 v -6.266728 h 2.329956 c 0.420044,0 0.75,-0.330017 0.75,-0.75 v -4.423403 c 0,-0.409973 -0.329956,-0.75 -0.75,-0.75 H 12.401247 c -0.409912,0 -0.75,0.340027 -0.75,0.75 v 4.423403 c 0,0.419983 0.420156,0.993373 0.75,0.75 h 2.340088 v 6.266728 l -5.3699952,9.700012 -5.3599854,9.669983 c -1.0800784,2.160034 -0.9599612,4.679993 0.3099365,6.73999 1.2700195,2.050049 3.4700928,3.27002 5.8800051,3.27002 h 19.699951 c 2.410154,0 4.610105,-1.219971 5.870115,-3.27002 1.28003,-2.059997 1.389893,-4.579956 0.299927,-6.769958 z m -25.502317,5.739197 h -0.08106 c -0.414063,0 -0.7500001,-0.335938 -0.7500001,-0.75 0,-0.414063 0.3359371,-0.75 0.7500001,-0.75 0.414062,0 0.791016,0.335937 0.791016,0.75 0,0.414062 -0.295899,0.75 -0.709961,0.75 z m 2.303711,-3.455567 h -0.08106 c -0.414063,0 -0.75,-0.335937 -0.75,-0.75 0,-0.414062 0.335937,-0.75 0.75,-0.75 0.414062,0 0.790039,0.335938 0.790039,0.75 0,0.414063 -0.294922,0.75 -0.708984,0.75 z m 1.743164,5.759277 h -0.08106 c -0.414063,0 -0.75,-0.335937 -0.75,-0.75 0,-0.414062 0.335937,-0.75 0.75,-0.75 0.414062,0 0.791016,0.335938 0.791016,0.75 0,0.414063 -0.295899,0.75 -0.709961,0.75 z m -0.04456,-11.552917 c 0,-1.109985 0.900024,-2 2,-2 1.099976,0 2,0.890015 2,2 0,1.099976 -0.900024,1.98999 -2,1.98999 -1.099976,0 -2,-0.890014 -2,-1.98999 z m 3.840454,7.365417 h -0.08105 c -0.414062,0 -0.75,-0.335937 -0.75,-0.75 0,-0.414062 0.335938,-0.75 0.75,-0.75 0.414063,0 0.79004,0.335938 0.79004,0.75 0,0.414063 -0.294922,0.75 -0.708985,0.75 z m 5.799561,1.554566 c -1.27002,0 -2.300049,-1.029968 -2.300049,-2.299988 0,-1.280029 1.030029,-2.309997 2.300049,-2.309997 1.270019,0 2.310058,1.029968 2.310058,2.309997 0,1.27002 -1.040039,2.299988 -2.310058,2.299988 z M 19.401247,43.376476 c -2.809936,0.549988 -5.48999,1.070008 -8.23999,0.239991 l 4.97998,-9.01001 c 0.07007,-0.109986 0.100098,-0.229981 0.100098,-0.359986 v -6.45673 h 7.619995 v 6.45673 c 0,0.130005 0.02991,0.25 0.08997,0.359986 l 4.590088,8.290039 c -3.340088,-0.650025 -6.28003,-0.08002 -9.140137,0.47998 z"
         id="path24"
         inkscape:connector-curvature="0"
         style="fill:#663300;fill-opacity:1" />
    </g>
  </g>
</svg>
