<?xml version="1.0" encoding="UTF-8" standalone="no"?>
<svg
   xmlns:dc="http://purl.org/dc/elements/1.1/"
   xmlns:cc="http://creativecommons.org/ns#"
   xmlns:rdf="http://www.w3.org/1999/02/22-rdf-syntax-ns#"
   xmlns:svg="http://www.w3.org/2000/svg"
   xmlns="http://www.w3.org/2000/svg"
   xmlns:sodipodi="http://sodipodi.sourceforge.net/DTD/sodipodi-0.dtd"
   xmlns:inkscape="http://www.inkscape.org/namespaces/inkscape"
   width="64px"
   height="64px"
   viewBox="0 0 64 64"
   version="1.1"
   id="SVGRoot"
   sodipodi:docname="icon-staff-user.svg"
   inkscape:version="1.0beta1 (fe3e306, 2019-09-17)">
  <sodipodi:namedview
     pagecolor="#ffffff"
     bordercolor="#666666"
     inkscape:document-rotation="0"
     borderopacity="1"
     objecttolerance="10"
     gridtolerance="10"
     guidetolerance="10"
     inkscape:pageopacity="0"
     inkscape:pageshadow="2"
     inkscape:window-width="1920"
     inkscape:window-height="1001"
     id="namedview856"
     showgrid="false"
     inkscape:zoom="6.453125"
     inkscape:cx="24.621937"
     inkscape:cy="44.737103"
     inkscape:window-x="-9"
     inkscape:window-y="-9"
     inkscape:window-maximized="1"
     inkscape:current-layer="SVGRoot" />
  <defs
     id="defs830" />
  <metadata
     id="metadata833">
    <rdf:RDF>
      <cc:Work
         rdf:about="">
        <dc:format>image/svg+xml</dc:format>
        <dc:type
           rdf:resource="http://purl.org/dc/dcmitype/StillImage" />
        <dc:title></dc:title>
      </cc:Work>
    </rdf:RDF>
  </metadata>
  <g
     id="g1425"
     style="opacity:1;fill:#b1000c;fill-opacity:1"
     transform="matrix(0.82948562,0,0,0.82948562,14.392871,15.115431)">
    <path
       style="color:#000000;font-style:normal;font-variant:normal;font-weight:normal;font-stretch:normal;font-size:medium;line-height:normal;font-family:sans-serif;font-variant-ligatures:normal;font-variant-position:normal;font-variant-caps:normal;font-variant-numeric:normal;font-variant-alternates:normal;font-variant-east-asian:normal;font-feature-settings:normal;font-variation-settings:normal;text-indent:0;text-align:start;text-decoration:none;text-decoration-line:none;text-decoration-style:solid;text-decoration-color:#000000;letter-spacing:normal;word-spacing:normal;text-transform:none;writing-mode:lr-tb;direction:ltr;text-orientation:mixed;dominant-baseline:auto;baseline-shift:baseline;text-anchor:start;white-space:normal;shape-padding:0;shape-margin:0;inline-size:0;clip-rule:nonzero;display:inline;overflow:hidden;visibility:visible;isolation:auto;mix-blend-mode:normal;color-interpolation:sRGB;color-interpolation-filters:linearRGB;solid-color:#000000;solid-opacity:1;vector-effect:none;fill:#b1000c;fill-opacity:1;fill-rule:nonzero;stroke:none;stroke-width:0.117804;stroke-linecap:butt;stroke-linejoin:miter;stroke-miterlimit:4;stroke-dasharray:none;stroke-dashoffset:0;stroke-opacity:1;color-rendering:auto;image-rendering:auto;shape-rendering:auto;text-rendering:auto;enable-background:accumulate;stop-color:#000000;stop-opacity:1"
       d="m 41.713268,34.475062 c 5.033964,-3.216644 8.381496,-8.850145 8.381496,-15.254489 0,-9.977451 -8.11731,-18.094761 -18.094766,-18.094761 -9.977451,0 -18.094761,8.11731 -18.094761,18.094761 0,6.404344 3.347532,12.037845 8.381495,15.254489 C 11.765229,38.420929 4.2546965,46.579328 4.2546965,58.461557 v 0.412631 H 59.745303 v -0.412631 c 0,-11.882229 -7.510532,-20.040628 -18.032035,-23.986495 z M 45.26949,19.220573 c -29.293284,-13.260673 -14.646642,-6.630336 0,0 z m 9.524484,38.828347 c -35.64294,-39.146238 -17.82147,-19.573119 0,0 z"
       id="path1427"
       inkscape:connector-curvature="0"
       sodipodi:nodetypes="cssscsccsccccc" />
    <path
       style="color:#000000;font-style:normal;font-variant:normal;font-weight:normal;font-stretch:normal;font-size:medium;line-height:normal;font-family:sans-serif;font-variant-ligatures:normal;font-variant-position:normal;font-variant-caps:normal;font-variant-numeric:normal;font-variant-alternates:normal;font-variant-east-asian:normal;font-feature-settings:normal;font-variation-settings:normal;text-indent:0;text-align:start;text-decoration:none;text-decoration-line:none;text-decoration-style:solid;text-decoration-color:#000000;letter-spacing:normal;word-spacing:normal;text-transform:none;writing-mode:lr-tb;direction:ltr;text-orientation:mixed;dominant-baseline:auto;baseline-shift:baseline;text-anchor:start;white-space:normal;shape-padding:0;shape-margin:0;inline-size:0;clip-rule:nonzero;display:inline;overflow:hidden;visibility:visible;isolation:auto;mix-blend-mode:normal;color-interpolation:sRGB;color-interpolation-filters:linearRGB;solid-color:#000000;solid-opacity:1;vector-effect:none;fill:#b1000c;fill-opacity:1;fill-rule:nonzero;stroke:none;stroke-width:0.117804;stroke-linecap:butt;stroke-linejoin:miter;stroke-miterlimit:4;stroke-dasharray:none;stroke-dashoffset:0;stroke-opacity:1;color-rendering:auto;image-rendering:auto;shape-rendering:auto;text-rendering:auto;enable-background:accumulate;stop-color:#000000;stop-opacity:1"
       d="m 32,1.0664062 c -10.009398,0 -18.154297,8.1448988 -18.154297,18.1542968 0,6.388485 3.329465,12.004184 8.332031,15.240235 -10.496065,3.978733 -17.9824215,12.127381 -17.9824215,24 v 0.472656 H 59.804688 v -0.09978 c 0,-11.872619 -7.486357,-20.394148 -17.982422,-24.372881 5.002567,-3.236051 8.332031,-8.85175 8.332031,-15.240235 C 50.154297,9.211305 42.009403,1.0664062 32,1.0664062 Z m 0,0.1191407 c 9.945509,0 18.035156,8.0896523 18.035156,18.0351561 0,6.383819 -3.335862,11.998856 -8.353515,15.205078 l -0.09961,0.0625 0.111328,0.04102 c 10.499011,3.937432 17.992188,22.285156 17.992188,23.931641 v 0.353515 H 4.3144531 v -0.353515 c 0,-1.646485 7.4931769,-19.994209 17.9921879,-23.931641 l 0.111328,-0.04102 -0.09961,-0.0625 C 17.300707,31.219559 13.964844,25.604522 13.964844,19.220703 13.964844,9.2751992 22.054496,1.1855469 32,1.1855469 Z"
       id="path1429"
       inkscape:connector-curvature="0"
       sodipodi:nodetypes="sscsccscsssscccsccscccss" />
  </g>
  <path
     style="fill:#b1000c;fill-opacity:1;stroke-width:0.0479757"
     inkscape:connector-curvature="0"
     id="path2"
     d="m 22.488885,14.75736 -2.043763,-1.180203 c 0.206294,-1.113034 0.206294,-2.254855 0,-3.36789 L 22.488885,9.0290648 C 22.723965,8.8947338 22.829511,8.6164754 22.75275,8.3574061 22.220221,6.6494698 21.31348,5.1046579 20.128482,3.8189114 19.946174,3.6222092 19.648725,3.5742308 19.418442,3.7085657 L 17.374678,4.8887668 C 16.515914,4.1499445 15.527616,3.579031 14.457759,3.2048198 V 0.84921789 c 0,-0.2686659 -0.187105,-0.5037461 -0.450971,-0.5613171 -1.760707,-0.3934042 -3.564592,-0.3742113 -5.2389427,0 -0.263866,0.057571 -0.450971,0.2926512 -0.450971,0.5613171 V 3.209616 c -1.06506,0.3790076 -2.053359,0.949921 -2.916921,1.6839471 L 3.3609893,3.713362 C 3.1259083,3.579031 2.8332533,3.6222092 2.6509483,3.8237077 1.4659473,5.1046579 0.55920827,6.6494698 0.02668027,8.3622062 c -0.08156,0.2590694 0.02879,0.5373239 0.263862,0.6716549 L 2.3343083,10.214064 c -0.206295,1.113035 -0.206295,2.254856 0,3.367891 l -2.04376603,1.180201 c -0.235076,0.134332 -0.340622,0.412592 -0.263862,0.67166 0.532528,1.707933 1.43926703,3.252749 2.62426803,4.538497 0.182305,0.1967 0.479757,0.244677 0.710041,0.110345 l 2.043761,-1.180202 c 0.858765,0.738826 1.847064,1.309736 2.916922,1.683946 v 2.360403 c 0,0.268664 0.187104,0.503744 0.450971,0.561316 1.7607067,0.393399 3.5645907,0.374209 5.2389417,0 0.263866,-0.05757 0.45097,-0.292652 0.45097,-0.561316 v -2.360403 c 1.065061,-0.379007 2.053359,-0.949918 2.916921,-1.683946 l 2.043763,1.180202 c 0.235081,0.134332 0.527733,0.09115 0.710041,-0.110345 1.184998,-1.28095 2.091738,-2.825766 2.624269,-4.538497 0.07196,-0.263866 -0.03359,-0.542125 -0.268664,-0.676456 z m -11.101569,0.973904 c -2.1157257,0 -3.8380527,-1.722325 -3.8380527,-3.838051 0,-2.1157255 1.722327,-3.8380546 3.8380527,-3.8380546 2.115727,0 3.838053,1.7223291 3.838053,3.8380546 0,2.115726 -1.722326,3.838051 -3.838053,3.838051 z"
     fill="currentColor" />
</svg>
