<?xml version="1.0" encoding="UTF-8" standalone="no"?>
<svg
   xmlns:dc="http://purl.org/dc/elements/1.1/"
   xmlns:cc="http://creativecommons.org/ns#"
   xmlns:rdf="http://www.w3.org/1999/02/22-rdf-syntax-ns#"
   xmlns:svg="http://www.w3.org/2000/svg"
   xmlns="http://www.w3.org/2000/svg"
   xmlns:sodipodi="http://sodipodi.sourceforge.net/DTD/sodipodi-0.dtd"
   xmlns:inkscape="http://www.inkscape.org/namespaces/inkscape"
   width="64px"
   height="64px"
   viewBox="0 0 64 64"
   version="1.1"
   id="SVGRoot"
   sodipodi:docname="icon-backoffice.svg"
   inkscape:export-filename="C:\Users\nbertin\Documents\Personnel\Rats\LORD\CakeLORD\docs\cdc\icon-report.png"
   inkscape:export-xdpi="96"
   inkscape:export-ydpi="96"
   inkscape:version="1.0beta1 (fe3e306, 2019-09-17)">
  <sodipodi:namedview
     pagecolor="#ffffff"
     bordercolor="#666666"
     inkscape:document-rotation="0"
     borderopacity="1"
     objecttolerance="10"
     gridtolerance="10"
     guidetolerance="10"
     inkscape:pageopacity="0"
     inkscape:pageshadow="2"
     inkscape:window-width="1520"
     inkscape:window-height="825"
     id="namedview7"
     showgrid="false"
     inkscape:zoom="3.6875"
     inkscape:cx="53.153676"
     inkscape:cy="46.315063"
     inkscape:window-x="0"
     inkscape:window-y="0"
     inkscape:window-maximized="0"
     inkscape:current-layer="SVGRoot" />
  <defs
     id="defs830">
    <filter
       height="1.0099308"
       y="-0.0049654186"
       width="1.0099308"
       x="-0.0049654186"
       id="filter901"
       style="color-interpolation-filters:sRGB"
       inkscape:collect="always">
      <feGaussianBlur
         id="feGaussianBlur903"
         stdDeviation="0.95998094"
         inkscape:collect="always" />
    </filter>
    <filter
       height="1.0096002"
       y="-0.0048000949"
       width="1.0095998"
       x="-0.0047999051"
       id="filter905"
       style="color-interpolation-filters:sRGB"
       inkscape:collect="always">
      <feGaussianBlur
         id="feGaussianBlur907"
         stdDeviation="0.12254071"
         inkscape:collect="always" />
    </filter>
    <filter
       height="1.0179996"
       y="-0.0089998216"
       width="1.0179996"
       x="-0.0089998216"
       id="filter909"
       style="color-interpolation-filters:sRGB"
       inkscape:collect="always">
      <feGaussianBlur
         id="feGaussianBlur911"
         stdDeviation="0.12254071"
         inkscape:collect="always" />
    </filter>
    <filter
       height="1.0719986"
       y="-0.035999285"
       width="1.0719986"
       x="-0.03599929"
       id="filter913"
       style="color-interpolation-filters:sRGB"
       inkscape:collect="always">
      <feGaussianBlur
         id="feGaussianBlur915"
         stdDeviation="0.12254071"
         inkscape:collect="always" />
    </filter>
    <filter
       height="1.041142"
       y="-0.02057102"
       width="1.041142"
       x="-0.020571022"
       id="filter917"
       style="color-interpolation-filters:sRGB"
       inkscape:collect="always">
      <feGaussianBlur
         id="feGaussianBlur919"
         stdDeviation="0.12254071"
         inkscape:collect="always" />
    </filter>
    <filter
       height="1.0151576"
       y="-0.0075787971"
       width="1.0151576"
       x="-0.0075787967"
       id="filter921"
       style="color-interpolation-filters:sRGB"
       inkscape:collect="always">
      <feGaussianBlur
         id="feGaussianBlur923"
         stdDeviation="0.12254071"
         inkscape:collect="always" />
    </filter>
  </defs>
  <metadata
     id="metadata833">
    <rdf:RDF>
      <cc:Work
         rdf:about="">
        <dc:format>image/svg+xml</dc:format>
        <dc:type
           rdf:resource="http://purl.org/dc/dcmitype/StillImage" />
        <dc:title></dc:title>
      </cc:Work>
    </rdf:RDF>
  </metadata>
  <path
     transform="matrix(1.0219195,0,0,1.0219195,-0.70142374,-0.70142372)"
     style="opacity:0.997;fill:#d33c44;fill-opacity:1;stroke-width:0.127649;filter:url(#filter921)"
     d="m 32.000001,12.597336 c -10.715756,0 -19.402666,8.686905 -19.402666,19.402664 0,10.71576 8.68691,19.402664 19.402666,19.402664 C 42.71576,51.402664 51.402665,42.71576 51.402665,32 51.390795,21.289091 42.710909,12.60908 32.000001,12.597336 Z m 0,34.720557 c -8.459817,0 -15.317896,-6.858076 -15.317896,-15.317893 0,-8.459817 6.858079,-15.317892 15.317896,-15.317892 8.459816,0 15.317892,6.858075 15.317892,15.317892 -0.0096,8.45586 -6.862033,15.308319 -15.317892,15.317893 z"
     id="path2"
     inkscape:connector-curvature="0" />
  <path
     transform="matrix(1.0219195,0,0,1.0219195,-0.7014241,-0.70142362)"
     style="opacity:0.997;fill:#d33c44;fill-opacity:1;stroke-width:0.127649;filter:url(#filter917)"
     d="m 32.000001,24.85165 c -3.947932,0 -7.14835,3.200419 -7.14835,7.14835 0,3.947932 3.200418,7.14835 7.14835,7.14835 3.947931,0 7.148349,-3.200418 7.148349,-7.14835 -0.0045,-3.946144 -3.202333,-7.143882 -7.148349,-7.14835 z m 0,10.211929 c -1.691989,0 -3.063579,-1.37159 -3.063579,-3.063579 0,-1.691989 1.37159,-3.063578 3.063579,-3.063578 1.691988,0 3.063578,1.371589 3.063578,3.063578 0,1.691862 -1.37159,3.063579 -3.063578,3.063579 z"
     id="path4"
     inkscape:connector-curvature="0" />
  <path
     transform="matrix(1.0219195,0,0,1.0219195,-0.70142406,-0.70142361)"
     d="m 32,27.915228 c -2.255943,0 -4.084771,1.828829 -4.084771,4.084771 0,2.255943 1.828828,4.084772 4.084771,4.084772 2.255942,0 4.084771,-1.828829 4.084771,-4.084772 0,-2.255942 -1.828829,-4.084771 -4.084771,-4.084771 z m 0,6.127157 c -1.128036,0 -2.042386,-0.914351 -2.042386,-2.042386 0,-1.128035 0.91435,-2.042385 2.042386,-2.042385 1.128035,0 2.042385,0.91435 2.042385,2.042385 0,1.127908 -0.91435,2.042386 -2.042385,2.042386 z"
     id="path42"
     style="opacity:0.997;fill:#b1000c;fill-opacity:1;stroke-width:0.127649;filter:url(#filter913)"
     inkscape:connector-curvature="0" />
  <path
     transform="matrix(1.0219195,0,0,1.0219195,-0.70142358,-0.70142358)"
     inkscape:connector-curvature="0"
     d="m 32,15.660914 c -9.023771,0 -16.339086,7.315315 -16.339086,16.339085 0,9.023771 7.315315,16.339086 16.339086,16.339086 9.02377,0 16.339085,-7.315315 16.339085,-16.339086 C 48.328365,22.980569 41.01943,15.671509 32,15.660914 Z m 0,22.466242 c -3.383978,0 -6.127157,-2.743179 -6.127157,-6.127157 0,-3.383978 2.743179,-6.127157 6.127157,-6.127157 3.383977,0 6.127157,2.743179 6.127157,6.127157 C 38.123857,35.382445 35.382573,38.12371 32,38.127156 Z M 37.003844,25.55423 c -1.15433,-0.899926 -2.530388,-1.471156 -3.982652,-1.653311 V 17.75538 c 3.076727,0.217004 5.999381,1.428777 8.326807,3.452653 z m -6.025037,-1.653311 c -1.452264,0.182155 -2.828321,0.753385 -3.982652,1.653311 l -4.346197,-4.346197 c 2.328065,-2.024259 5.251485,-3.23616 8.328849,-3.452653 z m -5.424576,3.095235 c -0.899926,1.154331 -1.471156,2.530389 -1.653311,3.982652 h -6.145536 c 0.217,-3.076726 1.42877,-5.99938 3.45265,-8.326806 z m -1.653311,6.025038 c 0.182155,1.452264 0.753385,2.828321 1.653311,3.982652 l -4.346197,4.346197 c -2.02426,-2.328064 -3.23616,-5.251484 -3.45265,-8.328849 z m 3.095235,5.424577 c 1.154331,0.899926 2.530388,1.471155 3.982652,1.653311 v 6.145538 c -3.076726,-0.217003 -5.99938,-1.428776 -8.326806,-3.452653 z m 6.025037,1.653311 c 1.452264,-0.182156 2.828322,-0.753385 3.982652,-1.653311 l 4.346197,4.346196 c -2.328064,2.02426 -5.251484,3.23616 -8.328849,3.452653 z m 5.424577,-3.095236 c 0.899926,-1.154331 1.471156,-2.530388 1.653311,-3.982652 h 6.145539 c -0.217004,3.076727 -1.428777,5.99938 -3.452653,8.326807 z m 1.653311,-6.025038 c -0.182155,-1.452263 -0.753385,-2.828321 -1.653311,-3.982652 l 4.346197,-4.346196 c 2.024259,2.328064 3.23616,5.251484 3.452653,8.328848 z"
     id="path40"
     style="opacity:0.997;fill:#b1000c;fill-opacity:1;stroke-width:0.127649;filter:url(#filter909)" />
  <path
     transform="matrix(1.0219195,0,0,1.0219195,-0.70142418,-0.70142376)"
     inkscape:connector-curvature="0"
     d="m 4.4277867,35.064794 h 4.08477 c 0.0836,0 0.16697,-0.01034 0.24815,-0.03064 l 2.9532903,-0.738322 c 0.43107,3.811347 1.93261,7.422797 4.33088,10.416168 l -2.62242,1.573659 c -0.0717,0.04276 -0.13787,0.0942 -0.19709,0.153178 l -2.88794,2.892019 c -1.2062803,1.186498 -1.2222403,3.126126 -0.0359,4.33241 1.18637,1.206284 3.12613,1.22224 4.33241,0.03587 0.0119,-0.01162 0.0236,-0.02349 0.0354,-0.03536 l 2.88896,-2.887934 c 0.059,-0.05923 0.11041,-0.125351 0.15318,-0.19709 l 1.57365,-2.622423 c 2.993375,2.398271 6.604824,3.899808 10.41617,4.330879 l -0.738322,2.95329 c -0.01902,0.08131 -0.02783,0.164667 -0.02655,0.24815 v 4.084771 c 0.0014,1.691989 1.374015,3.06243 3.066004,3.061153 1.690074,-0.0014 3.059749,-1.371079 3.061153,-3.061153 v -4.084771 c 0,-0.08361 -0.01034,-0.166966 -0.03064,-0.24815 l -0.738322,-2.95329 c 3.811347,-0.431071 7.422795,-1.932608 10.416167,-4.330879 l 1.573658,2.622423 c 0.04276,0.07174 0.09421,0.137861 0.153179,0.19709 l 2.887933,2.887934 c 1.186499,1.206284 3.126127,1.22224 4.332411,0.03574 1.206284,-1.186499 1.22224,-3.126127 0.03574,-4.332411 -0.01162,-0.01187 -0.02336,-0.02361 -0.03523,-0.03523 L 50.770544,46.44292 c -0.05923,-0.05897 -0.125351,-0.110416 -0.19709,-0.153179 l -2.622423,-1.573658 c 2.398271,-2.993371 3.899808,-6.604821 4.330879,-10.416168 l 2.953289,0.738322 c 0.08259,0.01928 0.167348,0.02821 0.252235,0.02655 h 4.084771 c 1.691989,0 3.063579,-1.371589 3.063579,-3.063578 0,-1.691989 -1.37159,-3.063579 -3.063579,-3.063579 h -4.084771 c -0.08361,0 -0.166965,0.01034 -0.24815,0.03064 l -2.95329,0.738322 C 51.854923,25.895245 50.353387,22.283797 47.955116,19.290425 l 2.622423,-1.573658 c 0.07174,-0.04276 0.137861,-0.0942 0.19709,-0.153179 l 2.887933,-2.887933 c 1.196456,-1.196328 1.196711,-3.136083 3.83e-4,-4.332538 -1.27e-4,-1.27e-4 -2.55e-4,-2.55e-4 -3.83e-4,-3.83e-4 -1.211773,-1.1580316 -3.120127,-1.1580316 -4.3319,0 l -2.888954,2.887933 c -0.05897,0.05923 -0.110417,0.125351 -0.153179,0.19709 l -1.573658,2.622423 c -2.993372,-2.398271 -6.60482,-3.899807 -10.416167,-4.330878 l 0.738322,-2.9532886 c 0.01927,-0.08259 0.02821,-0.167348 0.02655,-0.252235 v -4.084772 c 0,-1.6919884 -1.37159,-3.0635781 -3.063578,-3.0635781 -1.691989,0 -3.063579,1.3715897 -3.063579,3.0635781 v 4.084772 c 0,0.08361 0.01034,0.166965 0.03064,0.24815 l 0.738322,2.9532886 c -3.811346,0.431071 -7.422795,1.932607 -10.416164,4.330879 l -1.57366,-2.622424 c -0.0428,-0.07174 -0.0942,-0.137861 -0.15318,-0.19709 l -2.89202,-2.887933 c -1.21241,-1.1576486 -3.12051,-1.1576486 -4.33292,0 -1.1959403,1.196328 -1.1959403,3.135572 0,4.3319 l 2.88794,2.888954 c 0.0592,0.05897 0.12535,0.110417 0.19709,0.153179 l 2.62242,1.573658 c -2.39827,2.993372 -3.89981,6.604821 -4.33088,10.416168 L 8.7607167,28.96827 c -0.0812,-0.0203 -0.16454,-0.03064 -0.24815,-0.03064 h -4.08477 c -1.69199,0 -3.06358,1.37159 -3.06358,3.063579 0,1.691861 1.37159,3.063578 3.06358,3.063578 z m 11.5976903,14.355931 -2.80011,2.80011 c -0.40363,0.38665 -1.04034,0.38665 -1.44397,0 -0.39801,-0.398648 -0.39801,-1.044297 0,-1.442945 l 2.79909,-2.800111 2.81645,-1.693138 0.31657,0.31657 z m 16.198157,3.004349 0.797551,3.189185 v 3.959165 c 0,0.563954 -0.457239,1.021193 -1.021192,1.021193 -0.563954,0 -1.021193,-0.457239 -1.021193,-1.021193 v -3.959165 l 0.797551,-3.189185 z m 19.995977,-1.649227 c 0.398648,0.398776 0.398648,1.045191 0,1.443967 -0.403499,0.386011 -1.039447,0.386011 -1.442946,0 l -2.80011,-2.799089 -1.693138,-2.81645 0.31657,-0.31657 2.819513,1.691095 z m 0.204239,-18.994188 3.189185,-0.801636 h 3.959164 c 0.563954,0 1.021193,0.457239 1.021193,1.021193 0,0.563953 -0.457239,1.021193 -1.021193,1.021193 H 55.613035 L 52.42385,32.224857 Z M 31.999993,50.382688 c -10.151806,0 -18.381476,-8.229665 -18.381476,-18.381472 0,-10.151806 8.22967,-18.381472 18.381476,-18.381472 10.151805,0 18.381471,8.229666 18.381471,18.381472 -0.01187,10.146828 -8.234516,18.369601 -18.381471,18.381472 z m 15.974519,-35.80098 2.800111,-2.80011 c 0.403627,-0.386649 1.04034,-0.386649 1.443967,0 0.39801,0.398648 0.39801,1.044297 0,1.442945 l -2.79909,2.800111 -2.81645,1.693137 -0.31657,-0.31657 z M 31.776351,11.577359 30.9788,8.3881744 v -3.959165 c 0,-0.563953 0.457239,-1.021192 1.021193,-1.021192 0.563953,0 1.021192,0.457239 1.021192,1.021192 v 3.959165 l -0.797551,3.1891846 z m -19.995974,1.649226 c -0.39865,-0.398775 -0.39865,-1.04519 0,-1.443966 0.4035,-0.386011 1.03944,-0.386011 1.44294,0 l 2.80011,2.799089 1.69314,2.81645 -0.31657,0.31657 -2.81951,-1.691096 z M 4.4277867,30.980023 h 3.95916 l 3.1891903,0.797551 v 0.447283 l -3.1891903,0.797552 h -3.95916 c -0.56396,0 -1.02119,-0.45724 -1.02119,-1.021193 0,-0.563954 0.45723,-1.021193 1.02119,-1.021193 z"
     id="path44"
     style="opacity:0.997;fill:#b1000c;fill-opacity:1;stroke-width:0.127649;filter:url(#filter905)" />
  <g
     transform="matrix(0.13044711,0,0,0.13044711,0.69269323,0.69138876)"
     id="g38"
     style="opacity:0.997;fill:#b1000c;fill-opacity:1;filter:url(#filter901)">
    <path
       style="fill:#b1000c;fill-opacity:1"
       d="m 224,56.01 8,32 h 16 l 8,-32 v -32 c 0,-8.837 -7.163,-16 -16,-16 -8.837,0 -16,7.163 -16,16 z"
       id="path6"
       inkscape:connector-curvature="0" />
    <path
       style="fill:#b1000c;fill-opacity:1"
       d="m 224,424.01 8,-32 h 16 l 8,32 v 32 c 0,8.837 -7.163,16 -16,16 -8.837,0 -16,-7.163 -16,-16 z"
       id="path8"
       inkscape:connector-curvature="0" />
    <path
       style="fill:#b1000c;fill-opacity:1"
       d="m 98.576,121.218 28.288,16.968 11.312,-11.312 L 121.208,98.586 98.576,75.962 c -6.248,-6.246 -16.376,-6.246 -22.624,0 -6.246,6.248 -6.246,16.376 0,22.624 z"
       id="path10"
       inkscape:connector-curvature="0" />
    <path
       style="fill:#b1000c;fill-opacity:1"
       d="m 358.792,381.434 -16.968,-28.288 11.312,-11.312 28.288,16.968 22.624,22.632 c 6.246,6.248 6.246,16.376 0,22.624 -6.248,6.246 -16.376,6.246 -22.624,0 z"
       id="path12"
       inkscape:connector-curvature="0" />
    <path
       style="fill:#b1000c;fill-opacity:1"
       d="m 56,256.01 32,-8 v -16 l -32,-8 H 24 c -8.837,0 -16,7.163 -16,16 0,8.837 7.163,16 16,16 z"
       id="path14"
       inkscape:connector-curvature="0" />
    <path
       style="fill:#b1000c;fill-opacity:1"
       d="m 424,256.01 -32,-8 v -16 l 32,-8 h 32 c 8.837,0 16,7.163 16,16 0,8.837 -7.163,16 -16,16 z"
       id="path16"
       inkscape:connector-curvature="0" />
    <path
       style="fill:#b1000c;fill-opacity:1"
       d="m 121.208,381.434 16.968,-28.288 -11.312,-11.312 -28.288,16.968 -22.624,22.632 c -6.246,6.248 -6.246,16.376 0,22.624 6.248,6.246 16.376,6.246 22.624,0 z"
       id="path18"
       inkscape:connector-curvature="0" />
    <path
       style="fill:#b1000c;fill-opacity:1"
       d="m 381.424,121.218 -28.288,16.968 -11.312,-11.312 16.968,-28.288 22.632,-22.624 c 6.248,-6.246 16.376,-6.246 22.624,0 6.246,6.248 6.246,16.376 0,22.624 z"
       id="path20"
       inkscape:connector-curvature="0" />
    <path
       style="fill:#b1000c;fill-opacity:1"
       d="m 232,120.01 h 16 v 64 h -16 z"
       id="path22"
       inkscape:connector-curvature="0" />
    <path
       style="fill:#b1000c;fill-opacity:1"
       d="m 232,296.01 h 16 v 64 h -16 z"
       id="path24"
       inkscape:connector-curvature="0" />
    <path
       style="fill:#b1000c;fill-opacity:1"
       d="m 149.517,160.799 11.314,-11.314 45.255,45.255 -11.314,11.314 z"
       id="path26"
       inkscape:connector-curvature="0" />
    <path
       style="fill:#b1000c;fill-opacity:1"
       d="m 273.938,285.263 11.314,-11.314 45.255,45.255 -11.314,11.314 z"
       id="path28"
       inkscape:connector-curvature="0" />
    <path
       style="fill:#b1000c;fill-opacity:1"
       d="m 120,232.01 h 64 v 16 h -64 z"
       id="path30"
       inkscape:connector-curvature="0" />
    <path
       style="fill:#b1000c;fill-opacity:1"
       d="m 296,232.01 h 64 v 16 h -64 z"
       id="path32"
       inkscape:connector-curvature="0" />
    <path
       style="fill:#b1000c;fill-opacity:1"
       d="m 149.516,319.203 45.255,-45.255 11.314,11.314 -45.255,45.255 z"
       id="path34"
       inkscape:connector-curvature="0" />
    <path
       style="fill:#b1000c;fill-opacity:1"
       d="m 273.94,194.742 45.255,-45.255 11.314,11.314 -45.255,45.255 z"
       id="path36"
       inkscape:connector-curvature="0" />
  </g>
</svg>
