<?xml version="1.0" encoding="UTF-8" standalone="no"?>
<svg
   xmlns:dc="http://purl.org/dc/elements/1.1/"
   xmlns:cc="http://creativecommons.org/ns#"
   xmlns:rdf="http://www.w3.org/1999/02/22-rdf-syntax-ns#"
   xmlns:svg="http://www.w3.org/2000/svg"
   xmlns="http://www.w3.org/2000/svg"
   xmlns:sodipodi="http://sodipodi.sourceforge.net/DTD/sodipodi-0.dtd"
   xmlns:inkscape="http://www.inkscape.org/namespaces/inkscape"
   inkscape:version="1.0beta1 (fe3e306, 2019-09-17)"
   sodipodi:docname="icon-fa-list.svg"
   id="svg4"
   version="1.1"
   viewBox="0 0 384 512"
   role="img"
   class="svg-inline--fa fa-clipboard-list fa-w-12"
   data-icon="clipboard-list"
   data-prefix="fas"
   focusable="false"
   aria-hidden="true">
  <metadata
     id="metadata10">
    <rdf:RDF>
      <cc:Work
         rdf:about="">
        <dc:format>image/svg+xml</dc:format>
        <dc:type
           rdf:resource="http://purl.org/dc/dcmitype/StillImage" />
        <dc:title></dc:title>
      </cc:Work>
    </rdf:RDF>
  </metadata>
  <defs
     id="defs8" />
  <sodipodi:namedview
     inkscape:current-layer="svg4"
     inkscape:window-maximized="0"
     inkscape:window-y="0"
     inkscape:window-x="0"
     inkscape:cy="256"
     inkscape:cx="192"
     inkscape:zoom="0.5390625"
     showgrid="false"
     id="namedview6"
     inkscape:window-height="848"
     inkscape:window-width="1648"
     inkscape:pageshadow="2"
     inkscape:pageopacity="0"
     guidetolerance="10"
     gridtolerance="10"
     objecttolerance="10"
     borderopacity="1"
     inkscape:document-rotation="0"
     bordercolor="#666666"
     pagecolor="#ffffff" />
  <path
     inkscape:connector-curvature="0"
     style="fill:#663300;fill-opacity:1;stroke-width:0.879227"
     id="path2"
     d="m 318.60869,87.188406 h -70.33816 c 0,-31.036715 -25.23382,-56.270531 -56.27054,-56.270531 -31.03671,0 -56.27053,25.233816 -56.27053,56.270531 H 65.391304 c -23.299517,0 -42.202899,18.903384 -42.202899,42.202904 v 309.48792 c 0,23.29951 18.903382,42.2029 42.202899,42.2029 H 318.60869 c 23.29953,0 42.2029,-18.90339 42.2029,-42.2029 V 129.3913 c 0,-23.29951 -18.90337,-42.202894 -42.2029,-42.202894 z M 107.5942,403.71014 c -11.693718,0 -21.101447,-9.40773 -21.101447,-21.10145 0,-11.69371 9.407729,-21.10145 21.101447,-21.10145 11.69372,0 21.10145,9.40774 21.10145,21.10145 0,11.69372 -9.40773,21.10145 -21.10145,21.10145 z m 0,-84.4058 c -11.693718,0 -21.101447,-9.40773 -21.101447,-21.10145 0,-11.69372 9.407729,-21.10145 21.101447,-21.10145 11.69372,0 21.10145,9.40774 21.10145,21.10145 0,11.69372 -9.40773,21.10145 -21.10145,21.10145 z m 0,-84.40579 c -11.693718,0 -21.101447,-9.40773 -21.101447,-21.10145 0,-11.69372 9.407729,-21.10145 21.101447,-21.10145 11.69372,0 21.10145,9.40773 21.10145,21.10145 0,11.69372 -9.40773,21.10145 -21.10145,21.10145 z M 191.99999,66.086957 c 11.69372,0 21.10145,9.40773 21.10145,21.101449 0,11.69372 -9.40773,21.101454 -21.10145,21.101454 -11.69372,0 -21.10145,-9.407734 -21.10145,-21.101454 0,-11.693719 9.40773,-21.101449 21.10145,-21.101449 z M 304.54106,389.64251 c 0,3.86861 -3.16521,7.03382 -7.03382,7.03382 H 170.89855 c -3.8686,0 -7.03381,-3.16521 -7.03381,-7.03382 v -14.06763 c 0,-3.8686 3.16522,-7.03382 7.03381,-7.03382 h 126.60869 c 3.86861,0 7.03382,3.16522 7.03382,7.03382 z m 0,-84.4058 c 0,3.86861 -3.16521,7.03382 -7.03382,7.03382 H 170.89855 c -3.8686,0 -7.03381,-3.16521 -7.03381,-7.03382 v -14.06763 c 0,-3.8686 3.16522,-7.03382 7.03381,-7.03382 h 126.60869 c 3.86861,0 7.03382,3.16522 7.03382,7.03382 z m 0,-84.40579 c 0,3.8686 -3.16521,7.03382 -7.03382,7.03382 H 170.89855 c -3.8686,0 -7.03381,-3.16522 -7.03381,-7.03382 v -14.06763 c 0,-3.8686 3.16522,-7.03382 7.03381,-7.03382 h 126.60869 c 3.86861,0 7.03382,3.16522 7.03382,7.03382 z"
     fill="currentColor" />
</svg>
