<?xml version="1.0" encoding="UTF-8" standalone="no"?>
<svg
   xmlns:dc="http://purl.org/dc/elements/1.1/"
   xmlns:cc="http://creativecommons.org/ns#"
   xmlns:rdf="http://www.w3.org/1999/02/22-rdf-syntax-ns#"
   xmlns:svg="http://www.w3.org/2000/svg"
   xmlns="http://www.w3.org/2000/svg"
   xmlns:sodipodi="http://sodipodi.sourceforge.net/DTD/sodipodi-0.dtd"
   xmlns:inkscape="http://www.inkscape.org/namespaces/inkscape"
   id="SVGRoot"
   version="1.1"
   viewBox="0 0 64 64"
   height="64px"
   width="64px"
   inkscape:version="1.0beta1 (fe3e306, 2019-09-17)"
   sodipodi:docname="icon-edit-user.svg">
  <defs
     id="defs2785" />
  <sodipodi:namedview
     id="base"
     pagecolor="#ffffff"
     bordercolor="#666666"
     borderopacity="1.0"
     inkscape:pageopacity="0.0"
     inkscape:pageshadow="2"
     inkscape:zoom="7.919596"
     inkscape:cx="41.982123"
     inkscape:cy="34.517716"
     inkscape:document-units="px"
     inkscape:current-layer="layer1"
     inkscape:document-rotation="0"
     showgrid="false"
     inkscape:window-width="1719"
     inkscape:window-height="1030"
     inkscape:window-x="106"
     inkscape:window-y="0"
     inkscape:window-maximized="0"
     inkscape:grid-bbox="true" />
  <metadata
     id="metadata2788">
    <rdf:RDF>
      <cc:Work
         rdf:about="">
        <dc:format>image/svg+xml</dc:format>
        <dc:type
           rdf:resource="http://purl.org/dc/dcmitype/StillImage" />
        <dc:title></dc:title>
      </cc:Work>
    </rdf:RDF>
  </metadata>
  <g
     inkscape:label="Calque 1"
     inkscape:groupmode="layer"
     id="layer1">
    <path
       style="stroke-width:0.119605;fill:#663300;fill-opacity:1"
       inkscape:connector-curvature="0"
       d="m 27.159737,48.927726 c -0.1682,0.16586 -0.28547,0.37798 -0.3392,0.61018 l -2.7813,11.80359 c -0.10185,0.42843 0.028,0.88256 0.3392,1.19419 0.24248,0.23968 0.56906,0.37236 0.90358,0.37236 0.0967,0 0.19623,-0.0103 0.29341,-0.0355 l 11.80125,-2.7813 c 0.2294,-0.0537 0.44105,-0.17099 0.60971,-0.33966 l 16.68967,-16.68967 -10.82618,-10.82665 z m 0,0"
       id="path2" />
    <path
       style="stroke-width:0.119605;fill:#663300;fill-opacity:1"
       inkscape:connector-curvature="0"
       d="m 62.343907,28.178466 -3.60826,-3.60826 c -1.92864,-1.92864 -5.28928,-1.92864 -7.21839,0 l -4.96037,4.96037 10.82665,10.82665 4.96037,-4.96036 c 0.96432,-0.96432 1.49507,-2.24541 1.49507,-3.6078 0,-1.36519 -0.53075,-2.64627 -1.49507,-3.6106 z m 0,0"
       id="path4" />
    <path
       sodipodi:nodetypes="ssscsscssscccsssssssssssscccccccccc"
       style="stroke-width:0.119605;fill:#663300;fill-opacity:1"
       inkscape:connector-curvature="0"
       d="M 20.053937,50.149946 H 8.9796674 c -0.70409,0 -1.27549,-0.57139 -1.27549,-1.27548 v -6.37928 H 26.841097 c 1.40817,0 2.55143,-1.1428 2.55143,-2.55144 v -10.2062 h 10.38514 c 1.40817,0 2.55144,-1.14326 2.55144,-2.5519 0,-1.40817 -1.14327,-2.55143 -2.55144,-2.55143 h -10.38514 v -7.65477 h 16.58549 v 2.55144 c 0,1.40863 1.14279,2.5519 2.55143,2.5519 1.40864,0 2.55143,-1.14327 2.55143,-2.5519 v -4.11989 c 0,-3.16675 -2.57432,-3.74108 -5.74107,-3.74108 H 8.3419174 c -3.1667399,0 -5.7410699,2.57433 -5.7410699,5.74108 v 31.46347 c 0,3.51575 2.8630599,6.37882 6.3788199,6.37882 H 20.053937 c 1.40817,0 2.55144,-1.14327 2.55144,-2.55144 0,-1.40864 -1.14327,-2.5519 -2.55144,-2.5519 z m 4.23526,-12.75763 H 7.7041774 v -7.65477 H 24.289197 Z m 0,-12.7581 H 7.7041774 v -7.65477 H 24.289197 Z"
       id="path6" />
  </g>
</svg>
