<?xml version="1.0" encoding="UTF-8" standalone="no"?>
<svg
   xmlns:dc="http://purl.org/dc/elements/1.1/"
   xmlns:cc="http://creativecommons.org/ns#"
   xmlns:rdf="http://www.w3.org/1999/02/22-rdf-syntax-ns#"
   xmlns:svg="http://www.w3.org/2000/svg"
   xmlns="http://www.w3.org/2000/svg"
   xmlns:sodipodi="http://sodipodi.sourceforge.net/DTD/sodipodi-0.dtd"
   xmlns:inkscape="http://www.inkscape.org/namespaces/inkscape"
   inkscape:version="1.0beta1 (fe3e306, 2019-09-17)"
   sodipodi:docname="icon-report.svg"
   version="1.1"
   viewBox="0 0 60 60"
   data-name="Layer 1"
   id="Layer_1">
  <metadata
     id="metadata15">
    <rdf:RDF>
      <cc:Work
         rdf:about="">
        <dc:format>image/svg+xml</dc:format>
        <dc:type
           rdf:resource="http://purl.org/dc/dcmitype/StillImage" />
        <dc:title>icon-help</dc:title>
      </cc:Work>
    </rdf:RDF>
  </metadata>
  <sodipodi:namedview
     inkscape:current-layer="Layer_1"
     inkscape:window-maximized="0"
     inkscape:window-y="0"
     inkscape:window-x="0"
     inkscape:cy="27.726282"
     inkscape:cx="16.580684"
     inkscape:zoom="9.7345034"
     showgrid="false"
     id="namedview13"
     inkscape:window-height="949"
     inkscape:window-width="1715"
     inkscape:pageshadow="2"
     inkscape:pageopacity="0"
     guidetolerance="10"
     gridtolerance="10"
     objecttolerance="10"
     borderopacity="1"
     inkscape:document-rotation="0"
     bordercolor="#666666"
     pagecolor="#ffffff" />
  <defs
     id="defs4">
    <style
       id="style2">.cls-1{fill:none;stroke:#630;stroke-linecap:round;stroke-linejoin:round;stroke-width:2.5px;}.cls-2{fill:#630;}</style>
  </defs>
  <title
     id="title6">icon-help</title>
  <path
     inkscape:connector-curvature="0"
     style="fill:#663300;fill-opacity:1;stroke:none;stroke-opacity:1"
     id="path8"
     d="M 30.022491,0.02808833 A 29.644011,29.644011 0 0 0 0.03360888,29.252255 28.849305,28.849305 0 0 0 9.3301625,50.469389 c -0.5398,1.604405 -2.6840049,7.392261 -5.3979987,8.052016 -3.10384942,0.749721 5.2030707,3.733616 15.2043632,-1.949278 A 30.918539,30.918539 0 0 0 29.977509,58.566388 29.644011,29.644011 0 0 0 59.966391,29.342222 29.644011,29.644011 0 0 0 30.022491,0.02808833 Z"
     class="cls-1" />
  <path
     inkscape:connector-curvature="0"
     style="fill:#ffffff;fill-opacity:1;stroke:#ffffff;stroke-width:0;stroke-miterlimit:4;stroke-dasharray:none;stroke-opacity:1"
     class="cls-1"
     d="m 25.730089,11.472184 a 2.1582363,2.1582363 0 0 1 2.089172,-2.5553543 h 4.299207 a 2.1927681,2.1927681 0 0 1 2.158236,2.5553543 l -2.10644,24.293107 a 2.1927681,2.1927681 0 0 1 -2.210032,2.14097 2.1237047,2.1237047 0 0 1 -2.140971,-2.14097 z m 4.230143,30.785081 a 4.0747501,4.0747501 0 0 1 4.316472,4.109284 v 0.604304 a 4.0747501,4.0747501 0 0 1 -4.230143,4.109283 4.1092819,4.1092819 0 0 1 -4.230145,-4.109283 v -0.604304 a 4.1092819,4.1092819 0 0 1 4.143816,-4.109284 z"
     id="path8-1" />
</svg>
