<?xml version="1.0" encoding="UTF-8" standalone="no"?>
<svg
   xmlns:osb="http://www.openswatchbook.org/uri/2009/osb"
   xmlns:dc="http://purl.org/dc/elements/1.1/"
   xmlns:cc="http://creativecommons.org/ns#"
   xmlns:rdf="http://www.w3.org/1999/02/22-rdf-syntax-ns#"
   xmlns:svg="http://www.w3.org/2000/svg"
   xmlns="http://www.w3.org/2000/svg"
   xmlns:sodipodi="http://sodipodi.sourceforge.net/DTD/sodipodi-0.dtd"
   xmlns:inkscape="http://www.inkscape.org/namespaces/inkscape"
   id="SVGRoot"
   version="1.1"
   viewBox="0 0 64 64"
   height="64px"
   width="64px"
   inkscape:version="1.0beta1 (fe3e306, 2019-09-17)"
   sodipodi:docname="icon-add-rat.svg">
  <defs
     id="defs842">
    <linearGradient
       id="linearGradient1474"
       osb:paint="solid">
      <stop
         style="stop-color:#ffffff;stop-opacity:1;"
         offset="0"
         id="stop1472" />
    </linearGradient>
  </defs>
  <sodipodi:namedview
     id="base"
     pagecolor="#ffffff"
     bordercolor="#666666"
     borderopacity="1.0"
     inkscape:pageopacity="0.0"
     inkscape:pageshadow="2"
     inkscape:zoom="7.9195959"
     inkscape:cx="32.488764"
     inkscape:cy="39.126454"
     inkscape:document-units="px"
     inkscape:current-layer="layer1"
     inkscape:document-rotation="0"
     showgrid="false"
     inkscape:window-width="1920"
     inkscape:window-height="1001"
     inkscape:window-x="-9"
     inkscape:window-y="-9"
     inkscape:window-maximized="1"
     inkscape:grid-bbox="true">
    <inkscape:grid
       type="xygrid"
       id="grid1478" />
  </sodipodi:namedview>
  <metadata
     id="metadata845">
    <rdf:RDF>
      <cc:Work
         rdf:about="">
        <dc:format>image/svg+xml</dc:format>
        <dc:type
           rdf:resource="http://purl.org/dc/dcmitype/StillImage" />
        <dc:title />
      </cc:Work>
    </rdf:RDF>
  </metadata>
  <g
     inkscape:label="Calque 1"
     inkscape:groupmode="layer"
     id="layer1">
    <g
       id="g4"
       transform="matrix(-0.09386477,0,0,0.09386477,28.28108,0)"
       style="fill:#663300;fill-opacity:1">
      <path
         inkscape:connector-curvature="0"
         id="path2"
         d="M 150.648,0 C 67.584,0 0,67.584 0,150.648 c 0,83.07 67.584,150.647 150.648,150.647 83.07,0 150.648,-67.577 150.648,-150.647 C 301.296,67.584 233.718,0 150.648,0 Z m 78.04212,172.46724 h -56.2589 v 56.21335 c 0,3.387 -18.38122,6.14976 -21.78322,6.14976 -3.393,0 -21.16946,-2.82523 -21.81174,-6.14976 V 172.46724 H 72.622904 c -3.396,0 -6.149759,-18.42024 -6.149759,-21.81824 0,-3.393 2.753759,-21.82227 6.149759,-21.82227 H 128.83626 V 72.613375 c 0,-3.393 18.41974,-6.149759 21.81274,-6.149759 3.402,0 21.13673,2.819742 21.78222,6.149759 v 56.213355 h 56.2589 c 3.398,0 6.14976,18.42227 6.14976,21.81427 0,3.394 -2.81235,21.18213 -6.14976,21.82624 z"
         sodipodi:nodetypes="sssssscssscssscssscsss"
         style="fill:#663300;fill-opacity:1" />
    </g>
    <path
       sodipodi:nodetypes="sscssssssssscssssscscsscssssssssssss"
       inkscape:connector-curvature="0"
       id="path837"
       d="m 48.733573,62.801142 c -5.146813,-4.103405 -6.381161,-4.658096 -8.341037,-3.748304 -1.210208,0.561791 -1.603798,1.390588 -1.604959,3.379631 -5.31e-4,0.797165 -0.05771,1.307564 -0.157873,1.407731 -0.198182,0.198182 -13.128857,0.218554 -15.472574,0.02437 -6.866832,-0.568924 -10.775427,-3.865822 -12.728196,-10.73623 -0.7652419,-2.692359 -0.216925,-6.36013 1.349476,-9.026784 1.893099,-3.222832 3.816508,-4.81317 10.377624,-8.580553 7.419644,-4.260354 8.794415,-5.570581 7.355157,-7.009843 -1.243743,-1.243748 -2.300841,-0.961448 -9.057723,2.418872 -4.249531,2.125951 -4.61818,2.254472 -4.871561,1.69836 -0.228376,-0.501234 3.681722,-3.102797 8.843395,-5.883906 4.237645,-2.283246 8.271582,-0.909892 8.261273,2.812547 -0.0064,2.31386 -1.3795,3.496292 -10.334112,8.89916 -7.270318,4.38663 -9.101115,6.676014 -9.101115,11.3808 0,5.579511 2.922931,8.772976 8.72091,9.528066 2.07492,0.270224 2.18565,0.245929 1.981529,-0.434725 -2.01056,-6.704415 1.420426,-12.527679 12.606887,-21.397126 3.403977,-2.698923 3.505423,-2.762763 3.809014,-2.396958 0.430765,0.519042 2.698982,1.754078 3.221468,1.754078 0.03672,0 -0.342043,-0.437739 -0.841687,-0.972756 -2.06065,-2.206531 -2.715464,-4.808866 -1.929984,-7.670057 0.377689,-1.375762 0.705512,-1.536365 2.293975,-1.123817 0.393256,0.102136 1.186433,0.278316 1.76262,0.391523 0.576184,0.113203 1.279468,0.261603 1.562847,0.32977 0.473353,0.113867 0.588568,0.08111 1.417341,-0.402918 3.657814,-2.136288 9.282046,-3.175974 13.354811,-2.468751 2.822085,0.490048 3.145571,0.86075 2.520685,2.888626 -0.992426,3.220621 -2.117813,5.150414 -5.226845,8.962904 -4.419596,5.41959 -5.896917,8.759909 -7.065746,15.976109 -0.579423,3.577296 -0.656866,4.50187 -0.652639,7.791627 0.0053,4.065504 0.120559,3.941428 -2.052961,2.208544 z m 6.505112,-32.316707 c 0.613528,-0.374114 0.833728,-0.770446 0.833728,-1.500613 0,-1.783073 -2.536463,-2.298972 -3.223122,-0.655558 -0.64461,1.54277 0.984478,3.01285 2.389394,2.156171 z"
       style="display:inline;fill:#663300;fill-opacity:1;stroke-width:0.130952" />
  </g>
</svg>
