<?xml version="1.0" encoding="UTF-8" standalone="no"?>
<svg
   xmlns:dc="http://purl.org/dc/elements/1.1/"
   xmlns:cc="http://creativecommons.org/ns#"
   xmlns:rdf="http://www.w3.org/1999/02/22-rdf-syntax-ns#"
   xmlns:svg="http://www.w3.org/2000/svg"
   xmlns="http://www.w3.org/2000/svg"
   xmlns:sodipodi="http://sodipodi.sourceforge.net/DTD/sodipodi-0.dtd"
   xmlns:inkscape="http://www.inkscape.org/namespaces/inkscape"
   inkscape:version="1.0beta1 (fe3e306, 2019-09-17)"
   sodipodi:docname="icon-report.svg"
   version="1.1"
   viewBox="0 0 60 60"
   data-name="Layer 1"
   id="Layer_1">
  <metadata
     id="metadata15">
    <rdf:RDF>
      <cc:Work
         rdf:about="">
        <dc:format>image/svg+xml</dc:format>
        <dc:type
           rdf:resource="http://purl.org/dc/dcmitype/StillImage" />
        <dc:title>icon-help</dc:title>
      </cc:Work>
    </rdf:RDF>
  </metadata>
  <sodipodi:namedview
     inkscape:current-layer="Layer_1"
     inkscape:window-maximized="0"
     inkscape:window-y="0"
     inkscape:window-x="0"
     inkscape:cy="29.357394"
     inkscape:cx="16.580684"
     inkscape:zoom="9.7345034"
     showgrid="false"
     id="namedview13"
     inkscape:window-height="949"
     inkscape:window-width="1715"
     inkscape:pageshadow="2"
     inkscape:pageopacity="0"
     guidetolerance="10"
     gridtolerance="10"
     objecttolerance="10"
     borderopacity="1"
     inkscape:document-rotation="0"
     bordercolor="#666666"
     pagecolor="#ffffff" />
  <defs
     id="defs4">
    <style
       id="style2">.cls-1{fill:none;stroke:#630;stroke-linecap:round;stroke-linejoin:round;stroke-width:2.5px;}.cls-2{fill:#630;}</style>
  </defs>
  <title
     id="title6">icon-help</title>
  <path
     style="stroke-width:3.96349;stroke-miterlimit:4;stroke-dasharray:none"
     inkscape:connector-curvature="0"
     id="path8"
     d="M 30.020979,2.0440241 A 27.652414,27.650014 0 0 0 2.0468641,29.302435 26.911101,26.908765 0 0 0 10.718839,49.092404 c -0.503534,1.496486 -2.5036822,6.895022 -5.0353398,7.510398 -2.895321,0.699292 4.8535088,3.482477 14.1828758,-1.818158 A 28.841315,28.838812 0 0 0 29.979019,56.644762 27.652414,27.650014 0 0 0 57.953136,29.386349 27.652414,27.650014 0 0 0 30.020979,2.0440241 Z"
     class="cls-1" />
  <path
     inkscape:connector-curvature="0"
     style="fill:#663300;stroke-width:0;stroke-miterlimit:4;stroke-dasharray:none"
     class="cls-1"
     d="m 26.506193,14.866199 a 1.7659525,1.76288 0 0 1 1.709442,-2.08725 h 3.517778 a 1.7942077,1.7910861 0 0 1 1.765952,2.08725 l -1.72357,19.842977 a 1.7942077,1.7910861 0 0 1 -1.808334,1.748777 1.7376972,1.7346739 0 0 1 -1.751826,-1.748777 z m 3.461268,25.14572 a 3.3341182,3.3283174 0 0 1 3.531904,3.356524 v 0.493606 a 3.3341182,3.3283174 0 0 1 -3.461267,3.356523 3.3623735,3.3565235 0 0 1 -3.461267,-3.356523 v -0.493606 a 3.3623735,3.3565235 0 0 1 3.39063,-3.356524 z"
     id="path8-1" />
</svg>
