<?xml version="1.0" encoding="UTF-8" standalone="no"?>
<svg
   xmlns:dc="http://purl.org/dc/elements/1.1/"
   xmlns:cc="http://creativecommons.org/ns#"
   xmlns:rdf="http://www.w3.org/1999/02/22-rdf-syntax-ns#"
   xmlns:svg="http://www.w3.org/2000/svg"
   xmlns="http://www.w3.org/2000/svg"
   xmlns:sodipodi="http://sodipodi.sourceforge.net/DTD/sodipodi-0.dtd"
   xmlns:inkscape="http://www.inkscape.org/namespaces/inkscape"
   inkscape:version="1.0beta1 (fe3e306, 2019-09-17)"
   sodipodi:docname="icon-laborats.svg"
   width="64px"
   height="64px"
   viewBox="0 0 64 64"
   version="1.1"
   id="SVGRoot">
  <defs
     id="defs874" />
  <sodipodi:namedview
     inkscape:grid-bbox="true"
     inkscape:window-maximized="1"
     inkscape:window-y="-9"
     inkscape:window-x="-9"
     inkscape:window-height="1001"
     inkscape:window-width="1920"
     showgrid="false"
     inkscape:document-rotation="0"
     inkscape:current-layer="layer1"
     inkscape:document-units="px"
     inkscape:cy="71.186803"
     inkscape:cx="43.810321"
     inkscape:zoom="2.8"
     inkscape:pageshadow="2"
     inkscape:pageopacity="0.0"
     borderopacity="1.0"
     bordercolor="#666666"
     pagecolor="#ffffff"
     id="base" />
  <metadata
     id="metadata877">
    <rdf:RDF>
      <cc:Work
         rdf:about="">
        <dc:format>image/svg+xml</dc:format>
        <dc:type
           rdf:resource="http://purl.org/dc/dcmitype/StillImage" />
        <dc:title></dc:title>
      </cc:Work>
    </rdf:RDF>
  </metadata>
  <g
     id="layer1"
     inkscape:groupmode="layer"
     inkscape:label="Calque 1">
    <g
       style="fill:#663300;fill-opacity:1"
       transform="matrix(0.71111203,0,0,0.71111203,-3.5556017,-680.7917)"
       id="g4">
      <path
         style="color:#000000;font-style:normal;font-variant:normal;font-weight:normal;font-stretch:normal;font-size:medium;line-height:normal;font-family:sans-serif;text-indent:0;text-align:start;text-decoration:none;text-decoration-line:none;text-decoration-style:solid;text-decoration-color:#000000;letter-spacing:normal;word-spacing:normal;text-transform:none;writing-mode:lr-tb;direction:ltr;baseline-shift:baseline;text-anchor:start;white-space:normal;clip-rule:nonzero;display:inline;overflow:visible;visibility:visible;opacity:1;isolation:auto;mix-blend-mode:normal;color-interpolation:sRGB;color-interpolation-filters:linearRGB;solid-color:#000000;solid-opacity:1;fill:#663300;fill-opacity:1;fill-rule:evenodd;stroke:none;stroke-width:3.5;stroke-linecap:butt;stroke-linejoin:round;stroke-miterlimit:4;stroke-dasharray:none;stroke-dashoffset:0;stroke-opacity:1;color-rendering:auto;image-rendering:auto;shape-rendering:auto;text-rendering:auto;enable-background:accumulate"
         d="m 50.476461,966.87617 a 2.1364363,2.1364363 0 0 0 -1.34228,0.54359 L 6.6576512,1005.5642 a 2.1364363,2.1364363 0 0 0 -0.884518,1.2589 l -0.01221,0.026 a 2.1364363,2.1364363 0 0 0 -0.01221,0.048 c -0.05249,0.1988 -0.748655,2.9279 -0.748655,6.5827 0,3.7932 0.765256,6.6543 0.765256,6.6543 a 2.1364363,2.1364363 0 0 0 1.301753,1.4448 l 42.2906178,16.129 a 2.1364363,2.1364363 0 0 0 2.188591,-0.4053 l 42.724461,-38.36385 a 2.1364363,2.1364363 0 0 0 -0.6366,-3.60011 v -0.002 l -0.0903,-0.0333 -1.37804,-0.5269 c -0.061,-0.67535 -0.10987,-1.39293 -0.10987,-2.2149 0,-1.67539 0.16175,-3.1118 0.32422,-4.13416 l 1.8883,-1.69515 a 2.1364363,2.1364363 0 0 0 -0.6676,-3.5858 L 51.31264,967.01493 a 2.1364363,2.1364363 0 0 0 -0.827268,-0.13828 h -0.01221 z m 5.326275,12.46209 3.5786,1.36614 -1.101436,0.98943 c -0.419799,0.37704 -0.721677,0.73582 -0.941769,1.09195 l 11.241414,4.28675 c 0.467894,-0.2616 0.907956,-0.5671 1.327876,-0.94413 l 1.101558,-0.98943 3.578601,1.36613 -1.101437,0.98944 c -2.098869,1.88488 -5.054913,2.93504 -7.951265,3.42367 -0.835934,0.14119 -1.671136,0.24056 -2.505728,0.3171 -0.511595,-0.90703 -1.109859,-1.74675 -1.656976,-2.53438 -0.02808,-0.0398 -0.05127,-0.077 -0.07813,-0.11682 1.314448,-0.0657 2.545523,-0.16854 3.638292,-0.35285 0.619505,-0.10449 1.184688,-0.23025 1.714227,-0.37909 l -9.746546,-3.71693 c -0.01953,0.34361 0.01587,0.69641 0.102539,1.0705 0.294676,1.27081 1.248408,2.69385 2.28881,4.19138 1.040279,1.49769 2.166984,3.07017 2.5725,4.81842 0.405516,1.74812 -0.04395,3.75387 -2.143425,5.63859 -2.098869,1.88487 -5.054669,2.93747 -7.951143,3.42607 -0.934445,0.1576 -1.869134,0.2653 -2.801381,0.3433 -0.500853,-0.8801 -1.084225,-1.6992 -1.621332,-2.4724 -0.04517,-0.065 -0.08545,-0.1283 -0.131103,-0.1931 1.429682,-0.064 2.77416,-0.1686 3.950547,-0.3672 0.593992,-0.1001 1.136959,-0.2177 1.647455,-0.3576 l -9.682094,-3.69309 c -0.01465,0.33007 0.02197,0.66924 0.10498,1.02759 0.294677,1.27095 1.248531,2.6937 2.28881,4.1914 1.04028,1.4975 2.167229,3.0703 2.572623,4.8184 0.405638,1.7483 -0.04395,3.7537 -2.143425,5.6386 l -1.068111,0.9584 -3.578601,-1.3637 1.068112,-0.9585 c 0.43347,-0.3892 0.739621,-0.7625 0.960812,-1.1301 l -11.21517,-4.2772 c -0.485471,0.2666 -0.939693,0.5811 -1.373286,0.9704 l -1.068111,0.9584 -3.578722,-1.3637 1.068111,-0.9585 c 2.098869,-1.8847 5.052472,-2.9374 7.948824,-3.426 0.934445,-0.1577 1.871453,-0.263 2.803822,-0.341 0.500975,0.8803 1.083981,1.6991 1.62121,2.4724 0.04517,0.065 0.08423,0.1259 0.128784,0.1907 -1.429194,0.064 -2.771718,0.1687 -3.948228,0.3672 -0.594358,0.1005 -1.141109,0.2163 -1.652215,0.3576 l 9.684535,3.6955 c 0.01343,-0.3304 -0.02319,-0.6713 -0.10498,-1.03 -0.294799,-1.2708 -1.248653,-2.6914 -2.28881,-4.189 -1.040524,-1.4976 -2.166985,-3.0701 -2.572501,-4.81837 -0.405394,-1.7481 0.04639,-3.75622 2.145744,-5.64097 2.099114,-1.88485 5.05235,-2.93728 7.948824,-3.42606 0.835934,-0.14104 1.673578,-0.24055 2.50817,-0.31709 0.511594,0.90688 1.107417,1.7469 1.654535,2.53438 0.02808,0.0398 0.05249,0.077 0.08179,0.11682 -1.314448,0.0657 -2.547964,0.17092 -3.640733,0.35525 -0.670042,0.11304 -1.277095,0.24878 -1.842889,0.41484 l 9.868128,3.76462 c 0.03296,-0.36995 9.76e-4,-0.74938 -0.09277,-1.15395 -0.294799,-1.27079 -1.248531,-2.69383 -2.28881,-4.19138 -1.040402,-1.49767 -2.169426,-3.07031 -2.574942,-4.81841 -0.405394,-1.74826 0.04639,-3.75625 2.145744,-5.64097 l 1.101559,-0.98944 z m 33.55249,11.8136 c -0.02197,0.45104 -0.0354,0.92147 -0.0354,1.40906 0,1.92936 0.200805,3.57213 0.393431,4.73258 l -40.044654,35.9582 -39.8777848,-15.2111 c -0.149535,-0.643 -0.510252,-1.9061 -0.510252,-4.5609 0,-1.246 0.09888,-2.2907 0.21228,-3.1853 l 39.8729008,15.2063 a 2.1364363,2.1364363 0 0 0 2.188713,-0.4053 l 37.801132,-33.94354 z m -43.604211,2.00986 c -0.434325,0.25056 -0.84509,0.53939 -1.237423,0.89168 -0.433836,0.38955 -0.742062,0.76234 -0.963253,1.1301 l 11.215291,4.27722 c 0.485472,-0.26691 0.941769,-0.58081 1.375606,-0.97036 0.392332,-0.35229 0.679563,-0.6895 0.896481,-1.02281 z"
         id="path2"
         inkscape:connector-curvature="0" />
    </g>
  </g>
</svg>
