<?xml version="1.0" encoding="UTF-8" standalone="no"?>
<svg
   xmlns:dc="http://purl.org/dc/elements/1.1/"
   xmlns:cc="http://creativecommons.org/ns#"
   xmlns:rdf="http://www.w3.org/1999/02/22-rdf-syntax-ns#"
   xmlns:svg="http://www.w3.org/2000/svg"
   xmlns="http://www.w3.org/2000/svg"
   width="64px"
   height="64px"
   viewBox="0 0 64 64"
   version="1.1"
   id="SVGRoot">
  <defs
     id="defs830" />
  <metadata
     id="metadata833">
    <rdf:RDF>
      <cc:Work
         rdf:about="">
        <dc:format>image/svg+xml</dc:format>
        <dc:type
           rdf:resource="http://purl.org/dc/dcmitype/StillImage" />
        <dc:title></dc:title>
      </cc:Work>
    </rdf:RDF>
  </metadata>
  <g
     transform="matrix(0.18934277,0,0,0.18934277,2.1344915,2.1343969)"
     id="g4"
     style="fill:#ffffff;fill-opacity:1">
    <path
       style="fill:#ffffff;fill-opacity:1"
       d="M 293.709,44.872 H 21.756 C 9.741,44.872 0,54.614 0,66.629 v 182.209 c 0,12.015 9.741,21.756 21.756,21.756 h 271.953 c 12.015,0 21.756,-9.741 21.756,-21.756 V 66.629 C 315.466,54.614 305.724,44.872 293.709,44.872 Z M 141.644,94.607 h 70.479 c 4.509,0 8.159,3.655 8.159,8.159 0,4.504 -3.65,8.159 -8.159,8.159 h -70.479 c -4.509,0 -8.159,-3.655 -8.159,-8.159 10e-4,-4.504 3.656,-8.159 8.159,-8.159 z m -29.24,124.386 H 35.348 V 96.543 h 77.055 v 122.45 z m 169.068,0.946 H 141.644 c -4.509,0 -8.159,-3.655 -8.159,-8.159 0,-4.504 3.65,-8.159 8.159,-8.159 h 139.827 c 4.509,0 8.159,3.655 8.159,8.159 0,4.51 -3.655,8.159 -8.158,8.159 z m 0,-29.235 H 141.644 c -4.509,0 -8.159,-3.655 -8.159,-8.159 0,-4.504 3.65,-8.159 8.159,-8.159 h 139.827 c 4.509,0 8.159,3.655 8.159,8.159 0,4.51 -3.655,8.159 -8.158,8.159 z m 0,-29.235 H 141.644 c -4.509,0 -8.159,-3.655 -8.159,-8.159 0,-4.504 3.65,-8.159 8.159,-8.159 h 139.827 c 4.509,0 8.159,3.655 8.159,8.159 0,4.51 -3.655,8.159 -8.158,8.159 z"
       id="path2" />
  </g>
</svg>
