<?xml version="1.0" encoding="UTF-8" standalone="no"?>
<svg
   xmlns:dc="http://purl.org/dc/elements/1.1/"
   xmlns:cc="http://creativecommons.org/ns#"
   xmlns:rdf="http://www.w3.org/1999/02/22-rdf-syntax-ns#"
   xmlns:svg="http://www.w3.org/2000/svg"
   xmlns="http://www.w3.org/2000/svg"
   id="SVGRoot"
   version="1.1"
   viewBox="0 0 64 64"
   height="64px"
   width="64px">
  <defs
     id="defs830" />
  <metadata
     id="metadata833">
    <rdf:RDF>
      <cc:Work
         rdf:about="">
        <dc:format>image/svg+xml</dc:format>
        <dc:type
           rdf:resource="http://purl.org/dc/dcmitype/StillImage" />
        <dc:title></dc:title>
      </cc:Work>
    </rdf:RDF>
  </metadata>
  <path
     style="stroke-width:2.80791;fill:#b1000c;fill-opacity:1"
     d="m 32.000001,47.443493 a 5.6158183,5.6158183 0 0 0 5.615819,-5.61582 c 0,-3.116781 -2.527119,-5.61581 -5.615819,-5.61581 a 5.6158183,5.6158183 0 0 0 -5.615818,5.61581 5.6158183,5.6158183 0 0 0 5.615818,5.61582 m 16.847455,-25.27118 a 5.6158183,5.6158183 0 0 1 5.615816,5.61582 v 28.079099 a 5.6158183,5.6158183 0 0 1 -5.615816,5.615821 H 15.152546 A 5.6158183,5.6158183 0 0 1 9.536728,55.867232 V 27.788133 c 0,-3.116781 2.527118,-5.61582 5.615818,-5.61582 h 2.80791 V 16.556494 A 14.039546,14.039546 0 0 1 32.000001,2.5169475 14.039546,14.039546 0 0 1 46.039547,16.556494 v 5.615819 h 2.807909 M 32.000001,8.1327655 a 8.4237275,8.4237275 0 0 0 -8.423727,8.4237285 v 5.615819 H 40.423729 V 16.556494 A 8.4237275,8.4237275 0 0 0 32.000001,8.1327655 Z"
     id="path2" />
</svg>
