<?xml version="1.0" encoding="UTF-8" standalone="no"?>
<svg
   xmlns:dc="http://purl.org/dc/elements/1.1/"
   xmlns:cc="http://creativecommons.org/ns#"
   xmlns:rdf="http://www.w3.org/1999/02/22-rdf-syntax-ns#"
   xmlns:svg="http://www.w3.org/2000/svg"
   xmlns="http://www.w3.org/2000/svg"
   xmlns:sodipodi="http://sodipodi.sourceforge.net/DTD/sodipodi-0.dtd"
   xmlns:inkscape="http://www.inkscape.org/namespaces/inkscape"
   inkscape:export-ydpi="96"
   inkscape:export-xdpi="96"
   inkscape:export-filename="C:\Users\nbertin\Documents\Personnel\Rats\LORD\CakeLORD\docs\cdc\icon-backoffice.png"
   inkscape:version="1.0beta1 (fe3e306, 2019-09-17)"
   sodipodi:docname="icon-locate.svg"
   id="SVGRoot"
   version="1.1"
   viewBox="0 0 64 64"
   height="64px"
   width="64px">
  <sodipodi:namedview
     inkscape:current-layer="SVGRoot"
     inkscape:window-maximized="0"
     inkscape:window-y="39"
     inkscape:window-x="64"
     inkscape:cy="5.5307619"
     inkscape:cx="29.689517"
     inkscape:zoom="3.6875"
     showgrid="false"
     id="namedview39"
     inkscape:window-height="785"
     inkscape:window-width="1371"
     inkscape:pageshadow="2"
     inkscape:pageopacity="0"
     guidetolerance="10"
     gridtolerance="10"
     objecttolerance="10"
     borderopacity="1"
     inkscape:document-rotation="0"
     bordercolor="#666666"
     pagecolor="#ffffff" />
  <defs
     id="defs830">
    <filter
       style="color-interpolation-filters:sRGB"
       id="filter901"
       x="-0.0049654186"
       width="1.0099308"
       y="-0.0049654186"
       height="1.0099308">
      <feGaussianBlur
         stdDeviation="0.95998094"
         id="feGaussianBlur903" />
    </filter>
    <filter
       style="color-interpolation-filters:sRGB"
       id="filter905"
       x="-0.0047999051"
       width="1.0095998"
       y="-0.0048000949"
       height="1.0096002">
      <feGaussianBlur
         stdDeviation="0.12254071"
         id="feGaussianBlur907" />
    </filter>
    <filter
       style="color-interpolation-filters:sRGB"
       id="filter909"
       x="-0.0089998216"
       width="1.0179996"
       y="-0.0089998216"
       height="1.0179996">
      <feGaussianBlur
         stdDeviation="0.12254071"
         id="feGaussianBlur911" />
    </filter>
    <filter
       style="color-interpolation-filters:sRGB"
       id="filter913"
       x="-0.03599929"
       width="1.0719986"
       y="-0.035999285"
       height="1.0719986">
      <feGaussianBlur
         stdDeviation="0.12254071"
         id="feGaussianBlur915" />
    </filter>
    <filter
       style="color-interpolation-filters:sRGB"
       id="filter917"
       x="-0.020571022"
       width="1.041142"
       y="-0.02057102"
       height="1.041142">
      <feGaussianBlur
         stdDeviation="0.12254071"
         id="feGaussianBlur919" />
    </filter>
    <filter
       style="color-interpolation-filters:sRGB"
       id="filter921"
       x="-0.0075787967"
       width="1.0151576"
       y="-0.0075787971"
       height="1.0151576">
      <feGaussianBlur
         stdDeviation="0.12254071"
         id="feGaussianBlur923" />
    </filter>
  </defs>
  <metadata
     id="metadata833">
    <rdf:RDF>
      <cc:Work
         rdf:about="">
        <dc:format>image/svg+xml</dc:format>
        <dc:type
           rdf:resource="http://purl.org/dc/dcmitype/StillImage" />
        <dc:title></dc:title>
      </cc:Work>
    </rdf:RDF>
  </metadata>
  <g
     style="fill:#663300;fill-opacity:1"
     transform="matrix(1.3536557,0,0,1.3536557,-1.8413925,-1.9090753)"
     id="g12">
    <polygon
       style="fill:#663300;fill-opacity:1"
       points="1.6,45.6 1.6,20.4 12,16.7 12,41.9 "
       id="polygon2" />
    <polygon
       style="fill:#663300;fill-opacity:1"
       points="13.9,41.9 13.9,16.7 24,23.1 24,48.3 "
       id="polygon4" />
    <path
       style="fill:#663300;fill-opacity:1"
       d="M 36,26.2 V 42.9 L 26,48.4 V 23.2 l 4.9,-2.6 c 2.1,2.6 4.3,4.8 5.1,5.6 z"
       id="path6"
       inkscape:connector-curvature="0" />
    <path
       style="fill:#663300;fill-opacity:1"
       d="M 48.4,20.4 V 45.6 L 38,42.8 V 27.1 c 2.2,-2.2 4.4,-4.2 6.8,-7.6 z"
       id="path8"
       inkscape:connector-curvature="0" />
    <path
       style="fill:#663300;fill-opacity:1"
       d="m 37.4,1.7 c -5.1,0 -9.2,4.1 -9.2,9.2 0,4.4 6.5,11.1 9.2,13.9 2.9,-3 9.2,-9.6 9.2,-13.9 0.1,-5.1 -4.1,-9.2 -9.2,-9.2 z m 0,13.4 c -2.4,0 -4.4,-2 -4.4,-4.4 0,-2.4 2,-4.4 4.4,-4.4 2.4,0 4.4,2 4.4,4.4 0,2.5 -1.9,4.4 -4.4,4.4 z"
       id="path10"
       inkscape:connector-curvature="0" />
  </g>
</svg>
