<?xml version="1.0" encoding="UTF-8" standalone="no"?>
<svg
   xmlns:dc="http://purl.org/dc/elements/1.1/"
   xmlns:cc="http://creativecommons.org/ns#"
   xmlns:rdf="http://www.w3.org/1999/02/22-rdf-syntax-ns#"
   xmlns:svg="http://www.w3.org/2000/svg"
   xmlns="http://www.w3.org/2000/svg"
   id="SVGRoot"
   version="1.1"
   viewBox="0 0 64 64"
   height="64px"
   width="64px">
  <defs
     id="defs830">
    <filter
       style="color-interpolation-filters:sRGB"
       id="filter901"
       x="-0.0049654186"
       width="1.0099308"
       y="-0.0049654186"
       height="1.0099308">
      <feGaussianBlur
         stdDeviation="0.95998094"
         id="feGaussianBlur903" />
    </filter>
    <filter
       style="color-interpolation-filters:sRGB"
       id="filter905"
       x="-0.0047999051"
       width="1.0095998"
       y="-0.0048000949"
       height="1.0096002">
      <feGaussianBlur
         stdDeviation="0.12254071"
         id="feGaussianBlur907" />
    </filter>
    <filter
       style="color-interpolation-filters:sRGB"
       id="filter909"
       x="-0.0089998216"
       width="1.0179996"
       y="-0.0089998216"
       height="1.0179996">
      <feGaussianBlur
         stdDeviation="0.12254071"
         id="feGaussianBlur911" />
    </filter>
    <filter
       style="color-interpolation-filters:sRGB"
       id="filter913"
       x="-0.03599929"
       width="1.0719986"
       y="-0.035999285"
       height="1.0719986">
      <feGaussianBlur
         stdDeviation="0.12254071"
         id="feGaussianBlur915" />
    </filter>
    <filter
       style="color-interpolation-filters:sRGB"
       id="filter917"
       x="-0.020571022"
       width="1.041142"
       y="-0.02057102"
       height="1.041142">
      <feGaussianBlur
         stdDeviation="0.12254071"
         id="feGaussianBlur919" />
    </filter>
    <filter
       style="color-interpolation-filters:sRGB"
       id="filter921"
       x="-0.0075787967"
       width="1.0151576"
       y="-0.0075787971"
       height="1.0151576">
      <feGaussianBlur
         stdDeviation="0.12254071"
         id="feGaussianBlur923" />
    </filter>
  </defs>
  <metadata
     id="metadata833">
    <rdf:RDF>
      <cc:Work
         rdf:about="">
        <dc:format>image/svg+xml</dc:format>
        <dc:type
           rdf:resource="http://purl.org/dc/dcmitype/StillImage" />
        <dc:title></dc:title>
      </cc:Work>
    </rdf:RDF>
  </metadata>
  <path
     id="path2-2"
     d="M 59.348885,33.903659 55.220841,19.584871 C 54.534473,16.449106 51.767974,14.206727 48.558063,14.184277 H 44.310608 V 9.9838293 C 44.304702,6.1064429 39.150391,2.9646234 35.273003,2.9589226 h -6.48518 c -3.877375,0.00589 -9.031927,3.1475203 -9.037629,7.0249067 v 4.2004477 h -4.299185 c -3.189205,0.0023 -5.9535357,2.208351 -6.6627777,5.317826 L 4.6498449,33.903659 c -3.5382956,1.034552 -3.527954,6.393792 0,7.418038 l 4.1383864,14.318787 c 0.68989,3.133623 3.4542557,5.374292 6.6627777,5.400593 h 33.107054 c 3.190972,-0.0071 5.954219,-2.216771 6.662778,-5.328155 l 4.138386,-14.391225 c 3.527954,-1.04487 3.517625,-6.393791 -0.0106,-7.418038 z M 33.26619,21.354025 v 7.397331 c 0,1.379509 -2.517083,1.379509 -2.517083,0 v -7.397331 c 0,-1.37951 2.517083,-1.37951 2.517083,0 z m -15.696702,0 c 0,-1.37951 2.516452,-1.37951 2.516452,0 v 7.397331 c 0,1.379509 -2.516452,1.379509 -2.516452,0 z m 26.312207,0 c 0,-1.37951 2.516871,-1.37951 2.516871,0 v 7.397331 c 0,1.379509 -2.516871,1.379509 -2.516871,0 z M 25.130081,10.732612 c 0,-1.0229038 1.63462,-2.4558634 2.657241,-2.4558634 h 8.445358 c 1.018829,0.00589 2.646393,0.9338699 2.646122,1.9526864 0,0 -0.154699,3.554127 -1.501087,3.545493 -3.461395,-0.02225 -6.457878,0.01543 -10.985696,0 -1.097793,-0.0036 -1.262256,-3.042292 -1.262256,-3.042292 z M 20.086,54.388642 c 0,1.379509 -2.516512,1.379509 -2.516512,0 v -7.397367 c 0,-1.379508 2.516512,-1.379508 2.516512,0 z m 13.18019,0 c 0,1.379509 -2.517083,1.379509 -2.517083,0 v -7.397367 c 0,-1.379508 2.517083,-1.379508 2.517083,0 z m 13.132376,0.0059 c 0,1.379509 -2.516894,1.373609 -2.516894,-0.0059 v -7.397367 c 0,-1.379508 2.516894,-1.379508 2.516894,0 z M 59.9386,37.731646 c 0,0.942821 -0.764248,1.707081 -1.707082,1.707081 H 5.7775535 c -2.2656174,0 -2.2865123,-3.631416 0,-3.652099 H 58.231518 c 1.034565,0.01177 1.830297,0.917863 1.707082,1.945101 z"
     style="display:inline;opacity:1;fill:#b1000c;fill-opacity:1;stroke-width:1.0346;stop-opacity:1" />
</svg>
