<?xml version="1.0" encoding="UTF-8" standalone="no"?>
<svg
   xmlns:dc="http://purl.org/dc/elements/1.1/"
   xmlns:cc="http://creativecommons.org/ns#"
   xmlns:rdf="http://www.w3.org/1999/02/22-rdf-syntax-ns#"
   xmlns:svg="http://www.w3.org/2000/svg"
   xmlns="http://www.w3.org/2000/svg"
   xmlns:sodipodi="http://sodipodi.sourceforge.net/DTD/sodipodi-0.dtd"
   xmlns:inkscape="http://www.inkscape.org/namespaces/inkscape"
   inkscape:version="1.0beta1 (fe3e306, 2019-09-17)"
   inkscape:export-ydpi="96"
   inkscape:export-xdpi="96"
   inkscape:export-filename="C:\Users\nbertin\Documents\Personnel\Rats\LORD\CakeLORD\docs\cdc\icon-report.png"
   sodipodi:docname="icon-search-deceased.svg"
   id="SVGRoot"
   version="1.1"
   viewBox="0 0 64 64"
   height="64px"
   width="64px">
  <sodipodi:namedview
     inkscape:current-layer="SVGRoot"
     inkscape:window-maximized="0"
     inkscape:window-y="0"
     inkscape:window-x="0"
     inkscape:cy="41.01328"
     inkscape:cx="58.089406"
     inkscape:zoom="3.6875"
     showgrid="false"
     id="namedview7"
     inkscape:window-height="825"
     inkscape:window-width="1520"
     inkscape:pageshadow="2"
     inkscape:pageopacity="0"
     guidetolerance="10"
     gridtolerance="10"
     objecttolerance="10"
     borderopacity="1"
     inkscape:document-rotation="0"
     bordercolor="#666666"
     pagecolor="#ffffff" />
  <defs
     id="defs830" />
  <metadata
     id="metadata833">
    <rdf:RDF>
      <cc:Work
         rdf:about="">
        <dc:format>image/svg+xml</dc:format>
        <dc:type
           rdf:resource="http://purl.org/dc/dcmitype/StillImage" />
        <dc:title></dc:title>
      </cc:Work>
    </rdf:RDF>
  </metadata>
  <path
     style="fill:#ff0000;fill-opacity:0;stroke-width:0.0802915;opacity:0.999"
     d="m 30.498773,40.310138 c 3.155716,-2.515944 3.912542,-2.856047 5.114221,-2.298219 0.742024,0.344449 0.98335,0.852623 0.984059,2.07217 2.86e-4,0.488771 0.03534,0.801719 0.09679,0.863136 0.121507,0.12153 8.049815,0.134001 9.486835,0.01485 4.210338,-0.348838 6.606852,-2.37029 7.804166,-6.582788 0.469202,-1.650785 0.133003,-3.899629 -0.82741,-5.534651 C 51.9967,26.86859 50.81738,25.89349 46.794499,23.583575 c -4.549271,-2.612186 -5.392202,-3.415528 -4.509736,-4.297996 0.762586,-0.762586 1.410735,-0.589503 5.553652,1.483098 2.605546,1.303499 2.831584,1.382297 2.986941,1.04133 0.140031,-0.307321 -2.257403,-1.90244 -5.422232,-3.607641 -2.59827,-1.399942 -5.071633,-0.557897 -5.06531,1.724476 0.0038,1.418708 0.845828,2.143699 6.336249,5.456405 4.457715,2.689601 5.580252,4.093319 5.580252,6.977988 0,3.421011 -1.792165,5.379041 -5.347128,5.842013 -1.272218,0.165692 -1.340112,0.150797 -1.214957,-0.266546 1.232752,-4.110726 -0.87092,-7.681182 -7.72978,-13.119373 -2.087108,-1.654806 -2.149306,-1.693946 -2.33546,-1.469658 -0.264118,0.318237 -1.654853,1.075484 -1.975203,1.075484 -0.02256,0 0.209713,-0.268388 0.516071,-0.596424 1.263461,-1.352914 1.66496,-2.948509 1.183353,-4.702802 -0.231578,-0.843537 -0.432581,-0.942004 -1.406533,-0.689058 -0.241121,0.06265 -0.727445,0.170646 -1.080727,0.240059 -0.353285,0.06944 -0.784488,0.160398 -0.958242,0.202196 -0.290232,0.06984 -0.360877,0.04975 -0.86903,-0.247052 -2.242749,-1.309831 -5.691191,-1.947301 -8.188357,-1.513681 -1.730341,0.300473 -1.92868,0.527762 -1.545538,1.771126 0.608501,1.974686 1.298514,3.157912 3.204784,5.495491 2.709831,3.322954 3.615632,5.371025 4.332286,9.795552 0.355269,2.19337 0.40276,2.760264 0.400162,4.77733 -0.0028,2.492715 -0.07393,2.416637 1.258751,1.354143 z M 26.510238,20.495556 c -0.376181,-0.229377 -0.511201,-0.47238 -0.511201,-0.920077 0,-1.093264 1.555213,-1.40958 1.976225,-0.401951 0.395233,0.94594 -0.603618,1.847299 -1.465024,1.322028 z"
     id="path837"
     inkscape:connector-curvature="0"
     sodipodi:nodetypes="sscssssssssscssssscscsscssssssssssss"
     inkscape:export-xdpi="94.953262"
     inkscape:export-ydpi="94.953262"
     inkscape:export-filename="C:\Users\nbertin\Documents\Personnel\Rats\LORD\CakeLORD\webroot\img\Unknown.png" />
  <path
     style="fill:#8e99a2;fill-opacity:1;stroke-width:1.57703"
     sodipodi:nodetypes="csscscscccccc"
     inkscape:connector-curvature="0"
     id="path2"
     d="m 33.955755,12.082255 h 6.308097 c 5.219957,0 7.885127,4.242195 7.885127,9.462146 V 38.35548 c -3.343291,-1.624335 -6.197705,-2.61786 -11.039176,-2.61786 -4.841465,0 -7.695879,0.993525 -11.03917,2.61786 V 21.544401 c 0,-5.219951 2.66517,-9.462146 7.885122,-9.462146 M 22.916584,43.622741 v -1.088147 c 4.194885,-2.66517 16.132959,-8.626322 28.386444,-0.09462 v 1.182768 z" />
  <ellipse
     style="fill:none;fill-opacity:1;stroke:#663300;stroke-width:4.44679;stroke-miterlimit:4;stroke-dasharray:none;stroke-opacity:1"
     id="path1418"
     cx="-37.245457"
     cy="28.695183"
     rx="24.289959"
     ry="24.213573"
     transform="scale(-1,1)" />
  <ellipse
     style="fill:#663300;fill-opacity:1;stroke:#000000;stroke-width:0;stroke-miterlimit:4;stroke-dasharray:none;stroke-opacity:1"
     id="path1424"
     cx="-8.4441299"
     cy="56.797523"
     rx="6.7624745"
     ry="6.6929011"
     transform="scale(-1,1)" />
  <path
     sodipodi:nodetypes="ccccccccccccc"
     style="fill:#ffffff;fill-opacity:1;fill-rule:nonzero;stroke-width:1.27615"
     inkscape:connector-curvature="0"
     d="M 42.2144,21.928892 H 38.385953 V 32.138084 H 35.833654 V 21.928892 h -3.828449 v -2.5523 h 3.828449 v -3.828447 h 2.552299 v 3.828447 H 42.2144 Z"
     id="path2-2" />
  <g
     id="g1431"
     style="opacity:1;fill:#663300;fill-opacity:1;stroke:#000000;stroke-opacity:1"
     transform="matrix(-1.5454878,0,0,1.5977998,66.878575,-3.2897659)">
    <path
       style="color:#000000;font-style:normal;font-variant:normal;font-weight:normal;font-stretch:normal;font-size:medium;line-height:normal;font-family:sans-serif;font-variant-ligatures:normal;font-variant-position:normal;font-variant-caps:normal;font-variant-numeric:normal;font-variant-alternates:normal;font-variant-east-asian:normal;font-feature-settings:normal;font-variation-settings:normal;text-indent:0;text-align:start;text-decoration:none;text-decoration-line:none;text-decoration-style:solid;text-decoration-color:#000000;letter-spacing:normal;word-spacing:normal;text-transform:none;writing-mode:lr-tb;direction:ltr;text-orientation:mixed;dominant-baseline:auto;baseline-shift:baseline;text-anchor:start;white-space:normal;shape-padding:0;shape-margin:0;inline-size:0;clip-rule:nonzero;display:inline;overflow:visible;visibility:visible;isolation:auto;mix-blend-mode:normal;color-interpolation:sRGB;color-interpolation-filters:linearRGB;solid-color:#000000;solid-opacity:1;vector-effect:none;fill:#663300;fill-opacity:1;fill-rule:nonzero;stroke:#000000;stroke-width:0;stroke-linecap:butt;stroke-linejoin:miter;stroke-miterlimit:4;stroke-dasharray:none;stroke-dashoffset:0;stroke-opacity:1;color-rendering:auto;image-rendering:auto;shape-rendering:auto;text-rendering:auto;enable-background:accumulate;stop-color:#000000;stop-opacity:1"
       d="m 40.479676,34.260632 -6.064592,5.988233 -5.327395,-7.336909 3.684526,-3.717524 z"
       id="path1433"
       inkscape:connector-curvature="0"
       sodipodi:nodetypes="ccccc" />
  </g>
</svg>
