<?xml version="1.0" encoding="UTF-8" standalone="no"?>
<svg
   xmlns:dc="http://purl.org/dc/elements/1.1/"
   xmlns:cc="http://creativecommons.org/ns#"
   xmlns:rdf="http://www.w3.org/1999/02/22-rdf-syntax-ns#"
   xmlns:svg="http://www.w3.org/2000/svg"
   xmlns="http://www.w3.org/2000/svg"
   width="64px"
   height="64px"
   viewBox="0 0 64 64"
   version="1.1"
   id="SVGRoot">
  <defs
     id="defs830" />
  <metadata
     id="metadata833">
    <rdf:RDF>
      <cc:Work
         rdf:about="">
        <dc:format>image/svg+xml</dc:format>
        <dc:type
           rdf:resource="http://purl.org/dc/dcmitype/StillImage" />
        <dc:title></dc:title>
      </cc:Work>
    </rdf:RDF>
  </metadata>
  <path
     id="path2"
     d="m 46.904413,27.987509 -2.81224,-4.870762 -2.812241,-4.870761 c -0.300994,-0.521922 0.146175,-1.457677 0.677607,-1.173827 l 3.744461,2 C 45.824596,11.005274 39.832917,6.6326581 31.618,6.753 24.138006,6.8625759 18.388295,11.862592 17.420456,20.473785 c -0.01187,0.3262 0.128745,6.633029 -0.197456,6.633029 h -5.611 c -0.33658,0 -0.113855,-6.322646 -0.103476,-6.658731 0.325212,-10.7562038 9.176605,-19.4059479 20.009913,-19.4059479 10.375145,0 19.368788,6.1581767 19.921442,18.0305189 l 3.766131,-2 c 0.532105,-0.282574 0.979094,0.6524 0.677606,1.173825 l -2.812241,4.870761 -2.81224,4.870764 c -1.789175,1.134634 -1.764264,1.10254 -3.354722,-4.95e-4 z"
     style="fill:#66330f;fill-opacity:0.941176;stroke-width:0.494243" />
  <path
     style="fill:#663300;fill-opacity:1;stroke-width:1.35366"
     d="m 14.246048,30.935021 c 6.903644,0 12.453632,5.549988 12.453632,12.453632 0,5.956086 -8.798762,15.025579 -12.453632,18.815815 C 10.320446,58.143501 1.7924148,49.209373 1.7924148,43.388653 1.6570492,36.485009 7.3424032,30.935021 14.246048,30.935021 Z m 0,17.638861 c 2.841766,0 5.455944,-2.613966 5.455944,-5.45596 0,-2.841994 -2.546153,-5.456041 -5.455944,-5.456041 -2.909792,0 -5.4560562,2.614275 -5.4560562,5.456041 0,2.841766 2.6142892,5.45596 5.4560562,5.45596 z"
     id="path10" />
  <path
     style="fill:#663300;fill-opacity:1;stroke-width:1.35366"
     d="m 48.762447,30.825445 c 6.903644,0 12.453632,5.549988 12.453632,12.453632 0,5.956086 -8.798762,15.025579 -12.453632,18.815815 C 44.836845,58.033925 36.308814,49.099797 36.308814,43.279077 36.173449,36.375433 41.858803,30.825445 48.762447,30.825445 Z m 0,17.638861 c 2.841766,0 5.455944,-2.613966 5.455944,-5.45596 0,-2.841994 -2.546153,-5.456041 -5.455944,-5.456041 -2.909792,0 -5.456056,2.614275 -5.456056,5.456041 0,2.841766 2.61429,5.45596 5.456056,5.45596 z"
     id="path10-0" />
</svg>
