<?xml version="1.0" encoding="UTF-8" standalone="no"?>
<svg
   xmlns:dc="http://purl.org/dc/elements/1.1/"
   xmlns:cc="http://creativecommons.org/ns#"
   xmlns:rdf="http://www.w3.org/1999/02/22-rdf-syntax-ns#"
   xmlns:svg="http://www.w3.org/2000/svg"
   xmlns="http://www.w3.org/2000/svg"
   xmlns:sodipodi="http://sodipodi.sourceforge.net/DTD/sodipodi-0.dtd"
   xmlns:inkscape="http://www.inkscape.org/namespaces/inkscape"
   inkscape:version="1.0beta1 (fe3e306, 2019-09-17)"
   sodipodi:docname="logo-github.svg"
   width="128px"
   height="128px"
   viewBox="0 0 128 128"
   version="1.1"
   id="SVGRoot">
  <defs
     id="defs1535" />
  <sodipodi:namedview
     inkscape:grid-bbox="true"
     inkscape:window-maximized="1"
     inkscape:window-y="-9"
     inkscape:window-x="-9"
     inkscape:window-height="1001"
     inkscape:window-width="1920"
     showgrid="false"
     inkscape:document-rotation="0"
     inkscape:current-layer="layer1"
     inkscape:document-units="px"
     inkscape:cy="70.243454"
     inkscape:cx="43.613074"
     inkscape:zoom="3.959798"
     inkscape:pageshadow="2"
     inkscape:pageopacity="0.0"
     borderopacity="1.0"
     bordercolor="#666666"
     pagecolor="#ffffff"
     id="base" />
  <metadata
     id="metadata1538">
    <rdf:RDF>
      <cc:Work
         rdf:about="">
        <dc:format>image/svg+xml</dc:format>
        <dc:type
           rdf:resource="http://purl.org/dc/dcmitype/StillImage" />
      </cc:Work>
    </rdf:RDF>
  </metadata>
  <g
     id="layer1"
     inkscape:groupmode="layer"
     inkscape:label="Calque 1">
    <path
       inkscape:connector-curvature="0"
       id="path16"
       style="fill:#ffffff;fill-opacity:1;fill-rule:nonzero;stroke:none;stroke-width:0.0282698"
       d="m 32.271959,111.46078 h -8.55642 c -0.220787,0 -0.399736,0.17925 -0.399736,0.40002 v 4.18337 c 0,0.22079 0.178949,0.40059 0.399736,0.40059 h 3.337815 v 5.1974 c 0,0 -0.749432,0.25556 -2.821609,0.25556 -2.44449,0 -5.859483,-0.89333 -5.859483,-8.40263 0,-7.51129 3.556059,-8.49933 6.89444,-8.49933 2.890022,0 4.134742,0.50859 4.927144,0.75398 0.249057,0.0763 0.479174,-0.17161 0.479174,-0.39268 l 0.954389,-4.04174 c 0,-0.10374 -0.03505,-0.22785 -0.152658,-0.31237 -0.32171,-0.22955 -2.284484,-1.327835 -7.243006,-1.327835 -5.711914,0 -11.571396,2.430075 -11.571396,14.112845 0,11.68277 6.708425,13.42366 12.361538,13.42366 4.680629,0 7.52005,-2.00011 7.52005,-2.00011 0.117036,-0.0648 0.129757,-0.22842 0.129757,-0.30306 V 111.8608 c 0,-0.22077 -0.178948,-0.40002 -0.399735,-0.40002" />
    <path
       inkscape:connector-curvature="0"
       id="path18"
       style="fill:#ffffff;fill-opacity:1;fill-rule:nonzero;stroke:none;stroke-width:0.0282698"
       d="m 76.36833,101.07503 c 0,-0.22276 -0.176403,-0.40228 -0.397473,-0.40228 h -4.81774 c -0.219939,0 -0.39889,0.17952 -0.39889,0.40228 0,8.6e-4 0.0016,9.31038 0.0016,9.31038 h -7.51003 v -9.31038 c 0,-0.22276 -0.176971,-0.40228 -0.397475,-0.40228 h -4.817456 c -0.219092,0 -0.39804,0.17952 -0.39804,0.40228 v 25.21011 c 0,0.22251 0.178948,0.40319 0.39804,0.40319 h 4.817456 c 0.220504,0 0.397475,-0.18068 0.397475,-0.40319 v -10.78346 h 7.509872 c 0,0 -0.01329,10.78266 -0.01329,10.78346 0,0.22251 0.178663,0.40319 0.399167,0.40319 h 4.82905 c 0.220788,0 0.397191,-0.18068 0.397757,-0.40319 v -25.21011" />
    <path
       inkscape:connector-curvature="0"
       id="path20"
       style="fill:#ffffff;fill-opacity:1;fill-rule:nonzero;stroke:none;stroke-width:0.0282698"
       d="m 41.363246,104.38287 c 0,-1.73463 -1.390592,-3.13652 -3.106569,-3.13652 -1.714281,0 -3.106286,1.40189 -3.106286,3.13652 0,1.73324 1.392005,3.13908 3.106286,3.13908 1.715977,0 3.106569,-1.40584 3.106569,-3.13908" />
    <path
       inkscape:connector-curvature="0"
       id="path22"
       style="fill:#ffffff;fill-opacity:1;fill-rule:nonzero;stroke:none;stroke-width:0.0282698"
       d="m 41.018919,120.96708 c 0,-0.64597 0,-11.63698 0,-11.63698 0,-0.22107 -0.178382,-0.40171 -0.398604,-0.40171 h -4.802756 c -0.220223,0 -0.417263,0.22728 -0.417263,0.44807 0,0 0,14.00316 0,16.67268 0,0.48986 0.305314,0.63574 0.700243,0.63574 0,0 2.050127,0 4.326975,0 0.474934,0 0.591405,-0.23324 0.591405,-0.64368 0,-0.89359 0,-4.39452 0,-5.07412" />
    <path
       inkscape:connector-curvature="0"
       id="path24"
       style="fill:#ffffff;fill-opacity:1;fill-rule:nonzero;stroke:none;stroke-width:0.0282698"
       d="m 94.677833,108.96627 h -4.780707 c -0.219092,0 -0.397758,0.18093 -0.397758,0.40341 v 12.36097 c 0,0 -1.214754,0.8888 -2.938645,0.8888 -1.723612,0 -2.181017,-0.78223 -2.181017,-2.46994 0,-1.69025 0,-10.77983 0,-10.77983 0,-0.22248 -0.178097,-0.40341 -0.397756,-0.40341 h -4.852227 c -0.218809,0 -0.398319,0.18093 -0.398319,0.40341 0,0 0,6.58262 0,11.5957 0,5.01397 2.794187,6.24051 6.63803,6.24051 3.153779,0 5.696362,-1.7425 5.696362,-1.7425 0,0 0.120997,0.91848 0.175842,1.02705 0.05457,0.10851 0.197322,0.21851 0.351676,0.21851 l 3.086784,-0.0139 c 0.218809,0 0.398326,-0.1809 0.398326,-0.4025 l -0.0017,-16.92288 c 0,-0.22248 -0.178388,-0.40341 -0.398893,-0.40341" />
    <path
       inkscape:connector-curvature="0"
       id="path26"
       style="fill:#ffffff;fill-opacity:1;fill-rule:nonzero;stroke:none;stroke-width:0.0282698"
       d="m 105.8591,122.60419 c -1.65831,-0.0503 -2.78315,-0.80315 -2.78315,-0.80315 v -7.9834 c 0,0 1.10958,-0.68017 2.47106,-0.80172 1.72163,-0.15436 3.3805,0.3658 3.3805,4.47284 0,4.33065 -0.7486,5.18525 -3.06841,5.11543 z m 1.8856,-14.20417 c -2.71531,0 -4.56218,1.21136 -4.56218,1.21136 v -8.53635 c 0,-0.22276 -0.17809,-0.40228 -0.39747,-0.40228 h -4.831594 c -0.219649,0 -0.398037,0.17952 -0.398037,0.40228 v 25.21011 c 0,0.22251 0.178388,0.40319 0.39861,0.40319 3.85e-4,0 3.351101,0 3.352221,0 0.15097,0 0.26517,-0.0778 0.3497,-0.21369 0.0833,-0.13573 0.20355,-1.16278 0.20355,-1.16278 0,0 1.97548,1.87229 5.7153,1.87229 4.39087,0 6.90886,-2.22706 6.90886,-9.99788 0,-7.7708 -4.02166,-8.78625 -6.73896,-8.78625" />
    <path
       inkscape:connector-curvature="0"
       id="path28"
       style="fill:#ffffff;fill-opacity:1;fill-rule:nonzero;stroke:none;stroke-width:0.0282698"
       d="m 54.865469,108.92612 h -3.614011 c 0,0 -0.0054,-4.77307 -0.0054,-4.77421 0,-0.18092 -0.09329,-0.2711 -0.302204,-0.2711 h -4.9246 c -0.19167,0 -0.294289,0.0842 -0.294289,0.26827 v 4.93367 c 0,0 -2.467953,0.59592 -2.635028,0.64369 -0.165944,0.0484 -0.288352,0.20156 -0.288352,0.38447 v 3.10035 c 0,0.22304 0.1781,0.40285 0.398322,0.40285 h 2.525058 c 0,0 0,3.24253 0,7.45869 0,5.53999 3.885967,6.08428 6.507991,6.08428 1.198357,0 2.631636,-0.38508 2.868253,-0.4722 0.143048,-0.0528 0.226162,-0.20098 0.226162,-0.36185 l 0.0042,-3.41042 c 0,-0.22221 -0.187994,-0.40257 -0.399451,-0.40257 -0.210893,0 -0.749434,0.0859 -1.304089,0.0859 -1.775341,0 -2.376641,-0.82548 -2.376641,-1.89379 0,-1.06776 -2.82e-4,-7.08809 -2.82e-4,-7.08809 h 3.614296 c 0.22022,0 0.398602,-0.1798 0.398602,-0.40285 v -3.88341 c 0,-0.22248 -0.178382,-0.40173 -0.398602,-0.40173" />
    <path
       d="m 63.996037,0.98984745 c -23.759999,0 -43.029002,19.26636055 -43.029002,43.03428255 0,19.012754 12.329098,35.140705 29.429217,40.831059 2.153035,0.396264 2.937637,-0.932543 2.937637,-2.073785 0,-1.02236 -0.037,-3.727522 -0.05811,-7.317675 C 41.30596,78.063221 38.780436,69.694123 38.780436,69.694123 36.822892,64.722329 34.00149,63.398808 34.00149,63.398808 c -3.907163,-2.66818 0.29588,-2.615346 0.29588,-2.615346 4.319279,0.303804 6.591191,4.435519 6.591191,4.435519 3.838479,6.575341 10.073035,4.675915 12.524592,3.5743 0.390978,-2.779131 1.503159,-4.675915 2.731579,-5.751112 -9.555249,-1.085765 -19.601867,-4.778946 -19.601867,-21.268818 0,-4.69705 1.677518,-8.540813 4.430233,-11.547135 -0.443815,-1.088408 -1.92056,-5.465805 0.422683,-11.388633 0,0 3.611285,-1.15709 11.832446,4.41174 3.431648,-0.956316 7.114263,-1.431832 10.773102,-1.450326 3.656197,0.01842 7.336169,0.49401 10.773101,1.450326 8.215871,-5.56883 11.821874,-4.41174 11.821874,-4.41174 2.34852,5.922828 0.871781,10.300225 0.4306,11.388633 2.757999,3.006322 4.422309,6.850085 4.422309,11.547135 0,16.532138 -10.062454,20.169844 -19.646765,21.234476 1.542787,1.328804 2.919146,3.954715 2.919146,7.96755 0,5.753757 -0.05284,10.395327 -0.05284,11.806027 0,1.151811 0.776678,2.491184 2.958771,2.071143 17.086905,-5.703562 29.405445,-21.820945 29.405445,-40.828416 0,-23.767922 -19.269012,-43.03428355 -43.036933,-43.03428355"
       style="fill:#ffffff;fill-opacity:1;fill-rule:evenodd;stroke:none;stroke-width:0.264175"
       id="path106"
       inkscape:connector-curvature="0" />
  </g>
</svg>
