<?xml version="1.0" encoding="UTF-8" standalone="no"?>
<svg
   xmlns:dc="http://purl.org/dc/elements/1.1/"
   xmlns:cc="http://creativecommons.org/ns#"
   xmlns:rdf="http://www.w3.org/1999/02/22-rdf-syntax-ns#"
   xmlns:svg="http://www.w3.org/2000/svg"
   xmlns="http://www.w3.org/2000/svg"
   width="120px"
   height="120px"
   viewBox="0 0 120 120"
   version="1.1"
   id="SVGRoot">
  <defs
     id="defs850" />
  <metadata
     id="metadata853">
    <rdf:RDF>
      <cc:Work
         rdf:about="">
        <dc:format>image/svg+xml</dc:format>
        <dc:type
           rdf:resource="http://purl.org/dc/dcmitype/StillImage" />
        <dc:title></dc:title>
      </cc:Work>
    </rdf:RDF>
  </metadata>
  <g
     id="layer1">
    <path
       id="path14-2-2"
       d="m 58.782877,112.85972 c -0.627774,-0.32946 -1.668793,-1.06291 -2.316672,-1.62954 C 49.533344,105.1571 26.862142,95.108942 14.668657,92.704926 12.755109,92.327525 10.195108,91.767522 8.9824055,91.460265 L 6.7772196,90.902049 V 48.85057 6.7990225 h 6.1098824 c 30.644467,0 64.674336,32.4947455 60.981481,58.2303045 C 72.189696,76.730851 61.154975,81.861114 50.164573,76.050195 39.476239,70.398923 35.267866,58.319586 37.81504,40.603219 c 0.286828,-1.99506 0.367062,-3.623084 0.180524,-3.618155 -2.973614,0.0766 -7.682843,12.203209 -8.126724,20.925969 -1.06107,20.867562 12.595046,34.196416 30.274428,34.196416 23.751714,0 35.359488,-28.356567 23.689348,-54.297813 C 78.824511,26.67741 74.468113,19.083801 79.358059,13.229109 83.799504,7.9115972 94.472788,6.7874941 107.10777,6.7955445 l 6.11486,0.00374 -0.022,42.5742345 -0.0223,41.745577 -6.11698,1.342838 c -14.650594,3.050564 -29.902513,9.538576 -41.456589,17.634956 -4.630762,3.24507 -5.335436,3.53149 -6.797839,2.76327 z"
       style="fill:#663300;fill-opacity:1;fill-rule:nonzero;stroke:#663300;stroke-width:0.584499;stroke-miterlimit:4;stroke-dasharray:none;stroke-opacity:1;image-rendering:auto" />
  </g>
</svg>
