<?xml version="1.0" encoding="UTF-8" standalone="no"?>
<svg
   xmlns:dc="http://purl.org/dc/elements/1.1/"
   xmlns:cc="http://creativecommons.org/ns#"
   xmlns:rdf="http://www.w3.org/1999/02/22-rdf-syntax-ns#"
   xmlns:svg="http://www.w3.org/2000/svg"
   xmlns="http://www.w3.org/2000/svg"
   id="svg981"
   version="1.1"
   viewBox="0 0 210 297"
   height="297mm"
   width="210mm">
  <defs
     id="defs975" />
  <metadata
     id="metadata978">
    <rdf:RDF>
      <cc:Work
         rdf:about="">
        <dc:format>image/svg+xml</dc:format>
        <dc:type
           rdf:resource="http://purl.org/dc/dcmitype/StillImage" />
        <dc:title></dc:title>
      </cc:Work>
    </rdf:RDF>
  </metadata>
  <g
     id="layer1">
    <path
       id="path576"
       d="M 101.95645,253.18529 C 100.73683,252.54467 98.7145,251.11885 97.455756,250.0173 83.987412,238.21037 39.944314,218.67532 16.256021,214.00155 12.538618,213.26777 7.5653264,212.17908 5.2093826,211.58174 L 0.92539799,210.49649 V 128.74231 46.988094 H 12.795024 c 59.532833,0 125.642386,63.174466 118.468226,113.208176 -3.26146,22.74938 -24.69857,32.72337 -46.049558,21.42607 -20.764148,-10.98687 -28.939668,-34.47074 -23.991329,-68.91402 0.557202,-3.87865 0.713095,-7.04375 0.35026,-7.0342 -5.776805,0.14811 -14.925412,23.72483 -15.787692,40.6831 -2.061313,40.56954 24.468247,66.48275 58.813779,66.48275 46.1423,0 68.69265,-55.12919 46.02115,-105.56281 -9.72924,-21.642688 -18.19237,-36.405732 -8.69266,-47.788127 8.62829,-10.337904 37.55443,-13.971888 62.06715,-12.694747 l 3.72132,0.194692 -0.27294,82.079792 -0.27295,82.07975 -11.42389,2.38046 c -28.46157,5.93079 -58.09139,18.54445 -80.53731,34.28496 -8.99621,6.30889 -10.36511,6.86573 -13.20616,5.37219 z"
       style="fill:#ffffff;fill-opacity:1;fill-rule:nonzero;stroke:#ffffff;stroke-width:1.13529;stroke-opacity:1;image-rendering:auto" />
  </g>
</svg>
