<?xml version="1.0" encoding="UTF-8" standalone="no"?>
<svg
   xmlns:dc="http://purl.org/dc/elements/1.1/"
   xmlns:cc="http://creativecommons.org/ns#"
   xmlns:rdf="http://www.w3.org/1999/02/22-rdf-syntax-ns#"
   xmlns:svg="http://www.w3.org/2000/svg"
   xmlns="http://www.w3.org/2000/svg"
   xmlns:sodipodi="http://sodipodi.sourceforge.net/DTD/sodipodi-0.dtd"
   xmlns:inkscape="http://www.inkscape.org/namespaces/inkscape"
   inkscape:version="1.0beta1 (fe3e306, 2019-09-17)"
   sodipodi:docname="lord.icon.contour.svg"
   id="SVGRoot"
   version="1.1"
   viewBox="0 0 64 64"
   height="64px"
   width="64px">
  <sodipodi:namedview
     inkscape:current-layer="SVGRoot"
     inkscape:window-maximized="0"
     inkscape:window-y="0"
     inkscape:window-x="0"
     inkscape:cy="24.707516"
     inkscape:cx="13.716594"
     inkscape:zoom="6.453125"
     showgrid="false"
     id="namedview7"
     inkscape:window-height="805"
     inkscape:window-width="1435"
     inkscape:pageshadow="2"
     inkscape:pageopacity="0"
     guidetolerance="10"
     gridtolerance="10"
     objecttolerance="10"
     borderopacity="1"
     inkscape:document-rotation="0"
     bordercolor="#666666"
     pagecolor="#ffffff" />
  <defs
     id="defs1994" />
  <metadata
     id="metadata1997">
    <rdf:RDF>
      <cc:Work
         rdf:about="">
        <dc:format>image/svg+xml</dc:format>
        <dc:type
           rdf:resource="http://purl.org/dc/dcmitype/StillImage" />
        <dc:title></dc:title>
      </cc:Work>
    </rdf:RDF>
  </metadata>
  <g
     style="fill:#ffffff;fill-opacity:1;stroke:none;stroke-opacity:1"
     id="layer1">
    <path
       inkscape:connector-curvature="0"
       id="path14-2-2"
       d="M 31.281363,63.210608 C 30.910699,63.016086 30.296032,62.583011 29.913498,62.248463 25.82005,58.662661 12.434023,52.729811 5.2344767,51.310377 4.1046392,51.087545 2.5931074,50.756899 1.8770749,50.575485 L 0.57504186,50.245884 V 25.416926 0.587934 H 4.1825708 c 18.0937802,0 38.1864352,19.186259 36.0060282,34.381612 -0.991292,6.909072 -7.506648,9.93819 -13.995849,6.507181 -6.310835,-3.336748 -8.795637,-10.468897 -7.291678,-20.929381 0.169355,-1.177965 0.216728,-2.139221 0.106589,-2.13631 -1.755747,0.04522 -4.536274,7.205284 -4.79836,12.355568 -0.626499,12.321087 7.436644,20.191 17.875289,20.191 14.024011,0 20.877728,-16.742907 13.987184,-32.059706 C 43.114783,12.324966 40.542585,7.8413815 43.429811,4.3845254 46.052224,1.2448443 52.354175,0.58112559 59.814399,0.58587978 l 3.610469,0.002296 -0.01311,25.13760922 -0.01311,24.64821 -3.611736,0.79286 c -8.650324,1.801184 -17.655695,5.631982 -24.477703,10.412424 -2.734196,1.916032 -3.150269,2.085138 -4.013731,1.631558 z"
       style="fill:#ffffff;fill-opacity:1;fill-rule:nonzero;stroke:none;stroke-width:0.345021;stroke-miterlimit:4;stroke-dasharray:none;stroke-opacity:1;image-rendering:auto" />
  </g>
</svg>
