<?xml version="1.0" encoding="UTF-8" standalone="no"?>
<svg
   xmlns:dc="http://purl.org/dc/elements/1.1/"
   xmlns:cc="http://creativecommons.org/ns#"
   xmlns:rdf="http://www.w3.org/1999/02/22-rdf-syntax-ns#"
   xmlns:svg="http://www.w3.org/2000/svg"
   xmlns="http://www.w3.org/2000/svg"
   xmlns:sodipodi="http://sodipodi.sourceforge.net/DTD/sodipodi-0.dtd"
   xmlns:inkscape="http://www.inkscape.org/namespaces/inkscape"
   sodipodi:docname="lord.shield.clean.svg"
   inkscape:version="1.0beta1 (fe3e306, 2019-09-17)"
   width="120px"
   height="150px"
   viewBox="0 0 120 150"
   version="1.1"
   id="SVGRoot">
  <defs
     id="defs2252">
    <filter
       height="1.0110323"
       y="-0.0055161685"
       width="1.0053437"
       x="-0.0026718658"
       id="filter2879"
       style="color-interpolation-filters:sRGB"
       inkscape:collect="always">
      <feGaussianBlur
         id="feGaussianBlur2881"
         stdDeviation="0.10488075"
         inkscape:collect="always" />
    </filter>
  </defs>
  <sodipodi:namedview
     inkscape:window-maximized="1"
     inkscape:window-y="-9"
     inkscape:window-x="-9"
     inkscape:window-height="1001"
     inkscape:window-width="1920"
     showgrid="true"
     inkscape:document-rotation="0"
     inkscape:current-layer="layer1"
     inkscape:document-units="px"
     inkscape:cy="64.919908"
     inkscape:cx="89.553877"
     inkscape:zoom="3.959798"
     inkscape:pageshadow="0"
     inkscape:pageopacity="1.0"
     borderopacity="1.0"
     bordercolor="#666666"
     pagecolor="#ffffff"
     id="base">
    <inkscape:grid
       id="grid2826"
       type="xygrid" />
  </sodipodi:namedview>
  <metadata
     id="metadata2255">
    <rdf:RDF>
      <cc:Work
         rdf:about="">
        <dc:format>image/svg+xml</dc:format>
        <dc:type
           rdf:resource="http://purl.org/dc/dcmitype/StillImage" />
        <dc:title></dc:title>
      </cc:Work>
    </rdf:RDF>
  </metadata>
  <g
     id="layer1"
     inkscape:groupmode="layer"
     inkscape:label="Calque 1">
    <rect
       ry="7"
       y="2"
       x="2.0136986"
       height="145.94609"
       width="115.9726"
       id="rect547"
       style="fill:#ffffff;fill-opacity:1;fill-rule:nonzero;stroke:#663300;stroke-width:3.89;stroke-miterlimit:4;stroke-dasharray:none;stroke-opacity:1"
       inkscape:export-xdpi="96.110123"
       inkscape:export-ydpi="96.110123" />
    <path
       inkscape:connector-curvature="0"
       id="path14-2-2"
       d="M 58.980722,99.99964 C 58.476582,99.73507 57.640583,99.14606 57.120298,98.69103 51.552803,93.813983 33.346495,85.744725 23.55441,83.814159 22.017718,83.511084 19.961887,83.061368 18.988015,82.814623 l -1.770894,-0.44828 V 48.596533 14.826669 h 4.906595 c 24.609309,0 51.937294,26.09519 48.971714,46.762357 -1.348244,9.397012 -10.209774,13.516914 -19.035713,8.850405 -8.58336,-4.538304 -11.962932,-14.238722 -9.917401,-28.466006 0.23034,-1.60215 0.294772,-2.909549 0.144971,-2.905591 -2.387986,0.06151 -6.169774,9.799894 -6.526237,16.804784 -0.852102,16.757879 10.114563,27.461732 24.312146,27.461732 19.074022,0 28.395747,-22.77199 19.023939,-43.604336 -4.021803,-8.939832 -7.520246,-15.037946 -3.593332,-19.739608 3.566741,-4.270274 12.138016,-5.172995 22.28465,-5.16653 l 4.910587,0.003 -0.0177,34.189612 -0.0179,33.524152 -4.912304,1.078378 C 85.985853,86.0688 73.737666,91.279056 64.459063,97.780934 60.74029,100.38691 60.174395,100.61692 59,100 Z"
       style="fill:#663300;fill-opacity:1;fill-rule:nonzero;stroke:#663300;stroke-width:0.469387;stroke-miterlimit:4;stroke-dasharray:none;stroke-opacity:1;image-rendering:auto"
       inkscape:export-xdpi="96.110123"
       inkscape:export-ydpi="96.110123"
       sodipodi:nodetypes="cccccccssccccssssccccccc" />
    <text
       inkscape:export-ydpi="96.110123"
       inkscape:export-xdpi="96.110123"
       transform="matrix(1.0478166,0,0,1.0539887,3.486903,-17.533414)"
       id="text2869"
       y="143.21428"
       x="9.2857141"
       style="font-style:normal;font-variant:normal;font-weight:normal;font-stretch:normal;font-size:64px;line-height:1.25;font-family:'Sassoon Infant Std';-inkscape-font-specification:'Sassoon Infant Std Normal';font-variant-ligatures:normal;font-variant-caps:normal;font-variant-numeric:normal;font-variant-east-asian:normal;letter-spacing:0px;word-spacing:0px;fill:#663300;fill-opacity:1;filter:url(#filter2879)"
       xml:space="preserve"><tspan
         style="font-style:normal;font-variant:normal;font-weight:500;font-stretch:normal;font-size:48px;font-family:'Sassoon Sans Std';-inkscape-font-specification:'Sassoon Sans Std Medium';font-variant-ligatures:normal;font-variant-caps:normal;font-variant-numeric:normal;font-variant-east-asian:normal"
         y="143.21428"
         x="9.2857141"
         id="tspan2867"
         sodipodi:role="line" /></text>
    <path
       d="m 26.329683,132.09045 c -1.313102,0.81082 -1.969653,1.10039 -2.68589,1.10039 -1.671221,0 -2.447145,-1.5058 -2.447145,-5.2703 V 95.429944 h -4.178051 v 32.548506 c 0,6.89194 2.447144,8.45566 5.431467,8.45566 1.611534,0 2.327771,-0.23166 3.879619,-1.27415 z"
       style="font-style:normal;font-variant:normal;font-weight:normal;font-stretch:normal;font-size:58.7943px;line-height:1.25;font-family:'Sassoon Infant Std';-inkscape-font-specification:'Sassoon Infant Std Normal';font-variant-ligatures:normal;font-variant-caps:normal;font-variant-numeric:normal;font-variant-east-asian:normal;letter-spacing:0px;word-spacing:0px;opacity:1;fill:#663300;fill-opacity:1;stroke-width:0.38;stop-opacity:1;stroke:#663300;stroke-opacity:1;stroke-miterlimit:4;stroke-dasharray:none"
       id="path2960"
       inkscape:connector-curvature="0" />
    <path
       d="m 53.0431,122.76605 c 0,-8.16608 -4.416798,-13.14681 -11.638858,-13.14681 -7.341433,0 -11.817918,5.32822 -11.817918,13.8418 0,8.28191 4.357111,13.26265 11.638859,13.26265 7.281747,0 11.817917,-5.32823 11.817917,-13.95764 z m -4.35711,-0.11582 c 0,6.42861 -2.864951,10.42478 -7.520493,10.42478 -4.655544,0 -7.222062,-3.30119 -7.222062,-9.32439 0,-6.7182 2.685891,-10.4827 7.460807,-10.4827 4.655543,0 7.281748,3.41701 7.281748,9.38231 z"
       style="font-style:normal;font-variant:normal;font-weight:normal;font-stretch:normal;font-size:58.7943px;line-height:1.25;font-family:'Sassoon Infant Std';-inkscape-font-specification:'Sassoon Infant Std Normal';font-variant-ligatures:normal;font-variant-caps:normal;font-variant-numeric:normal;font-variant-east-asian:normal;letter-spacing:0px;word-spacing:0px;opacity:1;fill:#663300;fill-opacity:1;stroke-width:0.38;stop-opacity:1;stroke:#663300;stroke-opacity:1;stroke-miterlimit:4;stroke-dasharray:none"
       id="path2962"
       inkscape:connector-curvature="0" />
    <path
       d="m 64.5029,125.89349 c 0,-7.18152 3.163382,-11.9885 7.938298,-11.9885 0.775924,0 1.253416,0.17374 2.327772,0.40541 l 0.179059,-3.64869 c -1.193729,-0.57915 -1.730907,-0.69498 -2.984323,-0.69498 -3.581187,0 -5.789585,1.73746 -7.699551,6.08112 -0.05968,-2.95368 -0.17906,-3.76449 -0.716238,-5.61779 h -3.998992 c 0.775924,2.95369 0.954983,4.80698 0.954983,8.39774 v 17.08507 H 64.5029 Z"
       style="font-style:normal;font-variant:normal;font-weight:normal;font-stretch:normal;font-size:58.7943px;line-height:1.25;font-family:'Sassoon Infant Std';-inkscape-font-specification:'Sassoon Infant Std Normal';font-variant-ligatures:normal;font-variant-caps:normal;font-variant-numeric:normal;font-variant-east-asian:normal;letter-spacing:0px;word-spacing:0px;opacity:1;fill:#663300;fill-opacity:1;stroke-width:0.38;stop-opacity:1;stroke:#663300;stroke-opacity:1;stroke-miterlimit:4;stroke-dasharray:none"
       id="path2964"
       inkscape:connector-curvature="0" />
    <path
       d="m 99.350459,135.91287 h 3.998991 c 0,0 -0.35812,-2.25871 -0.35812,-8.74524 V 95.429944 h -4.178048 v 15.289686 c -2.387458,-0.7529 -4.416799,-0.98456 -6.56551,-0.98456 -7.281747,0 -12.534155,6.08113 -12.534155,14.65261 0,7.35527 4.178052,12.16226 10.266069,12.16226 3.461815,0 7.40112,-1.62163 9.072341,-4.51741 z m -0.537177,-15.86885 c 0,9.44023 -3.998993,12.62558 -8.714222,12.62558 -3.461815,0 -5.789586,-3.12743 -5.789586,-7.93442 0,-6.77611 3.581187,-11.35143 8.833594,-11.35143 1.790594,0 3.939306,0.28957 5.670214,1.04247 z"
       style="font-style:normal;font-variant:normal;font-weight:normal;font-stretch:normal;font-size:58.7943px;line-height:1.25;font-family:'Sassoon Sans Std';-inkscape-font-specification:'Sassoon Sans Std Normal';font-variant-ligatures:normal;font-variant-caps:normal;font-variant-numeric:normal;font-variant-east-asian:normal;letter-spacing:0px;word-spacing:0px;opacity:1;fill:#663300;fill-opacity:1;stroke-width:0.38;stop-opacity:1;stroke:#663300;stroke-opacity:1;stroke-miterlimit:4;stroke-dasharray:none"
       id="path2966"
       inkscape:connector-curvature="0" />
  </g>
</svg>
