<?xml version="1.0" standalone="no"?>
<!DOCTYPE svg PUBLIC "-//W3C//DTD SVG 20010904//EN"
 "http://www.w3.org/TR/2001/REC-SVG-20010904/DTD/svg10.dtd">
<svg version="1.0" xmlns="http://www.w3.org/2000/svg"
 width="700.000000pt" height="700.000000pt" viewBox="0 0 700.000000 700.000000"
 preserveAspectRatio="xMidYMid meet">
<metadata>
Created by potrace 1.11, written by Peter Selinger 2001-2013
</metadata>
<g transform="translate(0.000000,700.000000) scale(0.100000,-0.100000)"
fill="#000000" stroke="none">
<path d="M380 6569 c-1 -70 -1 -4837 0 -4865 0 -14 8 -24 23 -27 12 -3 72 -17
132 -31 100 -24 266 -61 323 -72 12 -2 32 -6 45 -8 271 -53 912 -280 1305
-462 41 -19 76 -34 79 -34 8 0 439 -215 518 -258 197 -108 340 -202 494 -324
89 -72 159 -108 205 -108 44 0 136 48 274 143 182 126 237 163 252 170 8 4 47
27 85 52 425 267 1052 547 1585 704 58 17 119 35 135 41 27 8 217 57 255 65
122 27 359 78 370 80 8 2 48 11 88 20 l72 17 0 2156 c0 1186 1 2263 1 2392 0
129 0 273 -1 319 l0 84 -432 -6 c-460 -7 -516 -9 -703 -33 -22 -3 -56 -7 -75
-9 -146 -16 -403 -83 -516 -136 -227 -106 -358 -257 -399 -460 -7 -33 -7 -177
0 -214 3 -16 8 -43 11 -60 18 -96 114 -360 190 -522 19 -41 34 -75 34 -77 0
-2 19 -44 41 -93 99 -211 170 -380 207 -490 38 -110 85 -276 96 -333 3 -14 10
-50 16 -80 6 -30 13 -77 16 -105 4 -27 8 -52 9 -55 10 -17 20 -200 20 -365 0
-174 -6 -280 -20 -360 -4 -27 -7 -45 -20 -127 -2 -15 -17 -79 -34 -141 -89
-342 -248 -635 -464 -855 -372 -380 -847 -522 -1431 -428 -77 12 -259 63 -311
86 -11 5 -53 23 -94 40 -41 18 -90 41 -110 53 -20 11 -53 29 -73 40 -137 74
-365 287 -480 448 -119 166 -231 416 -283 632 -67 279 -76 636 -24 907 29 153
36 183 75 315 81 273 190 500 285 593 57 55 61 47 45 -98 -3 -30 -8 -68 -11
-85 -9 -56 -14 -100 -21 -175 -3 -41 -8 -91 -10 -110 -5 -43 -5 -423 0 -465 2
-16 6 -55 10 -85 18 -159 40 -263 87 -410 56 -173 164 -373 266 -491 77 -90
209 -204 308 -266 436 -273 919 -258 1226 38 51 50 139 160 139 175 0 3 8 18
19 32 30 44 91 210 106 292 1 8 6 38 9 65 4 28 9 64 11 80 5 36 6 258 1 300
-13 116 -19 151 -36 235 -28 133 -27 129 -64 243 -57 173 -152 385 -244 542
-38 64 -177 280 -193 299 -5 6 -26 34 -47 61 -187 252 -503 575 -768 785 -180
144 -417 302 -609 408 -412 228 -880 391 -1255 437 -25 3 -61 8 -80 11 -19 3
-176 8 -347 11 l-313 5 0 -53z"/>
</g>
</svg>
