<?xml version="1.0" encoding="UTF-8" standalone="no"?>
<svg
   xmlns:dc="http://purl.org/dc/elements/1.1/"
   xmlns:cc="http://creativecommons.org/ns#"
   xmlns:rdf="http://www.w3.org/1999/02/22-rdf-syntax-ns#"
   xmlns:svg="http://www.w3.org/2000/svg"
   xmlns="http://www.w3.org/2000/svg"
   width="360px"
   height="240px"
   viewBox="0 0 360 240"
   version="1.1"
   id="SVGRoot">
  <defs
     id="defs844" />
  <metadata
     id="metadata847">
    <rdf:RDF>
      <cc:Work
         rdf:about="">
        <dc:format>image/svg+xml</dc:format>
        <dc:type
           rdf:resource="http://purl.org/dc/dcmitype/StillImage" />
        <dc:title></dc:title>
      </cc:Work>
    </rdf:RDF>
  </metadata>
  <g
     id="layer1">
    <g
       transform="matrix(0.52035104,0,0,0.51595629,10.581911,-5.9222981)"
       id="g10">
      <rect
         style="opacity:1;fill:#ffffff;fill-opacity:1;fill-rule:nonzero;stroke:#663300;stroke-width:27.7944;stroke-linecap:square;stroke-linejoin:round;stroke-miterlimit:4;stroke-dasharray:none;stroke-opacity:1;paint-order:markers stroke fill;stop-opacity:1"
         id="rect3110"
         width="587.17505"
         height="383.13498"
         x="31.996695"
         y="52.488644"
         ry="8.1693306"
         rx="8.1693296" />
      <path
         style="display:inline;opacity:1;fill:#663300;fill-opacity:1;stroke-width:4.9832;stop-opacity:1"
         d="M 456.75422,241.63529 436.9554,172.37495 c -3.29194,-15.16778 -16.56055,-26.01424 -31.95583,-26.12283 h -20.37153 v -20.31767 c -0.0282,-18.75502 -24.7493,-33.952061 -43.34594,-33.979631 h -31.10403 c -18.59656,0.0285 -43.31868,15.224611 -43.34604,33.979631 v 20.31767 h -20.61964 c -15.29599,0.01 -28.55419,10.68187 -31.95584,25.72247 l -19.84841,69.6607 c -16.97029,5.00414 -16.92068,30.92694 0,35.88124 l 19.84841,69.26033 c 3.30884,15.15742 16.56721,25.99559 31.95584,26.1228 h 158.78718 c 15.30446,-0.0344 28.55747,-10.72257 31.95583,-25.77241 l 19.84843,-69.61072 c 16.92068,-5.05408 16.87114,-30.92694 -0.0509,-35.88124 z M 331.65709,180.93238 v 35.78109 c 0,6.67271 -12.07238,6.67271 -12.07238,0 v -35.78109 c 0,-6.67274 12.07238,-6.67274 12.07238,0 z m -75.28411,0 c 0,-6.67274 12.06935,-6.67274 12.06935,0 v 35.78109 c 0,6.67271 -12.06935,6.67271 -12.06935,0 z m 126.19791,0 c 0,-6.67274 12.07135,-6.67274 12.07135,0 v 35.78109 c 0,6.67271 -12.07135,6.67271 -12.07135,0 z m -89.936,-51.37606 c 0,-4.94781 7.83992,-11.87905 12.74461,-11.87905 h 40.50539 c 4.88649,0.0285 12.69257,4.51713 12.69127,9.44518 0,0 -0.74197,17.19141 -7.19947,17.14963 -16.60146,-0.10756 -30.97311,0.0746 -52.68932,0 -5.26521,-0.0175 -6.054,-14.71563 -6.054,-14.71563 z M 268.4426,340.72168 c 0,6.67271 -12.06962,6.67271 -12.06962,0 v -35.78126 c 0,-6.67272 12.06962,-6.67272 12.06962,0 z m 63.21449,0 c 0,6.67271 -12.07238,6.67271 -12.07238,0 v -35.78126 c 0,-6.67272 12.07238,-6.67272 12.07238,0 z m 62.98515,0.0284 c 0,6.67271 -12.07145,6.64419 -12.07145,-0.0284 v -35.78126 c 0,-6.67272 12.07145,-6.67272 12.07145,0 z m 64.94037,-80.59879 c 0,4.56046 -3.66547,8.25721 -8.18747,8.25721 H 199.81681 c -10.86628,0 -10.9665,-17.56525 0,-17.6653 h 251.57833 c 4.96196,0.0569 8.77843,4.43974 8.18747,9.40852 z"
         id="path2-2" />
    </g>
  </g>
</svg>
